%TF.GenerationSoftware,KiCad,Pcbnew,7.0.7*%
%TF.CreationDate,2023-10-28T13:50:54-06:00*%
%TF.ProjectId,RatGDO-OpenSource,52617447-444f-42d4-9f70-656e536f7572,rev?*%
%TF.SameCoordinates,Original*%
%TF.FileFunction,Legend,Top*%
%TF.FilePolarity,Positive*%
%FSLAX46Y46*%
G04 Gerber Fmt 4.6, Leading zero omitted, Abs format (unit mm)*
G04 Created by KiCad (PCBNEW 7.0.7) date 2023-10-28 13:50:54*
%MOMM*%
%LPD*%
G01*
G04 APERTURE LIST*
%ADD10C,0.150000*%
%ADD11C,0.120000*%
G04 APERTURE END LIST*
D10*
X138792769Y-124235845D02*
X138935626Y-124283464D01*
X138935626Y-124283464D02*
X138983245Y-124331083D01*
X138983245Y-124331083D02*
X139030864Y-124426321D01*
X139030864Y-124426321D02*
X139030864Y-124569178D01*
X139030864Y-124569178D02*
X138983245Y-124664416D01*
X138983245Y-124664416D02*
X138935626Y-124712036D01*
X138935626Y-124712036D02*
X138840388Y-124759655D01*
X138840388Y-124759655D02*
X138459436Y-124759655D01*
X138459436Y-124759655D02*
X138459436Y-123759655D01*
X138459436Y-123759655D02*
X138792769Y-123759655D01*
X138792769Y-123759655D02*
X138888007Y-123807274D01*
X138888007Y-123807274D02*
X138935626Y-123854893D01*
X138935626Y-123854893D02*
X138983245Y-123950131D01*
X138983245Y-123950131D02*
X138983245Y-124045369D01*
X138983245Y-124045369D02*
X138935626Y-124140607D01*
X138935626Y-124140607D02*
X138888007Y-124188226D01*
X138888007Y-124188226D02*
X138792769Y-124235845D01*
X138792769Y-124235845D02*
X138459436Y-124235845D01*
X139935626Y-124759655D02*
X139459436Y-124759655D01*
X139459436Y-124759655D02*
X139459436Y-123759655D01*
X140268960Y-124759655D02*
X140268960Y-123759655D01*
X140840388Y-124759655D02*
X140411817Y-124188226D01*
X140840388Y-123759655D02*
X140268960Y-124331083D01*
X138173722Y-125369655D02*
X138364198Y-125369655D01*
X138364198Y-125369655D02*
X138459436Y-125417274D01*
X138459436Y-125417274D02*
X138554674Y-125512512D01*
X138554674Y-125512512D02*
X138602293Y-125702988D01*
X138602293Y-125702988D02*
X138602293Y-126036321D01*
X138602293Y-126036321D02*
X138554674Y-126226797D01*
X138554674Y-126226797D02*
X138459436Y-126322036D01*
X138459436Y-126322036D02*
X138364198Y-126369655D01*
X138364198Y-126369655D02*
X138173722Y-126369655D01*
X138173722Y-126369655D02*
X138078484Y-126322036D01*
X138078484Y-126322036D02*
X137983246Y-126226797D01*
X137983246Y-126226797D02*
X137935627Y-126036321D01*
X137935627Y-126036321D02*
X137935627Y-125702988D01*
X137935627Y-125702988D02*
X137983246Y-125512512D01*
X137983246Y-125512512D02*
X138078484Y-125417274D01*
X138078484Y-125417274D02*
X138173722Y-125369655D01*
X139364198Y-125845845D02*
X139507055Y-125893464D01*
X139507055Y-125893464D02*
X139554674Y-125941083D01*
X139554674Y-125941083D02*
X139602293Y-126036321D01*
X139602293Y-126036321D02*
X139602293Y-126179178D01*
X139602293Y-126179178D02*
X139554674Y-126274416D01*
X139554674Y-126274416D02*
X139507055Y-126322036D01*
X139507055Y-126322036D02*
X139411817Y-126369655D01*
X139411817Y-126369655D02*
X139030865Y-126369655D01*
X139030865Y-126369655D02*
X139030865Y-125369655D01*
X139030865Y-125369655D02*
X139364198Y-125369655D01*
X139364198Y-125369655D02*
X139459436Y-125417274D01*
X139459436Y-125417274D02*
X139507055Y-125464893D01*
X139507055Y-125464893D02*
X139554674Y-125560131D01*
X139554674Y-125560131D02*
X139554674Y-125655369D01*
X139554674Y-125655369D02*
X139507055Y-125750607D01*
X139507055Y-125750607D02*
X139459436Y-125798226D01*
X139459436Y-125798226D02*
X139364198Y-125845845D01*
X139364198Y-125845845D02*
X139030865Y-125845845D01*
X139983246Y-126322036D02*
X140126103Y-126369655D01*
X140126103Y-126369655D02*
X140364198Y-126369655D01*
X140364198Y-126369655D02*
X140459436Y-126322036D01*
X140459436Y-126322036D02*
X140507055Y-126274416D01*
X140507055Y-126274416D02*
X140554674Y-126179178D01*
X140554674Y-126179178D02*
X140554674Y-126083940D01*
X140554674Y-126083940D02*
X140507055Y-125988702D01*
X140507055Y-125988702D02*
X140459436Y-125941083D01*
X140459436Y-125941083D02*
X140364198Y-125893464D01*
X140364198Y-125893464D02*
X140173722Y-125845845D01*
X140173722Y-125845845D02*
X140078484Y-125798226D01*
X140078484Y-125798226D02*
X140030865Y-125750607D01*
X140030865Y-125750607D02*
X139983246Y-125655369D01*
X139983246Y-125655369D02*
X139983246Y-125560131D01*
X139983246Y-125560131D02*
X140030865Y-125464893D01*
X140030865Y-125464893D02*
X140078484Y-125417274D01*
X140078484Y-125417274D02*
X140173722Y-125369655D01*
X140173722Y-125369655D02*
X140411817Y-125369655D01*
X140411817Y-125369655D02*
X140554674Y-125417274D01*
X140840389Y-125369655D02*
X141411817Y-125369655D01*
X141126103Y-126369655D02*
X141126103Y-125369655D01*
X153432253Y-124165210D02*
X153575110Y-124212829D01*
X153575110Y-124212829D02*
X153622729Y-124260448D01*
X153622729Y-124260448D02*
X153670348Y-124355686D01*
X153670348Y-124355686D02*
X153670348Y-124498543D01*
X153670348Y-124498543D02*
X153622729Y-124593781D01*
X153622729Y-124593781D02*
X153575110Y-124641401D01*
X153575110Y-124641401D02*
X153479872Y-124689020D01*
X153479872Y-124689020D02*
X153098920Y-124689020D01*
X153098920Y-124689020D02*
X153098920Y-123689020D01*
X153098920Y-123689020D02*
X153432253Y-123689020D01*
X153432253Y-123689020D02*
X153527491Y-123736639D01*
X153527491Y-123736639D02*
X153575110Y-123784258D01*
X153575110Y-123784258D02*
X153622729Y-123879496D01*
X153622729Y-123879496D02*
X153622729Y-123974734D01*
X153622729Y-123974734D02*
X153575110Y-124069972D01*
X153575110Y-124069972D02*
X153527491Y-124117591D01*
X153527491Y-124117591D02*
X153432253Y-124165210D01*
X153432253Y-124165210D02*
X153098920Y-124165210D01*
X154575110Y-124689020D02*
X154098920Y-124689020D01*
X154098920Y-124689020D02*
X154098920Y-123689020D01*
X154908444Y-124689020D02*
X154908444Y-123689020D01*
X155479872Y-124689020D02*
X155051301Y-124117591D01*
X155479872Y-123689020D02*
X154908444Y-124260448D01*
X152813206Y-125299020D02*
X153003682Y-125299020D01*
X153003682Y-125299020D02*
X153098920Y-125346639D01*
X153098920Y-125346639D02*
X153194158Y-125441877D01*
X153194158Y-125441877D02*
X153241777Y-125632353D01*
X153241777Y-125632353D02*
X153241777Y-125965686D01*
X153241777Y-125965686D02*
X153194158Y-126156162D01*
X153194158Y-126156162D02*
X153098920Y-126251401D01*
X153098920Y-126251401D02*
X153003682Y-126299020D01*
X153003682Y-126299020D02*
X152813206Y-126299020D01*
X152813206Y-126299020D02*
X152717968Y-126251401D01*
X152717968Y-126251401D02*
X152622730Y-126156162D01*
X152622730Y-126156162D02*
X152575111Y-125965686D01*
X152575111Y-125965686D02*
X152575111Y-125632353D01*
X152575111Y-125632353D02*
X152622730Y-125441877D01*
X152622730Y-125441877D02*
X152717968Y-125346639D01*
X152717968Y-125346639D02*
X152813206Y-125299020D01*
X154003682Y-125775210D02*
X154146539Y-125822829D01*
X154146539Y-125822829D02*
X154194158Y-125870448D01*
X154194158Y-125870448D02*
X154241777Y-125965686D01*
X154241777Y-125965686D02*
X154241777Y-126108543D01*
X154241777Y-126108543D02*
X154194158Y-126203781D01*
X154194158Y-126203781D02*
X154146539Y-126251401D01*
X154146539Y-126251401D02*
X154051301Y-126299020D01*
X154051301Y-126299020D02*
X153670349Y-126299020D01*
X153670349Y-126299020D02*
X153670349Y-125299020D01*
X153670349Y-125299020D02*
X154003682Y-125299020D01*
X154003682Y-125299020D02*
X154098920Y-125346639D01*
X154098920Y-125346639D02*
X154146539Y-125394258D01*
X154146539Y-125394258D02*
X154194158Y-125489496D01*
X154194158Y-125489496D02*
X154194158Y-125584734D01*
X154194158Y-125584734D02*
X154146539Y-125679972D01*
X154146539Y-125679972D02*
X154098920Y-125727591D01*
X154098920Y-125727591D02*
X154003682Y-125775210D01*
X154003682Y-125775210D02*
X153670349Y-125775210D01*
X154622730Y-126251401D02*
X154765587Y-126299020D01*
X154765587Y-126299020D02*
X155003682Y-126299020D01*
X155003682Y-126299020D02*
X155098920Y-126251401D01*
X155098920Y-126251401D02*
X155146539Y-126203781D01*
X155146539Y-126203781D02*
X155194158Y-126108543D01*
X155194158Y-126108543D02*
X155194158Y-126013305D01*
X155194158Y-126013305D02*
X155146539Y-125918067D01*
X155146539Y-125918067D02*
X155098920Y-125870448D01*
X155098920Y-125870448D02*
X155003682Y-125822829D01*
X155003682Y-125822829D02*
X154813206Y-125775210D01*
X154813206Y-125775210D02*
X154717968Y-125727591D01*
X154717968Y-125727591D02*
X154670349Y-125679972D01*
X154670349Y-125679972D02*
X154622730Y-125584734D01*
X154622730Y-125584734D02*
X154622730Y-125489496D01*
X154622730Y-125489496D02*
X154670349Y-125394258D01*
X154670349Y-125394258D02*
X154717968Y-125346639D01*
X154717968Y-125346639D02*
X154813206Y-125299020D01*
X154813206Y-125299020D02*
X155051301Y-125299020D01*
X155051301Y-125299020D02*
X155194158Y-125346639D01*
X155479873Y-125299020D02*
X156051301Y-125299020D01*
X155765587Y-126299020D02*
X155765587Y-125299020D01*
X149624538Y-124689020D02*
X149291205Y-124212829D01*
X149053110Y-124689020D02*
X149053110Y-123689020D01*
X149053110Y-123689020D02*
X149434062Y-123689020D01*
X149434062Y-123689020D02*
X149529300Y-123736639D01*
X149529300Y-123736639D02*
X149576919Y-123784258D01*
X149576919Y-123784258D02*
X149624538Y-123879496D01*
X149624538Y-123879496D02*
X149624538Y-124022353D01*
X149624538Y-124022353D02*
X149576919Y-124117591D01*
X149576919Y-124117591D02*
X149529300Y-124165210D01*
X149529300Y-124165210D02*
X149434062Y-124212829D01*
X149434062Y-124212829D02*
X149053110Y-124212829D01*
X150053110Y-124165210D02*
X150386443Y-124165210D01*
X150529300Y-124689020D02*
X150053110Y-124689020D01*
X150053110Y-124689020D02*
X150053110Y-123689020D01*
X150053110Y-123689020D02*
X150529300Y-123689020D01*
X150957872Y-124689020D02*
X150957872Y-123689020D01*
X150957872Y-123689020D02*
X151195967Y-123689020D01*
X151195967Y-123689020D02*
X151338824Y-123736639D01*
X151338824Y-123736639D02*
X151434062Y-123831877D01*
X151434062Y-123831877D02*
X151481681Y-123927115D01*
X151481681Y-123927115D02*
X151529300Y-124117591D01*
X151529300Y-124117591D02*
X151529300Y-124260448D01*
X151529300Y-124260448D02*
X151481681Y-124450924D01*
X151481681Y-124450924D02*
X151434062Y-124546162D01*
X151434062Y-124546162D02*
X151338824Y-124641401D01*
X151338824Y-124641401D02*
X151195967Y-124689020D01*
X151195967Y-124689020D02*
X150957872Y-124689020D01*
X149291205Y-126203781D02*
X149243586Y-126251401D01*
X149243586Y-126251401D02*
X149100729Y-126299020D01*
X149100729Y-126299020D02*
X149005491Y-126299020D01*
X149005491Y-126299020D02*
X148862634Y-126251401D01*
X148862634Y-126251401D02*
X148767396Y-126156162D01*
X148767396Y-126156162D02*
X148719777Y-126060924D01*
X148719777Y-126060924D02*
X148672158Y-125870448D01*
X148672158Y-125870448D02*
X148672158Y-125727591D01*
X148672158Y-125727591D02*
X148719777Y-125537115D01*
X148719777Y-125537115D02*
X148767396Y-125441877D01*
X148767396Y-125441877D02*
X148862634Y-125346639D01*
X148862634Y-125346639D02*
X149005491Y-125299020D01*
X149005491Y-125299020D02*
X149100729Y-125299020D01*
X149100729Y-125299020D02*
X149243586Y-125346639D01*
X149243586Y-125346639D02*
X149291205Y-125394258D01*
X149576920Y-125299020D02*
X150148348Y-125299020D01*
X149862634Y-126299020D02*
X149862634Y-125299020D01*
X151053110Y-126299020D02*
X150719777Y-125822829D01*
X150481682Y-126299020D02*
X150481682Y-125299020D01*
X150481682Y-125299020D02*
X150862634Y-125299020D01*
X150862634Y-125299020D02*
X150957872Y-125346639D01*
X150957872Y-125346639D02*
X151005491Y-125394258D01*
X151005491Y-125394258D02*
X151053110Y-125489496D01*
X151053110Y-125489496D02*
X151053110Y-125632353D01*
X151053110Y-125632353D02*
X151005491Y-125727591D01*
X151005491Y-125727591D02*
X150957872Y-125775210D01*
X150957872Y-125775210D02*
X150862634Y-125822829D01*
X150862634Y-125822829D02*
X150481682Y-125822829D01*
X151957872Y-126299020D02*
X151481682Y-126299020D01*
X151481682Y-126299020D02*
X151481682Y-125299020D01*
X133903245Y-124759655D02*
X133569912Y-124283464D01*
X133331817Y-124759655D02*
X133331817Y-123759655D01*
X133331817Y-123759655D02*
X133712769Y-123759655D01*
X133712769Y-123759655D02*
X133808007Y-123807274D01*
X133808007Y-123807274D02*
X133855626Y-123854893D01*
X133855626Y-123854893D02*
X133903245Y-123950131D01*
X133903245Y-123950131D02*
X133903245Y-124092988D01*
X133903245Y-124092988D02*
X133855626Y-124188226D01*
X133855626Y-124188226D02*
X133808007Y-124235845D01*
X133808007Y-124235845D02*
X133712769Y-124283464D01*
X133712769Y-124283464D02*
X133331817Y-124283464D01*
X134331817Y-124235845D02*
X134665150Y-124235845D01*
X134808007Y-124759655D02*
X134331817Y-124759655D01*
X134331817Y-124759655D02*
X134331817Y-123759655D01*
X134331817Y-123759655D02*
X134808007Y-123759655D01*
X135236579Y-124759655D02*
X135236579Y-123759655D01*
X135236579Y-123759655D02*
X135474674Y-123759655D01*
X135474674Y-123759655D02*
X135617531Y-123807274D01*
X135617531Y-123807274D02*
X135712769Y-123902512D01*
X135712769Y-123902512D02*
X135760388Y-123997750D01*
X135760388Y-123997750D02*
X135808007Y-124188226D01*
X135808007Y-124188226D02*
X135808007Y-124331083D01*
X135808007Y-124331083D02*
X135760388Y-124521559D01*
X135760388Y-124521559D02*
X135712769Y-124616797D01*
X135712769Y-124616797D02*
X135617531Y-124712036D01*
X135617531Y-124712036D02*
X135474674Y-124759655D01*
X135474674Y-124759655D02*
X135236579Y-124759655D01*
X133569912Y-126274416D02*
X133522293Y-126322036D01*
X133522293Y-126322036D02*
X133379436Y-126369655D01*
X133379436Y-126369655D02*
X133284198Y-126369655D01*
X133284198Y-126369655D02*
X133141341Y-126322036D01*
X133141341Y-126322036D02*
X133046103Y-126226797D01*
X133046103Y-126226797D02*
X132998484Y-126131559D01*
X132998484Y-126131559D02*
X132950865Y-125941083D01*
X132950865Y-125941083D02*
X132950865Y-125798226D01*
X132950865Y-125798226D02*
X132998484Y-125607750D01*
X132998484Y-125607750D02*
X133046103Y-125512512D01*
X133046103Y-125512512D02*
X133141341Y-125417274D01*
X133141341Y-125417274D02*
X133284198Y-125369655D01*
X133284198Y-125369655D02*
X133379436Y-125369655D01*
X133379436Y-125369655D02*
X133522293Y-125417274D01*
X133522293Y-125417274D02*
X133569912Y-125464893D01*
X133855627Y-125369655D02*
X134427055Y-125369655D01*
X134141341Y-126369655D02*
X134141341Y-125369655D01*
X135331817Y-126369655D02*
X134998484Y-125893464D01*
X134760389Y-126369655D02*
X134760389Y-125369655D01*
X134760389Y-125369655D02*
X135141341Y-125369655D01*
X135141341Y-125369655D02*
X135236579Y-125417274D01*
X135236579Y-125417274D02*
X135284198Y-125464893D01*
X135284198Y-125464893D02*
X135331817Y-125560131D01*
X135331817Y-125560131D02*
X135331817Y-125702988D01*
X135331817Y-125702988D02*
X135284198Y-125798226D01*
X135284198Y-125798226D02*
X135236579Y-125845845D01*
X135236579Y-125845845D02*
X135141341Y-125893464D01*
X135141341Y-125893464D02*
X134760389Y-125893464D01*
X136236579Y-126369655D02*
X135760389Y-126369655D01*
X135760389Y-126369655D02*
X135760389Y-125369655D01*
X144984043Y-123689020D02*
X145222138Y-124689020D01*
X145222138Y-124689020D02*
X145412614Y-123974734D01*
X145412614Y-123974734D02*
X145603090Y-124689020D01*
X145603090Y-124689020D02*
X145841186Y-123689020D01*
X146222138Y-124689020D02*
X146222138Y-123689020D01*
X146222138Y-124165210D02*
X146793566Y-124165210D01*
X146793566Y-124689020D02*
X146793566Y-123689020D01*
X147126900Y-123689020D02*
X147698328Y-123689020D01*
X147412614Y-124689020D02*
X147412614Y-123689020D01*
X145555471Y-125346639D02*
X145460233Y-125299020D01*
X145460233Y-125299020D02*
X145317376Y-125299020D01*
X145317376Y-125299020D02*
X145174519Y-125346639D01*
X145174519Y-125346639D02*
X145079281Y-125441877D01*
X145079281Y-125441877D02*
X145031662Y-125537115D01*
X145031662Y-125537115D02*
X144984043Y-125727591D01*
X144984043Y-125727591D02*
X144984043Y-125870448D01*
X144984043Y-125870448D02*
X145031662Y-126060924D01*
X145031662Y-126060924D02*
X145079281Y-126156162D01*
X145079281Y-126156162D02*
X145174519Y-126251401D01*
X145174519Y-126251401D02*
X145317376Y-126299020D01*
X145317376Y-126299020D02*
X145412614Y-126299020D01*
X145412614Y-126299020D02*
X145555471Y-126251401D01*
X145555471Y-126251401D02*
X145603090Y-126203781D01*
X145603090Y-126203781D02*
X145603090Y-125870448D01*
X145603090Y-125870448D02*
X145412614Y-125870448D01*
X146031662Y-126299020D02*
X146031662Y-125299020D01*
X146031662Y-125299020D02*
X146603090Y-126299020D01*
X146603090Y-126299020D02*
X146603090Y-125299020D01*
X147079281Y-126299020D02*
X147079281Y-125299020D01*
X147079281Y-125299020D02*
X147317376Y-125299020D01*
X147317376Y-125299020D02*
X147460233Y-125346639D01*
X147460233Y-125346639D02*
X147555471Y-125441877D01*
X147555471Y-125441877D02*
X147603090Y-125537115D01*
X147603090Y-125537115D02*
X147650709Y-125727591D01*
X147650709Y-125727591D02*
X147650709Y-125870448D01*
X147650709Y-125870448D02*
X147603090Y-126060924D01*
X147603090Y-126060924D02*
X147555471Y-126156162D01*
X147555471Y-126156162D02*
X147460233Y-126251401D01*
X147460233Y-126251401D02*
X147317376Y-126299020D01*
X147317376Y-126299020D02*
X147079281Y-126299020D01*
X128132770Y-123759655D02*
X128370865Y-124759655D01*
X128370865Y-124759655D02*
X128561341Y-124045369D01*
X128561341Y-124045369D02*
X128751817Y-124759655D01*
X128751817Y-124759655D02*
X128989913Y-123759655D01*
X129370865Y-124759655D02*
X129370865Y-123759655D01*
X129370865Y-124235845D02*
X129942293Y-124235845D01*
X129942293Y-124759655D02*
X129942293Y-123759655D01*
X130275627Y-123759655D02*
X130847055Y-123759655D01*
X130561341Y-124759655D02*
X130561341Y-123759655D01*
X128704198Y-125417274D02*
X128608960Y-125369655D01*
X128608960Y-125369655D02*
X128466103Y-125369655D01*
X128466103Y-125369655D02*
X128323246Y-125417274D01*
X128323246Y-125417274D02*
X128228008Y-125512512D01*
X128228008Y-125512512D02*
X128180389Y-125607750D01*
X128180389Y-125607750D02*
X128132770Y-125798226D01*
X128132770Y-125798226D02*
X128132770Y-125941083D01*
X128132770Y-125941083D02*
X128180389Y-126131559D01*
X128180389Y-126131559D02*
X128228008Y-126226797D01*
X128228008Y-126226797D02*
X128323246Y-126322036D01*
X128323246Y-126322036D02*
X128466103Y-126369655D01*
X128466103Y-126369655D02*
X128561341Y-126369655D01*
X128561341Y-126369655D02*
X128704198Y-126322036D01*
X128704198Y-126322036D02*
X128751817Y-126274416D01*
X128751817Y-126274416D02*
X128751817Y-125941083D01*
X128751817Y-125941083D02*
X128561341Y-125941083D01*
X129180389Y-126369655D02*
X129180389Y-125369655D01*
X129180389Y-125369655D02*
X129751817Y-126369655D01*
X129751817Y-126369655D02*
X129751817Y-125369655D01*
X130228008Y-126369655D02*
X130228008Y-125369655D01*
X130228008Y-125369655D02*
X130466103Y-125369655D01*
X130466103Y-125369655D02*
X130608960Y-125417274D01*
X130608960Y-125417274D02*
X130704198Y-125512512D01*
X130704198Y-125512512D02*
X130751817Y-125607750D01*
X130751817Y-125607750D02*
X130799436Y-125798226D01*
X130799436Y-125798226D02*
X130799436Y-125941083D01*
X130799436Y-125941083D02*
X130751817Y-126131559D01*
X130751817Y-126131559D02*
X130704198Y-126226797D01*
X130704198Y-126226797D02*
X130608960Y-126322036D01*
X130608960Y-126322036D02*
X130466103Y-126369655D01*
X130466103Y-126369655D02*
X130228008Y-126369655D01*
X126208093Y-94684580D02*
X126160474Y-94732200D01*
X126160474Y-94732200D02*
X126017617Y-94779819D01*
X126017617Y-94779819D02*
X125922379Y-94779819D01*
X125922379Y-94779819D02*
X125779522Y-94732200D01*
X125779522Y-94732200D02*
X125684284Y-94636961D01*
X125684284Y-94636961D02*
X125636665Y-94541723D01*
X125636665Y-94541723D02*
X125589046Y-94351247D01*
X125589046Y-94351247D02*
X125589046Y-94208390D01*
X125589046Y-94208390D02*
X125636665Y-94017914D01*
X125636665Y-94017914D02*
X125684284Y-93922676D01*
X125684284Y-93922676D02*
X125779522Y-93827438D01*
X125779522Y-93827438D02*
X125922379Y-93779819D01*
X125922379Y-93779819D02*
X126017617Y-93779819D01*
X126017617Y-93779819D02*
X126160474Y-93827438D01*
X126160474Y-93827438D02*
X126208093Y-93875057D01*
X126636665Y-94779819D02*
X126636665Y-93779819D01*
X127065236Y-94779819D02*
X127065236Y-94256009D01*
X127065236Y-94256009D02*
X127017617Y-94160771D01*
X127017617Y-94160771D02*
X126922379Y-94113152D01*
X126922379Y-94113152D02*
X126779522Y-94113152D01*
X126779522Y-94113152D02*
X126684284Y-94160771D01*
X126684284Y-94160771D02*
X126636665Y-94208390D01*
X127684284Y-94779819D02*
X127589046Y-94732200D01*
X127589046Y-94732200D02*
X127541427Y-94684580D01*
X127541427Y-94684580D02*
X127493808Y-94589342D01*
X127493808Y-94589342D02*
X127493808Y-94303628D01*
X127493808Y-94303628D02*
X127541427Y-94208390D01*
X127541427Y-94208390D02*
X127589046Y-94160771D01*
X127589046Y-94160771D02*
X127684284Y-94113152D01*
X127684284Y-94113152D02*
X127827141Y-94113152D01*
X127827141Y-94113152D02*
X127922379Y-94160771D01*
X127922379Y-94160771D02*
X127969998Y-94208390D01*
X127969998Y-94208390D02*
X128017617Y-94303628D01*
X128017617Y-94303628D02*
X128017617Y-94589342D01*
X128017617Y-94589342D02*
X127969998Y-94684580D01*
X127969998Y-94684580D02*
X127922379Y-94732200D01*
X127922379Y-94732200D02*
X127827141Y-94779819D01*
X127827141Y-94779819D02*
X127684284Y-94779819D01*
X128589046Y-94779819D02*
X128493808Y-94732200D01*
X128493808Y-94732200D02*
X128446189Y-94684580D01*
X128446189Y-94684580D02*
X128398570Y-94589342D01*
X128398570Y-94589342D02*
X128398570Y-94303628D01*
X128398570Y-94303628D02*
X128446189Y-94208390D01*
X128446189Y-94208390D02*
X128493808Y-94160771D01*
X128493808Y-94160771D02*
X128589046Y-94113152D01*
X128589046Y-94113152D02*
X128731903Y-94113152D01*
X128731903Y-94113152D02*
X128827141Y-94160771D01*
X128827141Y-94160771D02*
X128874760Y-94208390D01*
X128874760Y-94208390D02*
X128922379Y-94303628D01*
X128922379Y-94303628D02*
X128922379Y-94589342D01*
X128922379Y-94589342D02*
X128874760Y-94684580D01*
X128874760Y-94684580D02*
X128827141Y-94732200D01*
X128827141Y-94732200D02*
X128731903Y-94779819D01*
X128731903Y-94779819D02*
X128589046Y-94779819D01*
X129303332Y-94732200D02*
X129398570Y-94779819D01*
X129398570Y-94779819D02*
X129589046Y-94779819D01*
X129589046Y-94779819D02*
X129684284Y-94732200D01*
X129684284Y-94732200D02*
X129731903Y-94636961D01*
X129731903Y-94636961D02*
X129731903Y-94589342D01*
X129731903Y-94589342D02*
X129684284Y-94494104D01*
X129684284Y-94494104D02*
X129589046Y-94446485D01*
X129589046Y-94446485D02*
X129446189Y-94446485D01*
X129446189Y-94446485D02*
X129350951Y-94398866D01*
X129350951Y-94398866D02*
X129303332Y-94303628D01*
X129303332Y-94303628D02*
X129303332Y-94256009D01*
X129303332Y-94256009D02*
X129350951Y-94160771D01*
X129350951Y-94160771D02*
X129446189Y-94113152D01*
X129446189Y-94113152D02*
X129589046Y-94113152D01*
X129589046Y-94113152D02*
X129684284Y-94160771D01*
X130541427Y-94732200D02*
X130446189Y-94779819D01*
X130446189Y-94779819D02*
X130255713Y-94779819D01*
X130255713Y-94779819D02*
X130160475Y-94732200D01*
X130160475Y-94732200D02*
X130112856Y-94636961D01*
X130112856Y-94636961D02*
X130112856Y-94256009D01*
X130112856Y-94256009D02*
X130160475Y-94160771D01*
X130160475Y-94160771D02*
X130255713Y-94113152D01*
X130255713Y-94113152D02*
X130446189Y-94113152D01*
X130446189Y-94113152D02*
X130541427Y-94160771D01*
X130541427Y-94160771D02*
X130589046Y-94256009D01*
X130589046Y-94256009D02*
X130589046Y-94351247D01*
X130589046Y-94351247D02*
X130112856Y-94446485D01*
X131731904Y-94732200D02*
X131874761Y-94779819D01*
X131874761Y-94779819D02*
X132112856Y-94779819D01*
X132112856Y-94779819D02*
X132208094Y-94732200D01*
X132208094Y-94732200D02*
X132255713Y-94684580D01*
X132255713Y-94684580D02*
X132303332Y-94589342D01*
X132303332Y-94589342D02*
X132303332Y-94494104D01*
X132303332Y-94494104D02*
X132255713Y-94398866D01*
X132255713Y-94398866D02*
X132208094Y-94351247D01*
X132208094Y-94351247D02*
X132112856Y-94303628D01*
X132112856Y-94303628D02*
X131922380Y-94256009D01*
X131922380Y-94256009D02*
X131827142Y-94208390D01*
X131827142Y-94208390D02*
X131779523Y-94160771D01*
X131779523Y-94160771D02*
X131731904Y-94065533D01*
X131731904Y-94065533D02*
X131731904Y-93970295D01*
X131731904Y-93970295D02*
X131779523Y-93875057D01*
X131779523Y-93875057D02*
X131827142Y-93827438D01*
X131827142Y-93827438D02*
X131922380Y-93779819D01*
X131922380Y-93779819D02*
X132160475Y-93779819D01*
X132160475Y-93779819D02*
X132303332Y-93827438D01*
X132731904Y-94779819D02*
X132731904Y-93779819D01*
X132731904Y-93779819D02*
X133065237Y-94494104D01*
X133065237Y-94494104D02*
X133398570Y-93779819D01*
X133398570Y-93779819D02*
X133398570Y-94779819D01*
X133874761Y-94779819D02*
X133874761Y-93779819D01*
X133874761Y-93779819D02*
X134112856Y-93779819D01*
X134112856Y-93779819D02*
X134255713Y-93827438D01*
X134255713Y-93827438D02*
X134350951Y-93922676D01*
X134350951Y-93922676D02*
X134398570Y-94017914D01*
X134398570Y-94017914D02*
X134446189Y-94208390D01*
X134446189Y-94208390D02*
X134446189Y-94351247D01*
X134446189Y-94351247D02*
X134398570Y-94541723D01*
X134398570Y-94541723D02*
X134350951Y-94636961D01*
X134350951Y-94636961D02*
X134255713Y-94732200D01*
X134255713Y-94732200D02*
X134112856Y-94779819D01*
X134112856Y-94779819D02*
X133874761Y-94779819D01*
X135779523Y-94779819D02*
X135684285Y-94732200D01*
X135684285Y-94732200D02*
X135636666Y-94684580D01*
X135636666Y-94684580D02*
X135589047Y-94589342D01*
X135589047Y-94589342D02*
X135589047Y-94303628D01*
X135589047Y-94303628D02*
X135636666Y-94208390D01*
X135636666Y-94208390D02*
X135684285Y-94160771D01*
X135684285Y-94160771D02*
X135779523Y-94113152D01*
X135779523Y-94113152D02*
X135922380Y-94113152D01*
X135922380Y-94113152D02*
X136017618Y-94160771D01*
X136017618Y-94160771D02*
X136065237Y-94208390D01*
X136065237Y-94208390D02*
X136112856Y-94303628D01*
X136112856Y-94303628D02*
X136112856Y-94589342D01*
X136112856Y-94589342D02*
X136065237Y-94684580D01*
X136065237Y-94684580D02*
X136017618Y-94732200D01*
X136017618Y-94732200D02*
X135922380Y-94779819D01*
X135922380Y-94779819D02*
X135779523Y-94779819D01*
X136541428Y-94779819D02*
X136541428Y-94113152D01*
X136541428Y-94303628D02*
X136589047Y-94208390D01*
X136589047Y-94208390D02*
X136636666Y-94160771D01*
X136636666Y-94160771D02*
X136731904Y-94113152D01*
X136731904Y-94113152D02*
X136827142Y-94113152D01*
X137779524Y-93779819D02*
X138350952Y-93779819D01*
X138065238Y-94779819D02*
X138065238Y-93779819D01*
X138684286Y-94779819D02*
X138684286Y-93779819D01*
X139112857Y-94779819D02*
X139112857Y-94256009D01*
X139112857Y-94256009D02*
X139065238Y-94160771D01*
X139065238Y-94160771D02*
X138970000Y-94113152D01*
X138970000Y-94113152D02*
X138827143Y-94113152D01*
X138827143Y-94113152D02*
X138731905Y-94160771D01*
X138731905Y-94160771D02*
X138684286Y-94208390D01*
X139589048Y-94779819D02*
X139589048Y-94113152D01*
X139589048Y-94303628D02*
X139636667Y-94208390D01*
X139636667Y-94208390D02*
X139684286Y-94160771D01*
X139684286Y-94160771D02*
X139779524Y-94113152D01*
X139779524Y-94113152D02*
X139874762Y-94113152D01*
X140350953Y-94779819D02*
X140255715Y-94732200D01*
X140255715Y-94732200D02*
X140208096Y-94684580D01*
X140208096Y-94684580D02*
X140160477Y-94589342D01*
X140160477Y-94589342D02*
X140160477Y-94303628D01*
X140160477Y-94303628D02*
X140208096Y-94208390D01*
X140208096Y-94208390D02*
X140255715Y-94160771D01*
X140255715Y-94160771D02*
X140350953Y-94113152D01*
X140350953Y-94113152D02*
X140493810Y-94113152D01*
X140493810Y-94113152D02*
X140589048Y-94160771D01*
X140589048Y-94160771D02*
X140636667Y-94208390D01*
X140636667Y-94208390D02*
X140684286Y-94303628D01*
X140684286Y-94303628D02*
X140684286Y-94589342D01*
X140684286Y-94589342D02*
X140636667Y-94684580D01*
X140636667Y-94684580D02*
X140589048Y-94732200D01*
X140589048Y-94732200D02*
X140493810Y-94779819D01*
X140493810Y-94779819D02*
X140350953Y-94779819D01*
X141541429Y-94113152D02*
X141541429Y-94779819D01*
X141112858Y-94113152D02*
X141112858Y-94636961D01*
X141112858Y-94636961D02*
X141160477Y-94732200D01*
X141160477Y-94732200D02*
X141255715Y-94779819D01*
X141255715Y-94779819D02*
X141398572Y-94779819D01*
X141398572Y-94779819D02*
X141493810Y-94732200D01*
X141493810Y-94732200D02*
X141541429Y-94684580D01*
X142446191Y-94113152D02*
X142446191Y-94922676D01*
X142446191Y-94922676D02*
X142398572Y-95017914D01*
X142398572Y-95017914D02*
X142350953Y-95065533D01*
X142350953Y-95065533D02*
X142255715Y-95113152D01*
X142255715Y-95113152D02*
X142112858Y-95113152D01*
X142112858Y-95113152D02*
X142017620Y-95065533D01*
X142446191Y-94732200D02*
X142350953Y-94779819D01*
X142350953Y-94779819D02*
X142160477Y-94779819D01*
X142160477Y-94779819D02*
X142065239Y-94732200D01*
X142065239Y-94732200D02*
X142017620Y-94684580D01*
X142017620Y-94684580D02*
X141970001Y-94589342D01*
X141970001Y-94589342D02*
X141970001Y-94303628D01*
X141970001Y-94303628D02*
X142017620Y-94208390D01*
X142017620Y-94208390D02*
X142065239Y-94160771D01*
X142065239Y-94160771D02*
X142160477Y-94113152D01*
X142160477Y-94113152D02*
X142350953Y-94113152D01*
X142350953Y-94113152D02*
X142446191Y-94160771D01*
X142922382Y-94779819D02*
X142922382Y-93779819D01*
X143350953Y-94779819D02*
X143350953Y-94256009D01*
X143350953Y-94256009D02*
X143303334Y-94160771D01*
X143303334Y-94160771D02*
X143208096Y-94113152D01*
X143208096Y-94113152D02*
X143065239Y-94113152D01*
X143065239Y-94113152D02*
X142970001Y-94160771D01*
X142970001Y-94160771D02*
X142922382Y-94208390D01*
X143827144Y-94398866D02*
X144589049Y-94398866D01*
X145065239Y-94779819D02*
X145065239Y-93779819D01*
X145065239Y-94256009D02*
X145636667Y-94256009D01*
X145636667Y-94779819D02*
X145636667Y-93779819D01*
X146255715Y-94779819D02*
X146160477Y-94732200D01*
X146160477Y-94732200D02*
X146112858Y-94684580D01*
X146112858Y-94684580D02*
X146065239Y-94589342D01*
X146065239Y-94589342D02*
X146065239Y-94303628D01*
X146065239Y-94303628D02*
X146112858Y-94208390D01*
X146112858Y-94208390D02*
X146160477Y-94160771D01*
X146160477Y-94160771D02*
X146255715Y-94113152D01*
X146255715Y-94113152D02*
X146398572Y-94113152D01*
X146398572Y-94113152D02*
X146493810Y-94160771D01*
X146493810Y-94160771D02*
X146541429Y-94208390D01*
X146541429Y-94208390D02*
X146589048Y-94303628D01*
X146589048Y-94303628D02*
X146589048Y-94589342D01*
X146589048Y-94589342D02*
X146541429Y-94684580D01*
X146541429Y-94684580D02*
X146493810Y-94732200D01*
X146493810Y-94732200D02*
X146398572Y-94779819D01*
X146398572Y-94779819D02*
X146255715Y-94779819D01*
X147160477Y-94779819D02*
X147065239Y-94732200D01*
X147065239Y-94732200D02*
X147017620Y-94636961D01*
X147017620Y-94636961D02*
X147017620Y-93779819D01*
X147922382Y-94732200D02*
X147827144Y-94779819D01*
X147827144Y-94779819D02*
X147636668Y-94779819D01*
X147636668Y-94779819D02*
X147541430Y-94732200D01*
X147541430Y-94732200D02*
X147493811Y-94636961D01*
X147493811Y-94636961D02*
X147493811Y-94256009D01*
X147493811Y-94256009D02*
X147541430Y-94160771D01*
X147541430Y-94160771D02*
X147636668Y-94113152D01*
X147636668Y-94113152D02*
X147827144Y-94113152D01*
X147827144Y-94113152D02*
X147922382Y-94160771D01*
X147922382Y-94160771D02*
X147970001Y-94256009D01*
X147970001Y-94256009D02*
X147970001Y-94351247D01*
X147970001Y-94351247D02*
X147493811Y-94446485D01*
X149731906Y-94684580D02*
X149684287Y-94732200D01*
X149684287Y-94732200D02*
X149541430Y-94779819D01*
X149541430Y-94779819D02*
X149446192Y-94779819D01*
X149446192Y-94779819D02*
X149303335Y-94732200D01*
X149303335Y-94732200D02*
X149208097Y-94636961D01*
X149208097Y-94636961D02*
X149160478Y-94541723D01*
X149160478Y-94541723D02*
X149112859Y-94351247D01*
X149112859Y-94351247D02*
X149112859Y-94208390D01*
X149112859Y-94208390D02*
X149160478Y-94017914D01*
X149160478Y-94017914D02*
X149208097Y-93922676D01*
X149208097Y-93922676D02*
X149303335Y-93827438D01*
X149303335Y-93827438D02*
X149446192Y-93779819D01*
X149446192Y-93779819D02*
X149541430Y-93779819D01*
X149541430Y-93779819D02*
X149684287Y-93827438D01*
X149684287Y-93827438D02*
X149731906Y-93875057D01*
X150589049Y-94779819D02*
X150589049Y-94256009D01*
X150589049Y-94256009D02*
X150541430Y-94160771D01*
X150541430Y-94160771D02*
X150446192Y-94113152D01*
X150446192Y-94113152D02*
X150255716Y-94113152D01*
X150255716Y-94113152D02*
X150160478Y-94160771D01*
X150589049Y-94732200D02*
X150493811Y-94779819D01*
X150493811Y-94779819D02*
X150255716Y-94779819D01*
X150255716Y-94779819D02*
X150160478Y-94732200D01*
X150160478Y-94732200D02*
X150112859Y-94636961D01*
X150112859Y-94636961D02*
X150112859Y-94541723D01*
X150112859Y-94541723D02*
X150160478Y-94446485D01*
X150160478Y-94446485D02*
X150255716Y-94398866D01*
X150255716Y-94398866D02*
X150493811Y-94398866D01*
X150493811Y-94398866D02*
X150589049Y-94351247D01*
X151065240Y-94113152D02*
X151065240Y-95113152D01*
X151065240Y-94160771D02*
X151160478Y-94113152D01*
X151160478Y-94113152D02*
X151350954Y-94113152D01*
X151350954Y-94113152D02*
X151446192Y-94160771D01*
X151446192Y-94160771D02*
X151493811Y-94208390D01*
X151493811Y-94208390D02*
X151541430Y-94303628D01*
X151541430Y-94303628D02*
X151541430Y-94589342D01*
X151541430Y-94589342D02*
X151493811Y-94684580D01*
X151493811Y-94684580D02*
X151446192Y-94732200D01*
X151446192Y-94732200D02*
X151350954Y-94779819D01*
X151350954Y-94779819D02*
X151160478Y-94779819D01*
X151160478Y-94779819D02*
X151065240Y-94732200D01*
X152398573Y-94779819D02*
X152398573Y-94256009D01*
X152398573Y-94256009D02*
X152350954Y-94160771D01*
X152350954Y-94160771D02*
X152255716Y-94113152D01*
X152255716Y-94113152D02*
X152065240Y-94113152D01*
X152065240Y-94113152D02*
X151970002Y-94160771D01*
X152398573Y-94732200D02*
X152303335Y-94779819D01*
X152303335Y-94779819D02*
X152065240Y-94779819D01*
X152065240Y-94779819D02*
X151970002Y-94732200D01*
X151970002Y-94732200D02*
X151922383Y-94636961D01*
X151922383Y-94636961D02*
X151922383Y-94541723D01*
X151922383Y-94541723D02*
X151970002Y-94446485D01*
X151970002Y-94446485D02*
X152065240Y-94398866D01*
X152065240Y-94398866D02*
X152303335Y-94398866D01*
X152303335Y-94398866D02*
X152398573Y-94351247D01*
X153303335Y-94732200D02*
X153208097Y-94779819D01*
X153208097Y-94779819D02*
X153017621Y-94779819D01*
X153017621Y-94779819D02*
X152922383Y-94732200D01*
X152922383Y-94732200D02*
X152874764Y-94684580D01*
X152874764Y-94684580D02*
X152827145Y-94589342D01*
X152827145Y-94589342D02*
X152827145Y-94303628D01*
X152827145Y-94303628D02*
X152874764Y-94208390D01*
X152874764Y-94208390D02*
X152922383Y-94160771D01*
X152922383Y-94160771D02*
X153017621Y-94113152D01*
X153017621Y-94113152D02*
X153208097Y-94113152D01*
X153208097Y-94113152D02*
X153303335Y-94160771D01*
X153731907Y-94779819D02*
X153731907Y-94113152D01*
X153731907Y-93779819D02*
X153684288Y-93827438D01*
X153684288Y-93827438D02*
X153731907Y-93875057D01*
X153731907Y-93875057D02*
X153779526Y-93827438D01*
X153779526Y-93827438D02*
X153731907Y-93779819D01*
X153731907Y-93779819D02*
X153731907Y-93875057D01*
X154065240Y-94113152D02*
X154446192Y-94113152D01*
X154208097Y-93779819D02*
X154208097Y-94636961D01*
X154208097Y-94636961D02*
X154255716Y-94732200D01*
X154255716Y-94732200D02*
X154350954Y-94779819D01*
X154350954Y-94779819D02*
X154446192Y-94779819D01*
X154922383Y-94779819D02*
X154827145Y-94732200D01*
X154827145Y-94732200D02*
X154779526Y-94684580D01*
X154779526Y-94684580D02*
X154731907Y-94589342D01*
X154731907Y-94589342D02*
X154731907Y-94303628D01*
X154731907Y-94303628D02*
X154779526Y-94208390D01*
X154779526Y-94208390D02*
X154827145Y-94160771D01*
X154827145Y-94160771D02*
X154922383Y-94113152D01*
X154922383Y-94113152D02*
X155065240Y-94113152D01*
X155065240Y-94113152D02*
X155160478Y-94160771D01*
X155160478Y-94160771D02*
X155208097Y-94208390D01*
X155208097Y-94208390D02*
X155255716Y-94303628D01*
X155255716Y-94303628D02*
X155255716Y-94589342D01*
X155255716Y-94589342D02*
X155208097Y-94684580D01*
X155208097Y-94684580D02*
X155160478Y-94732200D01*
X155160478Y-94732200D02*
X155065240Y-94779819D01*
X155065240Y-94779819D02*
X154922383Y-94779819D01*
X155684288Y-94779819D02*
X155684288Y-94113152D01*
X155684288Y-94303628D02*
X155731907Y-94208390D01*
X155731907Y-94208390D02*
X155779526Y-94160771D01*
X155779526Y-94160771D02*
X155874764Y-94113152D01*
X155874764Y-94113152D02*
X155970002Y-94113152D01*
X156303336Y-94684580D02*
X156350955Y-94732200D01*
X156350955Y-94732200D02*
X156303336Y-94779819D01*
X156303336Y-94779819D02*
X156255717Y-94732200D01*
X156255717Y-94732200D02*
X156303336Y-94684580D01*
X156303336Y-94684580D02*
X156303336Y-94779819D01*
X132803332Y-96389819D02*
X132803332Y-95389819D01*
X132803332Y-95389819D02*
X133041427Y-95389819D01*
X133041427Y-95389819D02*
X133184284Y-95437438D01*
X133184284Y-95437438D02*
X133279522Y-95532676D01*
X133279522Y-95532676D02*
X133327141Y-95627914D01*
X133327141Y-95627914D02*
X133374760Y-95818390D01*
X133374760Y-95818390D02*
X133374760Y-95961247D01*
X133374760Y-95961247D02*
X133327141Y-96151723D01*
X133327141Y-96151723D02*
X133279522Y-96246961D01*
X133279522Y-96246961D02*
X133184284Y-96342200D01*
X133184284Y-96342200D02*
X133041427Y-96389819D01*
X133041427Y-96389819D02*
X132803332Y-96389819D01*
X133946189Y-96389819D02*
X133850951Y-96342200D01*
X133850951Y-96342200D02*
X133803332Y-96294580D01*
X133803332Y-96294580D02*
X133755713Y-96199342D01*
X133755713Y-96199342D02*
X133755713Y-95913628D01*
X133755713Y-95913628D02*
X133803332Y-95818390D01*
X133803332Y-95818390D02*
X133850951Y-95770771D01*
X133850951Y-95770771D02*
X133946189Y-95723152D01*
X133946189Y-95723152D02*
X134089046Y-95723152D01*
X134089046Y-95723152D02*
X134184284Y-95770771D01*
X134184284Y-95770771D02*
X134231903Y-95818390D01*
X134231903Y-95818390D02*
X134279522Y-95913628D01*
X134279522Y-95913628D02*
X134279522Y-96199342D01*
X134279522Y-96199342D02*
X134231903Y-96294580D01*
X134231903Y-96294580D02*
X134184284Y-96342200D01*
X134184284Y-96342200D02*
X134089046Y-96389819D01*
X134089046Y-96389819D02*
X133946189Y-96389819D01*
X135469999Y-95723152D02*
X135469999Y-96389819D01*
X135469999Y-95818390D02*
X135517618Y-95770771D01*
X135517618Y-95770771D02*
X135612856Y-95723152D01*
X135612856Y-95723152D02*
X135755713Y-95723152D01*
X135755713Y-95723152D02*
X135850951Y-95770771D01*
X135850951Y-95770771D02*
X135898570Y-95866009D01*
X135898570Y-95866009D02*
X135898570Y-96389819D01*
X136517618Y-96389819D02*
X136422380Y-96342200D01*
X136422380Y-96342200D02*
X136374761Y-96294580D01*
X136374761Y-96294580D02*
X136327142Y-96199342D01*
X136327142Y-96199342D02*
X136327142Y-95913628D01*
X136327142Y-95913628D02*
X136374761Y-95818390D01*
X136374761Y-95818390D02*
X136422380Y-95770771D01*
X136422380Y-95770771D02*
X136517618Y-95723152D01*
X136517618Y-95723152D02*
X136660475Y-95723152D01*
X136660475Y-95723152D02*
X136755713Y-95770771D01*
X136755713Y-95770771D02*
X136803332Y-95818390D01*
X136803332Y-95818390D02*
X136850951Y-95913628D01*
X136850951Y-95913628D02*
X136850951Y-96199342D01*
X136850951Y-96199342D02*
X136803332Y-96294580D01*
X136803332Y-96294580D02*
X136755713Y-96342200D01*
X136755713Y-96342200D02*
X136660475Y-96389819D01*
X136660475Y-96389819D02*
X136517618Y-96389819D01*
X137136666Y-95723152D02*
X137517618Y-95723152D01*
X137279523Y-95389819D02*
X137279523Y-96246961D01*
X137279523Y-96246961D02*
X137327142Y-96342200D01*
X137327142Y-96342200D02*
X137422380Y-96389819D01*
X137422380Y-96389819D02*
X137517618Y-96389819D01*
X138612857Y-95723152D02*
X138612857Y-96723152D01*
X138612857Y-95770771D02*
X138708095Y-95723152D01*
X138708095Y-95723152D02*
X138898571Y-95723152D01*
X138898571Y-95723152D02*
X138993809Y-95770771D01*
X138993809Y-95770771D02*
X139041428Y-95818390D01*
X139041428Y-95818390D02*
X139089047Y-95913628D01*
X139089047Y-95913628D02*
X139089047Y-96199342D01*
X139089047Y-96199342D02*
X139041428Y-96294580D01*
X139041428Y-96294580D02*
X138993809Y-96342200D01*
X138993809Y-96342200D02*
X138898571Y-96389819D01*
X138898571Y-96389819D02*
X138708095Y-96389819D01*
X138708095Y-96389819D02*
X138612857Y-96342200D01*
X139660476Y-96389819D02*
X139565238Y-96342200D01*
X139565238Y-96342200D02*
X139517619Y-96294580D01*
X139517619Y-96294580D02*
X139470000Y-96199342D01*
X139470000Y-96199342D02*
X139470000Y-95913628D01*
X139470000Y-95913628D02*
X139517619Y-95818390D01*
X139517619Y-95818390D02*
X139565238Y-95770771D01*
X139565238Y-95770771D02*
X139660476Y-95723152D01*
X139660476Y-95723152D02*
X139803333Y-95723152D01*
X139803333Y-95723152D02*
X139898571Y-95770771D01*
X139898571Y-95770771D02*
X139946190Y-95818390D01*
X139946190Y-95818390D02*
X139993809Y-95913628D01*
X139993809Y-95913628D02*
X139993809Y-96199342D01*
X139993809Y-96199342D02*
X139946190Y-96294580D01*
X139946190Y-96294580D02*
X139898571Y-96342200D01*
X139898571Y-96342200D02*
X139803333Y-96389819D01*
X139803333Y-96389819D02*
X139660476Y-96389819D01*
X140422381Y-95723152D02*
X140422381Y-96723152D01*
X140422381Y-95770771D02*
X140517619Y-95723152D01*
X140517619Y-95723152D02*
X140708095Y-95723152D01*
X140708095Y-95723152D02*
X140803333Y-95770771D01*
X140803333Y-95770771D02*
X140850952Y-95818390D01*
X140850952Y-95818390D02*
X140898571Y-95913628D01*
X140898571Y-95913628D02*
X140898571Y-96199342D01*
X140898571Y-96199342D02*
X140850952Y-96294580D01*
X140850952Y-96294580D02*
X140803333Y-96342200D01*
X140803333Y-96342200D02*
X140708095Y-96389819D01*
X140708095Y-96389819D02*
X140517619Y-96389819D01*
X140517619Y-96389819D02*
X140422381Y-96342200D01*
X141755714Y-95723152D02*
X141755714Y-96389819D01*
X141327143Y-95723152D02*
X141327143Y-96246961D01*
X141327143Y-96246961D02*
X141374762Y-96342200D01*
X141374762Y-96342200D02*
X141470000Y-96389819D01*
X141470000Y-96389819D02*
X141612857Y-96389819D01*
X141612857Y-96389819D02*
X141708095Y-96342200D01*
X141708095Y-96342200D02*
X141755714Y-96294580D01*
X142374762Y-96389819D02*
X142279524Y-96342200D01*
X142279524Y-96342200D02*
X142231905Y-96246961D01*
X142231905Y-96246961D02*
X142231905Y-95389819D01*
X143184286Y-96389819D02*
X143184286Y-95866009D01*
X143184286Y-95866009D02*
X143136667Y-95770771D01*
X143136667Y-95770771D02*
X143041429Y-95723152D01*
X143041429Y-95723152D02*
X142850953Y-95723152D01*
X142850953Y-95723152D02*
X142755715Y-95770771D01*
X143184286Y-96342200D02*
X143089048Y-96389819D01*
X143089048Y-96389819D02*
X142850953Y-96389819D01*
X142850953Y-96389819D02*
X142755715Y-96342200D01*
X142755715Y-96342200D02*
X142708096Y-96246961D01*
X142708096Y-96246961D02*
X142708096Y-96151723D01*
X142708096Y-96151723D02*
X142755715Y-96056485D01*
X142755715Y-96056485D02*
X142850953Y-96008866D01*
X142850953Y-96008866D02*
X143089048Y-96008866D01*
X143089048Y-96008866D02*
X143184286Y-95961247D01*
X143517620Y-95723152D02*
X143898572Y-95723152D01*
X143660477Y-95389819D02*
X143660477Y-96246961D01*
X143660477Y-96246961D02*
X143708096Y-96342200D01*
X143708096Y-96342200D02*
X143803334Y-96389819D01*
X143803334Y-96389819D02*
X143898572Y-96389819D01*
X144612858Y-96342200D02*
X144517620Y-96389819D01*
X144517620Y-96389819D02*
X144327144Y-96389819D01*
X144327144Y-96389819D02*
X144231906Y-96342200D01*
X144231906Y-96342200D02*
X144184287Y-96246961D01*
X144184287Y-96246961D02*
X144184287Y-95866009D01*
X144184287Y-95866009D02*
X144231906Y-95770771D01*
X144231906Y-95770771D02*
X144327144Y-95723152D01*
X144327144Y-95723152D02*
X144517620Y-95723152D01*
X144517620Y-95723152D02*
X144612858Y-95770771D01*
X144612858Y-95770771D02*
X144660477Y-95866009D01*
X144660477Y-95866009D02*
X144660477Y-95961247D01*
X144660477Y-95961247D02*
X144184287Y-96056485D01*
X145850954Y-96389819D02*
X145850954Y-95389819D01*
X145850954Y-95770771D02*
X145946192Y-95723152D01*
X145946192Y-95723152D02*
X146136668Y-95723152D01*
X146136668Y-95723152D02*
X146231906Y-95770771D01*
X146231906Y-95770771D02*
X146279525Y-95818390D01*
X146279525Y-95818390D02*
X146327144Y-95913628D01*
X146327144Y-95913628D02*
X146327144Y-96199342D01*
X146327144Y-96199342D02*
X146279525Y-96294580D01*
X146279525Y-96294580D02*
X146231906Y-96342200D01*
X146231906Y-96342200D02*
X146136668Y-96389819D01*
X146136668Y-96389819D02*
X145946192Y-96389819D01*
X145946192Y-96389819D02*
X145850954Y-96342200D01*
X146898573Y-96389819D02*
X146803335Y-96342200D01*
X146803335Y-96342200D02*
X146755716Y-96294580D01*
X146755716Y-96294580D02*
X146708097Y-96199342D01*
X146708097Y-96199342D02*
X146708097Y-95913628D01*
X146708097Y-95913628D02*
X146755716Y-95818390D01*
X146755716Y-95818390D02*
X146803335Y-95770771D01*
X146803335Y-95770771D02*
X146898573Y-95723152D01*
X146898573Y-95723152D02*
X147041430Y-95723152D01*
X147041430Y-95723152D02*
X147136668Y-95770771D01*
X147136668Y-95770771D02*
X147184287Y-95818390D01*
X147184287Y-95818390D02*
X147231906Y-95913628D01*
X147231906Y-95913628D02*
X147231906Y-96199342D01*
X147231906Y-96199342D02*
X147184287Y-96294580D01*
X147184287Y-96294580D02*
X147136668Y-96342200D01*
X147136668Y-96342200D02*
X147041430Y-96389819D01*
X147041430Y-96389819D02*
X146898573Y-96389819D01*
X147517621Y-95723152D02*
X147898573Y-95723152D01*
X147660478Y-95389819D02*
X147660478Y-96246961D01*
X147660478Y-96246961D02*
X147708097Y-96342200D01*
X147708097Y-96342200D02*
X147803335Y-96389819D01*
X147803335Y-96389819D02*
X147898573Y-96389819D01*
X148231907Y-96389819D02*
X148231907Y-95389819D01*
X148660478Y-96389819D02*
X148660478Y-95866009D01*
X148660478Y-95866009D02*
X148612859Y-95770771D01*
X148612859Y-95770771D02*
X148517621Y-95723152D01*
X148517621Y-95723152D02*
X148374764Y-95723152D01*
X148374764Y-95723152D02*
X148279526Y-95770771D01*
X148279526Y-95770771D02*
X148231907Y-95818390D01*
X149136669Y-96294580D02*
X149184288Y-96342200D01*
X149184288Y-96342200D02*
X149136669Y-96389819D01*
X149136669Y-96389819D02*
X149089050Y-96342200D01*
X149089050Y-96342200D02*
X149136669Y-96294580D01*
X149136669Y-96294580D02*
X149136669Y-96389819D01*
X149136669Y-96008866D02*
X149089050Y-95437438D01*
X149089050Y-95437438D02*
X149136669Y-95389819D01*
X149136669Y-95389819D02*
X149184288Y-95437438D01*
X149184288Y-95437438D02*
X149136669Y-96008866D01*
X149136669Y-96008866D02*
X149136669Y-95389819D01*
X125946188Y-110289819D02*
X126136664Y-110289819D01*
X126136664Y-110289819D02*
X126231902Y-110337438D01*
X126231902Y-110337438D02*
X126327140Y-110432676D01*
X126327140Y-110432676D02*
X126374759Y-110623152D01*
X126374759Y-110623152D02*
X126374759Y-110956485D01*
X126374759Y-110956485D02*
X126327140Y-111146961D01*
X126327140Y-111146961D02*
X126231902Y-111242200D01*
X126231902Y-111242200D02*
X126136664Y-111289819D01*
X126136664Y-111289819D02*
X125946188Y-111289819D01*
X125946188Y-111289819D02*
X125850950Y-111242200D01*
X125850950Y-111242200D02*
X125755712Y-111146961D01*
X125755712Y-111146961D02*
X125708093Y-110956485D01*
X125708093Y-110956485D02*
X125708093Y-110623152D01*
X125708093Y-110623152D02*
X125755712Y-110432676D01*
X125755712Y-110432676D02*
X125850950Y-110337438D01*
X125850950Y-110337438D02*
X125946188Y-110289819D01*
X126803331Y-110623152D02*
X126803331Y-111289819D01*
X126803331Y-110718390D02*
X126850950Y-110670771D01*
X126850950Y-110670771D02*
X126946188Y-110623152D01*
X126946188Y-110623152D02*
X127089045Y-110623152D01*
X127089045Y-110623152D02*
X127184283Y-110670771D01*
X127184283Y-110670771D02*
X127231902Y-110766009D01*
X127231902Y-110766009D02*
X127231902Y-111289819D01*
X127850950Y-111289819D02*
X127755712Y-111242200D01*
X127755712Y-111242200D02*
X127708093Y-111146961D01*
X127708093Y-111146961D02*
X127708093Y-110289819D01*
X128136665Y-110623152D02*
X128374760Y-111289819D01*
X128612855Y-110623152D02*
X128374760Y-111289819D01*
X128374760Y-111289819D02*
X128279522Y-111527914D01*
X128279522Y-111527914D02*
X128231903Y-111575533D01*
X128231903Y-111575533D02*
X128136665Y-111623152D01*
X130279522Y-111289819D02*
X129708094Y-111289819D01*
X129993808Y-111289819D02*
X129993808Y-110289819D01*
X129993808Y-110289819D02*
X129898570Y-110432676D01*
X129898570Y-110432676D02*
X129803332Y-110527914D01*
X129803332Y-110527914D02*
X129708094Y-110575533D01*
X131327142Y-110289819D02*
X131898570Y-110289819D01*
X131612856Y-111289819D02*
X131612856Y-110289819D01*
X132612856Y-111242200D02*
X132517618Y-111289819D01*
X132517618Y-111289819D02*
X132327142Y-111289819D01*
X132327142Y-111289819D02*
X132231904Y-111242200D01*
X132231904Y-111242200D02*
X132184285Y-111146961D01*
X132184285Y-111146961D02*
X132184285Y-110766009D01*
X132184285Y-110766009D02*
X132231904Y-110670771D01*
X132231904Y-110670771D02*
X132327142Y-110623152D01*
X132327142Y-110623152D02*
X132517618Y-110623152D01*
X132517618Y-110623152D02*
X132612856Y-110670771D01*
X132612856Y-110670771D02*
X132660475Y-110766009D01*
X132660475Y-110766009D02*
X132660475Y-110861247D01*
X132660475Y-110861247D02*
X132184285Y-110956485D01*
X133089047Y-111289819D02*
X133089047Y-110623152D01*
X133089047Y-110813628D02*
X133136666Y-110718390D01*
X133136666Y-110718390D02*
X133184285Y-110670771D01*
X133184285Y-110670771D02*
X133279523Y-110623152D01*
X133279523Y-110623152D02*
X133374761Y-110623152D01*
X133708095Y-111289819D02*
X133708095Y-110623152D01*
X133708095Y-110718390D02*
X133755714Y-110670771D01*
X133755714Y-110670771D02*
X133850952Y-110623152D01*
X133850952Y-110623152D02*
X133993809Y-110623152D01*
X133993809Y-110623152D02*
X134089047Y-110670771D01*
X134089047Y-110670771D02*
X134136666Y-110766009D01*
X134136666Y-110766009D02*
X134136666Y-111289819D01*
X134136666Y-110766009D02*
X134184285Y-110670771D01*
X134184285Y-110670771D02*
X134279523Y-110623152D01*
X134279523Y-110623152D02*
X134422380Y-110623152D01*
X134422380Y-110623152D02*
X134517619Y-110670771D01*
X134517619Y-110670771D02*
X134565238Y-110766009D01*
X134565238Y-110766009D02*
X134565238Y-111289819D01*
X135041428Y-111289819D02*
X135041428Y-110623152D01*
X135041428Y-110289819D02*
X134993809Y-110337438D01*
X134993809Y-110337438D02*
X135041428Y-110385057D01*
X135041428Y-110385057D02*
X135089047Y-110337438D01*
X135089047Y-110337438D02*
X135041428Y-110289819D01*
X135041428Y-110289819D02*
X135041428Y-110385057D01*
X135517618Y-110623152D02*
X135517618Y-111289819D01*
X135517618Y-110718390D02*
X135565237Y-110670771D01*
X135565237Y-110670771D02*
X135660475Y-110623152D01*
X135660475Y-110623152D02*
X135803332Y-110623152D01*
X135803332Y-110623152D02*
X135898570Y-110670771D01*
X135898570Y-110670771D02*
X135946189Y-110766009D01*
X135946189Y-110766009D02*
X135946189Y-111289819D01*
X136850951Y-111289819D02*
X136850951Y-110766009D01*
X136850951Y-110766009D02*
X136803332Y-110670771D01*
X136803332Y-110670771D02*
X136708094Y-110623152D01*
X136708094Y-110623152D02*
X136517618Y-110623152D01*
X136517618Y-110623152D02*
X136422380Y-110670771D01*
X136850951Y-111242200D02*
X136755713Y-111289819D01*
X136755713Y-111289819D02*
X136517618Y-111289819D01*
X136517618Y-111289819D02*
X136422380Y-111242200D01*
X136422380Y-111242200D02*
X136374761Y-111146961D01*
X136374761Y-111146961D02*
X136374761Y-111051723D01*
X136374761Y-111051723D02*
X136422380Y-110956485D01*
X136422380Y-110956485D02*
X136517618Y-110908866D01*
X136517618Y-110908866D02*
X136755713Y-110908866D01*
X136755713Y-110908866D02*
X136850951Y-110861247D01*
X137469999Y-111289819D02*
X137374761Y-111242200D01*
X137374761Y-111242200D02*
X137327142Y-111146961D01*
X137327142Y-111146961D02*
X137327142Y-110289819D01*
X138946190Y-110766009D02*
X139089047Y-110813628D01*
X139089047Y-110813628D02*
X139136666Y-110861247D01*
X139136666Y-110861247D02*
X139184285Y-110956485D01*
X139184285Y-110956485D02*
X139184285Y-111099342D01*
X139184285Y-111099342D02*
X139136666Y-111194580D01*
X139136666Y-111194580D02*
X139089047Y-111242200D01*
X139089047Y-111242200D02*
X138993809Y-111289819D01*
X138993809Y-111289819D02*
X138612857Y-111289819D01*
X138612857Y-111289819D02*
X138612857Y-110289819D01*
X138612857Y-110289819D02*
X138946190Y-110289819D01*
X138946190Y-110289819D02*
X139041428Y-110337438D01*
X139041428Y-110337438D02*
X139089047Y-110385057D01*
X139089047Y-110385057D02*
X139136666Y-110480295D01*
X139136666Y-110480295D02*
X139136666Y-110575533D01*
X139136666Y-110575533D02*
X139089047Y-110670771D01*
X139089047Y-110670771D02*
X139041428Y-110718390D01*
X139041428Y-110718390D02*
X138946190Y-110766009D01*
X138946190Y-110766009D02*
X138612857Y-110766009D01*
X139755714Y-111289819D02*
X139660476Y-111242200D01*
X139660476Y-111242200D02*
X139612857Y-111146961D01*
X139612857Y-111146961D02*
X139612857Y-110289819D01*
X140279524Y-111289819D02*
X140184286Y-111242200D01*
X140184286Y-111242200D02*
X140136667Y-111194580D01*
X140136667Y-111194580D02*
X140089048Y-111099342D01*
X140089048Y-111099342D02*
X140089048Y-110813628D01*
X140089048Y-110813628D02*
X140136667Y-110718390D01*
X140136667Y-110718390D02*
X140184286Y-110670771D01*
X140184286Y-110670771D02*
X140279524Y-110623152D01*
X140279524Y-110623152D02*
X140422381Y-110623152D01*
X140422381Y-110623152D02*
X140517619Y-110670771D01*
X140517619Y-110670771D02*
X140565238Y-110718390D01*
X140565238Y-110718390D02*
X140612857Y-110813628D01*
X140612857Y-110813628D02*
X140612857Y-111099342D01*
X140612857Y-111099342D02*
X140565238Y-111194580D01*
X140565238Y-111194580D02*
X140517619Y-111242200D01*
X140517619Y-111242200D02*
X140422381Y-111289819D01*
X140422381Y-111289819D02*
X140279524Y-111289819D01*
X141470000Y-111242200D02*
X141374762Y-111289819D01*
X141374762Y-111289819D02*
X141184286Y-111289819D01*
X141184286Y-111289819D02*
X141089048Y-111242200D01*
X141089048Y-111242200D02*
X141041429Y-111194580D01*
X141041429Y-111194580D02*
X140993810Y-111099342D01*
X140993810Y-111099342D02*
X140993810Y-110813628D01*
X140993810Y-110813628D02*
X141041429Y-110718390D01*
X141041429Y-110718390D02*
X141089048Y-110670771D01*
X141089048Y-110670771D02*
X141184286Y-110623152D01*
X141184286Y-110623152D02*
X141374762Y-110623152D01*
X141374762Y-110623152D02*
X141470000Y-110670771D01*
X141898572Y-111289819D02*
X141898572Y-110289819D01*
X141993810Y-110908866D02*
X142279524Y-111289819D01*
X142279524Y-110623152D02*
X141898572Y-111004104D01*
X143470001Y-111289819D02*
X143470001Y-110289819D01*
X143470001Y-110289819D02*
X144041429Y-111289819D01*
X144041429Y-111289819D02*
X144041429Y-110289819D01*
X144898572Y-111242200D02*
X144803334Y-111289819D01*
X144803334Y-111289819D02*
X144612858Y-111289819D01*
X144612858Y-111289819D02*
X144517620Y-111242200D01*
X144517620Y-111242200D02*
X144470001Y-111146961D01*
X144470001Y-111146961D02*
X144470001Y-110766009D01*
X144470001Y-110766009D02*
X144517620Y-110670771D01*
X144517620Y-110670771D02*
X144612858Y-110623152D01*
X144612858Y-110623152D02*
X144803334Y-110623152D01*
X144803334Y-110623152D02*
X144898572Y-110670771D01*
X144898572Y-110670771D02*
X144946191Y-110766009D01*
X144946191Y-110766009D02*
X144946191Y-110861247D01*
X144946191Y-110861247D02*
X144470001Y-110956485D01*
X145755715Y-111242200D02*
X145660477Y-111289819D01*
X145660477Y-111289819D02*
X145470001Y-111289819D01*
X145470001Y-111289819D02*
X145374763Y-111242200D01*
X145374763Y-111242200D02*
X145327144Y-111146961D01*
X145327144Y-111146961D02*
X145327144Y-110766009D01*
X145327144Y-110766009D02*
X145374763Y-110670771D01*
X145374763Y-110670771D02*
X145470001Y-110623152D01*
X145470001Y-110623152D02*
X145660477Y-110623152D01*
X145660477Y-110623152D02*
X145755715Y-110670771D01*
X145755715Y-110670771D02*
X145803334Y-110766009D01*
X145803334Y-110766009D02*
X145803334Y-110861247D01*
X145803334Y-110861247D02*
X145327144Y-110956485D01*
X146660477Y-111289819D02*
X146660477Y-110289819D01*
X146660477Y-111242200D02*
X146565239Y-111289819D01*
X146565239Y-111289819D02*
X146374763Y-111289819D01*
X146374763Y-111289819D02*
X146279525Y-111242200D01*
X146279525Y-111242200D02*
X146231906Y-111194580D01*
X146231906Y-111194580D02*
X146184287Y-111099342D01*
X146184287Y-111099342D02*
X146184287Y-110813628D01*
X146184287Y-110813628D02*
X146231906Y-110718390D01*
X146231906Y-110718390D02*
X146279525Y-110670771D01*
X146279525Y-110670771D02*
X146374763Y-110623152D01*
X146374763Y-110623152D02*
X146565239Y-110623152D01*
X146565239Y-110623152D02*
X146660477Y-110670771D01*
X147089049Y-111242200D02*
X147184287Y-111289819D01*
X147184287Y-111289819D02*
X147374763Y-111289819D01*
X147374763Y-111289819D02*
X147470001Y-111242200D01*
X147470001Y-111242200D02*
X147517620Y-111146961D01*
X147517620Y-111146961D02*
X147517620Y-111099342D01*
X147517620Y-111099342D02*
X147470001Y-111004104D01*
X147470001Y-111004104D02*
X147374763Y-110956485D01*
X147374763Y-110956485D02*
X147231906Y-110956485D01*
X147231906Y-110956485D02*
X147136668Y-110908866D01*
X147136668Y-110908866D02*
X147089049Y-110813628D01*
X147089049Y-110813628D02*
X147089049Y-110766009D01*
X147089049Y-110766009D02*
X147136668Y-110670771D01*
X147136668Y-110670771D02*
X147231906Y-110623152D01*
X147231906Y-110623152D02*
X147374763Y-110623152D01*
X147374763Y-110623152D02*
X147470001Y-110670771D01*
X148708097Y-111289819D02*
X148708097Y-110289819D01*
X148708097Y-110289819D02*
X149089049Y-110289819D01*
X149089049Y-110289819D02*
X149184287Y-110337438D01*
X149184287Y-110337438D02*
X149231906Y-110385057D01*
X149231906Y-110385057D02*
X149279525Y-110480295D01*
X149279525Y-110480295D02*
X149279525Y-110623152D01*
X149279525Y-110623152D02*
X149231906Y-110718390D01*
X149231906Y-110718390D02*
X149184287Y-110766009D01*
X149184287Y-110766009D02*
X149089049Y-110813628D01*
X149089049Y-110813628D02*
X148708097Y-110813628D01*
X149850954Y-111289819D02*
X149755716Y-111242200D01*
X149755716Y-111242200D02*
X149708097Y-111194580D01*
X149708097Y-111194580D02*
X149660478Y-111099342D01*
X149660478Y-111099342D02*
X149660478Y-110813628D01*
X149660478Y-110813628D02*
X149708097Y-110718390D01*
X149708097Y-110718390D02*
X149755716Y-110670771D01*
X149755716Y-110670771D02*
X149850954Y-110623152D01*
X149850954Y-110623152D02*
X149993811Y-110623152D01*
X149993811Y-110623152D02*
X150089049Y-110670771D01*
X150089049Y-110670771D02*
X150136668Y-110718390D01*
X150136668Y-110718390D02*
X150184287Y-110813628D01*
X150184287Y-110813628D02*
X150184287Y-111099342D01*
X150184287Y-111099342D02*
X150136668Y-111194580D01*
X150136668Y-111194580D02*
X150089049Y-111242200D01*
X150089049Y-111242200D02*
X149993811Y-111289819D01*
X149993811Y-111289819D02*
X149850954Y-111289819D01*
X150612859Y-110623152D02*
X150612859Y-111623152D01*
X150612859Y-110670771D02*
X150708097Y-110623152D01*
X150708097Y-110623152D02*
X150898573Y-110623152D01*
X150898573Y-110623152D02*
X150993811Y-110670771D01*
X150993811Y-110670771D02*
X151041430Y-110718390D01*
X151041430Y-110718390D02*
X151089049Y-110813628D01*
X151089049Y-110813628D02*
X151089049Y-111099342D01*
X151089049Y-111099342D02*
X151041430Y-111194580D01*
X151041430Y-111194580D02*
X150993811Y-111242200D01*
X150993811Y-111242200D02*
X150898573Y-111289819D01*
X150898573Y-111289819D02*
X150708097Y-111289819D01*
X150708097Y-111289819D02*
X150612859Y-111242200D01*
X151946192Y-110623152D02*
X151946192Y-111289819D01*
X151517621Y-110623152D02*
X151517621Y-111146961D01*
X151517621Y-111146961D02*
X151565240Y-111242200D01*
X151565240Y-111242200D02*
X151660478Y-111289819D01*
X151660478Y-111289819D02*
X151803335Y-111289819D01*
X151803335Y-111289819D02*
X151898573Y-111242200D01*
X151898573Y-111242200D02*
X151946192Y-111194580D01*
X152565240Y-111289819D02*
X152470002Y-111242200D01*
X152470002Y-111242200D02*
X152422383Y-111146961D01*
X152422383Y-111146961D02*
X152422383Y-110289819D01*
X153374764Y-111289819D02*
X153374764Y-110766009D01*
X153374764Y-110766009D02*
X153327145Y-110670771D01*
X153327145Y-110670771D02*
X153231907Y-110623152D01*
X153231907Y-110623152D02*
X153041431Y-110623152D01*
X153041431Y-110623152D02*
X152946193Y-110670771D01*
X153374764Y-111242200D02*
X153279526Y-111289819D01*
X153279526Y-111289819D02*
X153041431Y-111289819D01*
X153041431Y-111289819D02*
X152946193Y-111242200D01*
X152946193Y-111242200D02*
X152898574Y-111146961D01*
X152898574Y-111146961D02*
X152898574Y-111051723D01*
X152898574Y-111051723D02*
X152946193Y-110956485D01*
X152946193Y-110956485D02*
X153041431Y-110908866D01*
X153041431Y-110908866D02*
X153279526Y-110908866D01*
X153279526Y-110908866D02*
X153374764Y-110861247D01*
X153708098Y-110623152D02*
X154089050Y-110623152D01*
X153850955Y-110289819D02*
X153850955Y-111146961D01*
X153850955Y-111146961D02*
X153898574Y-111242200D01*
X153898574Y-111242200D02*
X153993812Y-111289819D01*
X153993812Y-111289819D02*
X154089050Y-111289819D01*
X154803336Y-111242200D02*
X154708098Y-111289819D01*
X154708098Y-111289819D02*
X154517622Y-111289819D01*
X154517622Y-111289819D02*
X154422384Y-111242200D01*
X154422384Y-111242200D02*
X154374765Y-111146961D01*
X154374765Y-111146961D02*
X154374765Y-110766009D01*
X154374765Y-110766009D02*
X154422384Y-110670771D01*
X154422384Y-110670771D02*
X154517622Y-110623152D01*
X154517622Y-110623152D02*
X154708098Y-110623152D01*
X154708098Y-110623152D02*
X154803336Y-110670771D01*
X154803336Y-110670771D02*
X154850955Y-110766009D01*
X154850955Y-110766009D02*
X154850955Y-110861247D01*
X154850955Y-110861247D02*
X154374765Y-110956485D01*
X155708098Y-111289819D02*
X155708098Y-110289819D01*
X155708098Y-111242200D02*
X155612860Y-111289819D01*
X155612860Y-111289819D02*
X155422384Y-111289819D01*
X155422384Y-111289819D02*
X155327146Y-111242200D01*
X155327146Y-111242200D02*
X155279527Y-111194580D01*
X155279527Y-111194580D02*
X155231908Y-111099342D01*
X155231908Y-111099342D02*
X155231908Y-110813628D01*
X155231908Y-110813628D02*
X155279527Y-110718390D01*
X155279527Y-110718390D02*
X155327146Y-110670771D01*
X155327146Y-110670771D02*
X155422384Y-110623152D01*
X155422384Y-110623152D02*
X155612860Y-110623152D01*
X155612860Y-110623152D02*
X155708098Y-110670771D01*
X156184289Y-111194580D02*
X156231908Y-111242200D01*
X156231908Y-111242200D02*
X156184289Y-111289819D01*
X156184289Y-111289819D02*
X156136670Y-111242200D01*
X156136670Y-111242200D02*
X156184289Y-111194580D01*
X156184289Y-111194580D02*
X156184289Y-111289819D01*
X133231904Y-111899819D02*
X133803332Y-111899819D01*
X133517618Y-112899819D02*
X133517618Y-111899819D01*
X134136666Y-112899819D02*
X134136666Y-111899819D01*
X134565237Y-112899819D02*
X134565237Y-112376009D01*
X134565237Y-112376009D02*
X134517618Y-112280771D01*
X134517618Y-112280771D02*
X134422380Y-112233152D01*
X134422380Y-112233152D02*
X134279523Y-112233152D01*
X134279523Y-112233152D02*
X134184285Y-112280771D01*
X134184285Y-112280771D02*
X134136666Y-112328390D01*
X135422380Y-112852200D02*
X135327142Y-112899819D01*
X135327142Y-112899819D02*
X135136666Y-112899819D01*
X135136666Y-112899819D02*
X135041428Y-112852200D01*
X135041428Y-112852200D02*
X134993809Y-112756961D01*
X134993809Y-112756961D02*
X134993809Y-112376009D01*
X134993809Y-112376009D02*
X135041428Y-112280771D01*
X135041428Y-112280771D02*
X135136666Y-112233152D01*
X135136666Y-112233152D02*
X135327142Y-112233152D01*
X135327142Y-112233152D02*
X135422380Y-112280771D01*
X135422380Y-112280771D02*
X135469999Y-112376009D01*
X135469999Y-112376009D02*
X135469999Y-112471247D01*
X135469999Y-112471247D02*
X134993809Y-112566485D01*
X137231904Y-112804580D02*
X137184285Y-112852200D01*
X137184285Y-112852200D02*
X137041428Y-112899819D01*
X137041428Y-112899819D02*
X136946190Y-112899819D01*
X136946190Y-112899819D02*
X136803333Y-112852200D01*
X136803333Y-112852200D02*
X136708095Y-112756961D01*
X136708095Y-112756961D02*
X136660476Y-112661723D01*
X136660476Y-112661723D02*
X136612857Y-112471247D01*
X136612857Y-112471247D02*
X136612857Y-112328390D01*
X136612857Y-112328390D02*
X136660476Y-112137914D01*
X136660476Y-112137914D02*
X136708095Y-112042676D01*
X136708095Y-112042676D02*
X136803333Y-111947438D01*
X136803333Y-111947438D02*
X136946190Y-111899819D01*
X136946190Y-111899819D02*
X137041428Y-111899819D01*
X137041428Y-111899819D02*
X137184285Y-111947438D01*
X137184285Y-111947438D02*
X137231904Y-111995057D01*
X137660476Y-112899819D02*
X137660476Y-111899819D01*
X138089047Y-112899819D02*
X138089047Y-112376009D01*
X138089047Y-112376009D02*
X138041428Y-112280771D01*
X138041428Y-112280771D02*
X137946190Y-112233152D01*
X137946190Y-112233152D02*
X137803333Y-112233152D01*
X137803333Y-112233152D02*
X137708095Y-112280771D01*
X137708095Y-112280771D02*
X137660476Y-112328390D01*
X138708095Y-112899819D02*
X138612857Y-112852200D01*
X138612857Y-112852200D02*
X138565238Y-112804580D01*
X138565238Y-112804580D02*
X138517619Y-112709342D01*
X138517619Y-112709342D02*
X138517619Y-112423628D01*
X138517619Y-112423628D02*
X138565238Y-112328390D01*
X138565238Y-112328390D02*
X138612857Y-112280771D01*
X138612857Y-112280771D02*
X138708095Y-112233152D01*
X138708095Y-112233152D02*
X138850952Y-112233152D01*
X138850952Y-112233152D02*
X138946190Y-112280771D01*
X138946190Y-112280771D02*
X138993809Y-112328390D01*
X138993809Y-112328390D02*
X139041428Y-112423628D01*
X139041428Y-112423628D02*
X139041428Y-112709342D01*
X139041428Y-112709342D02*
X138993809Y-112804580D01*
X138993809Y-112804580D02*
X138946190Y-112852200D01*
X138946190Y-112852200D02*
X138850952Y-112899819D01*
X138850952Y-112899819D02*
X138708095Y-112899819D01*
X139470000Y-112899819D02*
X139470000Y-112233152D01*
X139470000Y-111899819D02*
X139422381Y-111947438D01*
X139422381Y-111947438D02*
X139470000Y-111995057D01*
X139470000Y-111995057D02*
X139517619Y-111947438D01*
X139517619Y-111947438D02*
X139470000Y-111899819D01*
X139470000Y-111899819D02*
X139470000Y-111995057D01*
X140374761Y-112852200D02*
X140279523Y-112899819D01*
X140279523Y-112899819D02*
X140089047Y-112899819D01*
X140089047Y-112899819D02*
X139993809Y-112852200D01*
X139993809Y-112852200D02*
X139946190Y-112804580D01*
X139946190Y-112804580D02*
X139898571Y-112709342D01*
X139898571Y-112709342D02*
X139898571Y-112423628D01*
X139898571Y-112423628D02*
X139946190Y-112328390D01*
X139946190Y-112328390D02*
X139993809Y-112280771D01*
X139993809Y-112280771D02*
X140089047Y-112233152D01*
X140089047Y-112233152D02*
X140279523Y-112233152D01*
X140279523Y-112233152D02*
X140374761Y-112280771D01*
X141184285Y-112852200D02*
X141089047Y-112899819D01*
X141089047Y-112899819D02*
X140898571Y-112899819D01*
X140898571Y-112899819D02*
X140803333Y-112852200D01*
X140803333Y-112852200D02*
X140755714Y-112756961D01*
X140755714Y-112756961D02*
X140755714Y-112376009D01*
X140755714Y-112376009D02*
X140803333Y-112280771D01*
X140803333Y-112280771D02*
X140898571Y-112233152D01*
X140898571Y-112233152D02*
X141089047Y-112233152D01*
X141089047Y-112233152D02*
X141184285Y-112280771D01*
X141184285Y-112280771D02*
X141231904Y-112376009D01*
X141231904Y-112376009D02*
X141231904Y-112471247D01*
X141231904Y-112471247D02*
X140755714Y-112566485D01*
X142422381Y-112899819D02*
X142422381Y-111899819D01*
X142850952Y-112852200D02*
X142946190Y-112899819D01*
X142946190Y-112899819D02*
X143136666Y-112899819D01*
X143136666Y-112899819D02*
X143231904Y-112852200D01*
X143231904Y-112852200D02*
X143279523Y-112756961D01*
X143279523Y-112756961D02*
X143279523Y-112709342D01*
X143279523Y-112709342D02*
X143231904Y-112614104D01*
X143231904Y-112614104D02*
X143136666Y-112566485D01*
X143136666Y-112566485D02*
X142993809Y-112566485D01*
X142993809Y-112566485D02*
X142898571Y-112518866D01*
X142898571Y-112518866D02*
X142850952Y-112423628D01*
X142850952Y-112423628D02*
X142850952Y-112376009D01*
X142850952Y-112376009D02*
X142898571Y-112280771D01*
X142898571Y-112280771D02*
X142993809Y-112233152D01*
X142993809Y-112233152D02*
X143136666Y-112233152D01*
X143136666Y-112233152D02*
X143231904Y-112280771D01*
X144660476Y-112423628D02*
X144660476Y-112899819D01*
X144327143Y-111899819D02*
X144660476Y-112423628D01*
X144660476Y-112423628D02*
X144993809Y-111899819D01*
X145470000Y-112899819D02*
X145374762Y-112852200D01*
X145374762Y-112852200D02*
X145327143Y-112804580D01*
X145327143Y-112804580D02*
X145279524Y-112709342D01*
X145279524Y-112709342D02*
X145279524Y-112423628D01*
X145279524Y-112423628D02*
X145327143Y-112328390D01*
X145327143Y-112328390D02*
X145374762Y-112280771D01*
X145374762Y-112280771D02*
X145470000Y-112233152D01*
X145470000Y-112233152D02*
X145612857Y-112233152D01*
X145612857Y-112233152D02*
X145708095Y-112280771D01*
X145708095Y-112280771D02*
X145755714Y-112328390D01*
X145755714Y-112328390D02*
X145803333Y-112423628D01*
X145803333Y-112423628D02*
X145803333Y-112709342D01*
X145803333Y-112709342D02*
X145755714Y-112804580D01*
X145755714Y-112804580D02*
X145708095Y-112852200D01*
X145708095Y-112852200D02*
X145612857Y-112899819D01*
X145612857Y-112899819D02*
X145470000Y-112899819D01*
X146660476Y-112233152D02*
X146660476Y-112899819D01*
X146231905Y-112233152D02*
X146231905Y-112756961D01*
X146231905Y-112756961D02*
X146279524Y-112852200D01*
X146279524Y-112852200D02*
X146374762Y-112899819D01*
X146374762Y-112899819D02*
X146517619Y-112899819D01*
X146517619Y-112899819D02*
X146612857Y-112852200D01*
X146612857Y-112852200D02*
X146660476Y-112804580D01*
X147136667Y-112899819D02*
X147136667Y-112233152D01*
X147136667Y-112423628D02*
X147184286Y-112328390D01*
X147184286Y-112328390D02*
X147231905Y-112280771D01*
X147231905Y-112280771D02*
X147327143Y-112233152D01*
X147327143Y-112233152D02*
X147422381Y-112233152D01*
X147708096Y-112852200D02*
X147803334Y-112899819D01*
X147803334Y-112899819D02*
X147993810Y-112899819D01*
X147993810Y-112899819D02*
X148089048Y-112852200D01*
X148089048Y-112852200D02*
X148136667Y-112756961D01*
X148136667Y-112756961D02*
X148136667Y-112709342D01*
X148136667Y-112709342D02*
X148089048Y-112614104D01*
X148089048Y-112614104D02*
X147993810Y-112566485D01*
X147993810Y-112566485D02*
X147850953Y-112566485D01*
X147850953Y-112566485D02*
X147755715Y-112518866D01*
X147755715Y-112518866D02*
X147708096Y-112423628D01*
X147708096Y-112423628D02*
X147708096Y-112376009D01*
X147708096Y-112376009D02*
X147755715Y-112280771D01*
X147755715Y-112280771D02*
X147850953Y-112233152D01*
X147850953Y-112233152D02*
X147993810Y-112233152D01*
X147993810Y-112233152D02*
X148089048Y-112280771D01*
X148565239Y-112804580D02*
X148612858Y-112852200D01*
X148612858Y-112852200D02*
X148565239Y-112899819D01*
X148565239Y-112899819D02*
X148517620Y-112852200D01*
X148517620Y-112852200D02*
X148565239Y-112804580D01*
X148565239Y-112804580D02*
X148565239Y-112899819D01*
X148899248Y-102929631D02*
X148946868Y-102977250D01*
X148946868Y-102977250D02*
X148994487Y-103120107D01*
X148994487Y-103120107D02*
X148994487Y-103215345D01*
X148994487Y-103215345D02*
X148946868Y-103358202D01*
X148946868Y-103358202D02*
X148851629Y-103453440D01*
X148851629Y-103453440D02*
X148756391Y-103501059D01*
X148756391Y-103501059D02*
X148565915Y-103548678D01*
X148565915Y-103548678D02*
X148423058Y-103548678D01*
X148423058Y-103548678D02*
X148232582Y-103501059D01*
X148232582Y-103501059D02*
X148137344Y-103453440D01*
X148137344Y-103453440D02*
X148042106Y-103358202D01*
X148042106Y-103358202D02*
X147994487Y-103215345D01*
X147994487Y-103215345D02*
X147994487Y-103120107D01*
X147994487Y-103120107D02*
X148042106Y-102977250D01*
X148042106Y-102977250D02*
X148089725Y-102929631D01*
X148089725Y-102548678D02*
X148042106Y-102501059D01*
X148042106Y-102501059D02*
X147994487Y-102405821D01*
X147994487Y-102405821D02*
X147994487Y-102167726D01*
X147994487Y-102167726D02*
X148042106Y-102072488D01*
X148042106Y-102072488D02*
X148089725Y-102024869D01*
X148089725Y-102024869D02*
X148184963Y-101977250D01*
X148184963Y-101977250D02*
X148280201Y-101977250D01*
X148280201Y-101977250D02*
X148423058Y-102024869D01*
X148423058Y-102024869D02*
X148994487Y-102596297D01*
X148994487Y-102596297D02*
X148994487Y-101977250D01*
X153518095Y-106824819D02*
X153518095Y-107634342D01*
X153518095Y-107634342D02*
X153565714Y-107729580D01*
X153565714Y-107729580D02*
X153613333Y-107777200D01*
X153613333Y-107777200D02*
X153708571Y-107824819D01*
X153708571Y-107824819D02*
X153899047Y-107824819D01*
X153899047Y-107824819D02*
X153994285Y-107777200D01*
X153994285Y-107777200D02*
X154041904Y-107729580D01*
X154041904Y-107729580D02*
X154089523Y-107634342D01*
X154089523Y-107634342D02*
X154089523Y-106824819D01*
X154518095Y-106920057D02*
X154565714Y-106872438D01*
X154565714Y-106872438D02*
X154660952Y-106824819D01*
X154660952Y-106824819D02*
X154899047Y-106824819D01*
X154899047Y-106824819D02*
X154994285Y-106872438D01*
X154994285Y-106872438D02*
X155041904Y-106920057D01*
X155041904Y-106920057D02*
X155089523Y-107015295D01*
X155089523Y-107015295D02*
X155089523Y-107110533D01*
X155089523Y-107110533D02*
X155041904Y-107253390D01*
X155041904Y-107253390D02*
X154470476Y-107824819D01*
X154470476Y-107824819D02*
X155089523Y-107824819D01*
X161123333Y-71574819D02*
X160790000Y-71098628D01*
X160551905Y-71574819D02*
X160551905Y-70574819D01*
X160551905Y-70574819D02*
X160932857Y-70574819D01*
X160932857Y-70574819D02*
X161028095Y-70622438D01*
X161028095Y-70622438D02*
X161075714Y-70670057D01*
X161075714Y-70670057D02*
X161123333Y-70765295D01*
X161123333Y-70765295D02*
X161123333Y-70908152D01*
X161123333Y-70908152D02*
X161075714Y-71003390D01*
X161075714Y-71003390D02*
X161028095Y-71051009D01*
X161028095Y-71051009D02*
X160932857Y-71098628D01*
X160932857Y-71098628D02*
X160551905Y-71098628D01*
X161456667Y-70574819D02*
X162075714Y-70574819D01*
X162075714Y-70574819D02*
X161742381Y-70955771D01*
X161742381Y-70955771D02*
X161885238Y-70955771D01*
X161885238Y-70955771D02*
X161980476Y-71003390D01*
X161980476Y-71003390D02*
X162028095Y-71051009D01*
X162028095Y-71051009D02*
X162075714Y-71146247D01*
X162075714Y-71146247D02*
X162075714Y-71384342D01*
X162075714Y-71384342D02*
X162028095Y-71479580D01*
X162028095Y-71479580D02*
X161980476Y-71527200D01*
X161980476Y-71527200D02*
X161885238Y-71574819D01*
X161885238Y-71574819D02*
X161599524Y-71574819D01*
X161599524Y-71574819D02*
X161504286Y-71527200D01*
X161504286Y-71527200D02*
X161456667Y-71479580D01*
X150785595Y-92614819D02*
X150785595Y-93424342D01*
X150785595Y-93424342D02*
X150833214Y-93519580D01*
X150833214Y-93519580D02*
X150880833Y-93567200D01*
X150880833Y-93567200D02*
X150976071Y-93614819D01*
X150976071Y-93614819D02*
X151166547Y-93614819D01*
X151166547Y-93614819D02*
X151261785Y-93567200D01*
X151261785Y-93567200D02*
X151309404Y-93519580D01*
X151309404Y-93519580D02*
X151357023Y-93424342D01*
X151357023Y-93424342D02*
X151357023Y-92614819D01*
X152357023Y-93614819D02*
X151785595Y-93614819D01*
X152071309Y-93614819D02*
X152071309Y-92614819D01*
X152071309Y-92614819D02*
X151976071Y-92757676D01*
X151976071Y-92757676D02*
X151880833Y-92852914D01*
X151880833Y-92852914D02*
X151785595Y-92900533D01*
X158987261Y-74350057D02*
X158892023Y-74302438D01*
X158892023Y-74302438D02*
X158796785Y-74207200D01*
X158796785Y-74207200D02*
X158653928Y-74064342D01*
X158653928Y-74064342D02*
X158558690Y-74016723D01*
X158558690Y-74016723D02*
X158463452Y-74016723D01*
X158511071Y-74254819D02*
X158415833Y-74207200D01*
X158415833Y-74207200D02*
X158320595Y-74111961D01*
X158320595Y-74111961D02*
X158272976Y-73921485D01*
X158272976Y-73921485D02*
X158272976Y-73588152D01*
X158272976Y-73588152D02*
X158320595Y-73397676D01*
X158320595Y-73397676D02*
X158415833Y-73302438D01*
X158415833Y-73302438D02*
X158511071Y-73254819D01*
X158511071Y-73254819D02*
X158701547Y-73254819D01*
X158701547Y-73254819D02*
X158796785Y-73302438D01*
X158796785Y-73302438D02*
X158892023Y-73397676D01*
X158892023Y-73397676D02*
X158939642Y-73588152D01*
X158939642Y-73588152D02*
X158939642Y-73921485D01*
X158939642Y-73921485D02*
X158892023Y-74111961D01*
X158892023Y-74111961D02*
X158796785Y-74207200D01*
X158796785Y-74207200D02*
X158701547Y-74254819D01*
X158701547Y-74254819D02*
X158511071Y-74254819D01*
X159320595Y-73350057D02*
X159368214Y-73302438D01*
X159368214Y-73302438D02*
X159463452Y-73254819D01*
X159463452Y-73254819D02*
X159701547Y-73254819D01*
X159701547Y-73254819D02*
X159796785Y-73302438D01*
X159796785Y-73302438D02*
X159844404Y-73350057D01*
X159844404Y-73350057D02*
X159892023Y-73445295D01*
X159892023Y-73445295D02*
X159892023Y-73540533D01*
X159892023Y-73540533D02*
X159844404Y-73683390D01*
X159844404Y-73683390D02*
X159272976Y-74254819D01*
X159272976Y-74254819D02*
X159892023Y-74254819D01*
X158654761Y-86437557D02*
X158559523Y-86389938D01*
X158559523Y-86389938D02*
X158464285Y-86294700D01*
X158464285Y-86294700D02*
X158321428Y-86151842D01*
X158321428Y-86151842D02*
X158226190Y-86104223D01*
X158226190Y-86104223D02*
X158130952Y-86104223D01*
X158178571Y-86342319D02*
X158083333Y-86294700D01*
X158083333Y-86294700D02*
X157988095Y-86199461D01*
X157988095Y-86199461D02*
X157940476Y-86008985D01*
X157940476Y-86008985D02*
X157940476Y-85675652D01*
X157940476Y-85675652D02*
X157988095Y-85485176D01*
X157988095Y-85485176D02*
X158083333Y-85389938D01*
X158083333Y-85389938D02*
X158178571Y-85342319D01*
X158178571Y-85342319D02*
X158369047Y-85342319D01*
X158369047Y-85342319D02*
X158464285Y-85389938D01*
X158464285Y-85389938D02*
X158559523Y-85485176D01*
X158559523Y-85485176D02*
X158607142Y-85675652D01*
X158607142Y-85675652D02*
X158607142Y-86008985D01*
X158607142Y-86008985D02*
X158559523Y-86199461D01*
X158559523Y-86199461D02*
X158464285Y-86294700D01*
X158464285Y-86294700D02*
X158369047Y-86342319D01*
X158369047Y-86342319D02*
X158178571Y-86342319D01*
X159559523Y-86342319D02*
X158988095Y-86342319D01*
X159273809Y-86342319D02*
X159273809Y-85342319D01*
X159273809Y-85342319D02*
X159178571Y-85485176D01*
X159178571Y-85485176D02*
X159083333Y-85580414D01*
X159083333Y-85580414D02*
X158988095Y-85628033D01*
X157146666Y-113754819D02*
X157146666Y-114469104D01*
X157146666Y-114469104D02*
X157099047Y-114611961D01*
X157099047Y-114611961D02*
X157003809Y-114707200D01*
X157003809Y-114707200D02*
X156860952Y-114754819D01*
X156860952Y-114754819D02*
X156765714Y-114754819D01*
X157575238Y-113850057D02*
X157622857Y-113802438D01*
X157622857Y-113802438D02*
X157718095Y-113754819D01*
X157718095Y-113754819D02*
X157956190Y-113754819D01*
X157956190Y-113754819D02*
X158051428Y-113802438D01*
X158051428Y-113802438D02*
X158099047Y-113850057D01*
X158099047Y-113850057D02*
X158146666Y-113945295D01*
X158146666Y-113945295D02*
X158146666Y-114040533D01*
X158146666Y-114040533D02*
X158099047Y-114183390D01*
X158099047Y-114183390D02*
X157527619Y-114754819D01*
X157527619Y-114754819D02*
X158146666Y-114754819D01*
X125396666Y-113754819D02*
X125396666Y-114469104D01*
X125396666Y-114469104D02*
X125349047Y-114611961D01*
X125349047Y-114611961D02*
X125253809Y-114707200D01*
X125253809Y-114707200D02*
X125110952Y-114754819D01*
X125110952Y-114754819D02*
X125015714Y-114754819D01*
X126396666Y-114754819D02*
X125825238Y-114754819D01*
X126110952Y-114754819D02*
X126110952Y-113754819D01*
X126110952Y-113754819D02*
X126015714Y-113897676D01*
X126015714Y-113897676D02*
X125920476Y-113992914D01*
X125920476Y-113992914D02*
X125825238Y-114040533D01*
X120483333Y-79194819D02*
X120150000Y-78718628D01*
X119911905Y-79194819D02*
X119911905Y-78194819D01*
X119911905Y-78194819D02*
X120292857Y-78194819D01*
X120292857Y-78194819D02*
X120388095Y-78242438D01*
X120388095Y-78242438D02*
X120435714Y-78290057D01*
X120435714Y-78290057D02*
X120483333Y-78385295D01*
X120483333Y-78385295D02*
X120483333Y-78528152D01*
X120483333Y-78528152D02*
X120435714Y-78623390D01*
X120435714Y-78623390D02*
X120388095Y-78671009D01*
X120388095Y-78671009D02*
X120292857Y-78718628D01*
X120292857Y-78718628D02*
X119911905Y-78718628D01*
X120864286Y-78290057D02*
X120911905Y-78242438D01*
X120911905Y-78242438D02*
X121007143Y-78194819D01*
X121007143Y-78194819D02*
X121245238Y-78194819D01*
X121245238Y-78194819D02*
X121340476Y-78242438D01*
X121340476Y-78242438D02*
X121388095Y-78290057D01*
X121388095Y-78290057D02*
X121435714Y-78385295D01*
X121435714Y-78385295D02*
X121435714Y-78480533D01*
X121435714Y-78480533D02*
X121388095Y-78623390D01*
X121388095Y-78623390D02*
X120816667Y-79194819D01*
X120816667Y-79194819D02*
X121435714Y-79194819D01*
X134929580Y-103426666D02*
X134977200Y-103474285D01*
X134977200Y-103474285D02*
X135024819Y-103617142D01*
X135024819Y-103617142D02*
X135024819Y-103712380D01*
X135024819Y-103712380D02*
X134977200Y-103855237D01*
X134977200Y-103855237D02*
X134881961Y-103950475D01*
X134881961Y-103950475D02*
X134786723Y-103998094D01*
X134786723Y-103998094D02*
X134596247Y-104045713D01*
X134596247Y-104045713D02*
X134453390Y-104045713D01*
X134453390Y-104045713D02*
X134262914Y-103998094D01*
X134262914Y-103998094D02*
X134167676Y-103950475D01*
X134167676Y-103950475D02*
X134072438Y-103855237D01*
X134072438Y-103855237D02*
X134024819Y-103712380D01*
X134024819Y-103712380D02*
X134024819Y-103617142D01*
X134024819Y-103617142D02*
X134072438Y-103474285D01*
X134072438Y-103474285D02*
X134120057Y-103426666D01*
X135024819Y-102474285D02*
X135024819Y-103045713D01*
X135024819Y-102759999D02*
X134024819Y-102759999D01*
X134024819Y-102759999D02*
X134167676Y-102855237D01*
X134167676Y-102855237D02*
X134262914Y-102950475D01*
X134262914Y-102950475D02*
X134310533Y-103045713D01*
X120483333Y-83004819D02*
X120150000Y-82528628D01*
X119911905Y-83004819D02*
X119911905Y-82004819D01*
X119911905Y-82004819D02*
X120292857Y-82004819D01*
X120292857Y-82004819D02*
X120388095Y-82052438D01*
X120388095Y-82052438D02*
X120435714Y-82100057D01*
X120435714Y-82100057D02*
X120483333Y-82195295D01*
X120483333Y-82195295D02*
X120483333Y-82338152D01*
X120483333Y-82338152D02*
X120435714Y-82433390D01*
X120435714Y-82433390D02*
X120388095Y-82481009D01*
X120388095Y-82481009D02*
X120292857Y-82528628D01*
X120292857Y-82528628D02*
X119911905Y-82528628D01*
X121435714Y-83004819D02*
X120864286Y-83004819D01*
X121150000Y-83004819D02*
X121150000Y-82004819D01*
X121150000Y-82004819D02*
X121054762Y-82147676D01*
X121054762Y-82147676D02*
X120959524Y-82242914D01*
X120959524Y-82242914D02*
X120864286Y-82290533D01*
D11*
%TO.C,C2*%
X147409668Y-102762965D02*
G75*
G03*
X147409668Y-102762965I-5120000J0D01*
G01*
X147334668Y-103362965D02*
X137244668Y-103362965D01*
X147369668Y-102762965D02*
X137209668Y-102762965D01*
X141048668Y-105363965D02*
X137918668Y-105363965D01*
X141048668Y-105683965D02*
X138123668Y-105683965D01*
X141048668Y-105483965D02*
X137991668Y-105483965D01*
X146751668Y-105203965D02*
X143530668Y-105203965D01*
X141048668Y-105403965D02*
X137942668Y-105403965D01*
X141048668Y-104803965D02*
X137632668Y-104803965D01*
X145119668Y-107003965D02*
X139459668Y-107003965D01*
X146369668Y-105803965D02*
X143530668Y-105803965D01*
X146979668Y-104723965D02*
X143530668Y-104723965D01*
X147174668Y-104163965D02*
X143530668Y-104163965D01*
X143151668Y-107803965D02*
X141427668Y-107803965D01*
X147186668Y-104123965D02*
X143530668Y-104123965D01*
X145890668Y-106363965D02*
X143530668Y-106363965D01*
X147086668Y-104443965D02*
X143530668Y-104443965D01*
X144233668Y-107483965D02*
X140345668Y-107483965D01*
X147357668Y-103122965D02*
X137221668Y-103122965D01*
X147339668Y-103322965D02*
X137239668Y-103322965D01*
X145445668Y-106763965D02*
X139133668Y-106763965D01*
X141048668Y-105083965D02*
X137764668Y-105083965D01*
X146928668Y-104843965D02*
X143530668Y-104843965D01*
X141048668Y-106403965D02*
X138728668Y-106403965D01*
X141048668Y-105923965D02*
X138300668Y-105923965D01*
X146587668Y-105483965D02*
X143530668Y-105483965D01*
X146005668Y-106243965D02*
X143530668Y-106243965D01*
X147324668Y-103442965D02*
X137254668Y-103442965D01*
X141048668Y-104123965D02*
X137392668Y-104123965D01*
X146793668Y-105123965D02*
X143530668Y-105123965D01*
X147100668Y-104403965D02*
X143530668Y-104403965D01*
X141048668Y-105563965D02*
X138042668Y-105563965D01*
X141048668Y-106043965D02*
X138397668Y-106043965D01*
X144498668Y-107363965D02*
X140080668Y-107363965D01*
X147293668Y-103643965D02*
X137285668Y-103643965D01*
X147163668Y-104203965D02*
X143530668Y-104203965D01*
X147366668Y-102962965D02*
X137212668Y-102962965D01*
X141048668Y-106243965D02*
X138573668Y-106243965D01*
X147245668Y-103883965D02*
X137333668Y-103883965D01*
X147343668Y-103282965D02*
X137235668Y-103282965D01*
X141048668Y-105283965D02*
X137872668Y-105283965D01*
X147072668Y-104483965D02*
X143530668Y-104483965D01*
X141048668Y-104323965D02*
X137452668Y-104323965D01*
X146946668Y-104803965D02*
X143530668Y-104803965D01*
X141048668Y-106283965D02*
X138610668Y-106283965D01*
X146147668Y-106083965D02*
X143530668Y-106083965D01*
X141048668Y-105243965D02*
X137849668Y-105243965D01*
X147027668Y-104603965D02*
X143530668Y-104603965D01*
X141048668Y-104163965D02*
X137404668Y-104163965D01*
X145636668Y-106603965D02*
X138942668Y-106603965D01*
X147113668Y-104363965D02*
X143530668Y-104363965D01*
X146214668Y-106003965D02*
X143530668Y-106003965D01*
X147263668Y-103803965D02*
X137315668Y-103803965D01*
X141048668Y-105843965D02*
X138239668Y-105843965D01*
X146834668Y-105043965D02*
X143530668Y-105043965D01*
X141048668Y-106123965D02*
X138465668Y-106123965D01*
X141048668Y-105523965D02*
X138016668Y-105523965D01*
X145543668Y-106683965D02*
X139035668Y-106683965D01*
X145590668Y-106643965D02*
X138988668Y-106643965D01*
X146113668Y-106123965D02*
X143530668Y-106123965D01*
X147362668Y-103042965D02*
X137216668Y-103042965D01*
X141048668Y-105323965D02*
X137894668Y-105323965D01*
X144799668Y-107203965D02*
X139779668Y-107203965D01*
X146636668Y-105403965D02*
X143530668Y-105403965D01*
X141048668Y-104403965D02*
X137478668Y-104403965D01*
X147354668Y-103162965D02*
X137224668Y-103162965D01*
X145395668Y-106803965D02*
X139183668Y-106803965D01*
X141048668Y-105963965D02*
X138332668Y-105963965D01*
X141048668Y-104723965D02*
X137599668Y-104723965D01*
X141048668Y-105203965D02*
X137827668Y-105203965D01*
X147364668Y-103002965D02*
X137214668Y-103002965D01*
X147207668Y-104043965D02*
X143530668Y-104043965D01*
X144868668Y-107163965D02*
X139710668Y-107163965D01*
X141048668Y-106163965D02*
X138500668Y-106163965D01*
X145664668Y-97783319D02*
X144664668Y-97783319D01*
X147367668Y-102922965D02*
X137211668Y-102922965D01*
X146873668Y-104963965D02*
X143530668Y-104963965D01*
X147217668Y-104003965D02*
X137361668Y-104003965D01*
X141048668Y-105043965D02*
X137744668Y-105043965D01*
X141048668Y-106323965D02*
X138649668Y-106323965D01*
X146660668Y-105363965D02*
X143530668Y-105363965D01*
X145929668Y-106323965D02*
X143530668Y-106323965D01*
X146042668Y-106203965D02*
X143530668Y-106203965D01*
X141048668Y-104563965D02*
X137535668Y-104563965D01*
X141048668Y-104603965D02*
X137551668Y-104603965D01*
X141048668Y-104883965D02*
X137668668Y-104883965D01*
X145234668Y-106923965D02*
X139344668Y-106923965D01*
X144654668Y-107283965D02*
X139924668Y-107283965D01*
X146684668Y-105323965D02*
X143530668Y-105323965D01*
X146772668Y-105163965D02*
X143530668Y-105163965D01*
X145343668Y-106843965D02*
X139235668Y-106843965D01*
X146399668Y-105763965D02*
X143530668Y-105763965D01*
X141048668Y-106443965D02*
X138769668Y-106443965D01*
X146853668Y-105003965D02*
X143530668Y-105003965D01*
X141048668Y-105443965D02*
X137966668Y-105443965D01*
X146536668Y-105563965D02*
X143530668Y-105563965D01*
X146996668Y-104683965D02*
X143530668Y-104683965D01*
X146729668Y-105243965D02*
X143530668Y-105243965D01*
X142888668Y-107843965D02*
X141690668Y-107843965D01*
X141048668Y-104083965D02*
X137382668Y-104083965D01*
X147307668Y-103563965D02*
X137271668Y-103563965D01*
X141048668Y-106483965D02*
X138811668Y-106483965D01*
X141048668Y-104203965D02*
X137415668Y-104203965D01*
X141048668Y-105003965D02*
X137725668Y-105003965D01*
X141048668Y-105803965D02*
X138209668Y-105803965D01*
X146339668Y-105843965D02*
X143530668Y-105843965D01*
X141048668Y-105763965D02*
X138179668Y-105763965D01*
X147313668Y-103523965D02*
X137265668Y-103523965D01*
X143351668Y-107763965D02*
X141227668Y-107763965D01*
X147368668Y-102882965D02*
X137210668Y-102882965D01*
X146181668Y-106043965D02*
X143530668Y-106043965D01*
X145850668Y-106403965D02*
X143530668Y-106403965D01*
X146706668Y-105283965D02*
X143530668Y-105283965D01*
X145178668Y-106963965D02*
X139400668Y-106963965D01*
X141048668Y-105643965D02*
X138095668Y-105643965D01*
X147300668Y-103603965D02*
X137278668Y-103603965D01*
X141048668Y-105603965D02*
X138068668Y-105603965D01*
X147271668Y-103763965D02*
X137307668Y-103763965D01*
X141048668Y-104483965D02*
X137506668Y-104483965D01*
X145725668Y-106523965D02*
X138853668Y-106523965D01*
X141048668Y-104643965D02*
X137566668Y-104643965D01*
X147369668Y-102842965D02*
X137209668Y-102842965D01*
X146427668Y-105723965D02*
X143530668Y-105723965D01*
X141048668Y-104683965D02*
X137582668Y-104683965D01*
X147227668Y-103963965D02*
X137351668Y-103963965D01*
X146612668Y-105443965D02*
X143530668Y-105443965D01*
X144934668Y-107123965D02*
X139644668Y-107123965D01*
X146246668Y-105963965D02*
X143530668Y-105963965D01*
X147126668Y-104323965D02*
X143530668Y-104323965D01*
X145289668Y-106883965D02*
X139289668Y-106883965D01*
X147347668Y-103242965D02*
X137231668Y-103242965D01*
X143919668Y-107603965D02*
X140659668Y-107603965D01*
X146562668Y-105523965D02*
X143530668Y-105523965D01*
X144998668Y-107083965D02*
X139580668Y-107083965D01*
X147329668Y-103402965D02*
X137249668Y-103402965D01*
X145968668Y-106283965D02*
X143530668Y-106283965D01*
X141048668Y-104963965D02*
X137705668Y-104963965D01*
X141048668Y-105163965D02*
X137806668Y-105163965D01*
X141048668Y-104523965D02*
X137521668Y-104523965D01*
X147043668Y-104563965D02*
X143530668Y-104563965D01*
X146309668Y-105883965D02*
X143530668Y-105883965D01*
X144414668Y-107403965D02*
X140164668Y-107403965D01*
X147279668Y-103723965D02*
X137299668Y-103723965D01*
X141048668Y-104043965D02*
X137371668Y-104043965D01*
X145059668Y-107043965D02*
X139519668Y-107043965D01*
X144031668Y-107563965D02*
X140547668Y-107563965D01*
X141048668Y-106203965D02*
X138536668Y-106203965D01*
X146078668Y-106163965D02*
X143530668Y-106163965D01*
X141048668Y-104923965D02*
X137686668Y-104923965D01*
X147236668Y-103923965D02*
X137342668Y-103923965D01*
X141048668Y-106083965D02*
X138431668Y-106083965D01*
X141048668Y-104443965D02*
X137492668Y-104443965D01*
X147319668Y-103483965D02*
X137259668Y-103483965D01*
X146814668Y-105083965D02*
X143530668Y-105083965D01*
X145809668Y-106443965D02*
X143530668Y-106443965D01*
X143667668Y-107683965D02*
X140911668Y-107683965D01*
X147254668Y-103843965D02*
X137324668Y-103843965D01*
X147286668Y-103683965D02*
X137292668Y-103683965D01*
X147012668Y-104643965D02*
X143530668Y-104643965D01*
X141048668Y-104283965D02*
X137439668Y-104283965D01*
X145681668Y-106563965D02*
X138897668Y-106563965D01*
X146483668Y-105643965D02*
X143530668Y-105643965D01*
X143519668Y-107723965D02*
X141059668Y-107723965D01*
X146963668Y-104763965D02*
X143530668Y-104763965D01*
X145164668Y-97283319D02*
X145164668Y-98283319D01*
X146910668Y-104883965D02*
X143530668Y-104883965D01*
X147369668Y-102802965D02*
X137209668Y-102802965D01*
X146892668Y-104923965D02*
X143530668Y-104923965D01*
X147139668Y-104283965D02*
X143530668Y-104283965D01*
X144728668Y-107243965D02*
X139850668Y-107243965D01*
X141048668Y-105723965D02*
X138151668Y-105723965D01*
X141048668Y-104843965D02*
X137650668Y-104843965D01*
X146510668Y-105603965D02*
X143530668Y-105603965D01*
X145495668Y-106723965D02*
X139083668Y-106723965D01*
X141048668Y-105883965D02*
X138269668Y-105883965D01*
X141048668Y-104363965D02*
X137465668Y-104363965D01*
X147359668Y-103082965D02*
X137219668Y-103082965D01*
X146455668Y-105683965D02*
X143530668Y-105683965D01*
X141048668Y-106363965D02*
X138688668Y-106363965D01*
X144135668Y-107523965D02*
X140443668Y-107523965D01*
X144326668Y-107443965D02*
X140252668Y-107443965D01*
X147196668Y-104083965D02*
X143530668Y-104083965D01*
X147151668Y-104243965D02*
X143530668Y-104243965D01*
X141048668Y-104243965D02*
X137427668Y-104243965D01*
X147351668Y-103202965D02*
X137227668Y-103202965D01*
X143799668Y-107643965D02*
X140779668Y-107643965D01*
X141048668Y-106003965D02*
X138364668Y-106003965D01*
X144578668Y-107323965D02*
X140000668Y-107323965D01*
X147057668Y-104523965D02*
X143530668Y-104523965D01*
X146278668Y-105923965D02*
X143530668Y-105923965D01*
X141048668Y-104763965D02*
X137615668Y-104763965D01*
X145767668Y-106483965D02*
X143530668Y-106483965D01*
X141048668Y-105123965D02*
X137785668Y-105123965D01*
%TO.C,U2*%
X158380000Y-106280000D02*
X152370000Y-106280000D01*
X156130000Y-99460000D02*
X152370000Y-99460000D01*
X152370000Y-106280000D02*
X152370000Y-105020000D01*
X152370000Y-99460000D02*
X152370000Y-100720000D01*
%TO.C,R3*%
X158977064Y-71999162D02*
X158522936Y-71999162D01*
X158977064Y-70529162D02*
X158522936Y-70529162D01*
%TO.C,U1*%
X128047500Y-85380000D02*
X128047500Y-59950000D01*
X128047500Y-85380000D02*
X130587500Y-85380000D01*
X130587500Y-85380000D02*
X130587500Y-92280000D01*
X130587500Y-92280000D02*
X153907500Y-92280000D01*
X151787500Y-57820000D02*
X130177500Y-57820000D01*
X153907500Y-92280000D02*
X153907500Y-59950000D01*
X130177500Y-57820000D02*
G75*
G03*
X128047500Y-59950000I2J-2130002D01*
G01*
X153907500Y-59950000D02*
G75*
G03*
X151777500Y-57820000I-2130000J0D01*
G01*
D10*
X127642500Y-66160000D02*
X127007500Y-66795000D01*
X127007500Y-65525000D01*
X127642500Y-66160000D01*
G36*
X127642500Y-66160000D02*
G01*
X127007500Y-66795000D01*
X127007500Y-65525000D01*
X127642500Y-66160000D01*
G37*
D11*
%TO.C,Q2*%
X159082500Y-74640000D02*
X157407500Y-74640000D01*
X159082500Y-74640000D02*
X159732500Y-74640000D01*
X159082500Y-77760000D02*
X158432500Y-77760000D01*
X159082500Y-77760000D02*
X159732500Y-77760000D01*
%TO.C,Q1*%
X158750000Y-81927500D02*
X158100000Y-81927500D01*
X158750000Y-81927500D02*
X159400000Y-81927500D01*
X158750000Y-85047500D02*
X158100000Y-85047500D01*
X158750000Y-85047500D02*
X160425000Y-85047500D01*
%TO.C,J2*%
X143720000Y-114630000D02*
X145720000Y-114630000D01*
X143720000Y-115880000D02*
X143720000Y-114630000D01*
X144110000Y-115020000D02*
X144110000Y-122490000D01*
X144110000Y-122490000D02*
X156230000Y-122490000D01*
X145170000Y-115980000D02*
X148170000Y-115980000D01*
X145170000Y-117330000D02*
X145920000Y-117330000D01*
X145170000Y-121630000D02*
X145170000Y-117330000D01*
X145420000Y-116980000D02*
X145170000Y-115980000D01*
X145920000Y-116980000D02*
X145420000Y-116980000D01*
X145920000Y-117330000D02*
X145920000Y-116980000D01*
X145920000Y-121630000D02*
X145170000Y-121630000D01*
X147420000Y-116980000D02*
X147420000Y-117330000D01*
X147420000Y-117330000D02*
X148170000Y-117330000D01*
X147920000Y-116980000D02*
X147420000Y-116980000D01*
X148170000Y-115980000D02*
X147920000Y-116980000D01*
X148170000Y-117330000D02*
X148170000Y-121630000D01*
X148170000Y-121630000D02*
X147420000Y-121630000D01*
X148670000Y-115980000D02*
X151670000Y-115980000D01*
X148670000Y-117330000D02*
X149420000Y-117330000D01*
X148670000Y-121630000D02*
X148670000Y-117330000D01*
X148920000Y-116980000D02*
X148670000Y-115980000D01*
X149420000Y-116980000D02*
X148920000Y-116980000D01*
X149420000Y-117330000D02*
X149420000Y-116980000D01*
X149420000Y-121630000D02*
X148670000Y-121630000D01*
X150920000Y-116980000D02*
X150920000Y-117330000D01*
X150920000Y-117330000D02*
X151670000Y-117330000D01*
X151420000Y-116980000D02*
X150920000Y-116980000D01*
X151670000Y-115980000D02*
X151420000Y-116980000D01*
X151670000Y-117330000D02*
X151670000Y-121630000D01*
X151670000Y-121630000D02*
X150920000Y-121630000D01*
X152170000Y-115980000D02*
X155170000Y-115980000D01*
X152170000Y-117330000D02*
X152920000Y-117330000D01*
X152170000Y-121630000D02*
X152170000Y-117330000D01*
X152420000Y-116980000D02*
X152170000Y-115980000D01*
X152920000Y-116980000D02*
X152420000Y-116980000D01*
X152920000Y-117330000D02*
X152920000Y-116980000D01*
X152920000Y-121630000D02*
X152170000Y-121630000D01*
X154420000Y-116980000D02*
X154420000Y-117330000D01*
X154420000Y-117330000D02*
X155170000Y-117330000D01*
X154920000Y-116980000D02*
X154420000Y-116980000D01*
X155170000Y-115980000D02*
X154920000Y-116980000D01*
X155170000Y-117330000D02*
X155170000Y-121630000D01*
X155170000Y-121630000D02*
X154420000Y-121630000D01*
X156230000Y-115020000D02*
X144110000Y-115020000D01*
X156230000Y-122490000D02*
X156230000Y-115020000D01*
X147419647Y-121629845D02*
G75*
G03*
X145920000Y-121630000I-749647J-1700155D01*
G01*
X150919647Y-121629845D02*
G75*
G03*
X149420000Y-121630000I-749647J-1700155D01*
G01*
X154419647Y-121629845D02*
G75*
G03*
X152920000Y-121630000I-749647J-1700155D01*
G01*
%TO.C,J1*%
X126900000Y-122575000D02*
X126900000Y-123315000D01*
X126900000Y-123315000D02*
X127400000Y-123315000D01*
X127140000Y-113154000D02*
X127140000Y-123075000D01*
X127140000Y-113154000D02*
X142260000Y-113154000D01*
X127140000Y-116114000D02*
X142260000Y-116114000D01*
X127140000Y-121015000D02*
X142260000Y-121015000D01*
X127140000Y-122515000D02*
X142260000Y-122515000D01*
X127140000Y-123075000D02*
X142260000Y-123075000D01*
X133473000Y-119438000D02*
X133426000Y-119484000D01*
X133666000Y-119654000D02*
X133631000Y-119689000D01*
X135770000Y-117140000D02*
X135735000Y-117176000D01*
X135975000Y-117346000D02*
X135928000Y-117392000D01*
X138473000Y-119438000D02*
X138426000Y-119484000D01*
X138666000Y-119654000D02*
X138631000Y-119689000D01*
X140770000Y-117140000D02*
X140735000Y-117176000D01*
X140975000Y-117346000D02*
X140928000Y-117392000D01*
X142260000Y-113154000D02*
X142260000Y-123075000D01*
X128165001Y-117731001D02*
G75*
G03*
X128164574Y-119098042I1534992J-684000D01*
G01*
X130383999Y-116880001D02*
G75*
G03*
X129016958Y-116879574I-684000J-1534992D01*
G01*
X129016000Y-119949999D02*
G75*
G03*
X129728805Y-120095252I683999J1535000D01*
G01*
X129700000Y-120094999D02*
G75*
G03*
X130383318Y-119949755I0J1679999D01*
G01*
X131235000Y-119099000D02*
G75*
G03*
X131235426Y-117731958I-1535000J684000D01*
G01*
X136380000Y-118415000D02*
G75*
G03*
X136380000Y-118415000I-1680000J0D01*
G01*
X141380000Y-118415000D02*
G75*
G03*
X141380000Y-118415000I-1680000J0D01*
G01*
%TO.C,R2*%
X123417064Y-79475000D02*
X122962936Y-79475000D01*
X123417064Y-78005000D02*
X122962936Y-78005000D01*
%TO.C,C1*%
X131030000Y-96410000D02*
X131030000Y-97660000D01*
X131655000Y-97035000D02*
X130405000Y-97035000D01*
X132565563Y-97900000D02*
X129780000Y-97900000D01*
X132565563Y-97900000D02*
X133630000Y-98964437D01*
X123974437Y-97900000D02*
X126760000Y-97900000D01*
X123974437Y-97900000D02*
X122910000Y-98964437D01*
X133630000Y-98964437D02*
X133630000Y-108620000D01*
X122910000Y-98964437D02*
X122910000Y-108620000D01*
X133630000Y-108620000D02*
X129780000Y-108620000D01*
X122910000Y-108620000D02*
X126760000Y-108620000D01*
%TO.C,R1*%
X122962936Y-81815000D02*
X123417064Y-81815000D01*
X122962936Y-83285000D02*
X123417064Y-83285000D01*
%TD*%
M02*
