M48
; DRILL file {KiCad 7.0.7} date Fri Oct 27 22:12:42 2023
; FORMAT={-:-/ absolute / inch / decimal}
; #@! TF.CreationDate,2023-10-27T22:12:42-06:00
; #@! TF.GenerationSoftware,Kicad,Pcbnew,7.0.7
; #@! TF.FileFunction,Plated,1,2,PTH
FMAT,2
INCH
; #@! TA.AperFunction,Plated,PTH,ViaDrill
T1C0.0157
; #@! TA.AperFunction,Plated,PTH,ComponentDrill
T2C0.0394
; #@! TA.AperFunction,Plated,PTH,ComponentDrill
T3C0.0472
; #@! TA.AperFunction,Plated,PTH,ComponentDrill
T4C0.0512
%
G90
G05
T1
X5.5Y-4.2307
X5.5Y-4.55
X5.85Y-3.25
X6.05Y-4.6
X6.35Y-3.15
X6.35Y-3.5
T2
X5.1003Y-2.6047
X5.1003Y-2.7047
X5.1003Y-2.8047
X5.1003Y-2.9047
X5.1003Y-3.0047
X5.1003Y-3.1047
X5.1003Y-3.2047
X5.1003Y-3.3047
X5.6Y-3.95
X5.6Y-4.1469
X6.0003Y-2.6047
X6.0003Y-2.7047
X6.0003Y-2.8047
X6.0003Y-2.9047
X6.0003Y-3.0047
X6.0003Y-3.1047
X6.0003Y-3.2047
X6.0003Y-3.3047
T3
X5.7744Y-4.7
X5.9122Y-4.7
X6.05Y-4.7
T4
X5.1063Y-4.662
X5.3031Y-4.662
X5.5Y-4.662
T0
M30
