%TF.GenerationSoftware,KiCad,Pcbnew,7.0.7*%
%TF.CreationDate,2023-10-31T08:07:36-06:00*%
%TF.ProjectId,RatGDO-OpenSource-D1Mini-ESP32,52617447-444f-42d4-9f70-656e536f7572,rev?*%
%TF.SameCoordinates,Original*%
%TF.FileFunction,Copper,L2,Bot*%
%TF.FilePolarity,Positive*%
%FSLAX46Y46*%
G04 Gerber Fmt 4.6, Leading zero omitted, Abs format (unit mm)*
G04 Created by KiCad (PCBNEW 7.0.7) date 2023-10-31 08:07:36*
%MOMM*%
%LPD*%
G01*
G04 APERTURE LIST*
G04 Aperture macros list*
%AMRoundRect*
0 Rectangle with rounded corners*
0 $1 Rounding radius*
0 $2 $3 $4 $5 $6 $7 $8 $9 X,Y pos of 4 corners*
0 Add a 4 corners polygon primitive as box body*
4,1,4,$2,$3,$4,$5,$6,$7,$8,$9,$2,$3,0*
0 Add four circle primitives for the rounded corners*
1,1,$1+$1,$2,$3*
1,1,$1+$1,$4,$5*
1,1,$1+$1,$6,$7*
1,1,$1+$1,$8,$9*
0 Add four rect primitives between the rounded corners*
20,1,$1+$1,$2,$3,$4,$5,0*
20,1,$1+$1,$4,$5,$6,$7,0*
20,1,$1+$1,$6,$7,$8,$9,0*
20,1,$1+$1,$8,$9,$2,$3,0*%
G04 Aperture macros list end*
%TA.AperFunction,ComponentPad*%
%ADD10R,1.700000X1.700000*%
%TD*%
%TA.AperFunction,ComponentPad*%
%ADD11O,1.700000X1.700000*%
%TD*%
%TA.AperFunction,ComponentPad*%
%ADD12C,1.400000*%
%TD*%
%TA.AperFunction,ComponentPad*%
%ADD13RoundRect,0.250000X-0.650000X-1.550000X0.650000X-1.550000X0.650000X1.550000X-0.650000X1.550000X0*%
%TD*%
%TA.AperFunction,ComponentPad*%
%ADD14O,1.800000X3.600000*%
%TD*%
%TA.AperFunction,ComponentPad*%
%ADD15R,2.600000X2.600000*%
%TD*%
%TA.AperFunction,ComponentPad*%
%ADD16C,2.600000*%
%TD*%
%TA.AperFunction,ViaPad*%
%ADD17C,0.800000*%
%TD*%
G04 APERTURE END LIST*
D10*
%TO.P,J3,1,Pin_1*%
%TO.N,Net-(J1-BLK{slash}OBST)*%
X147320000Y-111760000D03*
D11*
%TO.P,J3,2,Pin_2*%
%TO.N,Net-(J1-RED{slash}CTRL)*%
X149860000Y-111760000D03*
%TO.P,J3,3,Pin_3*%
%TO.N,GND*%
X152400000Y-111760000D03*
%TD*%
D12*
%TO.P,U2,1,GND*%
%TO.N,unconnected-(U2-GND-Pad1)*%
X127000000Y-66040000D03*
%TO.P,U2,2,RST*%
%TO.N,unconnected-(U2-RST-Pad2)*%
X129540000Y-66040000D03*
%TO.P,U2,3,NC*%
%TO.N,unconnected-(U2-NC-Pad3)*%
X127000000Y-68580000D03*
%TO.P,U2,4,IO_36/SVP/A0*%
%TO.N,unconnected-(U2-IO_36{slash}SVP{slash}A0-Pad4)*%
X129540000Y-68580000D03*
%TO.P,U2,5,IO_39/SVN*%
%TO.N,unconnected-(U2-IO_39{slash}SVN-Pad5)*%
X127000000Y-71120000D03*
%TO.P,U2,6,IO_26/D0*%
%TO.N,unconnected-(U2-IO_26{slash}D0-Pad6)*%
X129540000Y-71120000D03*
%TO.P,U2,7,IO_35*%
%TO.N,unconnected-(U2-IO_35-Pad7)*%
X127000000Y-73660000D03*
%TO.P,U2,8,IO_18/D5*%
%TO.N,unconnected-(U2-IO_18{slash}D5-Pad8)*%
X129540000Y-73660000D03*
%TO.P,U2,9,IO_33*%
%TO.N,unconnected-(U2-IO_33-Pad9)*%
X127000000Y-76200000D03*
%TO.P,U2,10,IO_19/D6*%
%TO.N,unconnected-(U2-IO_19{slash}D6-Pad10)*%
X129540000Y-76200000D03*
%TO.P,U2,11,IO_34*%
%TO.N,unconnected-(U2-IO_34-Pad11)*%
X127000000Y-78740000D03*
%TO.P,U2,12,IO_23/D7*%
%TO.N,Net-(U2-IO_23{slash}D7)*%
X129540000Y-78740000D03*
%TO.P,U2,13,IO_14/TMS*%
%TO.N,unconnected-(U2-IO_14{slash}TMS-Pad13)*%
X127000000Y-81280000D03*
%TO.P,U2,14,IO_05/D8*%
%TO.N,unconnected-(U2-IO_05{slash}D8-Pad14)*%
X129540000Y-81280000D03*
%TO.P,U2,15,NC*%
%TO.N,unconnected-(U2-NC-Pad15)*%
X127000000Y-83820000D03*
%TO.P,U2,16,3V3*%
%TO.N,+3.3V*%
X129540000Y-83820000D03*
%TO.P,U2,17,IO_09/SD2*%
%TO.N,unconnected-(U2-IO_09{slash}SD2-Pad17)*%
X127000000Y-86360000D03*
%TO.P,U2,18,IO_13/TCK*%
%TO.N,unconnected-(U2-IO_13{slash}TCK-Pad18)*%
X129540000Y-86360000D03*
%TO.P,U2,19,CMD*%
%TO.N,unconnected-(U2-CMD-Pad19)*%
X127000000Y-88900000D03*
%TO.P,U2,20,IO_10/SD3*%
%TO.N,unconnected-(U2-IO_10{slash}SD3-Pad20)*%
X129540000Y-88900000D03*
%TO.P,U2,21,TXD*%
%TO.N,unconnected-(U2-TXD-Pad21)*%
X152400000Y-66040000D03*
%TO.P,U2,22,GND*%
%TO.N,unconnected-(U2-GND-Pad22)*%
X154940000Y-66040000D03*
%TO.P,U2,23,RXD*%
%TO.N,unconnected-(U2-RXD-Pad23)*%
X152400000Y-68580000D03*
%TO.P,U2,24,IO_27*%
%TO.N,unconnected-(U2-IO_27-Pad24)*%
X154940000Y-68580000D03*
%TO.P,U2,25,IO_22/D1/SCL*%
%TO.N,Net-(Q2-G)*%
X152400000Y-71120000D03*
%TO.P,U2,26,IO_25*%
%TO.N,unconnected-(U2-IO_25-Pad26)*%
X154940000Y-71120000D03*
%TO.P,U2,27,IO_21/D2/SDA*%
%TO.N,Net-(Q1-D)*%
X152400000Y-73660000D03*
%TO.P,U2,28,IO_32*%
%TO.N,unconnected-(U2-IO_32-Pad28)*%
X154940000Y-73660000D03*
%TO.P,U2,29,IO_17/D3*%
%TO.N,unconnected-(U2-IO_17{slash}D3-Pad29)*%
X152400000Y-76200000D03*
%TO.P,U2,30,IO_12/TDI*%
%TO.N,unconnected-(U2-IO_12{slash}TDI-Pad30)*%
X154940000Y-76200000D03*
%TO.P,U2,31,IO_16/D4*%
%TO.N,unconnected-(U2-IO_16{slash}D4-Pad31)*%
X152400000Y-78740000D03*
%TO.P,U2,32,IO_04*%
%TO.N,unconnected-(U2-IO_04-Pad32)*%
X154940000Y-78740000D03*
%TO.P,U2,33,GND*%
%TO.N,GND*%
X152400000Y-81280000D03*
%TO.P,U2,34,IO_00*%
%TO.N,unconnected-(U2-IO_00-Pad34)*%
X154940000Y-81280000D03*
%TO.P,U2,35,VCC_(USB)*%
%TO.N,+5V*%
X152400000Y-83820000D03*
%TO.P,U2,36,IO_02*%
%TO.N,unconnected-(U2-IO_02-Pad36)*%
X154940000Y-83820000D03*
%TO.P,U2,37,TD0*%
%TO.N,unconnected-(U2-TD0-Pad37)*%
X152400000Y-86360000D03*
%TO.P,U2,38,SD1*%
%TO.N,unconnected-(U2-SD1-Pad38)*%
X154940000Y-86360000D03*
%TO.P,U2,39,SD0*%
%TO.N,unconnected-(U2-SD0-Pad39)*%
X152400000Y-88900000D03*
%TO.P,U2,40,CLK*%
%TO.N,unconnected-(U2-CLK-Pad40)*%
X154940000Y-88900000D03*
%TD*%
D13*
%TO.P,J2,1,Pin_1*%
%TO.N,Net-(J1-BLK{slash}OBST)*%
X146670000Y-119380000D03*
D14*
%TO.P,J2,2,Pin_2*%
%TO.N,Net-(J1-RED{slash}CTRL)*%
X150170000Y-119380000D03*
%TO.P,J2,3,Pin_3*%
%TO.N,GND*%
X153670000Y-119380000D03*
%TD*%
D15*
%TO.P,J1,1,BLK/OBST*%
%TO.N,Net-(J1-BLK{slash}OBST)*%
X129700000Y-118415000D03*
D16*
%TO.P,J1,2,RED/CTRL*%
%TO.N,Net-(J1-RED{slash}CTRL)*%
X134700000Y-118415000D03*
%TO.P,J1,3,WHT/GND*%
%TO.N,GND*%
X139700000Y-118415000D03*
%TD*%
D17*
%TO.N,GND*%
X161290000Y-78740000D03*
X158750000Y-77470000D03*
X161290000Y-72390000D03*
X121920000Y-80010000D03*
%TD*%
%TA.AperFunction,Conductor*%
%TO.N,GND*%
G36*
X152921181Y-81450197D02*
G01*
X152937419Y-81463866D01*
X153408861Y-81935308D01*
X153424631Y-81914425D01*
X153424633Y-81914422D01*
X153523760Y-81715349D01*
X153550473Y-81621461D01*
X153587752Y-81562367D01*
X153651061Y-81532809D01*
X153720301Y-81542170D01*
X153773488Y-81587480D01*
X153789006Y-81621459D01*
X153815770Y-81715525D01*
X153815775Y-81715538D01*
X153914938Y-81914683D01*
X153914943Y-81914691D01*
X154049020Y-82092238D01*
X154213437Y-82242123D01*
X154213439Y-82242125D01*
X154402595Y-82359245D01*
X154402596Y-82359245D01*
X154402599Y-82359247D01*
X154596524Y-82434374D01*
X154651924Y-82476946D01*
X154675515Y-82542713D01*
X154659804Y-82610793D01*
X154609780Y-82659572D01*
X154596533Y-82665622D01*
X154448488Y-82722975D01*
X154402601Y-82740752D01*
X154402595Y-82740754D01*
X154213439Y-82857874D01*
X154213437Y-82857876D01*
X154049020Y-83007761D01*
X153914943Y-83185308D01*
X153914938Y-83185316D01*
X153815775Y-83384461D01*
X153815769Y-83384476D01*
X153789266Y-83477627D01*
X153751987Y-83536721D01*
X153688677Y-83566278D01*
X153619438Y-83556916D01*
X153566251Y-83511606D01*
X153550734Y-83477627D01*
X153524230Y-83384476D01*
X153524229Y-83384472D01*
X153524224Y-83384461D01*
X153425061Y-83185316D01*
X153425056Y-83185308D01*
X153290979Y-83007761D01*
X153126562Y-82857876D01*
X153126560Y-82857874D01*
X152937404Y-82740754D01*
X152937398Y-82740751D01*
X152807967Y-82690610D01*
X152742784Y-82665358D01*
X152687385Y-82622786D01*
X152663794Y-82557019D01*
X152679505Y-82488939D01*
X152729529Y-82440160D01*
X152742786Y-82434105D01*
X152937177Y-82358797D01*
X152937181Y-82358795D01*
X153053326Y-82286879D01*
X152583866Y-81817419D01*
X152550381Y-81756096D01*
X152555365Y-81686404D01*
X152597237Y-81630471D01*
X152615245Y-81619258D01*
X152638045Y-81607641D01*
X152727641Y-81518045D01*
X152739254Y-81495252D01*
X152787225Y-81444458D01*
X152855046Y-81427661D01*
X152921181Y-81450197D01*
G37*
%TD.AperFunction*%
%TA.AperFunction,Conductor*%
G36*
X153720562Y-79003083D02*
G01*
X153773749Y-79048393D01*
X153789266Y-79082372D01*
X153815769Y-79175523D01*
X153815775Y-79175538D01*
X153914938Y-79374683D01*
X153914943Y-79374691D01*
X154049020Y-79552238D01*
X154213437Y-79702123D01*
X154213439Y-79702125D01*
X154402595Y-79819245D01*
X154402596Y-79819245D01*
X154402599Y-79819247D01*
X154596524Y-79894374D01*
X154651924Y-79936946D01*
X154675515Y-80002713D01*
X154659804Y-80070793D01*
X154609780Y-80119572D01*
X154596533Y-80125622D01*
X154448488Y-80182975D01*
X154402601Y-80200752D01*
X154402595Y-80200754D01*
X154213439Y-80317874D01*
X154213437Y-80317876D01*
X154049020Y-80467761D01*
X153914943Y-80645308D01*
X153914938Y-80645316D01*
X153815775Y-80844461D01*
X153815770Y-80844474D01*
X153789006Y-80938540D01*
X153751726Y-80997633D01*
X153688417Y-81027190D01*
X153619177Y-81017828D01*
X153565991Y-80972518D01*
X153550473Y-80938538D01*
X153523760Y-80844650D01*
X153424635Y-80645580D01*
X153424630Y-80645572D01*
X153408860Y-80624690D01*
X152937419Y-81096132D01*
X152876096Y-81129617D01*
X152806404Y-81124633D01*
X152750471Y-81082761D01*
X152739256Y-81064751D01*
X152727641Y-81041955D01*
X152727637Y-81041951D01*
X152727636Y-81041949D01*
X152638050Y-80952363D01*
X152638047Y-80952361D01*
X152638045Y-80952359D01*
X152615250Y-80940744D01*
X152564456Y-80892771D01*
X152547661Y-80824950D01*
X152570198Y-80758815D01*
X152583866Y-80742580D01*
X153053327Y-80273119D01*
X152937178Y-80201202D01*
X152937177Y-80201201D01*
X152742786Y-80125894D01*
X152687384Y-80083321D01*
X152663794Y-80017554D01*
X152679505Y-79949474D01*
X152729529Y-79900695D01*
X152742772Y-79894646D01*
X152937401Y-79819247D01*
X153126562Y-79702124D01*
X153290981Y-79552236D01*
X153425058Y-79374689D01*
X153524229Y-79175528D01*
X153550734Y-79082371D01*
X153588013Y-79023278D01*
X153651323Y-78993721D01*
X153720562Y-79003083D01*
G37*
%TD.AperFunction*%
%TA.AperFunction,Conductor*%
G36*
X168852539Y-57170185D02*
G01*
X168898294Y-57222989D01*
X168909500Y-57274500D01*
X168909500Y-126876000D01*
X168889815Y-126943039D01*
X168837011Y-126988794D01*
X168785500Y-127000000D01*
X114424000Y-127000000D01*
X114356961Y-126980315D01*
X114311206Y-126927511D01*
X114300000Y-126876000D01*
X114300000Y-120980001D01*
X145269500Y-120980001D01*
X145269501Y-120980018D01*
X145280000Y-121082796D01*
X145280001Y-121082799D01*
X145335185Y-121249331D01*
X145335186Y-121249334D01*
X145427288Y-121398656D01*
X145551344Y-121522712D01*
X145700666Y-121614814D01*
X145867203Y-121669999D01*
X145969991Y-121680500D01*
X147370008Y-121680499D01*
X147472797Y-121669999D01*
X147639334Y-121614814D01*
X147788656Y-121522712D01*
X147912712Y-121398656D01*
X148004814Y-121249334D01*
X148059999Y-121082797D01*
X148070500Y-120980009D01*
X148070500Y-120339502D01*
X148769500Y-120339502D01*
X148784652Y-120517536D01*
X148844724Y-120748248D01*
X148942919Y-120965480D01*
X148942924Y-120965488D01*
X149076413Y-121162993D01*
X149076418Y-121162998D01*
X149076421Y-121163003D01*
X149241379Y-121335118D01*
X149433053Y-121476879D01*
X149645926Y-121584207D01*
X149873877Y-121654016D01*
X150110346Y-121684298D01*
X150348532Y-121674180D01*
X150581581Y-121623954D01*
X150802790Y-121535064D01*
X151005795Y-121410069D01*
X151184755Y-121252564D01*
X151334523Y-121067080D01*
X151450790Y-120858954D01*
X151530211Y-120634171D01*
X151550224Y-120517453D01*
X151570499Y-120399209D01*
X151570500Y-120399198D01*
X151570500Y-120339478D01*
X152270000Y-120339478D01*
X152285147Y-120517450D01*
X152285148Y-120517453D01*
X152345197Y-120748078D01*
X152443360Y-120965241D01*
X152443362Y-120965244D01*
X152576812Y-121162688D01*
X152576814Y-121162690D01*
X152741706Y-121334736D01*
X152933316Y-121476450D01*
X153146115Y-121583741D01*
X153373987Y-121653526D01*
X153373985Y-121653526D01*
X153420000Y-121659418D01*
X153420000Y-120093658D01*
X153439685Y-120026619D01*
X153492489Y-119980864D01*
X153560184Y-119970719D01*
X153630677Y-119980000D01*
X153630684Y-119980000D01*
X153709316Y-119980000D01*
X153709323Y-119980000D01*
X153779815Y-119970719D01*
X153848849Y-119981484D01*
X153901105Y-120027864D01*
X153920000Y-120093658D01*
X153920000Y-121658264D01*
X154081434Y-121623473D01*
X154302562Y-121534616D01*
X154505494Y-121409666D01*
X154684389Y-121252219D01*
X154684396Y-121252213D01*
X154834102Y-121066805D01*
X154834109Y-121066795D01*
X154950331Y-120858751D01*
X155029722Y-120634052D01*
X155029726Y-120634038D01*
X155069999Y-120399167D01*
X155070000Y-120399156D01*
X155070000Y-119630000D01*
X154383658Y-119630000D01*
X154316619Y-119610315D01*
X154270864Y-119557511D01*
X154260719Y-119489816D01*
X154275177Y-119380000D01*
X154260719Y-119270183D01*
X154271484Y-119201151D01*
X154317864Y-119148895D01*
X154383658Y-119130000D01*
X155070000Y-119130000D01*
X155070000Y-118420522D01*
X155054852Y-118242549D01*
X155054851Y-118242546D01*
X155020339Y-118110000D01*
X159804473Y-118110000D01*
X159824563Y-118442136D01*
X159824563Y-118442141D01*
X159824564Y-118442142D01*
X159884544Y-118769441D01*
X159884545Y-118769445D01*
X159884546Y-118769449D01*
X159983530Y-119087104D01*
X159983534Y-119087116D01*
X159983537Y-119087123D01*
X160120102Y-119390557D01*
X160272763Y-119643089D01*
X160292251Y-119675326D01*
X160497460Y-119937255D01*
X160732744Y-120172539D01*
X160994673Y-120377748D01*
X160994678Y-120377751D01*
X160994682Y-120377754D01*
X161279443Y-120549898D01*
X161582877Y-120686463D01*
X161582890Y-120686467D01*
X161582895Y-120686469D01*
X161780608Y-120748078D01*
X161900559Y-120785456D01*
X162227858Y-120845436D01*
X162405740Y-120856195D01*
X162476892Y-120860500D01*
X162476894Y-120860500D01*
X162643108Y-120860500D01*
X162705364Y-120856734D01*
X162892142Y-120845436D01*
X163219441Y-120785456D01*
X163537123Y-120686463D01*
X163840557Y-120549898D01*
X164125318Y-120377754D01*
X164174150Y-120339497D01*
X164332421Y-120215499D01*
X164387252Y-120172542D01*
X164622542Y-119937252D01*
X164822058Y-119682589D01*
X164827748Y-119675326D01*
X164827748Y-119675324D01*
X164827754Y-119675318D01*
X164999898Y-119390557D01*
X165136463Y-119087123D01*
X165235456Y-118769441D01*
X165295436Y-118442142D01*
X165315527Y-118110000D01*
X165295436Y-117777858D01*
X165235456Y-117450559D01*
X165153302Y-117186915D01*
X165136469Y-117132895D01*
X165136467Y-117132890D01*
X165136463Y-117132877D01*
X164999898Y-116829443D01*
X164827754Y-116544682D01*
X164827751Y-116544678D01*
X164827748Y-116544673D01*
X164622539Y-116282744D01*
X164387255Y-116047460D01*
X164125326Y-115842251D01*
X164125318Y-115842246D01*
X163840557Y-115670102D01*
X163537123Y-115533537D01*
X163537116Y-115533534D01*
X163537104Y-115533530D01*
X163219449Y-115434546D01*
X163219445Y-115434545D01*
X163219441Y-115434544D01*
X162892142Y-115374564D01*
X162892141Y-115374563D01*
X162892136Y-115374563D01*
X162643108Y-115359500D01*
X162643106Y-115359500D01*
X162476894Y-115359500D01*
X162476892Y-115359500D01*
X162227863Y-115374563D01*
X162227857Y-115374564D01*
X162227858Y-115374564D01*
X161900559Y-115434544D01*
X161900556Y-115434544D01*
X161900550Y-115434546D01*
X161582895Y-115533530D01*
X161582879Y-115533536D01*
X161582877Y-115533537D01*
X161389656Y-115620498D01*
X161279447Y-115670100D01*
X161279445Y-115670101D01*
X160994673Y-115842251D01*
X160732744Y-116047460D01*
X160497460Y-116282744D01*
X160292251Y-116544673D01*
X160120101Y-116829445D01*
X160120100Y-116829447D01*
X160070498Y-116939656D01*
X159997554Y-117101734D01*
X159983536Y-117132880D01*
X159983530Y-117132895D01*
X159884546Y-117450550D01*
X159884544Y-117450556D01*
X159884544Y-117450559D01*
X159839838Y-117694513D01*
X159824563Y-117777863D01*
X159804473Y-118110000D01*
X155020339Y-118110000D01*
X154994802Y-118011921D01*
X154896639Y-117794758D01*
X154896637Y-117794755D01*
X154763187Y-117597311D01*
X154763185Y-117597309D01*
X154598293Y-117425263D01*
X154406683Y-117283549D01*
X154193884Y-117176257D01*
X153966020Y-117106475D01*
X153919999Y-117100581D01*
X153920000Y-118666341D01*
X153900315Y-118733380D01*
X153847511Y-118779135D01*
X153779815Y-118789280D01*
X153709333Y-118780001D01*
X153709328Y-118780000D01*
X153709323Y-118780000D01*
X153630677Y-118780000D01*
X153630671Y-118780000D01*
X153630666Y-118780001D01*
X153560185Y-118789280D01*
X153491150Y-118778514D01*
X153438894Y-118732134D01*
X153420000Y-118666341D01*
X153420000Y-117101734D01*
X153419999Y-117101734D01*
X153258566Y-117136525D01*
X153037437Y-117225383D01*
X152834505Y-117350333D01*
X152655610Y-117507780D01*
X152655603Y-117507786D01*
X152505897Y-117693194D01*
X152505890Y-117693204D01*
X152389668Y-117901248D01*
X152310277Y-118125947D01*
X152310273Y-118125961D01*
X152270000Y-118360832D01*
X152270000Y-119130000D01*
X152956342Y-119130000D01*
X153023381Y-119149685D01*
X153069136Y-119202489D01*
X153079280Y-119270183D01*
X153064823Y-119380000D01*
X153079280Y-119489816D01*
X153068516Y-119558849D01*
X153022136Y-119611105D01*
X152956342Y-119630000D01*
X152270000Y-119630000D01*
X152270000Y-120339478D01*
X151570500Y-120339478D01*
X151570500Y-118420498D01*
X151555347Y-118242463D01*
X151495275Y-118011751D01*
X151397080Y-117794519D01*
X151397075Y-117794511D01*
X151263586Y-117597006D01*
X151263582Y-117597001D01*
X151263579Y-117596997D01*
X151098621Y-117424882D01*
X151062517Y-117398180D01*
X150997824Y-117350333D01*
X150906947Y-117283121D01*
X150694074Y-117175793D01*
X150553948Y-117132880D01*
X150466121Y-117105983D01*
X150229647Y-117075701D01*
X149991471Y-117085819D01*
X149991467Y-117085819D01*
X149758419Y-117136045D01*
X149537211Y-117224935D01*
X149334203Y-117349932D01*
X149155245Y-117507435D01*
X149082676Y-117597311D01*
X149005477Y-117692920D01*
X149002521Y-117698212D01*
X148889210Y-117901044D01*
X148809788Y-118125829D01*
X148769500Y-118360790D01*
X148769500Y-120339502D01*
X148070500Y-120339502D01*
X148070499Y-117779992D01*
X148061632Y-117693194D01*
X148059999Y-117677203D01*
X148059998Y-117677200D01*
X148044960Y-117631818D01*
X148004814Y-117510666D01*
X147912712Y-117361344D01*
X147788656Y-117237288D01*
X147639334Y-117145186D01*
X147472797Y-117090001D01*
X147472795Y-117090000D01*
X147370010Y-117079500D01*
X145969998Y-117079500D01*
X145969981Y-117079501D01*
X145867203Y-117090000D01*
X145867200Y-117090001D01*
X145700668Y-117145185D01*
X145700663Y-117145187D01*
X145551342Y-117237289D01*
X145427289Y-117361342D01*
X145335187Y-117510663D01*
X145335185Y-117510666D01*
X145335186Y-117510666D01*
X145280001Y-117677203D01*
X145280001Y-117677204D01*
X145280000Y-117677204D01*
X145269500Y-117779983D01*
X145269500Y-120980001D01*
X114300000Y-120980001D01*
X114300000Y-118110000D01*
X117894473Y-118110000D01*
X117914563Y-118442136D01*
X117914563Y-118442141D01*
X117914564Y-118442142D01*
X117974544Y-118769441D01*
X117974545Y-118769445D01*
X117974546Y-118769449D01*
X118073530Y-119087104D01*
X118073534Y-119087116D01*
X118073537Y-119087123D01*
X118210102Y-119390557D01*
X118362763Y-119643089D01*
X118382251Y-119675326D01*
X118587460Y-119937255D01*
X118822744Y-120172539D01*
X119084673Y-120377748D01*
X119084678Y-120377751D01*
X119084682Y-120377754D01*
X119369443Y-120549898D01*
X119672877Y-120686463D01*
X119672890Y-120686467D01*
X119672895Y-120686469D01*
X119870608Y-120748078D01*
X119990559Y-120785456D01*
X120317858Y-120845436D01*
X120495740Y-120856195D01*
X120566892Y-120860500D01*
X120566894Y-120860500D01*
X120733108Y-120860500D01*
X120795365Y-120856734D01*
X120982142Y-120845436D01*
X121309441Y-120785456D01*
X121627123Y-120686463D01*
X121930557Y-120549898D01*
X122215318Y-120377754D01*
X122264150Y-120339497D01*
X122422421Y-120215499D01*
X122477252Y-120172542D01*
X122712542Y-119937252D01*
X122849162Y-119762870D01*
X127899500Y-119762870D01*
X127899501Y-119762876D01*
X127905908Y-119822483D01*
X127956202Y-119957328D01*
X127956206Y-119957335D01*
X128042452Y-120072544D01*
X128042455Y-120072547D01*
X128157664Y-120158793D01*
X128157671Y-120158797D01*
X128292517Y-120209091D01*
X128292516Y-120209091D01*
X128299444Y-120209835D01*
X128352127Y-120215500D01*
X131047872Y-120215499D01*
X131107483Y-120209091D01*
X131242331Y-120158796D01*
X131357546Y-120072546D01*
X131443796Y-119957331D01*
X131494091Y-119822483D01*
X131500500Y-119762873D01*
X131500500Y-118415004D01*
X132894451Y-118415004D01*
X132914616Y-118684101D01*
X132974664Y-118947188D01*
X132974666Y-118947195D01*
X133025772Y-119077411D01*
X133073257Y-119198398D01*
X133208185Y-119432102D01*
X133308196Y-119557511D01*
X133376442Y-119643089D01*
X133554094Y-119807925D01*
X133574259Y-119826635D01*
X133797226Y-119978651D01*
X134040359Y-120095738D01*
X134298228Y-120175280D01*
X134298229Y-120175280D01*
X134298232Y-120175281D01*
X134565063Y-120215499D01*
X134565068Y-120215499D01*
X134565071Y-120215500D01*
X134565072Y-120215500D01*
X134834928Y-120215500D01*
X134834929Y-120215500D01*
X134834936Y-120215499D01*
X135101767Y-120175281D01*
X135101768Y-120175280D01*
X135101772Y-120175280D01*
X135359641Y-120095738D01*
X135602775Y-119978651D01*
X135825741Y-119826635D01*
X135980987Y-119682588D01*
X136023557Y-119643089D01*
X136023557Y-119643087D01*
X136023561Y-119643085D01*
X136191815Y-119432102D01*
X136326743Y-119198398D01*
X136425334Y-118947195D01*
X136485383Y-118684103D01*
X136503515Y-118442142D01*
X136505549Y-118415004D01*
X137894953Y-118415004D01*
X137915113Y-118684026D01*
X137915113Y-118684028D01*
X137975142Y-118947033D01*
X137975148Y-118947052D01*
X138073709Y-119198181D01*
X138073708Y-119198181D01*
X138208602Y-119431822D01*
X138262294Y-119499151D01*
X138982331Y-118779114D01*
X139043654Y-118745629D01*
X139113345Y-118750613D01*
X139169279Y-118792485D01*
X139174707Y-118800350D01*
X139195187Y-118832620D01*
X139195188Y-118832621D01*
X139314904Y-118945041D01*
X139318266Y-118947484D01*
X139320264Y-118950074D01*
X139320590Y-118950381D01*
X139320540Y-118950433D01*
X139360934Y-119002812D01*
X139366915Y-119072425D01*
X139334311Y-119134221D01*
X139333065Y-119135485D01*
X138614848Y-119853702D01*
X138797483Y-119978220D01*
X138797485Y-119978221D01*
X139040539Y-120095269D01*
X139040537Y-120095269D01*
X139298337Y-120174790D01*
X139298343Y-120174792D01*
X139565101Y-120214999D01*
X139565110Y-120215000D01*
X139834890Y-120215000D01*
X139834898Y-120214999D01*
X140101656Y-120174792D01*
X140101662Y-120174790D01*
X140359461Y-120095269D01*
X140602521Y-119978218D01*
X140785150Y-119853702D01*
X140063234Y-119131787D01*
X140029749Y-119070464D01*
X140034733Y-119000773D01*
X140076605Y-118944839D01*
X140077953Y-118943844D01*
X140148492Y-118892595D01*
X140234871Y-118788180D01*
X140292768Y-118749074D01*
X140362620Y-118747478D01*
X140418094Y-118779541D01*
X141137703Y-119499151D01*
X141137704Y-119499150D01*
X141191393Y-119431828D01*
X141191400Y-119431817D01*
X141326290Y-119198181D01*
X141424851Y-118947052D01*
X141424857Y-118947033D01*
X141484886Y-118684028D01*
X141484886Y-118684026D01*
X141505047Y-118415004D01*
X141505047Y-118414995D01*
X141484886Y-118145973D01*
X141484886Y-118145971D01*
X141424857Y-117882966D01*
X141424851Y-117882947D01*
X141326290Y-117631818D01*
X141326291Y-117631818D01*
X141191397Y-117398177D01*
X141137704Y-117330847D01*
X140417667Y-118050884D01*
X140356344Y-118084369D01*
X140286652Y-118079385D01*
X140230719Y-118037513D01*
X140225290Y-118029646D01*
X140213933Y-118011751D01*
X140204814Y-117997381D01*
X140140942Y-117937402D01*
X140085097Y-117884960D01*
X140081732Y-117882515D01*
X140079731Y-117879920D01*
X140079410Y-117879619D01*
X140079458Y-117879567D01*
X140039064Y-117827187D01*
X140033082Y-117757574D01*
X140065685Y-117695778D01*
X140066932Y-117694513D01*
X140785150Y-116976296D01*
X140602517Y-116851779D01*
X140602516Y-116851778D01*
X140359460Y-116734730D01*
X140359462Y-116734730D01*
X140101662Y-116655209D01*
X140101656Y-116655207D01*
X139834898Y-116615000D01*
X139565101Y-116615000D01*
X139298343Y-116655207D01*
X139298337Y-116655209D01*
X139040538Y-116734730D01*
X138797485Y-116851778D01*
X138797476Y-116851783D01*
X138614848Y-116976296D01*
X139336765Y-117698212D01*
X139370250Y-117759535D01*
X139365266Y-117829226D01*
X139323394Y-117885160D01*
X139321970Y-117886210D01*
X139251510Y-117937402D01*
X139251508Y-117937405D01*
X139165130Y-118041818D01*
X139107230Y-118080925D01*
X139037378Y-118082521D01*
X138981905Y-118050458D01*
X138262295Y-117330848D01*
X138208600Y-117398180D01*
X138073709Y-117631818D01*
X137975148Y-117882947D01*
X137975142Y-117882966D01*
X137915113Y-118145971D01*
X137915113Y-118145973D01*
X137894953Y-118414995D01*
X137894953Y-118415004D01*
X136505549Y-118415004D01*
X136505549Y-118414995D01*
X136485389Y-118145973D01*
X136485383Y-118145897D01*
X136425334Y-117882805D01*
X136326743Y-117631602D01*
X136191815Y-117397898D01*
X136023561Y-117186915D01*
X136023560Y-117186914D01*
X136023557Y-117186910D01*
X135825741Y-117003365D01*
X135786038Y-116976296D01*
X135602775Y-116851349D01*
X135602769Y-116851346D01*
X135602768Y-116851345D01*
X135602767Y-116851344D01*
X135359643Y-116734263D01*
X135359645Y-116734263D01*
X135101773Y-116654720D01*
X135101767Y-116654718D01*
X134834936Y-116614500D01*
X134834929Y-116614500D01*
X134565071Y-116614500D01*
X134565063Y-116614500D01*
X134298232Y-116654718D01*
X134298226Y-116654720D01*
X134040358Y-116734262D01*
X133797230Y-116851346D01*
X133574258Y-117003365D01*
X133376442Y-117186910D01*
X133208185Y-117397898D01*
X133073258Y-117631599D01*
X133073256Y-117631603D01*
X132974666Y-117882804D01*
X132974664Y-117882811D01*
X132914616Y-118145898D01*
X132894451Y-118414995D01*
X132894451Y-118415004D01*
X131500500Y-118415004D01*
X131500499Y-117067128D01*
X131494091Y-117007517D01*
X131492542Y-117003365D01*
X131443797Y-116872671D01*
X131443793Y-116872664D01*
X131357547Y-116757455D01*
X131357544Y-116757452D01*
X131242335Y-116671206D01*
X131242328Y-116671202D01*
X131107482Y-116620908D01*
X131107483Y-116620908D01*
X131047883Y-116614501D01*
X131047881Y-116614500D01*
X131047873Y-116614500D01*
X131047864Y-116614500D01*
X128352129Y-116614500D01*
X128352123Y-116614501D01*
X128292516Y-116620908D01*
X128157671Y-116671202D01*
X128157664Y-116671206D01*
X128042455Y-116757452D01*
X128042452Y-116757455D01*
X127956206Y-116872664D01*
X127956202Y-116872671D01*
X127905908Y-117007517D01*
X127899501Y-117067116D01*
X127899501Y-117067123D01*
X127899500Y-117067135D01*
X127899500Y-119762870D01*
X122849162Y-119762870D01*
X122912058Y-119682589D01*
X122917748Y-119675326D01*
X122917748Y-119675324D01*
X122917754Y-119675318D01*
X123089898Y-119390557D01*
X123226463Y-119087123D01*
X123325456Y-118769441D01*
X123385436Y-118442142D01*
X123405527Y-118110000D01*
X123385436Y-117777858D01*
X123325456Y-117450559D01*
X123243302Y-117186915D01*
X123226469Y-117132895D01*
X123226467Y-117132890D01*
X123226463Y-117132877D01*
X123089898Y-116829443D01*
X122917754Y-116544682D01*
X122917751Y-116544678D01*
X122917748Y-116544673D01*
X122712539Y-116282744D01*
X122477255Y-116047460D01*
X122215326Y-115842251D01*
X122215318Y-115842246D01*
X121930557Y-115670102D01*
X121627123Y-115533537D01*
X121627116Y-115533534D01*
X121627104Y-115533530D01*
X121309449Y-115434546D01*
X121309445Y-115434545D01*
X121309441Y-115434544D01*
X120982142Y-115374564D01*
X120982141Y-115374563D01*
X120982136Y-115374563D01*
X120733108Y-115359500D01*
X120733106Y-115359500D01*
X120566894Y-115359500D01*
X120566892Y-115359500D01*
X120317863Y-115374563D01*
X120317857Y-115374564D01*
X120317858Y-115374564D01*
X119990559Y-115434544D01*
X119990556Y-115434544D01*
X119990550Y-115434546D01*
X119672895Y-115533530D01*
X119672879Y-115533536D01*
X119672877Y-115533537D01*
X119479656Y-115620498D01*
X119369447Y-115670100D01*
X119369445Y-115670101D01*
X119084673Y-115842251D01*
X118822744Y-116047460D01*
X118587460Y-116282744D01*
X118382251Y-116544673D01*
X118210101Y-116829445D01*
X118210100Y-116829447D01*
X118160498Y-116939656D01*
X118087554Y-117101734D01*
X118073536Y-117132880D01*
X118073530Y-117132895D01*
X117974546Y-117450550D01*
X117974544Y-117450556D01*
X117974544Y-117450559D01*
X117929838Y-117694513D01*
X117914563Y-117777863D01*
X117894473Y-118110000D01*
X114300000Y-118110000D01*
X114300000Y-112657870D01*
X145969500Y-112657870D01*
X145969501Y-112657876D01*
X145975908Y-112717483D01*
X146026202Y-112852328D01*
X146026206Y-112852335D01*
X146112452Y-112967544D01*
X146112455Y-112967547D01*
X146227664Y-113053793D01*
X146227671Y-113053797D01*
X146362517Y-113104091D01*
X146362516Y-113104091D01*
X146369444Y-113104835D01*
X146422127Y-113110500D01*
X148217872Y-113110499D01*
X148277483Y-113104091D01*
X148412331Y-113053796D01*
X148527546Y-112967546D01*
X148613796Y-112852331D01*
X148662810Y-112720916D01*
X148704681Y-112664984D01*
X148770145Y-112640566D01*
X148838418Y-112655417D01*
X148866673Y-112676569D01*
X148988599Y-112798495D01*
X149085384Y-112866264D01*
X149182165Y-112934032D01*
X149182167Y-112934033D01*
X149182170Y-112934035D01*
X149396337Y-113033903D01*
X149624592Y-113095063D01*
X149801034Y-113110500D01*
X149859999Y-113115659D01*
X149860000Y-113115659D01*
X149860001Y-113115659D01*
X149918966Y-113110500D01*
X150095408Y-113095063D01*
X150323663Y-113033903D01*
X150537830Y-112934035D01*
X150731401Y-112798495D01*
X150898495Y-112631401D01*
X151028730Y-112445405D01*
X151083307Y-112401781D01*
X151152805Y-112394587D01*
X151215160Y-112426110D01*
X151231879Y-112445405D01*
X151361890Y-112631078D01*
X151528917Y-112798105D01*
X151722421Y-112933600D01*
X151936507Y-113033429D01*
X151936516Y-113033433D01*
X152150000Y-113090634D01*
X152150000Y-112372301D01*
X152169685Y-112305262D01*
X152222489Y-112259507D01*
X152291647Y-112249563D01*
X152364237Y-112260000D01*
X152364238Y-112260000D01*
X152435762Y-112260000D01*
X152435763Y-112260000D01*
X152508353Y-112249563D01*
X152577512Y-112259507D01*
X152630315Y-112305262D01*
X152650000Y-112372301D01*
X152650000Y-113090633D01*
X152863483Y-113033433D01*
X152863492Y-113033429D01*
X153077578Y-112933600D01*
X153271082Y-112798105D01*
X153438105Y-112631082D01*
X153573600Y-112437578D01*
X153673429Y-112223492D01*
X153673432Y-112223486D01*
X153730636Y-112010000D01*
X153013347Y-112010000D01*
X152946308Y-111990315D01*
X152900553Y-111937511D01*
X152890609Y-111868353D01*
X152894369Y-111851067D01*
X152900000Y-111831888D01*
X152900000Y-111688111D01*
X152894369Y-111668933D01*
X152894370Y-111599064D01*
X152932145Y-111540286D01*
X152995701Y-111511262D01*
X153013347Y-111510000D01*
X153730636Y-111510000D01*
X153730635Y-111509999D01*
X153673432Y-111296513D01*
X153673429Y-111296507D01*
X153573600Y-111082422D01*
X153573599Y-111082420D01*
X153438113Y-110888926D01*
X153438108Y-110888920D01*
X153271082Y-110721894D01*
X153077578Y-110586399D01*
X152863492Y-110486570D01*
X152863486Y-110486567D01*
X152650000Y-110429364D01*
X152650000Y-111147698D01*
X152630315Y-111214737D01*
X152577511Y-111260492D01*
X152508355Y-111270436D01*
X152435766Y-111260000D01*
X152435763Y-111260000D01*
X152364237Y-111260000D01*
X152364233Y-111260000D01*
X152291645Y-111270436D01*
X152222487Y-111260492D01*
X152169684Y-111214736D01*
X152150000Y-111147698D01*
X152150000Y-110429364D01*
X152149999Y-110429364D01*
X151936513Y-110486567D01*
X151936507Y-110486570D01*
X151722422Y-110586399D01*
X151722420Y-110586400D01*
X151528926Y-110721886D01*
X151528920Y-110721891D01*
X151361891Y-110888920D01*
X151361890Y-110888922D01*
X151231880Y-111074595D01*
X151177303Y-111118219D01*
X151107804Y-111125412D01*
X151045450Y-111093890D01*
X151028730Y-111074594D01*
X150898494Y-110888597D01*
X150731402Y-110721506D01*
X150731395Y-110721501D01*
X150537834Y-110585967D01*
X150537830Y-110585965D01*
X150537828Y-110585964D01*
X150323663Y-110486097D01*
X150323659Y-110486096D01*
X150323655Y-110486094D01*
X150095413Y-110424938D01*
X150095403Y-110424936D01*
X149860001Y-110404341D01*
X149859999Y-110404341D01*
X149624596Y-110424936D01*
X149624586Y-110424938D01*
X149396344Y-110486094D01*
X149396335Y-110486098D01*
X149182171Y-110585964D01*
X149182169Y-110585965D01*
X148988600Y-110721503D01*
X148866673Y-110843430D01*
X148805350Y-110876914D01*
X148735658Y-110871930D01*
X148679725Y-110830058D01*
X148662810Y-110799081D01*
X148613797Y-110667671D01*
X148613793Y-110667664D01*
X148527547Y-110552455D01*
X148527544Y-110552452D01*
X148412335Y-110466206D01*
X148412328Y-110466202D01*
X148277482Y-110415908D01*
X148277483Y-110415908D01*
X148217883Y-110409501D01*
X148217881Y-110409500D01*
X148217873Y-110409500D01*
X148217864Y-110409500D01*
X146422129Y-110409500D01*
X146422123Y-110409501D01*
X146362516Y-110415908D01*
X146227671Y-110466202D01*
X146227664Y-110466206D01*
X146112455Y-110552452D01*
X146112452Y-110552455D01*
X146026206Y-110667664D01*
X146026202Y-110667671D01*
X145975908Y-110802517D01*
X145969501Y-110862116D01*
X145969500Y-110862135D01*
X145969500Y-112657870D01*
X114300000Y-112657870D01*
X114300000Y-88900000D01*
X125794357Y-88900000D01*
X125814884Y-89121535D01*
X125814885Y-89121537D01*
X125875769Y-89335523D01*
X125875775Y-89335538D01*
X125974938Y-89534683D01*
X125974943Y-89534691D01*
X126109020Y-89712238D01*
X126273437Y-89862123D01*
X126273439Y-89862125D01*
X126462595Y-89979245D01*
X126462596Y-89979245D01*
X126462599Y-89979247D01*
X126670060Y-90059618D01*
X126888757Y-90100500D01*
X126888759Y-90100500D01*
X127111241Y-90100500D01*
X127111243Y-90100500D01*
X127329940Y-90059618D01*
X127537401Y-89979247D01*
X127726562Y-89862124D01*
X127890981Y-89712236D01*
X128025058Y-89534689D01*
X128124229Y-89335528D01*
X128150734Y-89242371D01*
X128188013Y-89183278D01*
X128251323Y-89153721D01*
X128320562Y-89163083D01*
X128373749Y-89208393D01*
X128389266Y-89242372D01*
X128415769Y-89335523D01*
X128415775Y-89335538D01*
X128514938Y-89534683D01*
X128514943Y-89534691D01*
X128649020Y-89712238D01*
X128813437Y-89862123D01*
X128813439Y-89862125D01*
X129002595Y-89979245D01*
X129002596Y-89979245D01*
X129002599Y-89979247D01*
X129210060Y-90059618D01*
X129428757Y-90100500D01*
X129428759Y-90100500D01*
X129651241Y-90100500D01*
X129651243Y-90100500D01*
X129869940Y-90059618D01*
X130077401Y-89979247D01*
X130266562Y-89862124D01*
X130430981Y-89712236D01*
X130565058Y-89534689D01*
X130664229Y-89335528D01*
X130725115Y-89121536D01*
X130745643Y-88900000D01*
X151194356Y-88900000D01*
X151214884Y-89121535D01*
X151214885Y-89121537D01*
X151275769Y-89335523D01*
X151275775Y-89335538D01*
X151374938Y-89534683D01*
X151374943Y-89534691D01*
X151509020Y-89712238D01*
X151673437Y-89862123D01*
X151673439Y-89862125D01*
X151862595Y-89979245D01*
X151862596Y-89979245D01*
X151862599Y-89979247D01*
X152070060Y-90059618D01*
X152288757Y-90100500D01*
X152288759Y-90100500D01*
X152511241Y-90100500D01*
X152511243Y-90100500D01*
X152729940Y-90059618D01*
X152937401Y-89979247D01*
X153126562Y-89862124D01*
X153290981Y-89712236D01*
X153425058Y-89534689D01*
X153524229Y-89335528D01*
X153550734Y-89242371D01*
X153588013Y-89183278D01*
X153651323Y-89153721D01*
X153720562Y-89163083D01*
X153773749Y-89208393D01*
X153789266Y-89242372D01*
X153815769Y-89335523D01*
X153815775Y-89335538D01*
X153914938Y-89534683D01*
X153914943Y-89534691D01*
X154049020Y-89712238D01*
X154213437Y-89862123D01*
X154213439Y-89862125D01*
X154402595Y-89979245D01*
X154402596Y-89979245D01*
X154402599Y-89979247D01*
X154610060Y-90059618D01*
X154828757Y-90100500D01*
X154828759Y-90100500D01*
X155051241Y-90100500D01*
X155051243Y-90100500D01*
X155269940Y-90059618D01*
X155477401Y-89979247D01*
X155666562Y-89862124D01*
X155830981Y-89712236D01*
X155965058Y-89534689D01*
X156064229Y-89335528D01*
X156125115Y-89121536D01*
X156145643Y-88900000D01*
X156125115Y-88678464D01*
X156064229Y-88464472D01*
X156064224Y-88464461D01*
X155965061Y-88265316D01*
X155965056Y-88265308D01*
X155830979Y-88087761D01*
X155666562Y-87937876D01*
X155666560Y-87937874D01*
X155477404Y-87820754D01*
X155477395Y-87820750D01*
X155383956Y-87784552D01*
X155283475Y-87745625D01*
X155228075Y-87703054D01*
X155204484Y-87637288D01*
X155220195Y-87569207D01*
X155270219Y-87520428D01*
X155283466Y-87514377D01*
X155477401Y-87439247D01*
X155666562Y-87322124D01*
X155830981Y-87172236D01*
X155965058Y-86994689D01*
X156064229Y-86795528D01*
X156125115Y-86581536D01*
X156145643Y-86360000D01*
X156125115Y-86138464D01*
X156064229Y-85924472D01*
X156064224Y-85924461D01*
X155965061Y-85725316D01*
X155965056Y-85725308D01*
X155830979Y-85547761D01*
X155666562Y-85397876D01*
X155666560Y-85397874D01*
X155477404Y-85280754D01*
X155477395Y-85280750D01*
X155383956Y-85244552D01*
X155283475Y-85205625D01*
X155228075Y-85163054D01*
X155204484Y-85097288D01*
X155220195Y-85029207D01*
X155270219Y-84980428D01*
X155283466Y-84974377D01*
X155477401Y-84899247D01*
X155666562Y-84782124D01*
X155830981Y-84632236D01*
X155965058Y-84454689D01*
X156064229Y-84255528D01*
X156125115Y-84041536D01*
X156145643Y-83820000D01*
X156125115Y-83598464D01*
X156064229Y-83384472D01*
X156064224Y-83384461D01*
X155965061Y-83185316D01*
X155965056Y-83185308D01*
X155830979Y-83007761D01*
X155666562Y-82857876D01*
X155666560Y-82857874D01*
X155477404Y-82740754D01*
X155477395Y-82740750D01*
X155383956Y-82704552D01*
X155283475Y-82665625D01*
X155228075Y-82623054D01*
X155204484Y-82557288D01*
X155220195Y-82489207D01*
X155270219Y-82440428D01*
X155283466Y-82434377D01*
X155477401Y-82359247D01*
X155666562Y-82242124D01*
X155830981Y-82092236D01*
X155965058Y-81914689D01*
X156064229Y-81715528D01*
X156125115Y-81501536D01*
X156145643Y-81280000D01*
X156128605Y-81096133D01*
X156125115Y-81058464D01*
X156125114Y-81058462D01*
X156120417Y-81041955D01*
X156064229Y-80844472D01*
X156064224Y-80844461D01*
X155965061Y-80645316D01*
X155965056Y-80645308D01*
X155830979Y-80467761D01*
X155666562Y-80317876D01*
X155666560Y-80317874D01*
X155477404Y-80200754D01*
X155477395Y-80200750D01*
X155383956Y-80164552D01*
X155283475Y-80125625D01*
X155228075Y-80083054D01*
X155204484Y-80017288D01*
X155220195Y-79949207D01*
X155270219Y-79900428D01*
X155283466Y-79894377D01*
X155477401Y-79819247D01*
X155666562Y-79702124D01*
X155830981Y-79552236D01*
X155965058Y-79374689D01*
X156064229Y-79175528D01*
X156125115Y-78961536D01*
X156145643Y-78740000D01*
X156125115Y-78518464D01*
X156064229Y-78304472D01*
X156064224Y-78304461D01*
X155965061Y-78105316D01*
X155965056Y-78105308D01*
X155830979Y-77927761D01*
X155666562Y-77777876D01*
X155666560Y-77777874D01*
X155477404Y-77660754D01*
X155477395Y-77660750D01*
X155383956Y-77624552D01*
X155283475Y-77585625D01*
X155228075Y-77543054D01*
X155204484Y-77477288D01*
X155220195Y-77409207D01*
X155270219Y-77360428D01*
X155283466Y-77354377D01*
X155477401Y-77279247D01*
X155666562Y-77162124D01*
X155830981Y-77012236D01*
X155965058Y-76834689D01*
X156064229Y-76635528D01*
X156125115Y-76421536D01*
X156145643Y-76200000D01*
X156125115Y-75978464D01*
X156064229Y-75764472D01*
X156064224Y-75764461D01*
X155965061Y-75565316D01*
X155965056Y-75565308D01*
X155830979Y-75387761D01*
X155666562Y-75237876D01*
X155666560Y-75237874D01*
X155477404Y-75120754D01*
X155477395Y-75120750D01*
X155383956Y-75084552D01*
X155283475Y-75045625D01*
X155228075Y-75003054D01*
X155204484Y-74937288D01*
X155220195Y-74869207D01*
X155270219Y-74820428D01*
X155283466Y-74814377D01*
X155477401Y-74739247D01*
X155666562Y-74622124D01*
X155830981Y-74472236D01*
X155965058Y-74294689D01*
X156064229Y-74095528D01*
X156125115Y-73881536D01*
X156145643Y-73660000D01*
X156125115Y-73438464D01*
X156064229Y-73224472D01*
X156064224Y-73224461D01*
X155965061Y-73025316D01*
X155965056Y-73025308D01*
X155830979Y-72847761D01*
X155666562Y-72697876D01*
X155666560Y-72697874D01*
X155477404Y-72580754D01*
X155477395Y-72580750D01*
X155383956Y-72544552D01*
X155283475Y-72505625D01*
X155228075Y-72463054D01*
X155204484Y-72397288D01*
X155220195Y-72329207D01*
X155270219Y-72280428D01*
X155283466Y-72274377D01*
X155477401Y-72199247D01*
X155666562Y-72082124D01*
X155830981Y-71932236D01*
X155965058Y-71754689D01*
X156064229Y-71555528D01*
X156125115Y-71341536D01*
X156145643Y-71120000D01*
X156125115Y-70898464D01*
X156064229Y-70684472D01*
X156064224Y-70684461D01*
X155965061Y-70485316D01*
X155965056Y-70485308D01*
X155830979Y-70307761D01*
X155666562Y-70157876D01*
X155666560Y-70157874D01*
X155477404Y-70040754D01*
X155477395Y-70040750D01*
X155383956Y-70004552D01*
X155283475Y-69965625D01*
X155228075Y-69923054D01*
X155204484Y-69857288D01*
X155220195Y-69789207D01*
X155270219Y-69740428D01*
X155283466Y-69734377D01*
X155477401Y-69659247D01*
X155666562Y-69542124D01*
X155830981Y-69392236D01*
X155965058Y-69214689D01*
X156064229Y-69015528D01*
X156125115Y-68801536D01*
X156145643Y-68580000D01*
X156125115Y-68358464D01*
X156064229Y-68144472D01*
X156064224Y-68144461D01*
X155965061Y-67945316D01*
X155965056Y-67945308D01*
X155830979Y-67767761D01*
X155666562Y-67617876D01*
X155666560Y-67617874D01*
X155477404Y-67500754D01*
X155477395Y-67500750D01*
X155383956Y-67464552D01*
X155283475Y-67425625D01*
X155228075Y-67383054D01*
X155204484Y-67317288D01*
X155220195Y-67249207D01*
X155270219Y-67200428D01*
X155283466Y-67194377D01*
X155477401Y-67119247D01*
X155666562Y-67002124D01*
X155830981Y-66852236D01*
X155965058Y-66674689D01*
X156064229Y-66475528D01*
X156125115Y-66261536D01*
X156145643Y-66040000D01*
X156125115Y-65818464D01*
X156064229Y-65604472D01*
X156064224Y-65604461D01*
X155965061Y-65405316D01*
X155965056Y-65405308D01*
X155830979Y-65227761D01*
X155666562Y-65077876D01*
X155666560Y-65077874D01*
X155477404Y-64960754D01*
X155477398Y-64960752D01*
X155269940Y-64880382D01*
X155051243Y-64839500D01*
X154828757Y-64839500D01*
X154610060Y-64880382D01*
X154478864Y-64931207D01*
X154402601Y-64960752D01*
X154402595Y-64960754D01*
X154213439Y-65077874D01*
X154213437Y-65077876D01*
X154049020Y-65227761D01*
X153914943Y-65405308D01*
X153914938Y-65405316D01*
X153815775Y-65604461D01*
X153815769Y-65604476D01*
X153789266Y-65697627D01*
X153751987Y-65756721D01*
X153688677Y-65786278D01*
X153619438Y-65776916D01*
X153566251Y-65731606D01*
X153550734Y-65697627D01*
X153524230Y-65604476D01*
X153524229Y-65604472D01*
X153524224Y-65604461D01*
X153425061Y-65405316D01*
X153425056Y-65405308D01*
X153290979Y-65227761D01*
X153126562Y-65077876D01*
X153126560Y-65077874D01*
X152937404Y-64960754D01*
X152937398Y-64960752D01*
X152729940Y-64880382D01*
X152511243Y-64839500D01*
X152288757Y-64839500D01*
X152070060Y-64880382D01*
X151938864Y-64931207D01*
X151862601Y-64960752D01*
X151862595Y-64960754D01*
X151673439Y-65077874D01*
X151673437Y-65077876D01*
X151509020Y-65227761D01*
X151374943Y-65405308D01*
X151374938Y-65405316D01*
X151275775Y-65604461D01*
X151275769Y-65604476D01*
X151214885Y-65818462D01*
X151214884Y-65818464D01*
X151194356Y-66039999D01*
X151194356Y-66040000D01*
X151214884Y-66261535D01*
X151214885Y-66261537D01*
X151275769Y-66475523D01*
X151275775Y-66475538D01*
X151374938Y-66674683D01*
X151374943Y-66674691D01*
X151509020Y-66852238D01*
X151673437Y-67002123D01*
X151673439Y-67002125D01*
X151862595Y-67119245D01*
X151862596Y-67119245D01*
X151862599Y-67119247D01*
X152056524Y-67194374D01*
X152111924Y-67236946D01*
X152135515Y-67302713D01*
X152119804Y-67370793D01*
X152069780Y-67419572D01*
X152056533Y-67425622D01*
X151908488Y-67482975D01*
X151862601Y-67500752D01*
X151862595Y-67500754D01*
X151673439Y-67617874D01*
X151673437Y-67617876D01*
X151509020Y-67767761D01*
X151374943Y-67945308D01*
X151374938Y-67945316D01*
X151275775Y-68144461D01*
X151275769Y-68144476D01*
X151214885Y-68358462D01*
X151214884Y-68358464D01*
X151194356Y-68579999D01*
X151194356Y-68580000D01*
X151214884Y-68801535D01*
X151214885Y-68801537D01*
X151275769Y-69015523D01*
X151275775Y-69015538D01*
X151374938Y-69214683D01*
X151374943Y-69214691D01*
X151509020Y-69392238D01*
X151673437Y-69542123D01*
X151673439Y-69542125D01*
X151862595Y-69659245D01*
X151862596Y-69659245D01*
X151862599Y-69659247D01*
X152056524Y-69734374D01*
X152111924Y-69776946D01*
X152135515Y-69842713D01*
X152119804Y-69910793D01*
X152069780Y-69959572D01*
X152056533Y-69965622D01*
X151908488Y-70022975D01*
X151862601Y-70040752D01*
X151862595Y-70040754D01*
X151673439Y-70157874D01*
X151673437Y-70157876D01*
X151509020Y-70307761D01*
X151374943Y-70485308D01*
X151374938Y-70485316D01*
X151275775Y-70684461D01*
X151275769Y-70684476D01*
X151214885Y-70898462D01*
X151214884Y-70898464D01*
X151194356Y-71119999D01*
X151194356Y-71120000D01*
X151214884Y-71341535D01*
X151214885Y-71341537D01*
X151275769Y-71555523D01*
X151275775Y-71555538D01*
X151374938Y-71754683D01*
X151374943Y-71754691D01*
X151509020Y-71932238D01*
X151673437Y-72082123D01*
X151673439Y-72082125D01*
X151862595Y-72199245D01*
X151862596Y-72199245D01*
X151862599Y-72199247D01*
X152056524Y-72274374D01*
X152111924Y-72316946D01*
X152135515Y-72382713D01*
X152119804Y-72450793D01*
X152069780Y-72499572D01*
X152056533Y-72505622D01*
X151908488Y-72562975D01*
X151862601Y-72580752D01*
X151862595Y-72580754D01*
X151673439Y-72697874D01*
X151673437Y-72697876D01*
X151509020Y-72847761D01*
X151374943Y-73025308D01*
X151374938Y-73025316D01*
X151275775Y-73224461D01*
X151275769Y-73224476D01*
X151214885Y-73438462D01*
X151214884Y-73438464D01*
X151194356Y-73659999D01*
X151194356Y-73660000D01*
X151214884Y-73881535D01*
X151214885Y-73881537D01*
X151275769Y-74095523D01*
X151275775Y-74095538D01*
X151374938Y-74294683D01*
X151374943Y-74294691D01*
X151509020Y-74472238D01*
X151673437Y-74622123D01*
X151673439Y-74622125D01*
X151862595Y-74739245D01*
X151862596Y-74739245D01*
X151862599Y-74739247D01*
X152056524Y-74814374D01*
X152111924Y-74856946D01*
X152135515Y-74922713D01*
X152119804Y-74990793D01*
X152069780Y-75039572D01*
X152056533Y-75045622D01*
X151908488Y-75102975D01*
X151862601Y-75120752D01*
X151862595Y-75120754D01*
X151673439Y-75237874D01*
X151673437Y-75237876D01*
X151509020Y-75387761D01*
X151374943Y-75565308D01*
X151374938Y-75565316D01*
X151275775Y-75764461D01*
X151275769Y-75764476D01*
X151214885Y-75978462D01*
X151214884Y-75978464D01*
X151194356Y-76199999D01*
X151194356Y-76200000D01*
X151214884Y-76421535D01*
X151214885Y-76421537D01*
X151275769Y-76635523D01*
X151275775Y-76635538D01*
X151374938Y-76834683D01*
X151374943Y-76834691D01*
X151509020Y-77012238D01*
X151673437Y-77162123D01*
X151673439Y-77162125D01*
X151862595Y-77279245D01*
X151862596Y-77279245D01*
X151862599Y-77279247D01*
X152056524Y-77354374D01*
X152111924Y-77396946D01*
X152135515Y-77462713D01*
X152119804Y-77530793D01*
X152069780Y-77579572D01*
X152056533Y-77585622D01*
X151908488Y-77642975D01*
X151862601Y-77660752D01*
X151862595Y-77660754D01*
X151673439Y-77777874D01*
X151673437Y-77777876D01*
X151509020Y-77927761D01*
X151374943Y-78105308D01*
X151374938Y-78105316D01*
X151275775Y-78304461D01*
X151275769Y-78304476D01*
X151214885Y-78518462D01*
X151214884Y-78518464D01*
X151194356Y-78739999D01*
X151194356Y-78740000D01*
X151214884Y-78961535D01*
X151214885Y-78961537D01*
X151275769Y-79175523D01*
X151275775Y-79175538D01*
X151374938Y-79374683D01*
X151374943Y-79374691D01*
X151509020Y-79552238D01*
X151673437Y-79702123D01*
X151673439Y-79702125D01*
X151862595Y-79819245D01*
X151862596Y-79819245D01*
X151862599Y-79819247D01*
X152057215Y-79894642D01*
X152112614Y-79937213D01*
X152136205Y-80002980D01*
X152120494Y-80071060D01*
X152070470Y-80119839D01*
X152057213Y-80125893D01*
X151862833Y-80201196D01*
X151862823Y-80201201D01*
X151746671Y-80273119D01*
X152216133Y-80742580D01*
X152249618Y-80803903D01*
X152244634Y-80873594D01*
X152202763Y-80929528D01*
X152184748Y-80940745D01*
X152161956Y-80952358D01*
X152161949Y-80952363D01*
X152072363Y-81041949D01*
X152072358Y-81041956D01*
X152060745Y-81064748D01*
X152012770Y-81115544D01*
X151944949Y-81132338D01*
X151878814Y-81109800D01*
X151862580Y-81096133D01*
X151391138Y-80624691D01*
X151391137Y-80624691D01*
X151375368Y-80645574D01*
X151276240Y-80844649D01*
X151215378Y-81058560D01*
X151194859Y-81279999D01*
X151194859Y-81280000D01*
X151215378Y-81501439D01*
X151276240Y-81715350D01*
X151375369Y-81914428D01*
X151391137Y-81935308D01*
X151391138Y-81935308D01*
X151862580Y-81463866D01*
X151923903Y-81430381D01*
X151993594Y-81435365D01*
X152049528Y-81477236D01*
X152060742Y-81495246D01*
X152072359Y-81518045D01*
X152072361Y-81518047D01*
X152072363Y-81518050D01*
X152161949Y-81607636D01*
X152161951Y-81607637D01*
X152161955Y-81607641D01*
X152184747Y-81619254D01*
X152235542Y-81667228D01*
X152252337Y-81735049D01*
X152229799Y-81801184D01*
X152216132Y-81817419D01*
X151746671Y-82286879D01*
X151746672Y-82286880D01*
X151862821Y-82358797D01*
X151862822Y-82358798D01*
X152057213Y-82434105D01*
X152112614Y-82476678D01*
X152136205Y-82542445D01*
X152120494Y-82610525D01*
X152070470Y-82659304D01*
X152057213Y-82665359D01*
X151862601Y-82740751D01*
X151862595Y-82740754D01*
X151673439Y-82857874D01*
X151673437Y-82857876D01*
X151509020Y-83007761D01*
X151374943Y-83185308D01*
X151374938Y-83185316D01*
X151275775Y-83384461D01*
X151275769Y-83384476D01*
X151214885Y-83598462D01*
X151214884Y-83598464D01*
X151194356Y-83819999D01*
X151194356Y-83820000D01*
X151214884Y-84041535D01*
X151214885Y-84041537D01*
X151275769Y-84255523D01*
X151275775Y-84255538D01*
X151374938Y-84454683D01*
X151374943Y-84454691D01*
X151509020Y-84632238D01*
X151673437Y-84782123D01*
X151673439Y-84782125D01*
X151862595Y-84899245D01*
X151862596Y-84899245D01*
X151862599Y-84899247D01*
X152056524Y-84974374D01*
X152111924Y-85016946D01*
X152135515Y-85082713D01*
X152119804Y-85150793D01*
X152069780Y-85199572D01*
X152056533Y-85205622D01*
X151908488Y-85262975D01*
X151862601Y-85280752D01*
X151862595Y-85280754D01*
X151673439Y-85397874D01*
X151673437Y-85397876D01*
X151509020Y-85547761D01*
X151374943Y-85725308D01*
X151374938Y-85725316D01*
X151275775Y-85924461D01*
X151275769Y-85924476D01*
X151214885Y-86138462D01*
X151214884Y-86138464D01*
X151194356Y-86359999D01*
X151194356Y-86360000D01*
X151214884Y-86581535D01*
X151214885Y-86581537D01*
X151275769Y-86795523D01*
X151275775Y-86795538D01*
X151374938Y-86994683D01*
X151374943Y-86994691D01*
X151509020Y-87172238D01*
X151673437Y-87322123D01*
X151673439Y-87322125D01*
X151862595Y-87439245D01*
X151862596Y-87439245D01*
X151862599Y-87439247D01*
X152056524Y-87514374D01*
X152111924Y-87556946D01*
X152135515Y-87622713D01*
X152119804Y-87690793D01*
X152069780Y-87739572D01*
X152056533Y-87745622D01*
X151908488Y-87802975D01*
X151862601Y-87820752D01*
X151862595Y-87820754D01*
X151673439Y-87937874D01*
X151673437Y-87937876D01*
X151509020Y-88087761D01*
X151374943Y-88265308D01*
X151374938Y-88265316D01*
X151275775Y-88464461D01*
X151275769Y-88464476D01*
X151214885Y-88678462D01*
X151214884Y-88678464D01*
X151194356Y-88899999D01*
X151194356Y-88900000D01*
X130745643Y-88900000D01*
X130725115Y-88678464D01*
X130664229Y-88464472D01*
X130664224Y-88464461D01*
X130565061Y-88265316D01*
X130565056Y-88265308D01*
X130430979Y-88087761D01*
X130266562Y-87937876D01*
X130266560Y-87937874D01*
X130077404Y-87820754D01*
X130077395Y-87820750D01*
X129983956Y-87784552D01*
X129883475Y-87745625D01*
X129828075Y-87703054D01*
X129804484Y-87637288D01*
X129820195Y-87569207D01*
X129870219Y-87520428D01*
X129883466Y-87514377D01*
X130077401Y-87439247D01*
X130266562Y-87322124D01*
X130430981Y-87172236D01*
X130565058Y-86994689D01*
X130664229Y-86795528D01*
X130725115Y-86581536D01*
X130745643Y-86360000D01*
X130725115Y-86138464D01*
X130664229Y-85924472D01*
X130664224Y-85924461D01*
X130565061Y-85725316D01*
X130565056Y-85725308D01*
X130430979Y-85547761D01*
X130266562Y-85397876D01*
X130266560Y-85397874D01*
X130077404Y-85280754D01*
X130077395Y-85280750D01*
X129983956Y-85244552D01*
X129883475Y-85205625D01*
X129828075Y-85163054D01*
X129804484Y-85097288D01*
X129820195Y-85029207D01*
X129870219Y-84980428D01*
X129883466Y-84974377D01*
X130077401Y-84899247D01*
X130266562Y-84782124D01*
X130430981Y-84632236D01*
X130565058Y-84454689D01*
X130664229Y-84255528D01*
X130725115Y-84041536D01*
X130745643Y-83820000D01*
X130725115Y-83598464D01*
X130664229Y-83384472D01*
X130664224Y-83384461D01*
X130565061Y-83185316D01*
X130565056Y-83185308D01*
X130430979Y-83007761D01*
X130266562Y-82857876D01*
X130266560Y-82857874D01*
X130077404Y-82740754D01*
X130077395Y-82740750D01*
X129983956Y-82704552D01*
X129883475Y-82665625D01*
X129828075Y-82623054D01*
X129804484Y-82557288D01*
X129820195Y-82489207D01*
X129870219Y-82440428D01*
X129883466Y-82434377D01*
X130077401Y-82359247D01*
X130266562Y-82242124D01*
X130430981Y-82092236D01*
X130565058Y-81914689D01*
X130664229Y-81715528D01*
X130725115Y-81501536D01*
X130745643Y-81280000D01*
X130728605Y-81096133D01*
X130725115Y-81058464D01*
X130725114Y-81058462D01*
X130720417Y-81041955D01*
X130664229Y-80844472D01*
X130664224Y-80844461D01*
X130565061Y-80645316D01*
X130565056Y-80645308D01*
X130430979Y-80467761D01*
X130266562Y-80317876D01*
X130266560Y-80317874D01*
X130077404Y-80200754D01*
X130077395Y-80200750D01*
X129983956Y-80164552D01*
X129883475Y-80125625D01*
X129828075Y-80083054D01*
X129804484Y-80017288D01*
X129820195Y-79949207D01*
X129870219Y-79900428D01*
X129883466Y-79894377D01*
X130077401Y-79819247D01*
X130266562Y-79702124D01*
X130430981Y-79552236D01*
X130565058Y-79374689D01*
X130664229Y-79175528D01*
X130725115Y-78961536D01*
X130745643Y-78740000D01*
X130725115Y-78518464D01*
X130664229Y-78304472D01*
X130664224Y-78304461D01*
X130565061Y-78105316D01*
X130565056Y-78105308D01*
X130430979Y-77927761D01*
X130266562Y-77777876D01*
X130266560Y-77777874D01*
X130077404Y-77660754D01*
X130077395Y-77660750D01*
X129983956Y-77624552D01*
X129883475Y-77585625D01*
X129828075Y-77543054D01*
X129804484Y-77477288D01*
X129820195Y-77409207D01*
X129870219Y-77360428D01*
X129883466Y-77354377D01*
X130077401Y-77279247D01*
X130266562Y-77162124D01*
X130430981Y-77012236D01*
X130565058Y-76834689D01*
X130664229Y-76635528D01*
X130725115Y-76421536D01*
X130745643Y-76200000D01*
X130725115Y-75978464D01*
X130664229Y-75764472D01*
X130664224Y-75764461D01*
X130565061Y-75565316D01*
X130565056Y-75565308D01*
X130430979Y-75387761D01*
X130266562Y-75237876D01*
X130266560Y-75237874D01*
X130077404Y-75120754D01*
X130077395Y-75120750D01*
X129983956Y-75084552D01*
X129883475Y-75045625D01*
X129828075Y-75003054D01*
X129804484Y-74937288D01*
X129820195Y-74869207D01*
X129870219Y-74820428D01*
X129883466Y-74814377D01*
X130077401Y-74739247D01*
X130266562Y-74622124D01*
X130430981Y-74472236D01*
X130565058Y-74294689D01*
X130664229Y-74095528D01*
X130725115Y-73881536D01*
X130745643Y-73660000D01*
X130725115Y-73438464D01*
X130664229Y-73224472D01*
X130664224Y-73224461D01*
X130565061Y-73025316D01*
X130565056Y-73025308D01*
X130430979Y-72847761D01*
X130266562Y-72697876D01*
X130266560Y-72697874D01*
X130077404Y-72580754D01*
X130077395Y-72580750D01*
X129983956Y-72544552D01*
X129883475Y-72505625D01*
X129828075Y-72463054D01*
X129804484Y-72397288D01*
X129820195Y-72329207D01*
X129870219Y-72280428D01*
X129883466Y-72274377D01*
X130077401Y-72199247D01*
X130266562Y-72082124D01*
X130430981Y-71932236D01*
X130565058Y-71754689D01*
X130664229Y-71555528D01*
X130725115Y-71341536D01*
X130745643Y-71120000D01*
X130725115Y-70898464D01*
X130664229Y-70684472D01*
X130664224Y-70684461D01*
X130565061Y-70485316D01*
X130565056Y-70485308D01*
X130430979Y-70307761D01*
X130266562Y-70157876D01*
X130266560Y-70157874D01*
X130077404Y-70040754D01*
X130077395Y-70040750D01*
X129983956Y-70004552D01*
X129883475Y-69965625D01*
X129828075Y-69923054D01*
X129804484Y-69857288D01*
X129820195Y-69789207D01*
X129870219Y-69740428D01*
X129883466Y-69734377D01*
X130077401Y-69659247D01*
X130266562Y-69542124D01*
X130430981Y-69392236D01*
X130565058Y-69214689D01*
X130664229Y-69015528D01*
X130725115Y-68801536D01*
X130745643Y-68580000D01*
X130725115Y-68358464D01*
X130664229Y-68144472D01*
X130664224Y-68144461D01*
X130565061Y-67945316D01*
X130565056Y-67945308D01*
X130430979Y-67767761D01*
X130266562Y-67617876D01*
X130266560Y-67617874D01*
X130077404Y-67500754D01*
X130077395Y-67500750D01*
X129983956Y-67464552D01*
X129883475Y-67425625D01*
X129828075Y-67383054D01*
X129804484Y-67317288D01*
X129820195Y-67249207D01*
X129870219Y-67200428D01*
X129883466Y-67194377D01*
X130077401Y-67119247D01*
X130266562Y-67002124D01*
X130430981Y-66852236D01*
X130565058Y-66674689D01*
X130664229Y-66475528D01*
X130725115Y-66261536D01*
X130745643Y-66040000D01*
X130725115Y-65818464D01*
X130664229Y-65604472D01*
X130664224Y-65604461D01*
X130565061Y-65405316D01*
X130565056Y-65405308D01*
X130430979Y-65227761D01*
X130266562Y-65077876D01*
X130266560Y-65077874D01*
X130077404Y-64960754D01*
X130077398Y-64960752D01*
X129869940Y-64880382D01*
X129651243Y-64839500D01*
X129428757Y-64839500D01*
X129210060Y-64880382D01*
X129078864Y-64931207D01*
X129002601Y-64960752D01*
X129002595Y-64960754D01*
X128813439Y-65077874D01*
X128813437Y-65077876D01*
X128649020Y-65227761D01*
X128514943Y-65405308D01*
X128514938Y-65405316D01*
X128415775Y-65604461D01*
X128415769Y-65604476D01*
X128389266Y-65697627D01*
X128351987Y-65756721D01*
X128288677Y-65786278D01*
X128219438Y-65776916D01*
X128166251Y-65731606D01*
X128150734Y-65697627D01*
X128124230Y-65604476D01*
X128124229Y-65604472D01*
X128124224Y-65604461D01*
X128025061Y-65405316D01*
X128025056Y-65405308D01*
X127890979Y-65227761D01*
X127726562Y-65077876D01*
X127726560Y-65077874D01*
X127537404Y-64960754D01*
X127537398Y-64960752D01*
X127329940Y-64880382D01*
X127111243Y-64839500D01*
X126888757Y-64839500D01*
X126670060Y-64880382D01*
X126538864Y-64931207D01*
X126462601Y-64960752D01*
X126462595Y-64960754D01*
X126273439Y-65077874D01*
X126273437Y-65077876D01*
X126109020Y-65227761D01*
X125974943Y-65405308D01*
X125974938Y-65405316D01*
X125875775Y-65604461D01*
X125875769Y-65604476D01*
X125814885Y-65818462D01*
X125814884Y-65818464D01*
X125794357Y-66039999D01*
X125794357Y-66040000D01*
X125814884Y-66261535D01*
X125814885Y-66261537D01*
X125875769Y-66475523D01*
X125875775Y-66475538D01*
X125974938Y-66674683D01*
X125974943Y-66674691D01*
X126109020Y-66852238D01*
X126273437Y-67002123D01*
X126273439Y-67002125D01*
X126462595Y-67119245D01*
X126462596Y-67119245D01*
X126462599Y-67119247D01*
X126656524Y-67194374D01*
X126711924Y-67236946D01*
X126735515Y-67302713D01*
X126719804Y-67370793D01*
X126669780Y-67419572D01*
X126656533Y-67425622D01*
X126508488Y-67482975D01*
X126462601Y-67500752D01*
X126462595Y-67500754D01*
X126273439Y-67617874D01*
X126273437Y-67617876D01*
X126109020Y-67767761D01*
X125974943Y-67945308D01*
X125974938Y-67945316D01*
X125875775Y-68144461D01*
X125875769Y-68144476D01*
X125814885Y-68358462D01*
X125814884Y-68358464D01*
X125794357Y-68579999D01*
X125794357Y-68580000D01*
X125814884Y-68801535D01*
X125814885Y-68801537D01*
X125875769Y-69015523D01*
X125875775Y-69015538D01*
X125974938Y-69214683D01*
X125974943Y-69214691D01*
X126109020Y-69392238D01*
X126273437Y-69542123D01*
X126273439Y-69542125D01*
X126462595Y-69659245D01*
X126462596Y-69659245D01*
X126462599Y-69659247D01*
X126656524Y-69734374D01*
X126711924Y-69776946D01*
X126735515Y-69842713D01*
X126719804Y-69910793D01*
X126669780Y-69959572D01*
X126656533Y-69965622D01*
X126508488Y-70022975D01*
X126462601Y-70040752D01*
X126462595Y-70040754D01*
X126273439Y-70157874D01*
X126273437Y-70157876D01*
X126109020Y-70307761D01*
X125974943Y-70485308D01*
X125974938Y-70485316D01*
X125875775Y-70684461D01*
X125875769Y-70684476D01*
X125814885Y-70898462D01*
X125814884Y-70898464D01*
X125794357Y-71119999D01*
X125794357Y-71120000D01*
X125814884Y-71341535D01*
X125814885Y-71341537D01*
X125875769Y-71555523D01*
X125875775Y-71555538D01*
X125974938Y-71754683D01*
X125974943Y-71754691D01*
X126109020Y-71932238D01*
X126273437Y-72082123D01*
X126273439Y-72082125D01*
X126462595Y-72199245D01*
X126462596Y-72199245D01*
X126462599Y-72199247D01*
X126656524Y-72274374D01*
X126711924Y-72316946D01*
X126735515Y-72382713D01*
X126719804Y-72450793D01*
X126669780Y-72499572D01*
X126656533Y-72505622D01*
X126508488Y-72562975D01*
X126462601Y-72580752D01*
X126462595Y-72580754D01*
X126273439Y-72697874D01*
X126273437Y-72697876D01*
X126109020Y-72847761D01*
X125974943Y-73025308D01*
X125974938Y-73025316D01*
X125875775Y-73224461D01*
X125875769Y-73224476D01*
X125814885Y-73438462D01*
X125814884Y-73438464D01*
X125794357Y-73659999D01*
X125794357Y-73660000D01*
X125814884Y-73881535D01*
X125814885Y-73881537D01*
X125875769Y-74095523D01*
X125875775Y-74095538D01*
X125974938Y-74294683D01*
X125974943Y-74294691D01*
X126109020Y-74472238D01*
X126273437Y-74622123D01*
X126273439Y-74622125D01*
X126462595Y-74739245D01*
X126462596Y-74739245D01*
X126462599Y-74739247D01*
X126656524Y-74814374D01*
X126711924Y-74856946D01*
X126735515Y-74922713D01*
X126719804Y-74990793D01*
X126669780Y-75039572D01*
X126656533Y-75045622D01*
X126508488Y-75102975D01*
X126462601Y-75120752D01*
X126462595Y-75120754D01*
X126273439Y-75237874D01*
X126273437Y-75237876D01*
X126109020Y-75387761D01*
X125974943Y-75565308D01*
X125974938Y-75565316D01*
X125875775Y-75764461D01*
X125875769Y-75764476D01*
X125814885Y-75978462D01*
X125814884Y-75978464D01*
X125794357Y-76199999D01*
X125794357Y-76200000D01*
X125814884Y-76421535D01*
X125814885Y-76421537D01*
X125875769Y-76635523D01*
X125875775Y-76635538D01*
X125974938Y-76834683D01*
X125974943Y-76834691D01*
X126109020Y-77012238D01*
X126273437Y-77162123D01*
X126273439Y-77162125D01*
X126462595Y-77279245D01*
X126462596Y-77279245D01*
X126462599Y-77279247D01*
X126656524Y-77354374D01*
X126711924Y-77396946D01*
X126735515Y-77462713D01*
X126719804Y-77530793D01*
X126669780Y-77579572D01*
X126656533Y-77585622D01*
X126508488Y-77642975D01*
X126462601Y-77660752D01*
X126462595Y-77660754D01*
X126273439Y-77777874D01*
X126273437Y-77777876D01*
X126109020Y-77927761D01*
X125974943Y-78105308D01*
X125974938Y-78105316D01*
X125875775Y-78304461D01*
X125875769Y-78304476D01*
X125814885Y-78518462D01*
X125814884Y-78518464D01*
X125794357Y-78739999D01*
X125794357Y-78740000D01*
X125814884Y-78961535D01*
X125814885Y-78961537D01*
X125875769Y-79175523D01*
X125875775Y-79175538D01*
X125974938Y-79374683D01*
X125974943Y-79374691D01*
X126109020Y-79552238D01*
X126273437Y-79702123D01*
X126273439Y-79702125D01*
X126462595Y-79819245D01*
X126462596Y-79819245D01*
X126462599Y-79819247D01*
X126656524Y-79894374D01*
X126711924Y-79936946D01*
X126735515Y-80002713D01*
X126719804Y-80070793D01*
X126669780Y-80119572D01*
X126656533Y-80125622D01*
X126508488Y-80182975D01*
X126462601Y-80200752D01*
X126462595Y-80200754D01*
X126273439Y-80317874D01*
X126273437Y-80317876D01*
X126109020Y-80467761D01*
X125974943Y-80645308D01*
X125974938Y-80645316D01*
X125875775Y-80844461D01*
X125875769Y-80844476D01*
X125814885Y-81058462D01*
X125814884Y-81058464D01*
X125794357Y-81279999D01*
X125794357Y-81280000D01*
X125814884Y-81501535D01*
X125814885Y-81501537D01*
X125875769Y-81715523D01*
X125875775Y-81715538D01*
X125974938Y-81914683D01*
X125974943Y-81914691D01*
X126109020Y-82092238D01*
X126273437Y-82242123D01*
X126273439Y-82242125D01*
X126462595Y-82359245D01*
X126462596Y-82359245D01*
X126462599Y-82359247D01*
X126656524Y-82434374D01*
X126711924Y-82476946D01*
X126735515Y-82542713D01*
X126719804Y-82610793D01*
X126669780Y-82659572D01*
X126656533Y-82665622D01*
X126508488Y-82722975D01*
X126462601Y-82740752D01*
X126462595Y-82740754D01*
X126273439Y-82857874D01*
X126273437Y-82857876D01*
X126109020Y-83007761D01*
X125974943Y-83185308D01*
X125974938Y-83185316D01*
X125875775Y-83384461D01*
X125875769Y-83384476D01*
X125814885Y-83598462D01*
X125814884Y-83598464D01*
X125794357Y-83819999D01*
X125794357Y-83820000D01*
X125814884Y-84041535D01*
X125814885Y-84041537D01*
X125875769Y-84255523D01*
X125875775Y-84255538D01*
X125974938Y-84454683D01*
X125974943Y-84454691D01*
X126109020Y-84632238D01*
X126273437Y-84782123D01*
X126273439Y-84782125D01*
X126462595Y-84899245D01*
X126462596Y-84899245D01*
X126462599Y-84899247D01*
X126656524Y-84974374D01*
X126711924Y-85016946D01*
X126735515Y-85082713D01*
X126719804Y-85150793D01*
X126669780Y-85199572D01*
X126656533Y-85205622D01*
X126508488Y-85262975D01*
X126462601Y-85280752D01*
X126462595Y-85280754D01*
X126273439Y-85397874D01*
X126273437Y-85397876D01*
X126109020Y-85547761D01*
X125974943Y-85725308D01*
X125974938Y-85725316D01*
X125875775Y-85924461D01*
X125875769Y-85924476D01*
X125814885Y-86138462D01*
X125814884Y-86138464D01*
X125794357Y-86359999D01*
X125794357Y-86360000D01*
X125814884Y-86581535D01*
X125814885Y-86581537D01*
X125875769Y-86795523D01*
X125875775Y-86795538D01*
X125974938Y-86994683D01*
X125974943Y-86994691D01*
X126109020Y-87172238D01*
X126273437Y-87322123D01*
X126273439Y-87322125D01*
X126462595Y-87439245D01*
X126462596Y-87439245D01*
X126462599Y-87439247D01*
X126656524Y-87514374D01*
X126711924Y-87556946D01*
X126735515Y-87622713D01*
X126719804Y-87690793D01*
X126669780Y-87739572D01*
X126656533Y-87745622D01*
X126508488Y-87802975D01*
X126462601Y-87820752D01*
X126462595Y-87820754D01*
X126273439Y-87937874D01*
X126273437Y-87937876D01*
X126109020Y-88087761D01*
X125974943Y-88265308D01*
X125974938Y-88265316D01*
X125875775Y-88464461D01*
X125875769Y-88464476D01*
X125814885Y-88678462D01*
X125814884Y-88678464D01*
X125794357Y-88899999D01*
X125794357Y-88900000D01*
X114300000Y-88900000D01*
X114300000Y-63499999D01*
X117894473Y-63499999D01*
X117914563Y-63832136D01*
X117914563Y-63832141D01*
X117914564Y-63832142D01*
X117974544Y-64159441D01*
X117974545Y-64159445D01*
X117974546Y-64159449D01*
X118073530Y-64477104D01*
X118073534Y-64477116D01*
X118073537Y-64477123D01*
X118210102Y-64780557D01*
X118319035Y-64960754D01*
X118382251Y-65065326D01*
X118587460Y-65327255D01*
X118822744Y-65562539D01*
X119084673Y-65767748D01*
X119084678Y-65767751D01*
X119084682Y-65767754D01*
X119369443Y-65939898D01*
X119672877Y-66076463D01*
X119672890Y-66076467D01*
X119672895Y-66076469D01*
X119884664Y-66142458D01*
X119990559Y-66175456D01*
X120317858Y-66235436D01*
X120495740Y-66246196D01*
X120566892Y-66250500D01*
X120566894Y-66250500D01*
X120733108Y-66250500D01*
X120795365Y-66246734D01*
X120982142Y-66235436D01*
X121309441Y-66175456D01*
X121627123Y-66076463D01*
X121930557Y-65939898D01*
X122215318Y-65767754D01*
X122477252Y-65562542D01*
X122712542Y-65327252D01*
X122857881Y-65141740D01*
X122917748Y-65065326D01*
X122917748Y-65065324D01*
X122917754Y-65065318D01*
X123089898Y-64780557D01*
X123226463Y-64477123D01*
X123325456Y-64159441D01*
X123385436Y-63832142D01*
X123405527Y-63500000D01*
X159804473Y-63500000D01*
X159824563Y-63832136D01*
X159824563Y-63832141D01*
X159824564Y-63832142D01*
X159884544Y-64159441D01*
X159884545Y-64159445D01*
X159884546Y-64159449D01*
X159983530Y-64477104D01*
X159983534Y-64477116D01*
X159983537Y-64477123D01*
X160120102Y-64780557D01*
X160229035Y-64960754D01*
X160292251Y-65065326D01*
X160497460Y-65327255D01*
X160732744Y-65562539D01*
X160994673Y-65767748D01*
X160994678Y-65767751D01*
X160994682Y-65767754D01*
X161279443Y-65939898D01*
X161582877Y-66076463D01*
X161582890Y-66076467D01*
X161582895Y-66076469D01*
X161794665Y-66142458D01*
X161900559Y-66175456D01*
X162227858Y-66235436D01*
X162405740Y-66246196D01*
X162476892Y-66250500D01*
X162476894Y-66250500D01*
X162643108Y-66250500D01*
X162705364Y-66246734D01*
X162892142Y-66235436D01*
X163219441Y-66175456D01*
X163537123Y-66076463D01*
X163840557Y-65939898D01*
X164125318Y-65767754D01*
X164387252Y-65562542D01*
X164622542Y-65327252D01*
X164767881Y-65141740D01*
X164827748Y-65065326D01*
X164827748Y-65065324D01*
X164827754Y-65065318D01*
X164999898Y-64780557D01*
X165136463Y-64477123D01*
X165235456Y-64159441D01*
X165295436Y-63832142D01*
X165315527Y-63500000D01*
X165295436Y-63167858D01*
X165235456Y-62840559D01*
X165136463Y-62522877D01*
X164999898Y-62219443D01*
X164827754Y-61934682D01*
X164827751Y-61934678D01*
X164827748Y-61934673D01*
X164622539Y-61672744D01*
X164387255Y-61437460D01*
X164125326Y-61232251D01*
X164125318Y-61232246D01*
X163840557Y-61060102D01*
X163537123Y-60923537D01*
X163537116Y-60923534D01*
X163537104Y-60923530D01*
X163219449Y-60824546D01*
X163219445Y-60824545D01*
X163219441Y-60824544D01*
X162892142Y-60764564D01*
X162892141Y-60764563D01*
X162892136Y-60764563D01*
X162643108Y-60749500D01*
X162643106Y-60749500D01*
X162476894Y-60749500D01*
X162476892Y-60749500D01*
X162227863Y-60764563D01*
X162227857Y-60764564D01*
X162227858Y-60764564D01*
X161900559Y-60824544D01*
X161900556Y-60824544D01*
X161900550Y-60824546D01*
X161582895Y-60923530D01*
X161582879Y-60923536D01*
X161582877Y-60923537D01*
X161389656Y-61010498D01*
X161279447Y-61060100D01*
X161279445Y-61060101D01*
X160994673Y-61232251D01*
X160732744Y-61437460D01*
X160497460Y-61672744D01*
X160292251Y-61934673D01*
X160120101Y-62219445D01*
X160120100Y-62219447D01*
X159983536Y-62522880D01*
X159983530Y-62522895D01*
X159884546Y-62840550D01*
X159824563Y-63167863D01*
X159804473Y-63500000D01*
X123405527Y-63500000D01*
X123385436Y-63167858D01*
X123325456Y-62840559D01*
X123226463Y-62522877D01*
X123089898Y-62219443D01*
X122917754Y-61934682D01*
X122917751Y-61934678D01*
X122917748Y-61934673D01*
X122712539Y-61672744D01*
X122477255Y-61437460D01*
X122215326Y-61232251D01*
X122215318Y-61232246D01*
X121930557Y-61060102D01*
X121627123Y-60923537D01*
X121627116Y-60923534D01*
X121627104Y-60923530D01*
X121309449Y-60824546D01*
X121309445Y-60824545D01*
X121309441Y-60824544D01*
X120982142Y-60764564D01*
X120982141Y-60764563D01*
X120982136Y-60764563D01*
X120733108Y-60749500D01*
X120733106Y-60749500D01*
X120566894Y-60749500D01*
X120566892Y-60749500D01*
X120317863Y-60764563D01*
X120317857Y-60764564D01*
X120317858Y-60764564D01*
X119990559Y-60824544D01*
X119990556Y-60824544D01*
X119990550Y-60824546D01*
X119672895Y-60923530D01*
X119672879Y-60923536D01*
X119672877Y-60923537D01*
X119479656Y-61010498D01*
X119369447Y-61060100D01*
X119369445Y-61060101D01*
X119084673Y-61232251D01*
X118822744Y-61437460D01*
X118587460Y-61672744D01*
X118382251Y-61934673D01*
X118210101Y-62219445D01*
X118210100Y-62219447D01*
X118073536Y-62522880D01*
X118073530Y-62522895D01*
X117974546Y-62840550D01*
X117914563Y-63167863D01*
X117894473Y-63499999D01*
X114300000Y-63499999D01*
X114300000Y-57274500D01*
X114319685Y-57207461D01*
X114372489Y-57161706D01*
X114424000Y-57150500D01*
X168785500Y-57150500D01*
X168852539Y-57170185D01*
G37*
%TD.AperFunction*%
%TD*%
M02*
