M48
; DRILL file {KiCad 7.0.7} date Fri Nov 10 11:02:03 2023
; FORMAT={-:-/ absolute / inch / decimal}
; #@! TF.CreationDate,2023-11-10T11:02:03-07:00
; #@! TF.GenerationSoftware,Kicad,Pcbnew,7.0.7
; #@! TF.FileFunction,Plated,1,2,PTH
FMAT,2
INCH
; #@! TA.AperFunction,Plated,PTH,ViaDrill
T1C0.0157
; #@! TA.AperFunction,Plated,PTH,ComponentDrill
T2C0.0315
; #@! TA.AperFunction,Plated,PTH,ComponentDrill
T3C0.0394
; #@! TA.AperFunction,Plated,PTH,ComponentDrill
T4C0.0472
; #@! TA.AperFunction,Plated,PTH,ComponentDrill
T5C0.0512
%
G90
G05
T1
X4.8Y-3.15
X6.3Y-3.05
X6.35Y-2.85
T2
X5.0245Y-2.5959
X5.0245Y-2.6959
X5.0245Y-2.7959
X5.0245Y-2.8959
X5.0245Y-2.9959
X5.0245Y-3.0959
X5.0245Y-3.1959
X5.0245Y-3.2959
X5.0245Y-3.3959
X5.0245Y-3.4959
X5.1245Y-2.5959
X5.1245Y-2.6959
X5.1245Y-2.7959
X5.1245Y-2.8959
X5.1245Y-2.9959
X5.1245Y-3.0959
X5.1245Y-3.1959
X5.1245Y-3.2959
X5.1245Y-3.3959
X5.1245Y-3.4959
X6.0245Y-2.5959
X6.0245Y-2.6959
X6.0245Y-2.7959
X6.0245Y-2.8959
X6.0245Y-2.9959
X6.0245Y-3.0959
X6.0245Y-3.1959
X6.0245Y-3.2959
X6.0245Y-3.3959
X6.0245Y-3.4959
X6.1245Y-2.5959
X6.1245Y-2.6959
X6.1245Y-2.7959
X6.1245Y-2.8959
X6.1245Y-2.9959
X6.1245Y-3.0959
X6.1245Y-3.1959
X6.1245Y-3.2959
X6.1245Y-3.3959
X6.1245Y-3.4959
T3
X5.8Y-4.4
X5.9Y-4.4
X6.0Y-4.4
T4
X5.7744Y-4.7
X5.9122Y-4.7
X6.05Y-4.7
T5
X5.1063Y-4.662
X5.3031Y-4.662
X5.5Y-4.662
T0
M30
