%TF.GenerationSoftware,KiCad,Pcbnew,7.0.7*%
<<<<<<< Updated upstream
%TF.CreationDate,2023-10-30T20:42:16-06:00*%
%TF.ProjectId,RatGDO-OpenSource-D1Mini-ESP32,52617447-444f-42d4-9f70-656e536f7572,rev?*%
=======
%TF.CreationDate,2023-10-28T20:58:11-06:00*%
%TF.ProjectId,RatGDO-OpenSource,52617447-444f-42d4-9f70-656e536f7572,rev?*%
>>>>>>> Stashed changes
%TF.SameCoordinates,Original*%
%TF.FileFunction,Copper,L1,Top*%
%TF.FilePolarity,Positive*%
%FSLAX46Y46*%
G04 Gerber Fmt 4.6, Leading zero omitted, Abs format (unit mm)*
<<<<<<< Updated upstream
G04 Created by KiCad (PCBNEW 7.0.7) date 2023-10-30 20:42:16*
=======
G04 Created by KiCad (PCBNEW 7.0.7) date 2023-10-28 20:58:11*
>>>>>>> Stashed changes
%MOMM*%
%LPD*%
G01*
G04 APERTURE LIST*
G04 Aperture macros list*
%AMRoundRect*
0 Rectangle with rounded corners*
0 $1 Rounding radius*
0 $2 $3 $4 $5 $6 $7 $8 $9 X,Y pos of 4 corners*
0 Add a 4 corners polygon primitive as box body*
4,1,4,$2,$3,$4,$5,$6,$7,$8,$9,$2,$3,0*
0 Add four circle primitives for the rounded corners*
1,1,$1+$1,$2,$3*
1,1,$1+$1,$4,$5*
1,1,$1+$1,$6,$7*
1,1,$1+$1,$8,$9*
0 Add four rect primitives between the rounded corners*
20,1,$1+$1,$2,$3,$4,$5,0*
20,1,$1+$1,$4,$5,$6,$7,0*
20,1,$1+$1,$6,$7,$8,$9,0*
20,1,$1+$1,$8,$9,$2,$3,0*%
G04 Aperture macros list end*
<<<<<<< Updated upstream
%TA.AperFunction,SMDPad,CuDef*%
%ADD10RoundRect,0.250000X0.262500X0.450000X-0.262500X0.450000X-0.262500X-0.450000X0.262500X-0.450000X0*%
%TD*%
%TA.AperFunction,SMDPad,CuDef*%
%ADD11RoundRect,0.150000X-0.587500X-0.150000X0.587500X-0.150000X0.587500X0.150000X-0.587500X0.150000X0*%
%TD*%
%TA.AperFunction,ComponentPad*%
%ADD12C,1.400000*%
%TD*%
%TA.AperFunction,SMDPad,CuDef*%
%ADD13RoundRect,0.150000X0.587500X0.150000X-0.587500X0.150000X-0.587500X-0.150000X0.587500X-0.150000X0*%
%TD*%
%TA.AperFunction,ComponentPad*%
%ADD14RoundRect,0.250000X-0.650000X-1.550000X0.650000X-1.550000X0.650000X1.550000X-0.650000X1.550000X0*%
%TD*%
%TA.AperFunction,ComponentPad*%
%ADD15O,1.800000X3.600000*%
%TD*%
%TA.AperFunction,ComponentPad*%
%ADD16R,2.600000X2.600000*%
%TD*%
%TA.AperFunction,ComponentPad*%
%ADD17C,2.600000*%
%TD*%
%TA.AperFunction,SMDPad,CuDef*%
%ADD18RoundRect,0.250000X-0.262500X-0.450000X0.262500X-0.450000X0.262500X0.450000X-0.262500X0.450000X0*%
%TD*%
%TA.AperFunction,ViaPad*%
%ADD19C,0.800000*%
%TD*%
%TA.AperFunction,Conductor*%
%ADD20C,0.250000*%
%TD*%
G04 APERTURE END LIST*
D10*
=======
%TA.AperFunction,ComponentPad*%
%ADD10R,2.000000X2.000000*%
%TD*%
%TA.AperFunction,ComponentPad*%
%ADD11O,2.000000X1.600000*%
%TD*%
%TA.AperFunction,SMDPad,CuDef*%
%ADD12RoundRect,0.250000X0.262500X0.450000X-0.262500X0.450000X-0.262500X-0.450000X0.262500X-0.450000X0*%
%TD*%
%TA.AperFunction,SMDPad,CuDef*%
%ADD13RoundRect,0.150000X-0.587500X-0.150000X0.587500X-0.150000X0.587500X0.150000X-0.587500X0.150000X0*%
%TD*%
%TA.AperFunction,SMDPad,CuDef*%
%ADD14RoundRect,0.150000X0.587500X0.150000X-0.587500X0.150000X-0.587500X-0.150000X0.587500X-0.150000X0*%
%TD*%
%TA.AperFunction,ComponentPad*%
%ADD15RoundRect,0.250000X-0.650000X-1.550000X0.650000X-1.550000X0.650000X1.550000X-0.650000X1.550000X0*%
%TD*%
%TA.AperFunction,ComponentPad*%
%ADD16O,1.800000X3.600000*%
%TD*%
%TA.AperFunction,ComponentPad*%
%ADD17R,2.600000X2.600000*%
%TD*%
%TA.AperFunction,ComponentPad*%
%ADD18C,2.600000*%
%TD*%
%TA.AperFunction,SMDPad,CuDef*%
%ADD19RoundRect,0.250000X-0.262500X-0.450000X0.262500X-0.450000X0.262500X0.450000X-0.262500X0.450000X0*%
%TD*%
%TA.AperFunction,ViaPad*%
%ADD20C,0.800000*%
%TD*%
%TA.AperFunction,Conductor*%
%ADD21C,0.250000*%
%TD*%
G04 APERTURE END LIST*
D10*
%TO.P,U1,1,~{RST}*%
%TO.N,unconnected-(U1-~{RST}-Pad1)*%
X129547500Y-66160000D03*
D11*
%TO.P,U1,2,A0*%
%TO.N,unconnected-(U1-A0-Pad2)*%
X129547500Y-68700000D03*
%TO.P,U1,3,D0*%
%TO.N,unconnected-(U1-D0-Pad3)*%
X129547500Y-71240000D03*
%TO.P,U1,4,SCK/D5*%
%TO.N,unconnected-(U1-SCK{slash}D5-Pad4)*%
X129547500Y-73780000D03*
%TO.P,U1,5,MISO/D6*%
%TO.N,unconnected-(U1-MISO{slash}D6-Pad5)*%
X129547500Y-76320000D03*
%TO.P,U1,6,MOSI/D7*%
%TO.N,Net-(U1-MOSI{slash}D7)*%
X129547500Y-78860000D03*
%TO.P,U1,7,CS/D8*%
%TO.N,unconnected-(U1-CS{slash}D8-Pad7)*%
X129547500Y-81400000D03*
%TO.P,U1,8,3V3*%
%TO.N,+3.3V*%
X129547500Y-83940000D03*
%TO.P,U1,9,5V*%
%TO.N,+5V*%
X152407500Y-83940000D03*
%TO.P,U1,10,GND*%
%TO.N,GND*%
X152407500Y-81400000D03*
%TO.P,U1,11,D4*%
%TO.N,unconnected-(U1-D4-Pad11)*%
X152407500Y-78860000D03*
%TO.P,U1,12,D3*%
%TO.N,unconnected-(U1-D3-Pad12)*%
X152407500Y-76320000D03*
%TO.P,U1,13,SDA/D2*%
%TO.N,Net-(Q1-D)*%
X152407500Y-73780000D03*
%TO.P,U1,14,SCL/D1*%
%TO.N,Net-(Q2-G)*%
X152407500Y-71240000D03*
%TO.P,U1,15,RX*%
%TO.N,unconnected-(U1-RX-Pad15)*%
X152407500Y-68700000D03*
%TO.P,U1,16,TX*%
%TO.N,unconnected-(U1-TX-Pad16)*%
X152407500Y-66160000D03*
%TD*%
D12*
>>>>>>> Stashed changes
%TO.P,R3,1*%
%TO.N,GND*%
X159662500Y-71264162D03*
%TO.P,R3,2*%
%TO.N,Net-(Q2-G)*%
X157837500Y-71264162D03*
%TD*%
<<<<<<< Updated upstream
D11*
=======
D13*
>>>>>>> Stashed changes
%TO.P,Q2,1,G*%
%TO.N,Net-(Q2-G)*%
X158145000Y-75250000D03*
%TO.P,Q2,2,S*%
%TO.N,GND*%
X158145000Y-77150000D03*
%TO.P,Q2,3,D*%
%TO.N,Net-(J1-Pin_2)*%
X160020000Y-76200000D03*
%TD*%
<<<<<<< Updated upstream
D12*
%TO.P,U2,1,GND*%
%TO.N,unconnected-(U2-GND-Pad1)*%
X127000000Y-66040000D03*
%TO.P,U2,2,RST*%
%TO.N,unconnected-(U2-RST-Pad2)*%
X129540000Y-66040000D03*
%TO.P,U2,3,NC*%
%TO.N,unconnected-(U2-NC-Pad3)*%
X127000000Y-68580000D03*
%TO.P,U2,4,IO_36/SVP/A0*%
%TO.N,unconnected-(U2-IO_36{slash}SVP{slash}A0-Pad4)*%
X129540000Y-68580000D03*
%TO.P,U2,5,IO_39/SVN*%
%TO.N,unconnected-(U2-IO_39{slash}SVN-Pad5)*%
X127000000Y-71120000D03*
%TO.P,U2,6,IO_26/D0*%
%TO.N,unconnected-(U2-IO_26{slash}D0-Pad6)*%
X129540000Y-71120000D03*
%TO.P,U2,7,IO_35*%
%TO.N,unconnected-(U2-IO_35-Pad7)*%
X127000000Y-73660000D03*
%TO.P,U2,8,IO_18/D5*%
%TO.N,unconnected-(U2-IO_18{slash}D5-Pad8)*%
X129540000Y-73660000D03*
%TO.P,U2,9,IO_33*%
%TO.N,unconnected-(U2-IO_33-Pad9)*%
X127000000Y-76200000D03*
%TO.P,U2,10,IO_19/D6*%
%TO.N,unconnected-(U2-IO_19{slash}D6-Pad10)*%
X129540000Y-76200000D03*
%TO.P,U2,11,IO_34*%
%TO.N,unconnected-(U2-IO_34-Pad11)*%
X127000000Y-78740000D03*
%TO.P,U2,12,IO_23/D7*%
%TO.N,Net-(U2-IO_23{slash}D7)*%
X129540000Y-78740000D03*
%TO.P,U2,13,IO_14/TMS*%
%TO.N,unconnected-(U2-IO_14{slash}TMS-Pad13)*%
X127000000Y-81280000D03*
%TO.P,U2,14,IO_05/D8*%
%TO.N,unconnected-(U2-IO_05{slash}D8-Pad14)*%
X129540000Y-81280000D03*
%TO.P,U2,15,NC*%
%TO.N,unconnected-(U2-NC-Pad15)*%
X127000000Y-83820000D03*
%TO.P,U2,16,3V3*%
%TO.N,+3.3V*%
X129540000Y-83820000D03*
%TO.P,U2,17,IO_09/SD2*%
%TO.N,unconnected-(U2-IO_09{slash}SD2-Pad17)*%
X127000000Y-86360000D03*
%TO.P,U2,18,IO_13/TCK*%
%TO.N,unconnected-(U2-IO_13{slash}TCK-Pad18)*%
X129540000Y-86360000D03*
%TO.P,U2,19,CMD*%
%TO.N,unconnected-(U2-CMD-Pad19)*%
X127000000Y-88900000D03*
%TO.P,U2,20,IO_10/SD3*%
%TO.N,unconnected-(U2-IO_10{slash}SD3-Pad20)*%
X129540000Y-88900000D03*
%TO.P,U2,21,TXD*%
%TO.N,unconnected-(U2-TXD-Pad21)*%
X152400000Y-66040000D03*
%TO.P,U2,22,GND*%
%TO.N,unconnected-(U2-GND-Pad22)*%
X154940000Y-66040000D03*
%TO.P,U2,23,RXD*%
%TO.N,unconnected-(U2-RXD-Pad23)*%
X152400000Y-68580000D03*
%TO.P,U2,24,IO_27*%
%TO.N,unconnected-(U2-IO_27-Pad24)*%
X154940000Y-68580000D03*
%TO.P,U2,25,IO_22/D1/SCL*%
%TO.N,Net-(Q2-G)*%
X152400000Y-71120000D03*
%TO.P,U2,26,IO_25*%
%TO.N,unconnected-(U2-IO_25-Pad26)*%
X154940000Y-71120000D03*
%TO.P,U2,27,IO_21/D2/SDA*%
%TO.N,Net-(Q1-D)*%
X152400000Y-73660000D03*
%TO.P,U2,28,IO_32*%
%TO.N,unconnected-(U2-IO_32-Pad28)*%
X154940000Y-73660000D03*
%TO.P,U2,29,IO_17/D3*%
%TO.N,unconnected-(U2-IO_17{slash}D3-Pad29)*%
X152400000Y-76200000D03*
%TO.P,U2,30,IO_12/TDI*%
%TO.N,unconnected-(U2-IO_12{slash}TDI-Pad30)*%
X154940000Y-76200000D03*
%TO.P,U2,31,IO_16/D4*%
%TO.N,unconnected-(U2-IO_16{slash}D4-Pad31)*%
X152400000Y-78740000D03*
%TO.P,U2,32,IO_04*%
%TO.N,unconnected-(U2-IO_04-Pad32)*%
X154940000Y-78740000D03*
%TO.P,U2,33,GND*%
%TO.N,GND*%
X152400000Y-81280000D03*
%TO.P,U2,34,IO_00*%
%TO.N,unconnected-(U2-IO_00-Pad34)*%
X154940000Y-81280000D03*
%TO.P,U2,35,VCC_(USB)*%
%TO.N,+5V*%
X152400000Y-83820000D03*
%TO.P,U2,36,IO_02*%
%TO.N,unconnected-(U2-IO_02-Pad36)*%
X154940000Y-83820000D03*
%TO.P,U2,37,TD0*%
%TO.N,unconnected-(U2-TD0-Pad37)*%
X152400000Y-86360000D03*
%TO.P,U2,38,SD1*%
%TO.N,unconnected-(U2-SD1-Pad38)*%
X154940000Y-86360000D03*
%TO.P,U2,39,SD0*%
%TO.N,unconnected-(U2-SD0-Pad39)*%
X152400000Y-88900000D03*
%TO.P,U2,40,CLK*%
%TO.N,unconnected-(U2-CLK-Pad40)*%
X154940000Y-88900000D03*
%TD*%
D13*
=======
D14*
>>>>>>> Stashed changes
%TO.P,Q1,1,G*%
%TO.N,Net-(J1-Pin_2)*%
X159687500Y-84437500D03*
%TO.P,Q1,2,S*%
%TO.N,GND*%
X159687500Y-82537500D03*
%TO.P,Q1,3,D*%
%TO.N,Net-(Q1-D)*%
X157812500Y-83487500D03*
%TD*%
<<<<<<< Updated upstream
D14*
%TO.P,J2,1,Pin_1*%
%TO.N,Net-(J1-Pin_1)*%
X146670000Y-119380000D03*
D15*
=======
D15*
%TO.P,J2,1,Pin_1*%
%TO.N,Net-(J1-Pin_1)*%
X146670000Y-119380000D03*
D16*
>>>>>>> Stashed changes
%TO.P,J2,2,Pin_2*%
%TO.N,Net-(J1-Pin_2)*%
X150170000Y-119380000D03*
%TO.P,J2,3,Pin_3*%
%TO.N,GND*%
X153670000Y-119380000D03*
%TD*%
<<<<<<< Updated upstream
D16*
%TO.P,J1,1,Pin_1*%
%TO.N,Net-(J1-Pin_1)*%
X129700000Y-118415000D03*
D17*
=======
D17*
%TO.P,J1,1,Pin_1*%
%TO.N,Net-(J1-Pin_1)*%
X129700000Y-118415000D03*
D18*
>>>>>>> Stashed changes
%TO.P,J1,2,Pin_2*%
%TO.N,Net-(J1-Pin_2)*%
X134700000Y-118415000D03*
%TO.P,J1,3,Pin_3*%
%TO.N,GND*%
X139700000Y-118415000D03*
%TD*%
<<<<<<< Updated upstream
D10*
%TO.P,R2,1*%
%TO.N,Net-(U2-IO_23{slash}D7)*%
=======
D12*
%TO.P,R2,1*%
%TO.N,Net-(U1-MOSI{slash}D7)*%
>>>>>>> Stashed changes
X124102500Y-78740000D03*
%TO.P,R2,2*%
%TO.N,GND*%
X122277500Y-78740000D03*
%TD*%
<<<<<<< Updated upstream
D18*
=======
D19*
>>>>>>> Stashed changes
%TO.P,R1,1*%
%TO.N,Net-(J1-Pin_1)*%
X122277500Y-82550000D03*
%TO.P,R1,2*%
<<<<<<< Updated upstream
%TO.N,Net-(U2-IO_23{slash}D7)*%
X124102500Y-82550000D03*
%TD*%
D19*
=======
%TO.N,Net-(U1-MOSI{slash}D7)*%
X124102500Y-82550000D03*
%TD*%
D20*
>>>>>>> Stashed changes
%TO.N,GND*%
X160020000Y-81280000D03*
X160020000Y-72390000D03*
X157480000Y-78740000D03*
X121920000Y-80010000D03*
%TD*%
<<<<<<< Updated upstream
D20*
%TO.N,Net-(J1-Pin_2)*%
=======
D21*
%TO.N,Net-(J1-Pin_2)*%
X159687500Y-107012500D02*
X152400000Y-114300000D01*
X159687500Y-84437500D02*
X159687500Y-107012500D01*
>>>>>>> Stashed changes
X160750000Y-83375000D02*
X159687500Y-84437500D01*
X160750000Y-76930000D02*
X160750000Y-83375000D01*
X148590000Y-114300000D02*
X152400000Y-114300000D01*
X160020000Y-76200000D02*
X160750000Y-76930000D01*
X148590000Y-114300000D02*
X150170000Y-115880000D01*
X138815000Y-114300000D02*
X148590000Y-114300000D01*
X134700000Y-118415000D02*
X138815000Y-114300000D01*
<<<<<<< Updated upstream
X159687500Y-84437500D02*
X159687500Y-107012500D01*
X150170000Y-115880000D02*
X150170000Y-119380000D01*
X159687500Y-107012500D02*
X152400000Y-114300000D01*
=======
X150170000Y-115880000D02*
X150170000Y-119380000D01*
>>>>>>> Stashed changes
%TO.N,Net-(J1-Pin_1)*%
X129700000Y-118415000D02*
X122277500Y-110992500D01*
X129700000Y-118415000D02*
X129700000Y-120810000D01*
X144130000Y-121920000D02*
X146670000Y-119380000D01*
X122277500Y-110992500D02*
X122277500Y-82550000D01*
X129700000Y-120810000D02*
X130810000Y-121920000D01*
X130810000Y-121920000D02*
X144130000Y-121920000D01*
%TO.N,Net-(Q1-D)*%
X157812500Y-83487500D02*
<<<<<<< Updated upstream
X155965000Y-81640000D01*
X155965000Y-81640000D02*
X155965000Y-75710000D01*
X154940000Y-74685000D02*
X153425000Y-74685000D01*
X155965000Y-75710000D02*
X154940000Y-74685000D01*
X153425000Y-74685000D02*
X152400000Y-73660000D01*
%TO.N,Net-(Q2-G)*%
X156956662Y-72145000D02*
X153425000Y-72145000D01*
X153425000Y-72145000D02*
X152400000Y-71120000D01*
X157837500Y-71264162D02*
X157813338Y-71240000D01*
X157837500Y-71264162D02*
X156956662Y-72145000D01*
=======
X156210000Y-81885000D01*
X156210000Y-77582500D02*
X152407500Y-73780000D01*
X156210000Y-81885000D02*
X156210000Y-77582500D01*
%TO.N,Net-(Q2-G)*%
X157813338Y-71240000D02*
X152407500Y-71240000D01*
X157837500Y-71264162D02*
X157813338Y-71240000D01*
>>>>>>> Stashed changes
X158145000Y-75250000D02*
X157837500Y-74942500D01*
X157837500Y-74942500D02*
X157837500Y-71264162D01*
<<<<<<< Updated upstream
=======
%TO.N,Net-(U1-MOSI{slash}D7)*%
X124222500Y-78860000D02*
X129547500Y-78860000D01*
X124102500Y-78740000D02*
X124222500Y-78860000D01*
X124102500Y-82550000D02*
X124102500Y-78740000D01*
%TO.N,unconnected-(U1-CS{slash}D8-Pad7)*%
X129660000Y-81400000D02*
X129547500Y-81400000D01*
>>>>>>> Stashed changes
%TO.N,GND*%
X159687500Y-82537500D02*
X159687500Y-81612500D01*
X159687500Y-81612500D02*
X160020000Y-81280000D01*
X159662500Y-71264162D02*
X159662500Y-72032500D01*
X158145000Y-78075000D02*
X157480000Y-78740000D01*
X158145000Y-77150000D02*
X158145000Y-78075000D01*
X122277500Y-78740000D02*
X122277500Y-79652500D01*
X159662500Y-72032500D02*
X160020000Y-72390000D01*
X122277500Y-79652500D02*
X121920000Y-80010000D01*
<<<<<<< Updated upstream
%TO.N,Net-(U2-IO_23{slash}D7)*%
X124102500Y-78740000D02*
X125372500Y-80010000D01*
X128270000Y-80010000D02*
X129540000Y-78740000D01*
X125372500Y-80010000D02*
X128270000Y-80010000D01*
X124102500Y-82550000D02*
X124102500Y-78740000D01*
%TO.N,unconnected-(U2-IO_05{slash}D8-Pad14)*%
X129660000Y-81400000D02*
X129547500Y-81400000D01*
=======
>>>>>>> Stashed changes
%TD*%
M02*
