%TF.GenerationSoftware,KiCad,Pcbnew,7.0.7*%
%TF.CreationDate,2023-10-27T22:05:31-06:00*%
%TF.ProjectId,RatGDO-OpenSource,52617447-444f-42d4-9f70-656e536f7572,rev?*%
%TF.SameCoordinates,Original*%
%TF.FileFunction,Copper,L1,Top*%
%TF.FilePolarity,Positive*%
%FSLAX46Y46*%
G04 Gerber Fmt 4.6, Leading zero omitted, Abs format (unit mm)*
G04 Created by KiCad (PCBNEW 7.0.7) date 2023-10-27 22:05:31*
%MOMM*%
%LPD*%
G01*
G04 APERTURE LIST*
G04 Aperture macros list*
%AMRoundRect*
0 Rectangle with rounded corners*
0 $1 Rounding radius*
0 $2 $3 $4 $5 $6 $7 $8 $9 X,Y pos of 4 corners*
0 Add a 4 corners polygon primitive as box body*
4,1,4,$2,$3,$4,$5,$6,$7,$8,$9,$2,$3,0*
0 Add four circle primitives for the rounded corners*
1,1,$1+$1,$2,$3*
1,1,$1+$1,$4,$5*
1,1,$1+$1,$6,$7*
1,1,$1+$1,$8,$9*
0 Add four rect primitives between the rounded corners*
20,1,$1+$1,$2,$3,$4,$5,0*
20,1,$1+$1,$4,$5,$6,$7,0*
20,1,$1+$1,$6,$7,$8,$9,0*
20,1,$1+$1,$8,$9,$2,$3,0*%
G04 Aperture macros list end*
%TA.AperFunction,SMDPad,CuDef*%
%ADD10R,2.000000X1.500000*%
%TD*%
%TA.AperFunction,SMDPad,CuDef*%
%ADD11R,2.000000X3.800000*%
%TD*%
%TA.AperFunction,SMDPad,CuDef*%
%ADD12RoundRect,0.250000X-0.262500X-0.450000X0.262500X-0.450000X0.262500X0.450000X-0.262500X0.450000X0*%
%TD*%
%TA.AperFunction,ComponentPad*%
%ADD13R,2.000000X2.000000*%
%TD*%
%TA.AperFunction,ComponentPad*%
%ADD14O,2.000000X1.600000*%
%TD*%
%TA.AperFunction,SMDPad,CuDef*%
%ADD15RoundRect,0.150000X-0.587500X-0.150000X0.587500X-0.150000X0.587500X0.150000X-0.587500X0.150000X0*%
%TD*%
%TA.AperFunction,ComponentPad*%
%ADD16C,2.000000*%
%TD*%
%TA.AperFunction,SMDPad,CuDef*%
%ADD17RoundRect,0.150000X0.150000X-0.587500X0.150000X0.587500X-0.150000X0.587500X-0.150000X-0.587500X0*%
%TD*%
%TA.AperFunction,ComponentPad*%
%ADD18RoundRect,0.250000X-0.650000X-1.550000X0.650000X-1.550000X0.650000X1.550000X-0.650000X1.550000X0*%
%TD*%
%TA.AperFunction,ComponentPad*%
%ADD19O,1.800000X3.600000*%
%TD*%
%TA.AperFunction,ComponentPad*%
%ADD20R,2.600000X2.600000*%
%TD*%
%TA.AperFunction,ComponentPad*%
%ADD21C,2.600000*%
%TD*%
%TA.AperFunction,SMDPad,CuDef*%
%ADD22RoundRect,0.250000X-1.000000X1.950000X-1.000000X-1.950000X1.000000X-1.950000X1.000000X1.950000X0*%
%TD*%
%TA.AperFunction,SMDPad,CuDef*%
%ADD23RoundRect,0.250000X0.262500X0.450000X-0.262500X0.450000X-0.262500X-0.450000X0.262500X-0.450000X0*%
%TD*%
%TA.AperFunction,ViaPad*%
%ADD24C,0.800000*%
%TD*%
%TA.AperFunction,Conductor*%
%ADD25C,0.250000*%
%TD*%
G04 APERTURE END LIST*
D10*
%TO.P,U2,1,GND*%
%TO.N,GND*%
X157430000Y-105170000D03*
%TO.P,U2,2,VO*%
%TO.N,VCC*%
X157430000Y-102870000D03*
D11*
X151130000Y-102870000D03*
D10*
%TO.P,U2,3,VI*%
%TO.N,Net-(J1-Pin_2)*%
X157430000Y-100570000D03*
%TD*%
D12*
%TO.P,R3,1*%
%TO.N,GND*%
X122277500Y-78740000D03*
%TO.P,R3,2*%
%TO.N,Net-(Q2-G)*%
X124102500Y-78740000D03*
%TD*%
D13*
%TO.P,U1,1,~{RST}*%
%TO.N,unconnected-(U1-~{RST}-Pad1)*%
X129547500Y-66160000D03*
D14*
%TO.P,U1,2,A0*%
%TO.N,unconnected-(U1-A0-Pad2)*%
X129547500Y-68700000D03*
%TO.P,U1,3,D0*%
%TO.N,unconnected-(U1-D0-Pad3)*%
X129547500Y-71240000D03*
%TO.P,U1,4,SCK/D5*%
%TO.N,unconnected-(U1-SCK{slash}D5-Pad4)*%
X129547500Y-73780000D03*
%TO.P,U1,5,MISO/D6*%
%TO.N,unconnected-(U1-MISO{slash}D6-Pad5)*%
X129547500Y-76320000D03*
%TO.P,U1,6,MOSI/D7*%
%TO.N,unconnected-(U1-MOSI{slash}D7-Pad6)*%
X129547500Y-78860000D03*
%TO.P,U1,7,CS/D8*%
%TO.N,Net-(U1-CS{slash}D8)*%
X129547500Y-81400000D03*
%TO.P,U1,8,3V3*%
%TO.N,VCC*%
X129547500Y-83940000D03*
%TO.P,U1,9,5V*%
%TO.N,unconnected-(U1-5V-Pad9)*%
X152407500Y-83940000D03*
%TO.P,U1,10,GND*%
%TO.N,GND*%
X152407500Y-81400000D03*
%TO.P,U1,11,D4*%
%TO.N,unconnected-(U1-D4-Pad11)*%
X152407500Y-78860000D03*
%TO.P,U1,12,D3*%
%TO.N,unconnected-(U1-D3-Pad12)*%
X152407500Y-76320000D03*
%TO.P,U1,13,SDA/D2*%
%TO.N,unconnected-(U1-SDA{slash}D2-Pad13)*%
X152407500Y-73780000D03*
%TO.P,U1,14,SCL/D1*%
%TO.N,Net-(Q1-D)*%
X152407500Y-71240000D03*
%TO.P,U1,15,RX*%
%TO.N,unconnected-(U1-RX-Pad15)*%
X152407500Y-68700000D03*
%TO.P,U1,16,TX*%
%TO.N,unconnected-(U1-TX-Pad16)*%
X152407500Y-66160000D03*
%TD*%
D15*
%TO.P,Q2,1,G*%
%TO.N,Net-(Q2-G)*%
X122585000Y-84140000D03*
%TO.P,Q2,2,S*%
%TO.N,GND*%
X122585000Y-86040000D03*
%TO.P,Q2,3,D*%
%TO.N,Net-(J1-Pin_2)*%
X124460000Y-85090000D03*
%TD*%
D13*
%TO.P,C2,1*%
%TO.N,VCC*%
X142240000Y-100330000D03*
D16*
%TO.P,C2,2*%
%TO.N,GND*%
X142240000Y-105330000D03*
%TD*%
D17*
%TO.P,Q1,1,G*%
%TO.N,Net-(J1-Pin_2)*%
X158132500Y-89837500D03*
%TO.P,Q1,2,S*%
%TO.N,GND*%
X160032500Y-89837500D03*
%TO.P,Q1,3,D*%
%TO.N,Net-(Q1-D)*%
X159082500Y-87962500D03*
%TD*%
D18*
%TO.P,J2,1,Pin_1*%
%TO.N,Net-(J1-Pin_1)*%
X146670000Y-119380000D03*
D19*
%TO.P,J2,2,Pin_2*%
%TO.N,Net-(J1-Pin_2)*%
X150170000Y-119380000D03*
%TO.P,J2,3,Pin_3*%
%TO.N,GND*%
X153670000Y-119380000D03*
%TD*%
D20*
%TO.P,J1,1,Pin_1*%
%TO.N,Net-(J1-Pin_1)*%
X129700000Y-118415000D03*
D21*
%TO.P,J1,2,Pin_2*%
%TO.N,Net-(J1-Pin_2)*%
X134700000Y-118415000D03*
%TO.P,J1,3,Pin_3*%
%TO.N,GND*%
X139700000Y-118415000D03*
%TD*%
D12*
%TO.P,R2,1*%
%TO.N,Net-(U1-CS{slash}D8)*%
X157837500Y-78740000D03*
%TO.P,R2,2*%
%TO.N,GND*%
X159662500Y-78740000D03*
%TD*%
D22*
%TO.P,C1,1*%
%TO.N,VCC*%
X128270000Y-99060000D03*
%TO.P,C1,2*%
%TO.N,GND*%
X128270000Y-107460000D03*
%TD*%
D23*
%TO.P,R1,1*%
%TO.N,Net-(J1-Pin_1)*%
X159662500Y-83462500D03*
%TO.P,R1,2*%
%TO.N,Net-(U1-CS{slash}D8)*%
X157837500Y-83462500D03*
%TD*%
D24*
%TO.N,GND*%
X153670000Y-116840000D03*
X139700000Y-107460000D03*
X139700000Y-115570000D03*
X161290000Y-88900000D03*
X161290000Y-80010000D03*
X148590000Y-82550000D03*
%TD*%
D25*
%TO.N,Net-(J1-Pin_2)*%
X134700000Y-118415000D02*
X134700000Y-115490000D01*
X124460000Y-87630000D02*
X124460000Y-85090000D01*
X150170000Y-115260000D02*
X151130000Y-114300000D01*
X134700000Y-115490000D02*
X135890000Y-114300000D01*
X157430000Y-100570000D02*
X157430000Y-90540000D01*
X151130000Y-114300000D02*
X159570000Y-105860000D01*
X134700000Y-118415000D02*
X128045000Y-111760000D01*
X150170000Y-119380000D02*
X150170000Y-115260000D01*
X159570000Y-105860000D02*
X159570000Y-102710000D01*
X135890000Y-114300000D02*
X149860000Y-114300000D01*
X119380000Y-92710000D02*
X124460000Y-87630000D01*
X149860000Y-114300000D02*
X151130000Y-114300000D01*
X159570000Y-102710000D02*
X157430000Y-100570000D01*
X119380000Y-111760000D02*
X119380000Y-92710000D01*
X157430000Y-90540000D02*
X158132500Y-89837500D01*
X128045000Y-111760000D02*
X119380000Y-111760000D01*
%TO.N,Net-(J1-Pin_1)*%
X158757500Y-89046751D02*
X158457500Y-88746751D01*
X158457500Y-84667500D02*
X159662500Y-83462500D01*
X129700000Y-118415000D02*
X129700000Y-120810000D01*
X158457500Y-88746751D02*
X158457500Y-84667500D01*
X144130000Y-121920000D02*
X146670000Y-119380000D01*
X156210000Y-110490000D02*
X160020000Y-106680000D01*
X158757500Y-91447500D02*
X158757500Y-89046751D01*
X146670000Y-119380000D02*
X150480000Y-123190000D01*
X160020000Y-106680000D02*
X160020000Y-92710000D01*
X129700000Y-120810000D02*
X130810000Y-121920000D01*
X150480000Y-123190000D02*
X156210000Y-123190000D01*
X160020000Y-92710000D02*
X158757500Y-91447500D01*
X156210000Y-123190000D02*
X156210000Y-110490000D01*
X130810000Y-121920000D02*
X144130000Y-121920000D01*
%TO.N,Net-(Q1-D)*%
X159082500Y-87962500D02*
X159687500Y-87962500D01*
X159687500Y-87962500D02*
X162560000Y-85090000D01*
X162560000Y-73660000D02*
X160140000Y-71240000D01*
X160140000Y-71240000D02*
X152407500Y-71240000D01*
X162560000Y-85090000D02*
X162560000Y-73660000D01*
%TO.N,Net-(Q2-G)*%
X124102500Y-82622500D02*
X124102500Y-78740000D01*
X122585000Y-84140000D02*
X124102500Y-82622500D01*
%TO.N,Net-(U1-CS{slash}D8)*%
X157837500Y-83462500D02*
X157837500Y-78740000D01*
X133350000Y-85090000D02*
X129660000Y-81400000D01*
X157837500Y-83462500D02*
X156210000Y-85090000D01*
X129660000Y-81400000D02*
X129547500Y-81400000D01*
X156210000Y-85090000D02*
X133350000Y-85090000D01*
%TO.N,GND*%
X125730000Y-104920000D02*
X125730000Y-83820000D01*
X158637500Y-77715000D02*
X159662500Y-78740000D01*
X128270000Y-107460000D02*
X139700000Y-107460000D01*
X140110000Y-107460000D02*
X142240000Y-105330000D01*
X161290000Y-88900000D02*
X160970000Y-88900000D01*
X160970000Y-88900000D02*
X160032500Y-89837500D01*
X128270000Y-107460000D02*
X125730000Y-104920000D01*
X121522500Y-79495000D02*
X122277500Y-78740000D01*
X160020000Y-78740000D02*
X161290000Y-80010000D01*
X156092500Y-77715000D02*
X158637500Y-77715000D01*
X152407500Y-81400000D02*
X156092500Y-77715000D01*
X153670000Y-116840000D02*
X153670000Y-119380000D01*
X159662500Y-78740000D02*
X160020000Y-78740000D01*
X142400000Y-105170000D02*
X142240000Y-105330000D01*
X124320749Y-83820000D02*
X122585000Y-85555749D01*
X149740000Y-81400000D02*
X152407500Y-81400000D01*
X121522500Y-84977500D02*
X121522500Y-79495000D01*
X125730000Y-83820000D02*
X124320749Y-83820000D01*
X122585000Y-85555749D02*
X122585000Y-86040000D01*
X148590000Y-82550000D02*
X149740000Y-81400000D01*
X139700000Y-118415000D02*
X139700000Y-115570000D01*
X157430000Y-105170000D02*
X142400000Y-105170000D01*
X139700000Y-107460000D02*
X140110000Y-107460000D01*
X122585000Y-86040000D02*
X121522500Y-84977500D01*
%TO.N,VCC*%
X144780000Y-102870000D02*
X142240000Y-100330000D01*
X128270000Y-99060000D02*
X128270000Y-87630000D01*
X151130000Y-102870000D02*
X144780000Y-102870000D01*
X128270000Y-87630000D02*
X129547500Y-86352500D01*
X142240000Y-100330000D02*
X129540000Y-100330000D01*
X129547500Y-86352500D02*
X129547500Y-83940000D01*
X129540000Y-100330000D02*
X128270000Y-99060000D01*
%TD*%
M02*
