%TF.GenerationSoftware,KiCad,Pcbnew,7.0.7*%
%TF.CreationDate,2023-10-31T08:07:37-06:00*%
%TF.ProjectId,RatGDO-OpenSource-D1Mini-ESP32,52617447-444f-42d4-9f70-656e536f7572,rev?*%
%TF.SameCoordinates,Original*%
%TF.FileFunction,Soldermask,Top*%
%TF.FilePolarity,Negative*%
%FSLAX46Y46*%
G04 Gerber Fmt 4.6, Leading zero omitted, Abs format (unit mm)*
G04 Created by KiCad (PCBNEW 7.0.7) date 2023-10-31 08:07:37*
%MOMM*%
%LPD*%
G01*
G04 APERTURE LIST*
G04 Aperture macros list*
%AMRoundRect*
0 Rectangle with rounded corners*
0 $1 Rounding radius*
0 $2 $3 $4 $5 $6 $7 $8 $9 X,Y pos of 4 corners*
0 Add a 4 corners polygon primitive as box body*
4,1,4,$2,$3,$4,$5,$6,$7,$8,$9,$2,$3,0*
0 Add four circle primitives for the rounded corners*
1,1,$1+$1,$2,$3*
1,1,$1+$1,$4,$5*
1,1,$1+$1,$6,$7*
1,1,$1+$1,$8,$9*
0 Add four rect primitives between the rounded corners*
20,1,$1+$1,$2,$3,$4,$5,0*
20,1,$1+$1,$4,$5,$6,$7,0*
20,1,$1+$1,$6,$7,$8,$9,0*
20,1,$1+$1,$8,$9,$2,$3,0*%
G04 Aperture macros list end*
%ADD10RoundRect,0.250000X0.262500X0.450000X-0.262500X0.450000X-0.262500X-0.450000X0.262500X-0.450000X0*%
%ADD11R,1.700000X1.700000*%
%ADD12O,1.700000X1.700000*%
%ADD13C,5.000000*%
%ADD14RoundRect,0.150000X-0.587500X-0.150000X0.587500X-0.150000X0.587500X0.150000X-0.587500X0.150000X0*%
%ADD15C,1.400000*%
%ADD16RoundRect,0.150000X0.587500X0.150000X-0.587500X0.150000X-0.587500X-0.150000X0.587500X-0.150000X0*%
%ADD17RoundRect,0.250000X-0.650000X-1.550000X0.650000X-1.550000X0.650000X1.550000X-0.650000X1.550000X0*%
%ADD18O,1.800000X3.600000*%
%ADD19R,2.600000X2.600000*%
%ADD20C,2.600000*%
%ADD21RoundRect,0.250000X-0.262500X-0.450000X0.262500X-0.450000X0.262500X0.450000X-0.262500X0.450000X0*%
G04 APERTURE END LIST*
D10*
%TO.C,R3*%
X160932500Y-71120000D03*
X159107500Y-71120000D03*
%TD*%
D11*
%TO.C,J3*%
X147320000Y-111760000D03*
D12*
X149860000Y-111760000D03*
X152400000Y-111760000D03*
%TD*%
D13*
%TO.C,REF\u002A\u002A*%
X162560000Y-63500000D03*
%TD*%
%TO.C,REF\u002A\u002A*%
X162560000Y-118110000D03*
%TD*%
%TO.C,REF\u002A\u002A*%
X120650000Y-118110000D03*
%TD*%
%TO.C,REF\u002A\u002A*%
X120650000Y-63500000D03*
%TD*%
D14*
%TO.C,Q2*%
X159415000Y-73980000D03*
X159415000Y-75880000D03*
X161290000Y-74930000D03*
%TD*%
D15*
%TO.C,U2*%
X127000000Y-66040000D03*
X129540000Y-66040000D03*
X127000000Y-68580000D03*
X129540000Y-68580000D03*
X127000000Y-71120000D03*
X129540000Y-71120000D03*
X127000000Y-73660000D03*
X129540000Y-73660000D03*
X127000000Y-76200000D03*
X129540000Y-76200000D03*
X127000000Y-78740000D03*
X129540000Y-78740000D03*
X127000000Y-81280000D03*
X129540000Y-81280000D03*
X127000000Y-83820000D03*
X129540000Y-83820000D03*
X127000000Y-86360000D03*
X129540000Y-86360000D03*
X127000000Y-88900000D03*
X129540000Y-88900000D03*
X152400000Y-66040000D03*
X154940000Y-66040000D03*
X152400000Y-68580000D03*
X154940000Y-68580000D03*
X152400000Y-71120000D03*
X154940000Y-71120000D03*
X152400000Y-73660000D03*
X154940000Y-73660000D03*
X152400000Y-76200000D03*
X154940000Y-76200000D03*
X152400000Y-78740000D03*
X154940000Y-78740000D03*
X152400000Y-81280000D03*
X154940000Y-81280000D03*
X152400000Y-83820000D03*
X154940000Y-83820000D03*
X152400000Y-86360000D03*
X154940000Y-86360000D03*
X152400000Y-88900000D03*
X154940000Y-88900000D03*
%TD*%
D16*
%TO.C,Q1*%
X161290000Y-81910000D03*
X161290000Y-80010000D03*
X159415000Y-80960000D03*
%TD*%
D17*
%TO.C,J2*%
X146670000Y-119380000D03*
D18*
X150170000Y-119380000D03*
X153670000Y-119380000D03*
%TD*%
D19*
%TO.C,J1*%
X129700000Y-118415000D03*
D20*
X134700000Y-118415000D03*
X139700000Y-118415000D03*
%TD*%
D10*
%TO.C,R2*%
X124102500Y-78740000D03*
X122277500Y-78740000D03*
%TD*%
D21*
%TO.C,R1*%
X122277500Y-82550000D03*
X124102500Y-82550000D03*
%TD*%
M02*
