M48
<<<<<<< Updated upstream
; DRILL file {KiCad 7.0.7} date Mon Oct 30 20:42:19 2023
; FORMAT={-:-/ absolute / inch / decimal}
; #@! TF.CreationDate,2023-10-30T20:42:19-06:00
=======
; DRILL file {KiCad 7.0.7} date Sat Oct 28 20:58:15 2023
; FORMAT={-:-/ absolute / inch / decimal}
; #@! TF.CreationDate,2023-10-28T20:58:15-06:00
>>>>>>> Stashed changes
; #@! TF.GenerationSoftware,Kicad,Pcbnew,7.0.7
; #@! TF.FileFunction,Plated,1,2,PTH
FMAT,2
INCH
; #@! TA.AperFunction,Plated,PTH,ViaDrill
T1C0.0157
; #@! TA.AperFunction,Plated,PTH,ComponentDrill
<<<<<<< Updated upstream
T2C0.0315
=======
T2C0.0394
>>>>>>> Stashed changes
; #@! TA.AperFunction,Plated,PTH,ComponentDrill
T3C0.0472
; #@! TA.AperFunction,Plated,PTH,ComponentDrill
T4C0.0512
%
G90
G05
T1
X4.8Y-3.15
X6.2Y-3.1
X6.3Y-2.85
X6.3Y-3.2
T2
<<<<<<< Updated upstream
X5.0Y-2.6
X5.0Y-2.7
X5.0Y-2.8
X5.0Y-2.9
X5.0Y-3.0
X5.0Y-3.1
X5.0Y-3.2
X5.0Y-3.3
X5.0Y-3.4
X5.0Y-3.5
X5.1Y-2.6
X5.1Y-2.7
X5.1Y-2.8
X5.1Y-2.9
X5.1Y-3.0
X5.1Y-3.1
X5.1Y-3.2
X5.1Y-3.3
X5.1Y-3.4
X5.1Y-3.5
X6.0Y-2.6
X6.0Y-2.7
X6.0Y-2.8
X6.0Y-2.9
X6.0Y-3.0
X6.0Y-3.1
X6.0Y-3.2
X6.0Y-3.3
X6.0Y-3.4
X6.0Y-3.5
X6.1Y-2.6
X6.1Y-2.7
X6.1Y-2.8
X6.1Y-2.9
X6.1Y-3.0
X6.1Y-3.1
X6.1Y-3.2
X6.1Y-3.3
X6.1Y-3.4
X6.1Y-3.5
=======
X5.1003Y-2.6047
X5.1003Y-2.7047
X5.1003Y-2.8047
X5.1003Y-2.9047
X5.1003Y-3.0047
X5.1003Y-3.1047
X5.1003Y-3.2047
X5.1003Y-3.3047
X6.0003Y-2.6047
X6.0003Y-2.7047
X6.0003Y-2.8047
X6.0003Y-2.9047
X6.0003Y-3.0047
X6.0003Y-3.1047
X6.0003Y-3.2047
X6.0003Y-3.3047
>>>>>>> Stashed changes
T3
X5.7744Y-4.7
X5.9122Y-4.7
X6.05Y-4.7
T4
X5.1063Y-4.662
X5.3031Y-4.662
X5.5Y-4.662
T0
M30
