%TF.GenerationSoftware,KiCad,Pcbnew,7.0.7*%
%TF.CreationDate,2023-10-31T08:07:36-06:00*%
%TF.ProjectId,RatGDO-OpenSource-D1Mini-ESP32,52617447-444f-42d4-9f70-656e536f7572,rev?*%
%TF.SameCoordinates,Original*%
%TF.FileFunction,Legend,Top*%
%TF.FilePolarity,Positive*%
%FSLAX46Y46*%
G04 Gerber Fmt 4.6, Leading zero omitted, Abs format (unit mm)*
G04 Created by KiCad (PCBNEW 7.0.7) date 2023-10-31 08:07:36*
%MOMM*%
%LPD*%
G01*
G04 APERTURE LIST*
%ADD10C,0.150000*%
%ADD11C,0.120000*%
%ADD12C,0.100000*%
G04 APERTURE END LIST*
D10*
X153432253Y-124165210D02*
X153575110Y-124212829D01*
X153575110Y-124212829D02*
X153622729Y-124260448D01*
X153622729Y-124260448D02*
X153670348Y-124355686D01*
X153670348Y-124355686D02*
X153670348Y-124498543D01*
X153670348Y-124498543D02*
X153622729Y-124593781D01*
X153622729Y-124593781D02*
X153575110Y-124641401D01*
X153575110Y-124641401D02*
X153479872Y-124689020D01*
X153479872Y-124689020D02*
X153098920Y-124689020D01*
X153098920Y-124689020D02*
X153098920Y-123689020D01*
X153098920Y-123689020D02*
X153432253Y-123689020D01*
X153432253Y-123689020D02*
X153527491Y-123736639D01*
X153527491Y-123736639D02*
X153575110Y-123784258D01*
X153575110Y-123784258D02*
X153622729Y-123879496D01*
X153622729Y-123879496D02*
X153622729Y-123974734D01*
X153622729Y-123974734D02*
X153575110Y-124069972D01*
X153575110Y-124069972D02*
X153527491Y-124117591D01*
X153527491Y-124117591D02*
X153432253Y-124165210D01*
X153432253Y-124165210D02*
X153098920Y-124165210D01*
X154575110Y-124689020D02*
X154098920Y-124689020D01*
X154098920Y-124689020D02*
X154098920Y-123689020D01*
X154908444Y-124689020D02*
X154908444Y-123689020D01*
X155479872Y-124689020D02*
X155051301Y-124117591D01*
X155479872Y-123689020D02*
X154908444Y-124260448D01*
X152813206Y-125299020D02*
X153003682Y-125299020D01*
X153003682Y-125299020D02*
X153098920Y-125346639D01*
X153098920Y-125346639D02*
X153194158Y-125441877D01*
X153194158Y-125441877D02*
X153241777Y-125632353D01*
X153241777Y-125632353D02*
X153241777Y-125965686D01*
X153241777Y-125965686D02*
X153194158Y-126156162D01*
X153194158Y-126156162D02*
X153098920Y-126251401D01*
X153098920Y-126251401D02*
X153003682Y-126299020D01*
X153003682Y-126299020D02*
X152813206Y-126299020D01*
X152813206Y-126299020D02*
X152717968Y-126251401D01*
X152717968Y-126251401D02*
X152622730Y-126156162D01*
X152622730Y-126156162D02*
X152575111Y-125965686D01*
X152575111Y-125965686D02*
X152575111Y-125632353D01*
X152575111Y-125632353D02*
X152622730Y-125441877D01*
X152622730Y-125441877D02*
X152717968Y-125346639D01*
X152717968Y-125346639D02*
X152813206Y-125299020D01*
X154003682Y-125775210D02*
X154146539Y-125822829D01*
X154146539Y-125822829D02*
X154194158Y-125870448D01*
X154194158Y-125870448D02*
X154241777Y-125965686D01*
X154241777Y-125965686D02*
X154241777Y-126108543D01*
X154241777Y-126108543D02*
X154194158Y-126203781D01*
X154194158Y-126203781D02*
X154146539Y-126251401D01*
X154146539Y-126251401D02*
X154051301Y-126299020D01*
X154051301Y-126299020D02*
X153670349Y-126299020D01*
X153670349Y-126299020D02*
X153670349Y-125299020D01*
X153670349Y-125299020D02*
X154003682Y-125299020D01*
X154003682Y-125299020D02*
X154098920Y-125346639D01*
X154098920Y-125346639D02*
X154146539Y-125394258D01*
X154146539Y-125394258D02*
X154194158Y-125489496D01*
X154194158Y-125489496D02*
X154194158Y-125584734D01*
X154194158Y-125584734D02*
X154146539Y-125679972D01*
X154146539Y-125679972D02*
X154098920Y-125727591D01*
X154098920Y-125727591D02*
X154003682Y-125775210D01*
X154003682Y-125775210D02*
X153670349Y-125775210D01*
X154622730Y-126251401D02*
X154765587Y-126299020D01*
X154765587Y-126299020D02*
X155003682Y-126299020D01*
X155003682Y-126299020D02*
X155098920Y-126251401D01*
X155098920Y-126251401D02*
X155146539Y-126203781D01*
X155146539Y-126203781D02*
X155194158Y-126108543D01*
X155194158Y-126108543D02*
X155194158Y-126013305D01*
X155194158Y-126013305D02*
X155146539Y-125918067D01*
X155146539Y-125918067D02*
X155098920Y-125870448D01*
X155098920Y-125870448D02*
X155003682Y-125822829D01*
X155003682Y-125822829D02*
X154813206Y-125775210D01*
X154813206Y-125775210D02*
X154717968Y-125727591D01*
X154717968Y-125727591D02*
X154670349Y-125679972D01*
X154670349Y-125679972D02*
X154622730Y-125584734D01*
X154622730Y-125584734D02*
X154622730Y-125489496D01*
X154622730Y-125489496D02*
X154670349Y-125394258D01*
X154670349Y-125394258D02*
X154717968Y-125346639D01*
X154717968Y-125346639D02*
X154813206Y-125299020D01*
X154813206Y-125299020D02*
X155051301Y-125299020D01*
X155051301Y-125299020D02*
X155194158Y-125346639D01*
X155479873Y-125299020D02*
X156051301Y-125299020D01*
X155765587Y-126299020D02*
X155765587Y-125299020D01*
X133903245Y-124759655D02*
X133569912Y-124283464D01*
X133331817Y-124759655D02*
X133331817Y-123759655D01*
X133331817Y-123759655D02*
X133712769Y-123759655D01*
X133712769Y-123759655D02*
X133808007Y-123807274D01*
X133808007Y-123807274D02*
X133855626Y-123854893D01*
X133855626Y-123854893D02*
X133903245Y-123950131D01*
X133903245Y-123950131D02*
X133903245Y-124092988D01*
X133903245Y-124092988D02*
X133855626Y-124188226D01*
X133855626Y-124188226D02*
X133808007Y-124235845D01*
X133808007Y-124235845D02*
X133712769Y-124283464D01*
X133712769Y-124283464D02*
X133331817Y-124283464D01*
X134331817Y-124235845D02*
X134665150Y-124235845D01*
X134808007Y-124759655D02*
X134331817Y-124759655D01*
X134331817Y-124759655D02*
X134331817Y-123759655D01*
X134331817Y-123759655D02*
X134808007Y-123759655D01*
X135236579Y-124759655D02*
X135236579Y-123759655D01*
X135236579Y-123759655D02*
X135474674Y-123759655D01*
X135474674Y-123759655D02*
X135617531Y-123807274D01*
X135617531Y-123807274D02*
X135712769Y-123902512D01*
X135712769Y-123902512D02*
X135760388Y-123997750D01*
X135760388Y-123997750D02*
X135808007Y-124188226D01*
X135808007Y-124188226D02*
X135808007Y-124331083D01*
X135808007Y-124331083D02*
X135760388Y-124521559D01*
X135760388Y-124521559D02*
X135712769Y-124616797D01*
X135712769Y-124616797D02*
X135617531Y-124712036D01*
X135617531Y-124712036D02*
X135474674Y-124759655D01*
X135474674Y-124759655D02*
X135236579Y-124759655D01*
X133569912Y-126274416D02*
X133522293Y-126322036D01*
X133522293Y-126322036D02*
X133379436Y-126369655D01*
X133379436Y-126369655D02*
X133284198Y-126369655D01*
X133284198Y-126369655D02*
X133141341Y-126322036D01*
X133141341Y-126322036D02*
X133046103Y-126226797D01*
X133046103Y-126226797D02*
X132998484Y-126131559D01*
X132998484Y-126131559D02*
X132950865Y-125941083D01*
X132950865Y-125941083D02*
X132950865Y-125798226D01*
X132950865Y-125798226D02*
X132998484Y-125607750D01*
X132998484Y-125607750D02*
X133046103Y-125512512D01*
X133046103Y-125512512D02*
X133141341Y-125417274D01*
X133141341Y-125417274D02*
X133284198Y-125369655D01*
X133284198Y-125369655D02*
X133379436Y-125369655D01*
X133379436Y-125369655D02*
X133522293Y-125417274D01*
X133522293Y-125417274D02*
X133569912Y-125464893D01*
X133855627Y-125369655D02*
X134427055Y-125369655D01*
X134141341Y-126369655D02*
X134141341Y-125369655D01*
X135331817Y-126369655D02*
X134998484Y-125893464D01*
X134760389Y-126369655D02*
X134760389Y-125369655D01*
X134760389Y-125369655D02*
X135141341Y-125369655D01*
X135141341Y-125369655D02*
X135236579Y-125417274D01*
X135236579Y-125417274D02*
X135284198Y-125464893D01*
X135284198Y-125464893D02*
X135331817Y-125560131D01*
X135331817Y-125560131D02*
X135331817Y-125702988D01*
X135331817Y-125702988D02*
X135284198Y-125798226D01*
X135284198Y-125798226D02*
X135236579Y-125845845D01*
X135236579Y-125845845D02*
X135141341Y-125893464D01*
X135141341Y-125893464D02*
X134760389Y-125893464D01*
X136236579Y-126369655D02*
X135760389Y-126369655D01*
X135760389Y-126369655D02*
X135760389Y-125369655D01*
X149624538Y-124689020D02*
X149291205Y-124212829D01*
X149053110Y-124689020D02*
X149053110Y-123689020D01*
X149053110Y-123689020D02*
X149434062Y-123689020D01*
X149434062Y-123689020D02*
X149529300Y-123736639D01*
X149529300Y-123736639D02*
X149576919Y-123784258D01*
X149576919Y-123784258D02*
X149624538Y-123879496D01*
X149624538Y-123879496D02*
X149624538Y-124022353D01*
X149624538Y-124022353D02*
X149576919Y-124117591D01*
X149576919Y-124117591D02*
X149529300Y-124165210D01*
X149529300Y-124165210D02*
X149434062Y-124212829D01*
X149434062Y-124212829D02*
X149053110Y-124212829D01*
X150053110Y-124165210D02*
X150386443Y-124165210D01*
X150529300Y-124689020D02*
X150053110Y-124689020D01*
X150053110Y-124689020D02*
X150053110Y-123689020D01*
X150053110Y-123689020D02*
X150529300Y-123689020D01*
X150957872Y-124689020D02*
X150957872Y-123689020D01*
X150957872Y-123689020D02*
X151195967Y-123689020D01*
X151195967Y-123689020D02*
X151338824Y-123736639D01*
X151338824Y-123736639D02*
X151434062Y-123831877D01*
X151434062Y-123831877D02*
X151481681Y-123927115D01*
X151481681Y-123927115D02*
X151529300Y-124117591D01*
X151529300Y-124117591D02*
X151529300Y-124260448D01*
X151529300Y-124260448D02*
X151481681Y-124450924D01*
X151481681Y-124450924D02*
X151434062Y-124546162D01*
X151434062Y-124546162D02*
X151338824Y-124641401D01*
X151338824Y-124641401D02*
X151195967Y-124689020D01*
X151195967Y-124689020D02*
X150957872Y-124689020D01*
X149291205Y-126203781D02*
X149243586Y-126251401D01*
X149243586Y-126251401D02*
X149100729Y-126299020D01*
X149100729Y-126299020D02*
X149005491Y-126299020D01*
X149005491Y-126299020D02*
X148862634Y-126251401D01*
X148862634Y-126251401D02*
X148767396Y-126156162D01*
X148767396Y-126156162D02*
X148719777Y-126060924D01*
X148719777Y-126060924D02*
X148672158Y-125870448D01*
X148672158Y-125870448D02*
X148672158Y-125727591D01*
X148672158Y-125727591D02*
X148719777Y-125537115D01*
X148719777Y-125537115D02*
X148767396Y-125441877D01*
X148767396Y-125441877D02*
X148862634Y-125346639D01*
X148862634Y-125346639D02*
X149005491Y-125299020D01*
X149005491Y-125299020D02*
X149100729Y-125299020D01*
X149100729Y-125299020D02*
X149243586Y-125346639D01*
X149243586Y-125346639D02*
X149291205Y-125394258D01*
X149576920Y-125299020D02*
X150148348Y-125299020D01*
X149862634Y-126299020D02*
X149862634Y-125299020D01*
X151053110Y-126299020D02*
X150719777Y-125822829D01*
X150481682Y-126299020D02*
X150481682Y-125299020D01*
X150481682Y-125299020D02*
X150862634Y-125299020D01*
X150862634Y-125299020D02*
X150957872Y-125346639D01*
X150957872Y-125346639D02*
X151005491Y-125394258D01*
X151005491Y-125394258D02*
X151053110Y-125489496D01*
X151053110Y-125489496D02*
X151053110Y-125632353D01*
X151053110Y-125632353D02*
X151005491Y-125727591D01*
X151005491Y-125727591D02*
X150957872Y-125775210D01*
X150957872Y-125775210D02*
X150862634Y-125822829D01*
X150862634Y-125822829D02*
X150481682Y-125822829D01*
X151957872Y-126299020D02*
X151481682Y-126299020D01*
X151481682Y-126299020D02*
X151481682Y-125299020D01*
X128132770Y-123759655D02*
X128370865Y-124759655D01*
X128370865Y-124759655D02*
X128561341Y-124045369D01*
X128561341Y-124045369D02*
X128751817Y-124759655D01*
X128751817Y-124759655D02*
X128989913Y-123759655D01*
X129370865Y-124759655D02*
X129370865Y-123759655D01*
X129370865Y-124235845D02*
X129942293Y-124235845D01*
X129942293Y-124759655D02*
X129942293Y-123759655D01*
X130275627Y-123759655D02*
X130847055Y-123759655D01*
X130561341Y-124759655D02*
X130561341Y-123759655D01*
X128704198Y-125417274D02*
X128608960Y-125369655D01*
X128608960Y-125369655D02*
X128466103Y-125369655D01*
X128466103Y-125369655D02*
X128323246Y-125417274D01*
X128323246Y-125417274D02*
X128228008Y-125512512D01*
X128228008Y-125512512D02*
X128180389Y-125607750D01*
X128180389Y-125607750D02*
X128132770Y-125798226D01*
X128132770Y-125798226D02*
X128132770Y-125941083D01*
X128132770Y-125941083D02*
X128180389Y-126131559D01*
X128180389Y-126131559D02*
X128228008Y-126226797D01*
X128228008Y-126226797D02*
X128323246Y-126322036D01*
X128323246Y-126322036D02*
X128466103Y-126369655D01*
X128466103Y-126369655D02*
X128561341Y-126369655D01*
X128561341Y-126369655D02*
X128704198Y-126322036D01*
X128704198Y-126322036D02*
X128751817Y-126274416D01*
X128751817Y-126274416D02*
X128751817Y-125941083D01*
X128751817Y-125941083D02*
X128561341Y-125941083D01*
X129180389Y-126369655D02*
X129180389Y-125369655D01*
X129180389Y-125369655D02*
X129751817Y-126369655D01*
X129751817Y-126369655D02*
X129751817Y-125369655D01*
X130228008Y-126369655D02*
X130228008Y-125369655D01*
X130228008Y-125369655D02*
X130466103Y-125369655D01*
X130466103Y-125369655D02*
X130608960Y-125417274D01*
X130608960Y-125417274D02*
X130704198Y-125512512D01*
X130704198Y-125512512D02*
X130751817Y-125607750D01*
X130751817Y-125607750D02*
X130799436Y-125798226D01*
X130799436Y-125798226D02*
X130799436Y-125941083D01*
X130799436Y-125941083D02*
X130751817Y-126131559D01*
X130751817Y-126131559D02*
X130704198Y-126226797D01*
X130704198Y-126226797D02*
X130608960Y-126322036D01*
X130608960Y-126322036D02*
X130466103Y-126369655D01*
X130466103Y-126369655D02*
X130228008Y-126369655D01*
X125965124Y-108837979D02*
X126155600Y-108837979D01*
X126155600Y-108837979D02*
X126250838Y-108885598D01*
X126250838Y-108885598D02*
X126346076Y-108980836D01*
X126346076Y-108980836D02*
X126393695Y-109171312D01*
X126393695Y-109171312D02*
X126393695Y-109504645D01*
X126393695Y-109504645D02*
X126346076Y-109695121D01*
X126346076Y-109695121D02*
X126250838Y-109790360D01*
X126250838Y-109790360D02*
X126155600Y-109837979D01*
X126155600Y-109837979D02*
X125965124Y-109837979D01*
X125965124Y-109837979D02*
X125869886Y-109790360D01*
X125869886Y-109790360D02*
X125774648Y-109695121D01*
X125774648Y-109695121D02*
X125727029Y-109504645D01*
X125727029Y-109504645D02*
X125727029Y-109171312D01*
X125727029Y-109171312D02*
X125774648Y-108980836D01*
X125774648Y-108980836D02*
X125869886Y-108885598D01*
X125869886Y-108885598D02*
X125965124Y-108837979D01*
X126822267Y-109171312D02*
X126822267Y-109837979D01*
X126822267Y-109266550D02*
X126869886Y-109218931D01*
X126869886Y-109218931D02*
X126965124Y-109171312D01*
X126965124Y-109171312D02*
X127107981Y-109171312D01*
X127107981Y-109171312D02*
X127203219Y-109218931D01*
X127203219Y-109218931D02*
X127250838Y-109314169D01*
X127250838Y-109314169D02*
X127250838Y-109837979D01*
X127869886Y-109837979D02*
X127774648Y-109790360D01*
X127774648Y-109790360D02*
X127727029Y-109695121D01*
X127727029Y-109695121D02*
X127727029Y-108837979D01*
X128155601Y-109171312D02*
X128393696Y-109837979D01*
X128631791Y-109171312D02*
X128393696Y-109837979D01*
X128393696Y-109837979D02*
X128298458Y-110076074D01*
X128298458Y-110076074D02*
X128250839Y-110123693D01*
X128250839Y-110123693D02*
X128155601Y-110171312D01*
X130298458Y-109837979D02*
X129727030Y-109837979D01*
X130012744Y-109837979D02*
X130012744Y-108837979D01*
X130012744Y-108837979D02*
X129917506Y-108980836D01*
X129917506Y-108980836D02*
X129822268Y-109076074D01*
X129822268Y-109076074D02*
X129727030Y-109123693D01*
X131346078Y-108837979D02*
X131917506Y-108837979D01*
X131631792Y-109837979D02*
X131631792Y-108837979D01*
X132631792Y-109790360D02*
X132536554Y-109837979D01*
X132536554Y-109837979D02*
X132346078Y-109837979D01*
X132346078Y-109837979D02*
X132250840Y-109790360D01*
X132250840Y-109790360D02*
X132203221Y-109695121D01*
X132203221Y-109695121D02*
X132203221Y-109314169D01*
X132203221Y-109314169D02*
X132250840Y-109218931D01*
X132250840Y-109218931D02*
X132346078Y-109171312D01*
X132346078Y-109171312D02*
X132536554Y-109171312D01*
X132536554Y-109171312D02*
X132631792Y-109218931D01*
X132631792Y-109218931D02*
X132679411Y-109314169D01*
X132679411Y-109314169D02*
X132679411Y-109409407D01*
X132679411Y-109409407D02*
X132203221Y-109504645D01*
X133107983Y-109837979D02*
X133107983Y-109171312D01*
X133107983Y-109361788D02*
X133155602Y-109266550D01*
X133155602Y-109266550D02*
X133203221Y-109218931D01*
X133203221Y-109218931D02*
X133298459Y-109171312D01*
X133298459Y-109171312D02*
X133393697Y-109171312D01*
X133727031Y-109837979D02*
X133727031Y-109171312D01*
X133727031Y-109266550D02*
X133774650Y-109218931D01*
X133774650Y-109218931D02*
X133869888Y-109171312D01*
X133869888Y-109171312D02*
X134012745Y-109171312D01*
X134012745Y-109171312D02*
X134107983Y-109218931D01*
X134107983Y-109218931D02*
X134155602Y-109314169D01*
X134155602Y-109314169D02*
X134155602Y-109837979D01*
X134155602Y-109314169D02*
X134203221Y-109218931D01*
X134203221Y-109218931D02*
X134298459Y-109171312D01*
X134298459Y-109171312D02*
X134441316Y-109171312D01*
X134441316Y-109171312D02*
X134536555Y-109218931D01*
X134536555Y-109218931D02*
X134584174Y-109314169D01*
X134584174Y-109314169D02*
X134584174Y-109837979D01*
X135060364Y-109837979D02*
X135060364Y-109171312D01*
X135060364Y-108837979D02*
X135012745Y-108885598D01*
X135012745Y-108885598D02*
X135060364Y-108933217D01*
X135060364Y-108933217D02*
X135107983Y-108885598D01*
X135107983Y-108885598D02*
X135060364Y-108837979D01*
X135060364Y-108837979D02*
X135060364Y-108933217D01*
X135536554Y-109171312D02*
X135536554Y-109837979D01*
X135536554Y-109266550D02*
X135584173Y-109218931D01*
X135584173Y-109218931D02*
X135679411Y-109171312D01*
X135679411Y-109171312D02*
X135822268Y-109171312D01*
X135822268Y-109171312D02*
X135917506Y-109218931D01*
X135917506Y-109218931D02*
X135965125Y-109314169D01*
X135965125Y-109314169D02*
X135965125Y-109837979D01*
X136869887Y-109837979D02*
X136869887Y-109314169D01*
X136869887Y-109314169D02*
X136822268Y-109218931D01*
X136822268Y-109218931D02*
X136727030Y-109171312D01*
X136727030Y-109171312D02*
X136536554Y-109171312D01*
X136536554Y-109171312D02*
X136441316Y-109218931D01*
X136869887Y-109790360D02*
X136774649Y-109837979D01*
X136774649Y-109837979D02*
X136536554Y-109837979D01*
X136536554Y-109837979D02*
X136441316Y-109790360D01*
X136441316Y-109790360D02*
X136393697Y-109695121D01*
X136393697Y-109695121D02*
X136393697Y-109599883D01*
X136393697Y-109599883D02*
X136441316Y-109504645D01*
X136441316Y-109504645D02*
X136536554Y-109457026D01*
X136536554Y-109457026D02*
X136774649Y-109457026D01*
X136774649Y-109457026D02*
X136869887Y-109409407D01*
X137488935Y-109837979D02*
X137393697Y-109790360D01*
X137393697Y-109790360D02*
X137346078Y-109695121D01*
X137346078Y-109695121D02*
X137346078Y-108837979D01*
X138965126Y-109314169D02*
X139107983Y-109361788D01*
X139107983Y-109361788D02*
X139155602Y-109409407D01*
X139155602Y-109409407D02*
X139203221Y-109504645D01*
X139203221Y-109504645D02*
X139203221Y-109647502D01*
X139203221Y-109647502D02*
X139155602Y-109742740D01*
X139155602Y-109742740D02*
X139107983Y-109790360D01*
X139107983Y-109790360D02*
X139012745Y-109837979D01*
X139012745Y-109837979D02*
X138631793Y-109837979D01*
X138631793Y-109837979D02*
X138631793Y-108837979D01*
X138631793Y-108837979D02*
X138965126Y-108837979D01*
X138965126Y-108837979D02*
X139060364Y-108885598D01*
X139060364Y-108885598D02*
X139107983Y-108933217D01*
X139107983Y-108933217D02*
X139155602Y-109028455D01*
X139155602Y-109028455D02*
X139155602Y-109123693D01*
X139155602Y-109123693D02*
X139107983Y-109218931D01*
X139107983Y-109218931D02*
X139060364Y-109266550D01*
X139060364Y-109266550D02*
X138965126Y-109314169D01*
X138965126Y-109314169D02*
X138631793Y-109314169D01*
X139774650Y-109837979D02*
X139679412Y-109790360D01*
X139679412Y-109790360D02*
X139631793Y-109695121D01*
X139631793Y-109695121D02*
X139631793Y-108837979D01*
X140298460Y-109837979D02*
X140203222Y-109790360D01*
X140203222Y-109790360D02*
X140155603Y-109742740D01*
X140155603Y-109742740D02*
X140107984Y-109647502D01*
X140107984Y-109647502D02*
X140107984Y-109361788D01*
X140107984Y-109361788D02*
X140155603Y-109266550D01*
X140155603Y-109266550D02*
X140203222Y-109218931D01*
X140203222Y-109218931D02*
X140298460Y-109171312D01*
X140298460Y-109171312D02*
X140441317Y-109171312D01*
X140441317Y-109171312D02*
X140536555Y-109218931D01*
X140536555Y-109218931D02*
X140584174Y-109266550D01*
X140584174Y-109266550D02*
X140631793Y-109361788D01*
X140631793Y-109361788D02*
X140631793Y-109647502D01*
X140631793Y-109647502D02*
X140584174Y-109742740D01*
X140584174Y-109742740D02*
X140536555Y-109790360D01*
X140536555Y-109790360D02*
X140441317Y-109837979D01*
X140441317Y-109837979D02*
X140298460Y-109837979D01*
X141488936Y-109790360D02*
X141393698Y-109837979D01*
X141393698Y-109837979D02*
X141203222Y-109837979D01*
X141203222Y-109837979D02*
X141107984Y-109790360D01*
X141107984Y-109790360D02*
X141060365Y-109742740D01*
X141060365Y-109742740D02*
X141012746Y-109647502D01*
X141012746Y-109647502D02*
X141012746Y-109361788D01*
X141012746Y-109361788D02*
X141060365Y-109266550D01*
X141060365Y-109266550D02*
X141107984Y-109218931D01*
X141107984Y-109218931D02*
X141203222Y-109171312D01*
X141203222Y-109171312D02*
X141393698Y-109171312D01*
X141393698Y-109171312D02*
X141488936Y-109218931D01*
X141917508Y-109837979D02*
X141917508Y-108837979D01*
X142012746Y-109457026D02*
X142298460Y-109837979D01*
X142298460Y-109171312D02*
X141917508Y-109552264D01*
X143488937Y-109837979D02*
X143488937Y-108837979D01*
X143488937Y-108837979D02*
X144060365Y-109837979D01*
X144060365Y-109837979D02*
X144060365Y-108837979D01*
X144917508Y-109790360D02*
X144822270Y-109837979D01*
X144822270Y-109837979D02*
X144631794Y-109837979D01*
X144631794Y-109837979D02*
X144536556Y-109790360D01*
X144536556Y-109790360D02*
X144488937Y-109695121D01*
X144488937Y-109695121D02*
X144488937Y-109314169D01*
X144488937Y-109314169D02*
X144536556Y-109218931D01*
X144536556Y-109218931D02*
X144631794Y-109171312D01*
X144631794Y-109171312D02*
X144822270Y-109171312D01*
X144822270Y-109171312D02*
X144917508Y-109218931D01*
X144917508Y-109218931D02*
X144965127Y-109314169D01*
X144965127Y-109314169D02*
X144965127Y-109409407D01*
X144965127Y-109409407D02*
X144488937Y-109504645D01*
X145774651Y-109790360D02*
X145679413Y-109837979D01*
X145679413Y-109837979D02*
X145488937Y-109837979D01*
X145488937Y-109837979D02*
X145393699Y-109790360D01*
X145393699Y-109790360D02*
X145346080Y-109695121D01*
X145346080Y-109695121D02*
X145346080Y-109314169D01*
X145346080Y-109314169D02*
X145393699Y-109218931D01*
X145393699Y-109218931D02*
X145488937Y-109171312D01*
X145488937Y-109171312D02*
X145679413Y-109171312D01*
X145679413Y-109171312D02*
X145774651Y-109218931D01*
X145774651Y-109218931D02*
X145822270Y-109314169D01*
X145822270Y-109314169D02*
X145822270Y-109409407D01*
X145822270Y-109409407D02*
X145346080Y-109504645D01*
X146679413Y-109837979D02*
X146679413Y-108837979D01*
X146679413Y-109790360D02*
X146584175Y-109837979D01*
X146584175Y-109837979D02*
X146393699Y-109837979D01*
X146393699Y-109837979D02*
X146298461Y-109790360D01*
X146298461Y-109790360D02*
X146250842Y-109742740D01*
X146250842Y-109742740D02*
X146203223Y-109647502D01*
X146203223Y-109647502D02*
X146203223Y-109361788D01*
X146203223Y-109361788D02*
X146250842Y-109266550D01*
X146250842Y-109266550D02*
X146298461Y-109218931D01*
X146298461Y-109218931D02*
X146393699Y-109171312D01*
X146393699Y-109171312D02*
X146584175Y-109171312D01*
X146584175Y-109171312D02*
X146679413Y-109218931D01*
X147107985Y-109790360D02*
X147203223Y-109837979D01*
X147203223Y-109837979D02*
X147393699Y-109837979D01*
X147393699Y-109837979D02*
X147488937Y-109790360D01*
X147488937Y-109790360D02*
X147536556Y-109695121D01*
X147536556Y-109695121D02*
X147536556Y-109647502D01*
X147536556Y-109647502D02*
X147488937Y-109552264D01*
X147488937Y-109552264D02*
X147393699Y-109504645D01*
X147393699Y-109504645D02*
X147250842Y-109504645D01*
X147250842Y-109504645D02*
X147155604Y-109457026D01*
X147155604Y-109457026D02*
X147107985Y-109361788D01*
X147107985Y-109361788D02*
X147107985Y-109314169D01*
X147107985Y-109314169D02*
X147155604Y-109218931D01*
X147155604Y-109218931D02*
X147250842Y-109171312D01*
X147250842Y-109171312D02*
X147393699Y-109171312D01*
X147393699Y-109171312D02*
X147488937Y-109218931D01*
X148727033Y-109837979D02*
X148727033Y-108837979D01*
X148727033Y-108837979D02*
X149107985Y-108837979D01*
X149107985Y-108837979D02*
X149203223Y-108885598D01*
X149203223Y-108885598D02*
X149250842Y-108933217D01*
X149250842Y-108933217D02*
X149298461Y-109028455D01*
X149298461Y-109028455D02*
X149298461Y-109171312D01*
X149298461Y-109171312D02*
X149250842Y-109266550D01*
X149250842Y-109266550D02*
X149203223Y-109314169D01*
X149203223Y-109314169D02*
X149107985Y-109361788D01*
X149107985Y-109361788D02*
X148727033Y-109361788D01*
X149869890Y-109837979D02*
X149774652Y-109790360D01*
X149774652Y-109790360D02*
X149727033Y-109742740D01*
X149727033Y-109742740D02*
X149679414Y-109647502D01*
X149679414Y-109647502D02*
X149679414Y-109361788D01*
X149679414Y-109361788D02*
X149727033Y-109266550D01*
X149727033Y-109266550D02*
X149774652Y-109218931D01*
X149774652Y-109218931D02*
X149869890Y-109171312D01*
X149869890Y-109171312D02*
X150012747Y-109171312D01*
X150012747Y-109171312D02*
X150107985Y-109218931D01*
X150107985Y-109218931D02*
X150155604Y-109266550D01*
X150155604Y-109266550D02*
X150203223Y-109361788D01*
X150203223Y-109361788D02*
X150203223Y-109647502D01*
X150203223Y-109647502D02*
X150155604Y-109742740D01*
X150155604Y-109742740D02*
X150107985Y-109790360D01*
X150107985Y-109790360D02*
X150012747Y-109837979D01*
X150012747Y-109837979D02*
X149869890Y-109837979D01*
X150631795Y-109171312D02*
X150631795Y-110171312D01*
X150631795Y-109218931D02*
X150727033Y-109171312D01*
X150727033Y-109171312D02*
X150917509Y-109171312D01*
X150917509Y-109171312D02*
X151012747Y-109218931D01*
X151012747Y-109218931D02*
X151060366Y-109266550D01*
X151060366Y-109266550D02*
X151107985Y-109361788D01*
X151107985Y-109361788D02*
X151107985Y-109647502D01*
X151107985Y-109647502D02*
X151060366Y-109742740D01*
X151060366Y-109742740D02*
X151012747Y-109790360D01*
X151012747Y-109790360D02*
X150917509Y-109837979D01*
X150917509Y-109837979D02*
X150727033Y-109837979D01*
X150727033Y-109837979D02*
X150631795Y-109790360D01*
X151965128Y-109171312D02*
X151965128Y-109837979D01*
X151536557Y-109171312D02*
X151536557Y-109695121D01*
X151536557Y-109695121D02*
X151584176Y-109790360D01*
X151584176Y-109790360D02*
X151679414Y-109837979D01*
X151679414Y-109837979D02*
X151822271Y-109837979D01*
X151822271Y-109837979D02*
X151917509Y-109790360D01*
X151917509Y-109790360D02*
X151965128Y-109742740D01*
X152584176Y-109837979D02*
X152488938Y-109790360D01*
X152488938Y-109790360D02*
X152441319Y-109695121D01*
X152441319Y-109695121D02*
X152441319Y-108837979D01*
X153393700Y-109837979D02*
X153393700Y-109314169D01*
X153393700Y-109314169D02*
X153346081Y-109218931D01*
X153346081Y-109218931D02*
X153250843Y-109171312D01*
X153250843Y-109171312D02*
X153060367Y-109171312D01*
X153060367Y-109171312D02*
X152965129Y-109218931D01*
X153393700Y-109790360D02*
X153298462Y-109837979D01*
X153298462Y-109837979D02*
X153060367Y-109837979D01*
X153060367Y-109837979D02*
X152965129Y-109790360D01*
X152965129Y-109790360D02*
X152917510Y-109695121D01*
X152917510Y-109695121D02*
X152917510Y-109599883D01*
X152917510Y-109599883D02*
X152965129Y-109504645D01*
X152965129Y-109504645D02*
X153060367Y-109457026D01*
X153060367Y-109457026D02*
X153298462Y-109457026D01*
X153298462Y-109457026D02*
X153393700Y-109409407D01*
X153727034Y-109171312D02*
X154107986Y-109171312D01*
X153869891Y-108837979D02*
X153869891Y-109695121D01*
X153869891Y-109695121D02*
X153917510Y-109790360D01*
X153917510Y-109790360D02*
X154012748Y-109837979D01*
X154012748Y-109837979D02*
X154107986Y-109837979D01*
X154822272Y-109790360D02*
X154727034Y-109837979D01*
X154727034Y-109837979D02*
X154536558Y-109837979D01*
X154536558Y-109837979D02*
X154441320Y-109790360D01*
X154441320Y-109790360D02*
X154393701Y-109695121D01*
X154393701Y-109695121D02*
X154393701Y-109314169D01*
X154393701Y-109314169D02*
X154441320Y-109218931D01*
X154441320Y-109218931D02*
X154536558Y-109171312D01*
X154536558Y-109171312D02*
X154727034Y-109171312D01*
X154727034Y-109171312D02*
X154822272Y-109218931D01*
X154822272Y-109218931D02*
X154869891Y-109314169D01*
X154869891Y-109314169D02*
X154869891Y-109409407D01*
X154869891Y-109409407D02*
X154393701Y-109504645D01*
X155727034Y-109837979D02*
X155727034Y-108837979D01*
X155727034Y-109790360D02*
X155631796Y-109837979D01*
X155631796Y-109837979D02*
X155441320Y-109837979D01*
X155441320Y-109837979D02*
X155346082Y-109790360D01*
X155346082Y-109790360D02*
X155298463Y-109742740D01*
X155298463Y-109742740D02*
X155250844Y-109647502D01*
X155250844Y-109647502D02*
X155250844Y-109361788D01*
X155250844Y-109361788D02*
X155298463Y-109266550D01*
X155298463Y-109266550D02*
X155346082Y-109218931D01*
X155346082Y-109218931D02*
X155441320Y-109171312D01*
X155441320Y-109171312D02*
X155631796Y-109171312D01*
X155631796Y-109171312D02*
X155727034Y-109218931D01*
X156203225Y-109742740D02*
X156250844Y-109790360D01*
X156250844Y-109790360D02*
X156203225Y-109837979D01*
X156203225Y-109837979D02*
X156155606Y-109790360D01*
X156155606Y-109790360D02*
X156203225Y-109742740D01*
X156203225Y-109742740D02*
X156203225Y-109837979D01*
X125631791Y-110447979D02*
X126203219Y-110447979D01*
X125917505Y-111447979D02*
X125917505Y-110447979D01*
X126536553Y-111447979D02*
X126536553Y-110447979D01*
X126965124Y-111447979D02*
X126965124Y-110924169D01*
X126965124Y-110924169D02*
X126917505Y-110828931D01*
X126917505Y-110828931D02*
X126822267Y-110781312D01*
X126822267Y-110781312D02*
X126679410Y-110781312D01*
X126679410Y-110781312D02*
X126584172Y-110828931D01*
X126584172Y-110828931D02*
X126536553Y-110876550D01*
X127822267Y-111400360D02*
X127727029Y-111447979D01*
X127727029Y-111447979D02*
X127536553Y-111447979D01*
X127536553Y-111447979D02*
X127441315Y-111400360D01*
X127441315Y-111400360D02*
X127393696Y-111305121D01*
X127393696Y-111305121D02*
X127393696Y-110924169D01*
X127393696Y-110924169D02*
X127441315Y-110828931D01*
X127441315Y-110828931D02*
X127536553Y-110781312D01*
X127536553Y-110781312D02*
X127727029Y-110781312D01*
X127727029Y-110781312D02*
X127822267Y-110828931D01*
X127822267Y-110828931D02*
X127869886Y-110924169D01*
X127869886Y-110924169D02*
X127869886Y-111019407D01*
X127869886Y-111019407D02*
X127393696Y-111114645D01*
X129631791Y-111352740D02*
X129584172Y-111400360D01*
X129584172Y-111400360D02*
X129441315Y-111447979D01*
X129441315Y-111447979D02*
X129346077Y-111447979D01*
X129346077Y-111447979D02*
X129203220Y-111400360D01*
X129203220Y-111400360D02*
X129107982Y-111305121D01*
X129107982Y-111305121D02*
X129060363Y-111209883D01*
X129060363Y-111209883D02*
X129012744Y-111019407D01*
X129012744Y-111019407D02*
X129012744Y-110876550D01*
X129012744Y-110876550D02*
X129060363Y-110686074D01*
X129060363Y-110686074D02*
X129107982Y-110590836D01*
X129107982Y-110590836D02*
X129203220Y-110495598D01*
X129203220Y-110495598D02*
X129346077Y-110447979D01*
X129346077Y-110447979D02*
X129441315Y-110447979D01*
X129441315Y-110447979D02*
X129584172Y-110495598D01*
X129584172Y-110495598D02*
X129631791Y-110543217D01*
X130060363Y-111447979D02*
X130060363Y-110447979D01*
X130488934Y-111447979D02*
X130488934Y-110924169D01*
X130488934Y-110924169D02*
X130441315Y-110828931D01*
X130441315Y-110828931D02*
X130346077Y-110781312D01*
X130346077Y-110781312D02*
X130203220Y-110781312D01*
X130203220Y-110781312D02*
X130107982Y-110828931D01*
X130107982Y-110828931D02*
X130060363Y-110876550D01*
X131107982Y-111447979D02*
X131012744Y-111400360D01*
X131012744Y-111400360D02*
X130965125Y-111352740D01*
X130965125Y-111352740D02*
X130917506Y-111257502D01*
X130917506Y-111257502D02*
X130917506Y-110971788D01*
X130917506Y-110971788D02*
X130965125Y-110876550D01*
X130965125Y-110876550D02*
X131012744Y-110828931D01*
X131012744Y-110828931D02*
X131107982Y-110781312D01*
X131107982Y-110781312D02*
X131250839Y-110781312D01*
X131250839Y-110781312D02*
X131346077Y-110828931D01*
X131346077Y-110828931D02*
X131393696Y-110876550D01*
X131393696Y-110876550D02*
X131441315Y-110971788D01*
X131441315Y-110971788D02*
X131441315Y-111257502D01*
X131441315Y-111257502D02*
X131393696Y-111352740D01*
X131393696Y-111352740D02*
X131346077Y-111400360D01*
X131346077Y-111400360D02*
X131250839Y-111447979D01*
X131250839Y-111447979D02*
X131107982Y-111447979D01*
X131869887Y-111447979D02*
X131869887Y-110781312D01*
X131869887Y-110447979D02*
X131822268Y-110495598D01*
X131822268Y-110495598D02*
X131869887Y-110543217D01*
X131869887Y-110543217D02*
X131917506Y-110495598D01*
X131917506Y-110495598D02*
X131869887Y-110447979D01*
X131869887Y-110447979D02*
X131869887Y-110543217D01*
X132774648Y-111400360D02*
X132679410Y-111447979D01*
X132679410Y-111447979D02*
X132488934Y-111447979D01*
X132488934Y-111447979D02*
X132393696Y-111400360D01*
X132393696Y-111400360D02*
X132346077Y-111352740D01*
X132346077Y-111352740D02*
X132298458Y-111257502D01*
X132298458Y-111257502D02*
X132298458Y-110971788D01*
X132298458Y-110971788D02*
X132346077Y-110876550D01*
X132346077Y-110876550D02*
X132393696Y-110828931D01*
X132393696Y-110828931D02*
X132488934Y-110781312D01*
X132488934Y-110781312D02*
X132679410Y-110781312D01*
X132679410Y-110781312D02*
X132774648Y-110828931D01*
X133584172Y-111400360D02*
X133488934Y-111447979D01*
X133488934Y-111447979D02*
X133298458Y-111447979D01*
X133298458Y-111447979D02*
X133203220Y-111400360D01*
X133203220Y-111400360D02*
X133155601Y-111305121D01*
X133155601Y-111305121D02*
X133155601Y-110924169D01*
X133155601Y-110924169D02*
X133203220Y-110828931D01*
X133203220Y-110828931D02*
X133298458Y-110781312D01*
X133298458Y-110781312D02*
X133488934Y-110781312D01*
X133488934Y-110781312D02*
X133584172Y-110828931D01*
X133584172Y-110828931D02*
X133631791Y-110924169D01*
X133631791Y-110924169D02*
X133631791Y-111019407D01*
X133631791Y-111019407D02*
X133155601Y-111114645D01*
X134822268Y-111447979D02*
X134822268Y-110447979D01*
X135250839Y-111400360D02*
X135346077Y-111447979D01*
X135346077Y-111447979D02*
X135536553Y-111447979D01*
X135536553Y-111447979D02*
X135631791Y-111400360D01*
X135631791Y-111400360D02*
X135679410Y-111305121D01*
X135679410Y-111305121D02*
X135679410Y-111257502D01*
X135679410Y-111257502D02*
X135631791Y-111162264D01*
X135631791Y-111162264D02*
X135536553Y-111114645D01*
X135536553Y-111114645D02*
X135393696Y-111114645D01*
X135393696Y-111114645D02*
X135298458Y-111067026D01*
X135298458Y-111067026D02*
X135250839Y-110971788D01*
X135250839Y-110971788D02*
X135250839Y-110924169D01*
X135250839Y-110924169D02*
X135298458Y-110828931D01*
X135298458Y-110828931D02*
X135393696Y-110781312D01*
X135393696Y-110781312D02*
X135536553Y-110781312D01*
X135536553Y-110781312D02*
X135631791Y-110828931D01*
X137060363Y-110971788D02*
X137060363Y-111447979D01*
X136727030Y-110447979D02*
X137060363Y-110971788D01*
X137060363Y-110971788D02*
X137393696Y-110447979D01*
X137869887Y-111447979D02*
X137774649Y-111400360D01*
X137774649Y-111400360D02*
X137727030Y-111352740D01*
X137727030Y-111352740D02*
X137679411Y-111257502D01*
X137679411Y-111257502D02*
X137679411Y-110971788D01*
X137679411Y-110971788D02*
X137727030Y-110876550D01*
X137727030Y-110876550D02*
X137774649Y-110828931D01*
X137774649Y-110828931D02*
X137869887Y-110781312D01*
X137869887Y-110781312D02*
X138012744Y-110781312D01*
X138012744Y-110781312D02*
X138107982Y-110828931D01*
X138107982Y-110828931D02*
X138155601Y-110876550D01*
X138155601Y-110876550D02*
X138203220Y-110971788D01*
X138203220Y-110971788D02*
X138203220Y-111257502D01*
X138203220Y-111257502D02*
X138155601Y-111352740D01*
X138155601Y-111352740D02*
X138107982Y-111400360D01*
X138107982Y-111400360D02*
X138012744Y-111447979D01*
X138012744Y-111447979D02*
X137869887Y-111447979D01*
X139060363Y-110781312D02*
X139060363Y-111447979D01*
X138631792Y-110781312D02*
X138631792Y-111305121D01*
X138631792Y-111305121D02*
X138679411Y-111400360D01*
X138679411Y-111400360D02*
X138774649Y-111447979D01*
X138774649Y-111447979D02*
X138917506Y-111447979D01*
X138917506Y-111447979D02*
X139012744Y-111400360D01*
X139012744Y-111400360D02*
X139060363Y-111352740D01*
X139536554Y-111447979D02*
X139536554Y-110781312D01*
X139536554Y-110971788D02*
X139584173Y-110876550D01*
X139584173Y-110876550D02*
X139631792Y-110828931D01*
X139631792Y-110828931D02*
X139727030Y-110781312D01*
X139727030Y-110781312D02*
X139822268Y-110781312D01*
X140107983Y-111400360D02*
X140203221Y-111447979D01*
X140203221Y-111447979D02*
X140393697Y-111447979D01*
X140393697Y-111447979D02*
X140488935Y-111400360D01*
X140488935Y-111400360D02*
X140536554Y-111305121D01*
X140536554Y-111305121D02*
X140536554Y-111257502D01*
X140536554Y-111257502D02*
X140488935Y-111162264D01*
X140488935Y-111162264D02*
X140393697Y-111114645D01*
X140393697Y-111114645D02*
X140250840Y-111114645D01*
X140250840Y-111114645D02*
X140155602Y-111067026D01*
X140155602Y-111067026D02*
X140107983Y-110971788D01*
X140107983Y-110971788D02*
X140107983Y-110924169D01*
X140107983Y-110924169D02*
X140155602Y-110828931D01*
X140155602Y-110828931D02*
X140250840Y-110781312D01*
X140250840Y-110781312D02*
X140393697Y-110781312D01*
X140393697Y-110781312D02*
X140488935Y-110828931D01*
X140965126Y-111352740D02*
X141012745Y-111400360D01*
X141012745Y-111400360D02*
X140965126Y-111447979D01*
X140965126Y-111447979D02*
X140917507Y-111400360D01*
X140917507Y-111400360D02*
X140965126Y-111352740D01*
X140965126Y-111352740D02*
X140965126Y-111447979D01*
X138792769Y-124235845D02*
X138935626Y-124283464D01*
X138935626Y-124283464D02*
X138983245Y-124331083D01*
X138983245Y-124331083D02*
X139030864Y-124426321D01*
X139030864Y-124426321D02*
X139030864Y-124569178D01*
X139030864Y-124569178D02*
X138983245Y-124664416D01*
X138983245Y-124664416D02*
X138935626Y-124712036D01*
X138935626Y-124712036D02*
X138840388Y-124759655D01*
X138840388Y-124759655D02*
X138459436Y-124759655D01*
X138459436Y-124759655D02*
X138459436Y-123759655D01*
X138459436Y-123759655D02*
X138792769Y-123759655D01*
X138792769Y-123759655D02*
X138888007Y-123807274D01*
X138888007Y-123807274D02*
X138935626Y-123854893D01*
X138935626Y-123854893D02*
X138983245Y-123950131D01*
X138983245Y-123950131D02*
X138983245Y-124045369D01*
X138983245Y-124045369D02*
X138935626Y-124140607D01*
X138935626Y-124140607D02*
X138888007Y-124188226D01*
X138888007Y-124188226D02*
X138792769Y-124235845D01*
X138792769Y-124235845D02*
X138459436Y-124235845D01*
X139935626Y-124759655D02*
X139459436Y-124759655D01*
X139459436Y-124759655D02*
X139459436Y-123759655D01*
X140268960Y-124759655D02*
X140268960Y-123759655D01*
X140840388Y-124759655D02*
X140411817Y-124188226D01*
X140840388Y-123759655D02*
X140268960Y-124331083D01*
X138173722Y-125369655D02*
X138364198Y-125369655D01*
X138364198Y-125369655D02*
X138459436Y-125417274D01*
X138459436Y-125417274D02*
X138554674Y-125512512D01*
X138554674Y-125512512D02*
X138602293Y-125702988D01*
X138602293Y-125702988D02*
X138602293Y-126036321D01*
X138602293Y-126036321D02*
X138554674Y-126226797D01*
X138554674Y-126226797D02*
X138459436Y-126322036D01*
X138459436Y-126322036D02*
X138364198Y-126369655D01*
X138364198Y-126369655D02*
X138173722Y-126369655D01*
X138173722Y-126369655D02*
X138078484Y-126322036D01*
X138078484Y-126322036D02*
X137983246Y-126226797D01*
X137983246Y-126226797D02*
X137935627Y-126036321D01*
X137935627Y-126036321D02*
X137935627Y-125702988D01*
X137935627Y-125702988D02*
X137983246Y-125512512D01*
X137983246Y-125512512D02*
X138078484Y-125417274D01*
X138078484Y-125417274D02*
X138173722Y-125369655D01*
X139364198Y-125845845D02*
X139507055Y-125893464D01*
X139507055Y-125893464D02*
X139554674Y-125941083D01*
X139554674Y-125941083D02*
X139602293Y-126036321D01*
X139602293Y-126036321D02*
X139602293Y-126179178D01*
X139602293Y-126179178D02*
X139554674Y-126274416D01*
X139554674Y-126274416D02*
X139507055Y-126322036D01*
X139507055Y-126322036D02*
X139411817Y-126369655D01*
X139411817Y-126369655D02*
X139030865Y-126369655D01*
X139030865Y-126369655D02*
X139030865Y-125369655D01*
X139030865Y-125369655D02*
X139364198Y-125369655D01*
X139364198Y-125369655D02*
X139459436Y-125417274D01*
X139459436Y-125417274D02*
X139507055Y-125464893D01*
X139507055Y-125464893D02*
X139554674Y-125560131D01*
X139554674Y-125560131D02*
X139554674Y-125655369D01*
X139554674Y-125655369D02*
X139507055Y-125750607D01*
X139507055Y-125750607D02*
X139459436Y-125798226D01*
X139459436Y-125798226D02*
X139364198Y-125845845D01*
X139364198Y-125845845D02*
X139030865Y-125845845D01*
X139983246Y-126322036D02*
X140126103Y-126369655D01*
X140126103Y-126369655D02*
X140364198Y-126369655D01*
X140364198Y-126369655D02*
X140459436Y-126322036D01*
X140459436Y-126322036D02*
X140507055Y-126274416D01*
X140507055Y-126274416D02*
X140554674Y-126179178D01*
X140554674Y-126179178D02*
X140554674Y-126083940D01*
X140554674Y-126083940D02*
X140507055Y-125988702D01*
X140507055Y-125988702D02*
X140459436Y-125941083D01*
X140459436Y-125941083D02*
X140364198Y-125893464D01*
X140364198Y-125893464D02*
X140173722Y-125845845D01*
X140173722Y-125845845D02*
X140078484Y-125798226D01*
X140078484Y-125798226D02*
X140030865Y-125750607D01*
X140030865Y-125750607D02*
X139983246Y-125655369D01*
X139983246Y-125655369D02*
X139983246Y-125560131D01*
X139983246Y-125560131D02*
X140030865Y-125464893D01*
X140030865Y-125464893D02*
X140078484Y-125417274D01*
X140078484Y-125417274D02*
X140173722Y-125369655D01*
X140173722Y-125369655D02*
X140411817Y-125369655D01*
X140411817Y-125369655D02*
X140554674Y-125417274D01*
X140840389Y-125369655D02*
X141411817Y-125369655D01*
X141126103Y-126369655D02*
X141126103Y-125369655D01*
X144984043Y-123689020D02*
X145222138Y-124689020D01*
X145222138Y-124689020D02*
X145412614Y-123974734D01*
X145412614Y-123974734D02*
X145603090Y-124689020D01*
X145603090Y-124689020D02*
X145841186Y-123689020D01*
X146222138Y-124689020D02*
X146222138Y-123689020D01*
X146222138Y-124165210D02*
X146793566Y-124165210D01*
X146793566Y-124689020D02*
X146793566Y-123689020D01*
X147126900Y-123689020D02*
X147698328Y-123689020D01*
X147412614Y-124689020D02*
X147412614Y-123689020D01*
X145555471Y-125346639D02*
X145460233Y-125299020D01*
X145460233Y-125299020D02*
X145317376Y-125299020D01*
X145317376Y-125299020D02*
X145174519Y-125346639D01*
X145174519Y-125346639D02*
X145079281Y-125441877D01*
X145079281Y-125441877D02*
X145031662Y-125537115D01*
X145031662Y-125537115D02*
X144984043Y-125727591D01*
X144984043Y-125727591D02*
X144984043Y-125870448D01*
X144984043Y-125870448D02*
X145031662Y-126060924D01*
X145031662Y-126060924D02*
X145079281Y-126156162D01*
X145079281Y-126156162D02*
X145174519Y-126251401D01*
X145174519Y-126251401D02*
X145317376Y-126299020D01*
X145317376Y-126299020D02*
X145412614Y-126299020D01*
X145412614Y-126299020D02*
X145555471Y-126251401D01*
X145555471Y-126251401D02*
X145603090Y-126203781D01*
X145603090Y-126203781D02*
X145603090Y-125870448D01*
X145603090Y-125870448D02*
X145412614Y-125870448D01*
X146031662Y-126299020D02*
X146031662Y-125299020D01*
X146031662Y-125299020D02*
X146603090Y-126299020D01*
X146603090Y-126299020D02*
X146603090Y-125299020D01*
X147079281Y-126299020D02*
X147079281Y-125299020D01*
X147079281Y-125299020D02*
X147317376Y-125299020D01*
X147317376Y-125299020D02*
X147460233Y-125346639D01*
X147460233Y-125346639D02*
X147555471Y-125441877D01*
X147555471Y-125441877D02*
X147603090Y-125537115D01*
X147603090Y-125537115D02*
X147650709Y-125727591D01*
X147650709Y-125727591D02*
X147650709Y-125870448D01*
X147650709Y-125870448D02*
X147603090Y-126060924D01*
X147603090Y-126060924D02*
X147555471Y-126156162D01*
X147555471Y-126156162D02*
X147460233Y-126251401D01*
X147460233Y-126251401D02*
X147317376Y-126299020D01*
X147317376Y-126299020D02*
X147079281Y-126299020D01*
X162393333Y-71430657D02*
X162060000Y-70954466D01*
X161821905Y-71430657D02*
X161821905Y-70430657D01*
X161821905Y-70430657D02*
X162202857Y-70430657D01*
X162202857Y-70430657D02*
X162298095Y-70478276D01*
X162298095Y-70478276D02*
X162345714Y-70525895D01*
X162345714Y-70525895D02*
X162393333Y-70621133D01*
X162393333Y-70621133D02*
X162393333Y-70763990D01*
X162393333Y-70763990D02*
X162345714Y-70859228D01*
X162345714Y-70859228D02*
X162298095Y-70906847D01*
X162298095Y-70906847D02*
X162202857Y-70954466D01*
X162202857Y-70954466D02*
X161821905Y-70954466D01*
X162726667Y-70430657D02*
X163345714Y-70430657D01*
X163345714Y-70430657D02*
X163012381Y-70811609D01*
X163012381Y-70811609D02*
X163155238Y-70811609D01*
X163155238Y-70811609D02*
X163250476Y-70859228D01*
X163250476Y-70859228D02*
X163298095Y-70906847D01*
X163298095Y-70906847D02*
X163345714Y-71002085D01*
X163345714Y-71002085D02*
X163345714Y-71240180D01*
X163345714Y-71240180D02*
X163298095Y-71335418D01*
X163298095Y-71335418D02*
X163250476Y-71383038D01*
X163250476Y-71383038D02*
X163155238Y-71430657D01*
X163155238Y-71430657D02*
X162869524Y-71430657D01*
X162869524Y-71430657D02*
X162774286Y-71383038D01*
X162774286Y-71383038D02*
X162726667Y-71335418D01*
X144004819Y-112093333D02*
X144719104Y-112093333D01*
X144719104Y-112093333D02*
X144861961Y-112140952D01*
X144861961Y-112140952D02*
X144957200Y-112236190D01*
X144957200Y-112236190D02*
X145004819Y-112379047D01*
X145004819Y-112379047D02*
X145004819Y-112474285D01*
X144004819Y-111712380D02*
X144004819Y-111093333D01*
X144004819Y-111093333D02*
X144385771Y-111426666D01*
X144385771Y-111426666D02*
X144385771Y-111283809D01*
X144385771Y-111283809D02*
X144433390Y-111188571D01*
X144433390Y-111188571D02*
X144481009Y-111140952D01*
X144481009Y-111140952D02*
X144576247Y-111093333D01*
X144576247Y-111093333D02*
X144814342Y-111093333D01*
X144814342Y-111093333D02*
X144909580Y-111140952D01*
X144909580Y-111140952D02*
X144957200Y-111188571D01*
X144957200Y-111188571D02*
X145004819Y-111283809D01*
X145004819Y-111283809D02*
X145004819Y-111569523D01*
X145004819Y-111569523D02*
X144957200Y-111664761D01*
X144957200Y-111664761D02*
X144909580Y-111712380D01*
X163377487Y-75423011D02*
X163282249Y-75375392D01*
X163282249Y-75375392D02*
X163187011Y-75280154D01*
X163187011Y-75280154D02*
X163044154Y-75137296D01*
X163044154Y-75137296D02*
X162948916Y-75089677D01*
X162948916Y-75089677D02*
X162853678Y-75089677D01*
X162901297Y-75327773D02*
X162806059Y-75280154D01*
X162806059Y-75280154D02*
X162710821Y-75184915D01*
X162710821Y-75184915D02*
X162663202Y-74994439D01*
X162663202Y-74994439D02*
X162663202Y-74661106D01*
X162663202Y-74661106D02*
X162710821Y-74470630D01*
X162710821Y-74470630D02*
X162806059Y-74375392D01*
X162806059Y-74375392D02*
X162901297Y-74327773D01*
X162901297Y-74327773D02*
X163091773Y-74327773D01*
X163091773Y-74327773D02*
X163187011Y-74375392D01*
X163187011Y-74375392D02*
X163282249Y-74470630D01*
X163282249Y-74470630D02*
X163329868Y-74661106D01*
X163329868Y-74661106D02*
X163329868Y-74994439D01*
X163329868Y-74994439D02*
X163282249Y-75184915D01*
X163282249Y-75184915D02*
X163187011Y-75280154D01*
X163187011Y-75280154D02*
X163091773Y-75327773D01*
X163091773Y-75327773D02*
X162901297Y-75327773D01*
X163710821Y-74423011D02*
X163758440Y-74375392D01*
X163758440Y-74375392D02*
X163853678Y-74327773D01*
X163853678Y-74327773D02*
X164091773Y-74327773D01*
X164091773Y-74327773D02*
X164187011Y-74375392D01*
X164187011Y-74375392D02*
X164234630Y-74423011D01*
X164234630Y-74423011D02*
X164282249Y-74518249D01*
X164282249Y-74518249D02*
X164282249Y-74613487D01*
X164282249Y-74613487D02*
X164234630Y-74756344D01*
X164234630Y-74756344D02*
X163663202Y-75327773D01*
X163663202Y-75327773D02*
X164282249Y-75327773D01*
X147828095Y-95974819D02*
X147828095Y-96784342D01*
X147828095Y-96784342D02*
X147875714Y-96879580D01*
X147875714Y-96879580D02*
X147923333Y-96927200D01*
X147923333Y-96927200D02*
X148018571Y-96974819D01*
X148018571Y-96974819D02*
X148209047Y-96974819D01*
X148209047Y-96974819D02*
X148304285Y-96927200D01*
X148304285Y-96927200D02*
X148351904Y-96879580D01*
X148351904Y-96879580D02*
X148399523Y-96784342D01*
X148399523Y-96784342D02*
X148399523Y-95974819D01*
X148828095Y-96070057D02*
X148875714Y-96022438D01*
X148875714Y-96022438D02*
X148970952Y-95974819D01*
X148970952Y-95974819D02*
X149209047Y-95974819D01*
X149209047Y-95974819D02*
X149304285Y-96022438D01*
X149304285Y-96022438D02*
X149351904Y-96070057D01*
X149351904Y-96070057D02*
X149399523Y-96165295D01*
X149399523Y-96165295D02*
X149399523Y-96260533D01*
X149399523Y-96260533D02*
X149351904Y-96403390D01*
X149351904Y-96403390D02*
X148780476Y-96974819D01*
X148780476Y-96974819D02*
X149399523Y-96974819D01*
X139708095Y-97244819D02*
X139708095Y-98054342D01*
X139708095Y-98054342D02*
X139755714Y-98149580D01*
X139755714Y-98149580D02*
X139803333Y-98197200D01*
X139803333Y-98197200D02*
X139898571Y-98244819D01*
X139898571Y-98244819D02*
X140089047Y-98244819D01*
X140089047Y-98244819D02*
X140184285Y-98197200D01*
X140184285Y-98197200D02*
X140231904Y-98149580D01*
X140231904Y-98149580D02*
X140279523Y-98054342D01*
X140279523Y-98054342D02*
X140279523Y-97244819D01*
X140708095Y-98197200D02*
X140850952Y-98244819D01*
X140850952Y-98244819D02*
X141089047Y-98244819D01*
X141089047Y-98244819D02*
X141184285Y-98197200D01*
X141184285Y-98197200D02*
X141231904Y-98149580D01*
X141231904Y-98149580D02*
X141279523Y-98054342D01*
X141279523Y-98054342D02*
X141279523Y-97959104D01*
X141279523Y-97959104D02*
X141231904Y-97863866D01*
X141231904Y-97863866D02*
X141184285Y-97816247D01*
X141184285Y-97816247D02*
X141089047Y-97768628D01*
X141089047Y-97768628D02*
X140898571Y-97721009D01*
X140898571Y-97721009D02*
X140803333Y-97673390D01*
X140803333Y-97673390D02*
X140755714Y-97625771D01*
X140755714Y-97625771D02*
X140708095Y-97530533D01*
X140708095Y-97530533D02*
X140708095Y-97435295D01*
X140708095Y-97435295D02*
X140755714Y-97340057D01*
X140755714Y-97340057D02*
X140803333Y-97292438D01*
X140803333Y-97292438D02*
X140898571Y-97244819D01*
X140898571Y-97244819D02*
X141136666Y-97244819D01*
X141136666Y-97244819D02*
X141279523Y-97292438D01*
X142041428Y-97721009D02*
X142184285Y-97768628D01*
X142184285Y-97768628D02*
X142231904Y-97816247D01*
X142231904Y-97816247D02*
X142279523Y-97911485D01*
X142279523Y-97911485D02*
X142279523Y-98054342D01*
X142279523Y-98054342D02*
X142231904Y-98149580D01*
X142231904Y-98149580D02*
X142184285Y-98197200D01*
X142184285Y-98197200D02*
X142089047Y-98244819D01*
X142089047Y-98244819D02*
X141708095Y-98244819D01*
X141708095Y-98244819D02*
X141708095Y-97244819D01*
X141708095Y-97244819D02*
X142041428Y-97244819D01*
X142041428Y-97244819D02*
X142136666Y-97292438D01*
X142136666Y-97292438D02*
X142184285Y-97340057D01*
X142184285Y-97340057D02*
X142231904Y-97435295D01*
X142231904Y-97435295D02*
X142231904Y-97530533D01*
X142231904Y-97530533D02*
X142184285Y-97625771D01*
X142184285Y-97625771D02*
X142136666Y-97673390D01*
X142136666Y-97673390D02*
X142041428Y-97721009D01*
X142041428Y-97721009D02*
X141708095Y-97721009D01*
X128992380Y-93164819D02*
X128659047Y-92688628D01*
X128420952Y-93164819D02*
X128420952Y-92164819D01*
X128420952Y-92164819D02*
X128801904Y-92164819D01*
X128801904Y-92164819D02*
X128897142Y-92212438D01*
X128897142Y-92212438D02*
X128944761Y-92260057D01*
X128944761Y-92260057D02*
X128992380Y-92355295D01*
X128992380Y-92355295D02*
X128992380Y-92498152D01*
X128992380Y-92498152D02*
X128944761Y-92593390D01*
X128944761Y-92593390D02*
X128897142Y-92641009D01*
X128897142Y-92641009D02*
X128801904Y-92688628D01*
X128801904Y-92688628D02*
X128420952Y-92688628D01*
X129373333Y-93117200D02*
X129516190Y-93164819D01*
X129516190Y-93164819D02*
X129754285Y-93164819D01*
X129754285Y-93164819D02*
X129849523Y-93117200D01*
X129849523Y-93117200D02*
X129897142Y-93069580D01*
X129897142Y-93069580D02*
X129944761Y-92974342D01*
X129944761Y-92974342D02*
X129944761Y-92879104D01*
X129944761Y-92879104D02*
X129897142Y-92783866D01*
X129897142Y-92783866D02*
X129849523Y-92736247D01*
X129849523Y-92736247D02*
X129754285Y-92688628D01*
X129754285Y-92688628D02*
X129563809Y-92641009D01*
X129563809Y-92641009D02*
X129468571Y-92593390D01*
X129468571Y-92593390D02*
X129420952Y-92545771D01*
X129420952Y-92545771D02*
X129373333Y-92450533D01*
X129373333Y-92450533D02*
X129373333Y-92355295D01*
X129373333Y-92355295D02*
X129420952Y-92260057D01*
X129420952Y-92260057D02*
X129468571Y-92212438D01*
X129468571Y-92212438D02*
X129563809Y-92164819D01*
X129563809Y-92164819D02*
X129801904Y-92164819D01*
X129801904Y-92164819D02*
X129944761Y-92212438D01*
X130230476Y-92164819D02*
X130801904Y-92164819D01*
X130516190Y-93164819D02*
X130516190Y-92164819D01*
X163310669Y-81296184D02*
X163215431Y-81248565D01*
X163215431Y-81248565D02*
X163120193Y-81153327D01*
X163120193Y-81153327D02*
X162977336Y-81010469D01*
X162977336Y-81010469D02*
X162882098Y-80962850D01*
X162882098Y-80962850D02*
X162786860Y-80962850D01*
X162834479Y-81200946D02*
X162739241Y-81153327D01*
X162739241Y-81153327D02*
X162644003Y-81058088D01*
X162644003Y-81058088D02*
X162596384Y-80867612D01*
X162596384Y-80867612D02*
X162596384Y-80534279D01*
X162596384Y-80534279D02*
X162644003Y-80343803D01*
X162644003Y-80343803D02*
X162739241Y-80248565D01*
X162739241Y-80248565D02*
X162834479Y-80200946D01*
X162834479Y-80200946D02*
X163024955Y-80200946D01*
X163024955Y-80200946D02*
X163120193Y-80248565D01*
X163120193Y-80248565D02*
X163215431Y-80343803D01*
X163215431Y-80343803D02*
X163263050Y-80534279D01*
X163263050Y-80534279D02*
X163263050Y-80867612D01*
X163263050Y-80867612D02*
X163215431Y-81058088D01*
X163215431Y-81058088D02*
X163120193Y-81153327D01*
X163120193Y-81153327D02*
X163024955Y-81200946D01*
X163024955Y-81200946D02*
X162834479Y-81200946D01*
X164215431Y-81200946D02*
X163644003Y-81200946D01*
X163929717Y-81200946D02*
X163929717Y-80200946D01*
X163929717Y-80200946D02*
X163834479Y-80343803D01*
X163834479Y-80343803D02*
X163739241Y-80439041D01*
X163739241Y-80439041D02*
X163644003Y-80486660D01*
X157146666Y-113754819D02*
X157146666Y-114469104D01*
X157146666Y-114469104D02*
X157099047Y-114611961D01*
X157099047Y-114611961D02*
X157003809Y-114707200D01*
X157003809Y-114707200D02*
X156860952Y-114754819D01*
X156860952Y-114754819D02*
X156765714Y-114754819D01*
X157575238Y-113850057D02*
X157622857Y-113802438D01*
X157622857Y-113802438D02*
X157718095Y-113754819D01*
X157718095Y-113754819D02*
X157956190Y-113754819D01*
X157956190Y-113754819D02*
X158051428Y-113802438D01*
X158051428Y-113802438D02*
X158099047Y-113850057D01*
X158099047Y-113850057D02*
X158146666Y-113945295D01*
X158146666Y-113945295D02*
X158146666Y-114040533D01*
X158146666Y-114040533D02*
X158099047Y-114183390D01*
X158099047Y-114183390D02*
X157527619Y-114754819D01*
X157527619Y-114754819D02*
X158146666Y-114754819D01*
X125396666Y-113754819D02*
X125396666Y-114469104D01*
X125396666Y-114469104D02*
X125349047Y-114611961D01*
X125349047Y-114611961D02*
X125253809Y-114707200D01*
X125253809Y-114707200D02*
X125110952Y-114754819D01*
X125110952Y-114754819D02*
X125015714Y-114754819D01*
X126396666Y-114754819D02*
X125825238Y-114754819D01*
X126110952Y-114754819D02*
X126110952Y-113754819D01*
X126110952Y-113754819D02*
X126015714Y-113897676D01*
X126015714Y-113897676D02*
X125920476Y-113992914D01*
X125920476Y-113992914D02*
X125825238Y-114040533D01*
X120483333Y-79194819D02*
X120150000Y-78718628D01*
X119911905Y-79194819D02*
X119911905Y-78194819D01*
X119911905Y-78194819D02*
X120292857Y-78194819D01*
X120292857Y-78194819D02*
X120388095Y-78242438D01*
X120388095Y-78242438D02*
X120435714Y-78290057D01*
X120435714Y-78290057D02*
X120483333Y-78385295D01*
X120483333Y-78385295D02*
X120483333Y-78528152D01*
X120483333Y-78528152D02*
X120435714Y-78623390D01*
X120435714Y-78623390D02*
X120388095Y-78671009D01*
X120388095Y-78671009D02*
X120292857Y-78718628D01*
X120292857Y-78718628D02*
X119911905Y-78718628D01*
X120864286Y-78290057D02*
X120911905Y-78242438D01*
X120911905Y-78242438D02*
X121007143Y-78194819D01*
X121007143Y-78194819D02*
X121245238Y-78194819D01*
X121245238Y-78194819D02*
X121340476Y-78242438D01*
X121340476Y-78242438D02*
X121388095Y-78290057D01*
X121388095Y-78290057D02*
X121435714Y-78385295D01*
X121435714Y-78385295D02*
X121435714Y-78480533D01*
X121435714Y-78480533D02*
X121388095Y-78623390D01*
X121388095Y-78623390D02*
X120816667Y-79194819D01*
X120816667Y-79194819D02*
X121435714Y-79194819D01*
X120483333Y-83004819D02*
X120150000Y-82528628D01*
X119911905Y-83004819D02*
X119911905Y-82004819D01*
X119911905Y-82004819D02*
X120292857Y-82004819D01*
X120292857Y-82004819D02*
X120388095Y-82052438D01*
X120388095Y-82052438D02*
X120435714Y-82100057D01*
X120435714Y-82100057D02*
X120483333Y-82195295D01*
X120483333Y-82195295D02*
X120483333Y-82338152D01*
X120483333Y-82338152D02*
X120435714Y-82433390D01*
X120435714Y-82433390D02*
X120388095Y-82481009D01*
X120388095Y-82481009D02*
X120292857Y-82528628D01*
X120292857Y-82528628D02*
X119911905Y-82528628D01*
X121435714Y-83004819D02*
X120864286Y-83004819D01*
X121150000Y-83004819D02*
X121150000Y-82004819D01*
X121150000Y-82004819D02*
X121054762Y-82147676D01*
X121054762Y-82147676D02*
X120959524Y-82242914D01*
X120959524Y-82242914D02*
X120864286Y-82290533D01*
D11*
%TO.C,R3*%
X160247064Y-71855000D02*
X159792936Y-71855000D01*
X160247064Y-70385000D02*
X159792936Y-70385000D01*
%TO.C,J3*%
X148590000Y-113090000D02*
X153730000Y-113090000D01*
X148590000Y-113090000D02*
X148590000Y-110430000D01*
X153730000Y-113090000D02*
X153730000Y-110430000D01*
X145990000Y-111760000D02*
X145990000Y-110430000D01*
X145990000Y-110430000D02*
X147320000Y-110430000D01*
X148590000Y-110430000D02*
X153730000Y-110430000D01*
%TO.C,Q2*%
X160352500Y-73370000D02*
X158677500Y-73370000D01*
X160352500Y-73370000D02*
X161002500Y-73370000D01*
X160352500Y-76490000D02*
X159702500Y-76490000D01*
X160352500Y-76490000D02*
X161002500Y-76490000D01*
%TO.C,U2*%
X125730000Y-60960000D02*
X125730000Y-90170000D01*
X125730000Y-90170000D02*
X128270000Y-90170000D01*
X128270000Y-58420000D02*
X125730000Y-60960000D01*
X128270000Y-58420000D02*
X129540000Y-58420000D01*
X128270000Y-90170000D02*
X128270000Y-95250000D01*
X128270000Y-95250000D02*
X156210000Y-95250000D01*
X135890000Y-92710000D02*
X146050000Y-92710000D01*
X135890000Y-95250000D02*
X135890000Y-92710000D01*
X135890000Y-95250000D02*
X135890000Y-101600000D01*
X135890000Y-101600000D02*
X146050000Y-101600000D01*
X146050000Y-92710000D02*
X146050000Y-95250000D01*
X146050000Y-101600000D02*
X146050000Y-95250000D01*
X153670000Y-58420000D02*
X129540000Y-58420000D01*
X153670000Y-58420000D02*
X156210000Y-60960000D01*
X156210000Y-60960000D02*
X156210000Y-95250000D01*
D12*
X128270000Y-93980000D02*
X127000000Y-93980000D01*
X127000000Y-91440000D01*
X128270000Y-91440000D01*
X128270000Y-93980000D01*
G36*
X128270000Y-93980000D02*
G01*
X127000000Y-93980000D01*
X127000000Y-91440000D01*
X128270000Y-91440000D01*
X128270000Y-93980000D01*
G37*
D11*
%TO.C,Q1*%
X160352500Y-82520000D02*
X162027500Y-82520000D01*
X160352500Y-82520000D02*
X159702500Y-82520000D01*
X160352500Y-79400000D02*
X161002500Y-79400000D01*
X160352500Y-79400000D02*
X159702500Y-79400000D01*
%TO.C,J2*%
X143720000Y-114630000D02*
X145720000Y-114630000D01*
X143720000Y-115880000D02*
X143720000Y-114630000D01*
X144110000Y-115020000D02*
X144110000Y-122490000D01*
X144110000Y-122490000D02*
X156230000Y-122490000D01*
X145170000Y-115980000D02*
X148170000Y-115980000D01*
X145170000Y-117330000D02*
X145920000Y-117330000D01*
X145170000Y-121630000D02*
X145170000Y-117330000D01*
X145420000Y-116980000D02*
X145170000Y-115980000D01*
X145920000Y-116980000D02*
X145420000Y-116980000D01*
X145920000Y-117330000D02*
X145920000Y-116980000D01*
X145920000Y-121630000D02*
X145170000Y-121630000D01*
X147420000Y-116980000D02*
X147420000Y-117330000D01*
X147420000Y-117330000D02*
X148170000Y-117330000D01*
X147920000Y-116980000D02*
X147420000Y-116980000D01*
X148170000Y-115980000D02*
X147920000Y-116980000D01*
X148170000Y-117330000D02*
X148170000Y-121630000D01*
X148170000Y-121630000D02*
X147420000Y-121630000D01*
X148670000Y-115980000D02*
X151670000Y-115980000D01*
X148670000Y-117330000D02*
X149420000Y-117330000D01*
X148670000Y-121630000D02*
X148670000Y-117330000D01*
X148920000Y-116980000D02*
X148670000Y-115980000D01*
X149420000Y-116980000D02*
X148920000Y-116980000D01*
X149420000Y-117330000D02*
X149420000Y-116980000D01*
X149420000Y-121630000D02*
X148670000Y-121630000D01*
X150920000Y-116980000D02*
X150920000Y-117330000D01*
X150920000Y-117330000D02*
X151670000Y-117330000D01*
X151420000Y-116980000D02*
X150920000Y-116980000D01*
X151670000Y-115980000D02*
X151420000Y-116980000D01*
X151670000Y-117330000D02*
X151670000Y-121630000D01*
X151670000Y-121630000D02*
X150920000Y-121630000D01*
X152170000Y-115980000D02*
X155170000Y-115980000D01*
X152170000Y-117330000D02*
X152920000Y-117330000D01*
X152170000Y-121630000D02*
X152170000Y-117330000D01*
X152420000Y-116980000D02*
X152170000Y-115980000D01*
X152920000Y-116980000D02*
X152420000Y-116980000D01*
X152920000Y-117330000D02*
X152920000Y-116980000D01*
X152920000Y-121630000D02*
X152170000Y-121630000D01*
X154420000Y-116980000D02*
X154420000Y-117330000D01*
X154420000Y-117330000D02*
X155170000Y-117330000D01*
X154920000Y-116980000D02*
X154420000Y-116980000D01*
X155170000Y-115980000D02*
X154920000Y-116980000D01*
X155170000Y-117330000D02*
X155170000Y-121630000D01*
X155170000Y-121630000D02*
X154420000Y-121630000D01*
X156230000Y-115020000D02*
X144110000Y-115020000D01*
X156230000Y-122490000D02*
X156230000Y-115020000D01*
X147419647Y-121629845D02*
G75*
G03*
X145920000Y-121630000I-749647J-1700155D01*
G01*
X150919647Y-121629845D02*
G75*
G03*
X149420000Y-121630000I-749647J-1700155D01*
G01*
X154419647Y-121629845D02*
G75*
G03*
X152920000Y-121630000I-749647J-1700155D01*
G01*
%TO.C,J1*%
X126900000Y-122575000D02*
X126900000Y-123315000D01*
X126900000Y-123315000D02*
X127400000Y-123315000D01*
X127140000Y-113154000D02*
X127140000Y-123075000D01*
X127140000Y-113154000D02*
X142260000Y-113154000D01*
X127140000Y-116114000D02*
X142260000Y-116114000D01*
X127140000Y-121015000D02*
X142260000Y-121015000D01*
X127140000Y-122515000D02*
X142260000Y-122515000D01*
X127140000Y-123075000D02*
X142260000Y-123075000D01*
X133473000Y-119438000D02*
X133426000Y-119484000D01*
X133666000Y-119654000D02*
X133631000Y-119689000D01*
X135770000Y-117140000D02*
X135735000Y-117176000D01*
X135975000Y-117346000D02*
X135928000Y-117392000D01*
X138473000Y-119438000D02*
X138426000Y-119484000D01*
X138666000Y-119654000D02*
X138631000Y-119689000D01*
X140770000Y-117140000D02*
X140735000Y-117176000D01*
X140975000Y-117346000D02*
X140928000Y-117392000D01*
X142260000Y-113154000D02*
X142260000Y-123075000D01*
X128165001Y-117731001D02*
G75*
G03*
X128164574Y-119098042I1534992J-684000D01*
G01*
X130383999Y-116880001D02*
G75*
G03*
X129016958Y-116879574I-684000J-1534992D01*
G01*
X129016000Y-119949999D02*
G75*
G03*
X129728805Y-120095252I683999J1535000D01*
G01*
X129700000Y-120094999D02*
G75*
G03*
X130383318Y-119949755I0J1679999D01*
G01*
X131235000Y-119099000D02*
G75*
G03*
X131235426Y-117731958I-1535000J684000D01*
G01*
X136380000Y-118415000D02*
G75*
G03*
X136380000Y-118415000I-1680000J0D01*
G01*
X141380000Y-118415000D02*
G75*
G03*
X141380000Y-118415000I-1680000J0D01*
G01*
%TO.C,R2*%
X123417064Y-79475000D02*
X122962936Y-79475000D01*
X123417064Y-78005000D02*
X122962936Y-78005000D01*
%TO.C,R1*%
X122962936Y-81815000D02*
X123417064Y-81815000D01*
X122962936Y-83285000D02*
X123417064Y-83285000D01*
%TD*%
M02*
