%TF.GenerationSoftware,KiCad,Pcbnew,7.0.7*%
%TF.CreationDate,2023-11-10T11:02:00-07:00*%
%TF.ProjectId,RatGDO-OpenSource-D1Mini-ESP32,52617447-444f-42d4-9f70-656e536f7572,rev?*%
%TF.SameCoordinates,Original*%
%TF.FileFunction,Copper,L2,Bot*%
%TF.FilePolarity,Positive*%
%FSLAX46Y46*%
G04 Gerber Fmt 4.6, Leading zero omitted, Abs format (unit mm)*
G04 Created by KiCad (PCBNEW 7.0.7) date 2023-11-10 11:02:00*
%MOMM*%
%LPD*%
G01*
G04 APERTURE LIST*
G04 Aperture macros list*
%AMRoundRect*
0 Rectangle with rounded corners*
0 $1 Rounding radius*
0 $2 $3 $4 $5 $6 $7 $8 $9 X,Y pos of 4 corners*
0 Add a 4 corners polygon primitive as box body*
4,1,4,$2,$3,$4,$5,$6,$7,$8,$9,$2,$3,0*
0 Add four circle primitives for the rounded corners*
1,1,$1+$1,$2,$3*
1,1,$1+$1,$4,$5*
1,1,$1+$1,$6,$7*
1,1,$1+$1,$8,$9*
0 Add four rect primitives between the rounded corners*
20,1,$1+$1,$2,$3,$4,$5,0*
20,1,$1+$1,$4,$5,$6,$7,0*
20,1,$1+$1,$6,$7,$8,$9,0*
20,1,$1+$1,$8,$9,$2,$3,0*%
G04 Aperture macros list end*
%TA.AperFunction,ComponentPad*%
%ADD10C,1.400000*%
%TD*%
%TA.AperFunction,ComponentPad*%
%ADD11R,1.700000X1.700000*%
%TD*%
%TA.AperFunction,ComponentPad*%
%ADD12O,1.700000X1.700000*%
%TD*%
%TA.AperFunction,ComponentPad*%
%ADD13RoundRect,0.250000X-0.650000X-1.550000X0.650000X-1.550000X0.650000X1.550000X-0.650000X1.550000X0*%
%TD*%
%TA.AperFunction,ComponentPad*%
%ADD14O,1.800000X3.600000*%
%TD*%
%TA.AperFunction,ComponentPad*%
%ADD15R,2.600000X2.600000*%
%TD*%
%TA.AperFunction,ComponentPad*%
%ADD16C,2.600000*%
%TD*%
%TA.AperFunction,ViaPad*%
%ADD17C,0.800000*%
%TD*%
G04 APERTURE END LIST*
D10*
%TO.P,U1,40,CLK*%
%TO.N,unconnected-(U1-CLK-Pad40)*%
X155561577Y-88796272D03*
%TO.P,U1,39,SD0*%
%TO.N,unconnected-(U1-SD0-Pad39)*%
X153021577Y-88796272D03*
%TO.P,U1,38,SD1*%
%TO.N,unconnected-(U1-SD1-Pad38)*%
X155561577Y-86256272D03*
%TO.P,U1,37,TD0*%
%TO.N,unconnected-(U1-TD0-Pad37)*%
X153021577Y-86256272D03*
%TO.P,U1,36,IO_02*%
%TO.N,unconnected-(U1-IO_02-Pad36)*%
X155561577Y-83716272D03*
%TO.P,U1,35,VCC_(USB)*%
%TO.N,+5V*%
X153021577Y-83716272D03*
%TO.P,U1,34,IO_00*%
%TO.N,unconnected-(U1-IO_00-Pad34)*%
X155561577Y-81176272D03*
%TO.P,U1,33,GND*%
%TO.N,GND*%
X153021577Y-81176272D03*
%TO.P,U1,32,IO_04*%
%TO.N,unconnected-(U1-IO_04-Pad32)*%
X155561577Y-78636272D03*
%TO.P,U1,31,IO_16/D4*%
%TO.N,unconnected-(U1-IO_16{slash}D4-Pad31)*%
X153021577Y-78636272D03*
%TO.P,U1,30,IO_12/TDI*%
%TO.N,unconnected-(U1-IO_12{slash}TDI-Pad30)*%
X155561577Y-76096272D03*
%TO.P,U1,29,IO_17/D3*%
%TO.N,unconnected-(U1-IO_17{slash}D3-Pad29)*%
X153021577Y-76096272D03*
%TO.P,U1,28,IO_32*%
%TO.N,unconnected-(U1-IO_32-Pad28)*%
X155561577Y-73556272D03*
%TO.P,U1,27,IO_21/D2/SDA*%
%TO.N,Net-(Q1-D)*%
X153021577Y-73556272D03*
%TO.P,U1,26,IO_25*%
%TO.N,unconnected-(U1-IO_25-Pad26)*%
X155561577Y-71016272D03*
%TO.P,U1,25,IO_22/D1/SCL*%
%TO.N,Net-(Q2-G)*%
X153021577Y-71016272D03*
%TO.P,U1,24,IO_27*%
%TO.N,unconnected-(U1-IO_27-Pad24)*%
X155561577Y-68476272D03*
%TO.P,U1,23,RXD*%
%TO.N,unconnected-(U1-RXD-Pad23)*%
X153021577Y-68476272D03*
%TO.P,U1,22,GND*%
%TO.N,unconnected-(U1-GND-Pad22)*%
X155561577Y-65936272D03*
%TO.P,U1,21,TXD*%
%TO.N,unconnected-(U1-TXD-Pad21)*%
X153021577Y-65936272D03*
%TO.P,U1,20,IO_10/SD3*%
%TO.N,unconnected-(U1-IO_10{slash}SD3-Pad20)*%
X130161577Y-88796272D03*
%TO.P,U1,19,CMD*%
%TO.N,unconnected-(U1-CMD-Pad19)*%
X127621577Y-88796272D03*
%TO.P,U1,18,IO_13/TCK*%
%TO.N,unconnected-(U1-IO_13{slash}TCK-Pad18)*%
X130161577Y-86256272D03*
%TO.P,U1,17,IO_09/SD2*%
%TO.N,unconnected-(U1-IO_09{slash}SD2-Pad17)*%
X127621577Y-86256272D03*
%TO.P,U1,16,3V3*%
%TO.N,+3.3V*%
X130161577Y-83716272D03*
%TO.P,U1,15,NC*%
%TO.N,unconnected-(U1-NC-Pad15)*%
X127621577Y-83716272D03*
%TO.P,U1,14,IO_05/D8*%
%TO.N,unconnected-(U1-IO_05{slash}D8-Pad14)*%
X130161577Y-81176272D03*
%TO.P,U1,13,IO_14/TMS*%
%TO.N,unconnected-(U1-IO_14{slash}TMS-Pad13)*%
X127621577Y-81176272D03*
%TO.P,U1,12,IO_23/D7*%
%TO.N,Net-(U1-IO_23{slash}D7)*%
X130161577Y-78636272D03*
%TO.P,U1,11,IO_34*%
%TO.N,unconnected-(U1-IO_34-Pad11)*%
X127621577Y-78636272D03*
%TO.P,U1,10,IO_19/D6*%
%TO.N,unconnected-(U1-IO_19{slash}D6-Pad10)*%
X130161577Y-76096272D03*
%TO.P,U1,9,IO_33*%
%TO.N,unconnected-(U1-IO_33-Pad9)*%
X127621577Y-76096272D03*
%TO.P,U1,8,IO_18/D5*%
%TO.N,unconnected-(U1-IO_18{slash}D5-Pad8)*%
X130161577Y-73556272D03*
%TO.P,U1,7,IO_35*%
%TO.N,unconnected-(U1-IO_35-Pad7)*%
X127621577Y-73556272D03*
%TO.P,U1,6,IO_26/D0*%
%TO.N,unconnected-(U1-IO_26{slash}D0-Pad6)*%
X130161577Y-71016272D03*
%TO.P,U1,5,IO_39/SVN*%
%TO.N,unconnected-(U1-IO_39{slash}SVN-Pad5)*%
X127621577Y-71016272D03*
%TO.P,U1,4,IO_36/SVP/A0*%
%TO.N,unconnected-(U1-IO_36{slash}SVP{slash}A0-Pad4)*%
X130161577Y-68476272D03*
%TO.P,U1,3,NC*%
%TO.N,unconnected-(U1-NC-Pad3)*%
X127621577Y-68476272D03*
%TO.P,U1,1,GND*%
%TO.N,unconnected-(U1-GND-Pad1)*%
X127621577Y-65936272D03*
%TO.P,U1,2,RST*%
%TO.N,unconnected-(U1-RST-Pad2)*%
X130161577Y-65936272D03*
%TD*%
D11*
%TO.P,J3,1,Pin_1*%
%TO.N,Net-(J1-BLK{slash}OBST)*%
X147320000Y-111760000D03*
D12*
%TO.P,J3,2,Pin_2*%
%TO.N,Net-(J1-RED{slash}CTRL)*%
X149860000Y-111760000D03*
%TO.P,J3,3,Pin_3*%
%TO.N,GND*%
X152400000Y-111760000D03*
%TD*%
D13*
%TO.P,J2,1,Pin_1*%
%TO.N,Net-(J1-BLK{slash}OBST)*%
X146670000Y-119380000D03*
D14*
%TO.P,J2,2,Pin_2*%
%TO.N,Net-(J1-RED{slash}CTRL)*%
X150170000Y-119380000D03*
%TO.P,J2,3,Pin_3*%
%TO.N,GND*%
X153670000Y-119380000D03*
%TD*%
D15*
%TO.P,J1,1,BLK/OBST*%
%TO.N,Net-(J1-BLK{slash}OBST)*%
X129700000Y-118415000D03*
D16*
%TO.P,J1,2,RED/CTRL*%
%TO.N,Net-(J1-RED{slash}CTRL)*%
X134700000Y-118415000D03*
%TO.P,J1,3,WHT/GND*%
%TO.N,GND*%
X139700000Y-118415000D03*
%TD*%
D17*
%TO.N,GND*%
X160020000Y-77470000D03*
X161290000Y-72390000D03*
X121920000Y-80010000D03*
%TD*%
%TA.AperFunction,Conductor*%
%TO.N,GND*%
G36*
X125673039Y-57170185D02*
G01*
X125718794Y-57222989D01*
X125730000Y-57274499D01*
X125730000Y-64770000D01*
X126798874Y-64770000D01*
X126865913Y-64789685D01*
X126911668Y-64842489D01*
X126921612Y-64911647D01*
X126892587Y-64975203D01*
X126882412Y-64985637D01*
X126730597Y-65124033D01*
X126596520Y-65301580D01*
X126596515Y-65301588D01*
X126497352Y-65500733D01*
X126497346Y-65500748D01*
X126436462Y-65714734D01*
X126436461Y-65714736D01*
X126415934Y-65936271D01*
X126415934Y-65936272D01*
X126436461Y-66157807D01*
X126436462Y-66157809D01*
X126497346Y-66371795D01*
X126497352Y-66371810D01*
X126596515Y-66570955D01*
X126596520Y-66570963D01*
X126730597Y-66748510D01*
X126895014Y-66898395D01*
X126895016Y-66898397D01*
X127084172Y-67015517D01*
X127084173Y-67015517D01*
X127084176Y-67015519D01*
X127278101Y-67090646D01*
X127333501Y-67133218D01*
X127357092Y-67198985D01*
X127341381Y-67267065D01*
X127291357Y-67315844D01*
X127278110Y-67321894D01*
X127130065Y-67379247D01*
X127084178Y-67397024D01*
X127084172Y-67397026D01*
X126895016Y-67514146D01*
X126895014Y-67514148D01*
X126730597Y-67664033D01*
X126596520Y-67841580D01*
X126596515Y-67841588D01*
X126497352Y-68040733D01*
X126497346Y-68040748D01*
X126436462Y-68254734D01*
X126436461Y-68254736D01*
X126415934Y-68476271D01*
X126415934Y-68476272D01*
X126436461Y-68697807D01*
X126436462Y-68697809D01*
X126497346Y-68911795D01*
X126497352Y-68911810D01*
X126596515Y-69110955D01*
X126596520Y-69110963D01*
X126730597Y-69288510D01*
X126895014Y-69438395D01*
X126895016Y-69438397D01*
X127084172Y-69555517D01*
X127084173Y-69555517D01*
X127084176Y-69555519D01*
X127278101Y-69630646D01*
X127333501Y-69673218D01*
X127357092Y-69738985D01*
X127341381Y-69807065D01*
X127291357Y-69855844D01*
X127278110Y-69861894D01*
X127130065Y-69919247D01*
X127084178Y-69937024D01*
X127084172Y-69937026D01*
X126895016Y-70054146D01*
X126895014Y-70054148D01*
X126730597Y-70204033D01*
X126596520Y-70381580D01*
X126596515Y-70381588D01*
X126497352Y-70580733D01*
X126497346Y-70580748D01*
X126436462Y-70794734D01*
X126436461Y-70794736D01*
X126415934Y-71016271D01*
X126415934Y-71016272D01*
X126436461Y-71237807D01*
X126436462Y-71237809D01*
X126497346Y-71451795D01*
X126497352Y-71451810D01*
X126596515Y-71650955D01*
X126596520Y-71650963D01*
X126730597Y-71828510D01*
X126895014Y-71978395D01*
X126895016Y-71978397D01*
X127084172Y-72095517D01*
X127084173Y-72095517D01*
X127084176Y-72095519D01*
X127278101Y-72170646D01*
X127333501Y-72213218D01*
X127357092Y-72278985D01*
X127341381Y-72347065D01*
X127291357Y-72395844D01*
X127278110Y-72401894D01*
X127130065Y-72459247D01*
X127084178Y-72477024D01*
X127084172Y-72477026D01*
X126895016Y-72594146D01*
X126895014Y-72594148D01*
X126730597Y-72744033D01*
X126596520Y-72921580D01*
X126596515Y-72921588D01*
X126497352Y-73120733D01*
X126497346Y-73120748D01*
X126436462Y-73334734D01*
X126436461Y-73334736D01*
X126415934Y-73556271D01*
X126415934Y-73556272D01*
X126436461Y-73777807D01*
X126436462Y-73777809D01*
X126497346Y-73991795D01*
X126497352Y-73991810D01*
X126596515Y-74190955D01*
X126596520Y-74190963D01*
X126730597Y-74368510D01*
X126895014Y-74518395D01*
X126895016Y-74518397D01*
X127084172Y-74635517D01*
X127084173Y-74635517D01*
X127084176Y-74635519D01*
X127278101Y-74710646D01*
X127333501Y-74753218D01*
X127357092Y-74818985D01*
X127341381Y-74887065D01*
X127291357Y-74935844D01*
X127278110Y-74941894D01*
X127130065Y-74999247D01*
X127084178Y-75017024D01*
X127084172Y-75017026D01*
X126895016Y-75134146D01*
X126895014Y-75134148D01*
X126730597Y-75284033D01*
X126596520Y-75461580D01*
X126596515Y-75461588D01*
X126497352Y-75660733D01*
X126497346Y-75660748D01*
X126436462Y-75874734D01*
X126436461Y-75874736D01*
X126415934Y-76096271D01*
X126415934Y-76096272D01*
X126436461Y-76317807D01*
X126436462Y-76317809D01*
X126497346Y-76531795D01*
X126497352Y-76531810D01*
X126596515Y-76730955D01*
X126596520Y-76730963D01*
X126730597Y-76908510D01*
X126895014Y-77058395D01*
X126895016Y-77058397D01*
X127084172Y-77175517D01*
X127084173Y-77175517D01*
X127084176Y-77175519D01*
X127278101Y-77250646D01*
X127333501Y-77293218D01*
X127357092Y-77358985D01*
X127341381Y-77427065D01*
X127291357Y-77475844D01*
X127278110Y-77481894D01*
X127130065Y-77539247D01*
X127084178Y-77557024D01*
X127084172Y-77557026D01*
X126895016Y-77674146D01*
X126895014Y-77674148D01*
X126730597Y-77824033D01*
X126596520Y-78001580D01*
X126596515Y-78001588D01*
X126497352Y-78200733D01*
X126497346Y-78200748D01*
X126436462Y-78414734D01*
X126436461Y-78414736D01*
X126415934Y-78636271D01*
X126415934Y-78636272D01*
X126436461Y-78857807D01*
X126436462Y-78857809D01*
X126497346Y-79071795D01*
X126497352Y-79071810D01*
X126596515Y-79270955D01*
X126596520Y-79270963D01*
X126730597Y-79448510D01*
X126895014Y-79598395D01*
X126895016Y-79598397D01*
X127084172Y-79715517D01*
X127084173Y-79715517D01*
X127084176Y-79715519D01*
X127278101Y-79790646D01*
X127333501Y-79833218D01*
X127357092Y-79898985D01*
X127341381Y-79967065D01*
X127291357Y-80015844D01*
X127278110Y-80021894D01*
X127130065Y-80079247D01*
X127084178Y-80097024D01*
X127084172Y-80097026D01*
X126895016Y-80214146D01*
X126895014Y-80214148D01*
X126730597Y-80364033D01*
X126596520Y-80541580D01*
X126596515Y-80541588D01*
X126497352Y-80740733D01*
X126497346Y-80740748D01*
X126436462Y-80954734D01*
X126436461Y-80954736D01*
X126415934Y-81176271D01*
X126415934Y-81176272D01*
X126436461Y-81397807D01*
X126436462Y-81397809D01*
X126497346Y-81611795D01*
X126497352Y-81611810D01*
X126596515Y-81810955D01*
X126596520Y-81810963D01*
X126730597Y-81988510D01*
X126895014Y-82138395D01*
X126895016Y-82138397D01*
X127084172Y-82255517D01*
X127084173Y-82255517D01*
X127084176Y-82255519D01*
X127278101Y-82330646D01*
X127333501Y-82373218D01*
X127357092Y-82438985D01*
X127341381Y-82507065D01*
X127291357Y-82555844D01*
X127278110Y-82561894D01*
X127130065Y-82619247D01*
X127084178Y-82637024D01*
X127084172Y-82637026D01*
X126895016Y-82754146D01*
X126895014Y-82754148D01*
X126730597Y-82904033D01*
X126596520Y-83081580D01*
X126596515Y-83081588D01*
X126497352Y-83280733D01*
X126497346Y-83280748D01*
X126436462Y-83494734D01*
X126436461Y-83494736D01*
X126415934Y-83716271D01*
X126415934Y-83716272D01*
X126436461Y-83937807D01*
X126436462Y-83937809D01*
X126497346Y-84151795D01*
X126497352Y-84151810D01*
X126596515Y-84350955D01*
X126596520Y-84350963D01*
X126730597Y-84528510D01*
X126895014Y-84678395D01*
X126895016Y-84678397D01*
X127084172Y-84795517D01*
X127084173Y-84795517D01*
X127084176Y-84795519D01*
X127278101Y-84870646D01*
X127333501Y-84913218D01*
X127357092Y-84978985D01*
X127341381Y-85047065D01*
X127291357Y-85095844D01*
X127278110Y-85101894D01*
X127130065Y-85159247D01*
X127084178Y-85177024D01*
X127084172Y-85177026D01*
X126895016Y-85294146D01*
X126895014Y-85294148D01*
X126730597Y-85444033D01*
X126596520Y-85621580D01*
X126596515Y-85621588D01*
X126497352Y-85820733D01*
X126497346Y-85820748D01*
X126436462Y-86034734D01*
X126436461Y-86034736D01*
X126415934Y-86256271D01*
X126415934Y-86256272D01*
X126436461Y-86477807D01*
X126436462Y-86477809D01*
X126497346Y-86691795D01*
X126497352Y-86691810D01*
X126596515Y-86890955D01*
X126596520Y-86890963D01*
X126730597Y-87068510D01*
X126895014Y-87218395D01*
X126895016Y-87218397D01*
X127084172Y-87335517D01*
X127084173Y-87335517D01*
X127084176Y-87335519D01*
X127278101Y-87410646D01*
X127333501Y-87453218D01*
X127357092Y-87518985D01*
X127341381Y-87587065D01*
X127291357Y-87635844D01*
X127278110Y-87641894D01*
X127130065Y-87699247D01*
X127084178Y-87717024D01*
X127084172Y-87717026D01*
X126895016Y-87834146D01*
X126895014Y-87834148D01*
X126730597Y-87984033D01*
X126596520Y-88161580D01*
X126596515Y-88161588D01*
X126497352Y-88360733D01*
X126497346Y-88360748D01*
X126436462Y-88574734D01*
X126436461Y-88574736D01*
X126415934Y-88796271D01*
X126415934Y-88796272D01*
X126436461Y-89017807D01*
X126436462Y-89017809D01*
X126497346Y-89231795D01*
X126497352Y-89231810D01*
X126596515Y-89430955D01*
X126596520Y-89430963D01*
X126730597Y-89608510D01*
X126895014Y-89758395D01*
X126895016Y-89758397D01*
X127084172Y-89875517D01*
X127084173Y-89875517D01*
X127084176Y-89875519D01*
X127291637Y-89955890D01*
X127510334Y-89996772D01*
X127510336Y-89996772D01*
X127732818Y-89996772D01*
X127732820Y-89996772D01*
X127951517Y-89955890D01*
X128158978Y-89875519D01*
X128348139Y-89758396D01*
X128512558Y-89608508D01*
X128646635Y-89430961D01*
X128745806Y-89231800D01*
X128772312Y-89138639D01*
X128809588Y-89079551D01*
X128872897Y-89049993D01*
X128942137Y-89059354D01*
X128995324Y-89104664D01*
X129010842Y-89138643D01*
X129037347Y-89231797D01*
X129037352Y-89231810D01*
X129136515Y-89430955D01*
X129136520Y-89430963D01*
X129270597Y-89608510D01*
X129435014Y-89758395D01*
X129435016Y-89758397D01*
X129624172Y-89875517D01*
X129624173Y-89875517D01*
X129624176Y-89875519D01*
X129831637Y-89955890D01*
X130050334Y-89996772D01*
X130050336Y-89996772D01*
X130272818Y-89996772D01*
X130272820Y-89996772D01*
X130491517Y-89955890D01*
X130698978Y-89875519D01*
X130888139Y-89758396D01*
X131052558Y-89608508D01*
X131186635Y-89430961D01*
X131285806Y-89231800D01*
X131346692Y-89017808D01*
X131367220Y-88796272D01*
X131346692Y-88574736D01*
X131285806Y-88360744D01*
X131285801Y-88360733D01*
X131186638Y-88161588D01*
X131186633Y-88161580D01*
X131052556Y-87984033D01*
X130888139Y-87834148D01*
X130888137Y-87834146D01*
X130698981Y-87717026D01*
X130698972Y-87717022D01*
X130605533Y-87680824D01*
X130505052Y-87641897D01*
X130449652Y-87599326D01*
X130426061Y-87533560D01*
X130441772Y-87465479D01*
X130491796Y-87416700D01*
X130505043Y-87410649D01*
X130698978Y-87335519D01*
X130888139Y-87218396D01*
X131052558Y-87068508D01*
X131186635Y-86890961D01*
X131285806Y-86691800D01*
X131346692Y-86477808D01*
X131367220Y-86256272D01*
X131346692Y-86034736D01*
X131285806Y-85820744D01*
X131285801Y-85820733D01*
X131186638Y-85621588D01*
X131186633Y-85621580D01*
X131052556Y-85444033D01*
X130888139Y-85294148D01*
X130888137Y-85294146D01*
X130698981Y-85177026D01*
X130698972Y-85177022D01*
X130605533Y-85140824D01*
X130505052Y-85101897D01*
X130449652Y-85059326D01*
X130426061Y-84993560D01*
X130441772Y-84925479D01*
X130491796Y-84876700D01*
X130505043Y-84870649D01*
X130698978Y-84795519D01*
X130888139Y-84678396D01*
X131052558Y-84528508D01*
X131186635Y-84350961D01*
X131285806Y-84151800D01*
X131346692Y-83937808D01*
X131367220Y-83716272D01*
X131346692Y-83494736D01*
X131285806Y-83280744D01*
X131285801Y-83280733D01*
X131186638Y-83081588D01*
X131186633Y-83081580D01*
X131052556Y-82904033D01*
X130888139Y-82754148D01*
X130888137Y-82754146D01*
X130698981Y-82637026D01*
X130698972Y-82637022D01*
X130605533Y-82600824D01*
X130505052Y-82561897D01*
X130449652Y-82519326D01*
X130426061Y-82453560D01*
X130441772Y-82385479D01*
X130491796Y-82336700D01*
X130505043Y-82330649D01*
X130698978Y-82255519D01*
X130888139Y-82138396D01*
X131052558Y-81988508D01*
X131186635Y-81810961D01*
X131285806Y-81611800D01*
X131346692Y-81397808D01*
X131367220Y-81176272D01*
X131350182Y-80992405D01*
X131346692Y-80954736D01*
X131346691Y-80954734D01*
X131341994Y-80938227D01*
X131285806Y-80740744D01*
X131285801Y-80740733D01*
X131186638Y-80541588D01*
X131186633Y-80541580D01*
X131052556Y-80364033D01*
X130888139Y-80214148D01*
X130888137Y-80214146D01*
X130698981Y-80097026D01*
X130698972Y-80097022D01*
X130605533Y-80060824D01*
X130505052Y-80021897D01*
X130449652Y-79979326D01*
X130426061Y-79913560D01*
X130441772Y-79845479D01*
X130491796Y-79796700D01*
X130505043Y-79790649D01*
X130698978Y-79715519D01*
X130888139Y-79598396D01*
X131052558Y-79448508D01*
X131186635Y-79270961D01*
X131285806Y-79071800D01*
X131346692Y-78857808D01*
X131367220Y-78636272D01*
X131346692Y-78414736D01*
X131285806Y-78200744D01*
X131285801Y-78200733D01*
X131186638Y-78001588D01*
X131186633Y-78001580D01*
X131052556Y-77824033D01*
X130888139Y-77674148D01*
X130888137Y-77674146D01*
X130698981Y-77557026D01*
X130698972Y-77557022D01*
X130605533Y-77520824D01*
X130505052Y-77481897D01*
X130449652Y-77439326D01*
X130426061Y-77373560D01*
X130441772Y-77305479D01*
X130491796Y-77256700D01*
X130505043Y-77250649D01*
X130698978Y-77175519D01*
X130888139Y-77058396D01*
X131052558Y-76908508D01*
X131186635Y-76730961D01*
X131285806Y-76531800D01*
X131346692Y-76317808D01*
X131367220Y-76096272D01*
X131346692Y-75874736D01*
X131285806Y-75660744D01*
X131285801Y-75660733D01*
X131186638Y-75461588D01*
X131186633Y-75461580D01*
X131052556Y-75284033D01*
X130888139Y-75134148D01*
X130888137Y-75134146D01*
X130698981Y-75017026D01*
X130698972Y-75017022D01*
X130605533Y-74980824D01*
X130505052Y-74941897D01*
X130449652Y-74899326D01*
X130426061Y-74833560D01*
X130441772Y-74765479D01*
X130491796Y-74716700D01*
X130505043Y-74710649D01*
X130698978Y-74635519D01*
X130888139Y-74518396D01*
X131052558Y-74368508D01*
X131186635Y-74190961D01*
X131285806Y-73991800D01*
X131346692Y-73777808D01*
X131367220Y-73556272D01*
X131346692Y-73334736D01*
X131285806Y-73120744D01*
X131285801Y-73120733D01*
X131186638Y-72921588D01*
X131186633Y-72921580D01*
X131052556Y-72744033D01*
X130888139Y-72594148D01*
X130888137Y-72594146D01*
X130698981Y-72477026D01*
X130698972Y-72477022D01*
X130605533Y-72440824D01*
X130505052Y-72401897D01*
X130449652Y-72359326D01*
X130426061Y-72293560D01*
X130441772Y-72225479D01*
X130491796Y-72176700D01*
X130505043Y-72170649D01*
X130698978Y-72095519D01*
X130888139Y-71978396D01*
X131052558Y-71828508D01*
X131186635Y-71650961D01*
X131285806Y-71451800D01*
X131346692Y-71237808D01*
X131367220Y-71016272D01*
X131346692Y-70794736D01*
X131285806Y-70580744D01*
X131285801Y-70580733D01*
X131186638Y-70381588D01*
X131186633Y-70381580D01*
X131052556Y-70204033D01*
X130888139Y-70054148D01*
X130888137Y-70054146D01*
X130698981Y-69937026D01*
X130698972Y-69937022D01*
X130605533Y-69900824D01*
X130505052Y-69861897D01*
X130449652Y-69819326D01*
X130426061Y-69753560D01*
X130441772Y-69685479D01*
X130491796Y-69636700D01*
X130505043Y-69630649D01*
X130698978Y-69555519D01*
X130888139Y-69438396D01*
X131052558Y-69288508D01*
X131186635Y-69110961D01*
X131285806Y-68911800D01*
X131346692Y-68697808D01*
X131367220Y-68476272D01*
X131346692Y-68254736D01*
X131285806Y-68040744D01*
X131285801Y-68040733D01*
X131186638Y-67841588D01*
X131186633Y-67841580D01*
X131052556Y-67664033D01*
X130888139Y-67514148D01*
X130888137Y-67514146D01*
X130698981Y-67397026D01*
X130698972Y-67397022D01*
X130605533Y-67360824D01*
X130505052Y-67321897D01*
X130449652Y-67279326D01*
X130426061Y-67213560D01*
X130441772Y-67145479D01*
X130491796Y-67096700D01*
X130505043Y-67090649D01*
X130698978Y-67015519D01*
X130888139Y-66898396D01*
X131052558Y-66748508D01*
X131186635Y-66570961D01*
X131285806Y-66371800D01*
X131346692Y-66157808D01*
X131367220Y-65936272D01*
X131346692Y-65714736D01*
X131285806Y-65500744D01*
X131285801Y-65500733D01*
X131186638Y-65301588D01*
X131186633Y-65301580D01*
X131052556Y-65124033D01*
X130900742Y-64985637D01*
X130864460Y-64925926D01*
X130866221Y-64856078D01*
X130905464Y-64798271D01*
X130969731Y-64770856D01*
X130984280Y-64770000D01*
X152198874Y-64770000D01*
X152265913Y-64789685D01*
X152311668Y-64842489D01*
X152321612Y-64911647D01*
X152292587Y-64975203D01*
X152282412Y-64985637D01*
X152130597Y-65124033D01*
X151996520Y-65301580D01*
X151996515Y-65301588D01*
X151897352Y-65500733D01*
X151897346Y-65500748D01*
X151836462Y-65714734D01*
X151836461Y-65714736D01*
X151815934Y-65936271D01*
X151815934Y-65936272D01*
X151836461Y-66157807D01*
X151836462Y-66157809D01*
X151897346Y-66371795D01*
X151897352Y-66371810D01*
X151996515Y-66570955D01*
X151996520Y-66570963D01*
X152130597Y-66748510D01*
X152295014Y-66898395D01*
X152295016Y-66898397D01*
X152484172Y-67015517D01*
X152484173Y-67015517D01*
X152484176Y-67015519D01*
X152678101Y-67090646D01*
X152733501Y-67133218D01*
X152757092Y-67198985D01*
X152741381Y-67267065D01*
X152691357Y-67315844D01*
X152678110Y-67321894D01*
X152530065Y-67379247D01*
X152484178Y-67397024D01*
X152484172Y-67397026D01*
X152295016Y-67514146D01*
X152295014Y-67514148D01*
X152130597Y-67664033D01*
X151996520Y-67841580D01*
X151996515Y-67841588D01*
X151897352Y-68040733D01*
X151897346Y-68040748D01*
X151836462Y-68254734D01*
X151836461Y-68254736D01*
X151815934Y-68476271D01*
X151815934Y-68476272D01*
X151836461Y-68697807D01*
X151836462Y-68697809D01*
X151897346Y-68911795D01*
X151897352Y-68911810D01*
X151996515Y-69110955D01*
X151996520Y-69110963D01*
X152130597Y-69288510D01*
X152295014Y-69438395D01*
X152295016Y-69438397D01*
X152484172Y-69555517D01*
X152484173Y-69555517D01*
X152484176Y-69555519D01*
X152678101Y-69630646D01*
X152733501Y-69673218D01*
X152757092Y-69738985D01*
X152741381Y-69807065D01*
X152691357Y-69855844D01*
X152678110Y-69861894D01*
X152530065Y-69919247D01*
X152484178Y-69937024D01*
X152484172Y-69937026D01*
X152295016Y-70054146D01*
X152295014Y-70054148D01*
X152130597Y-70204033D01*
X151996520Y-70381580D01*
X151996515Y-70381588D01*
X151897352Y-70580733D01*
X151897346Y-70580748D01*
X151836462Y-70794734D01*
X151836461Y-70794736D01*
X151815934Y-71016271D01*
X151815934Y-71016272D01*
X151836461Y-71237807D01*
X151836462Y-71237809D01*
X151897346Y-71451795D01*
X151897352Y-71451810D01*
X151996515Y-71650955D01*
X151996520Y-71650963D01*
X152130597Y-71828510D01*
X152295014Y-71978395D01*
X152295016Y-71978397D01*
X152484172Y-72095517D01*
X152484173Y-72095517D01*
X152484176Y-72095519D01*
X152678101Y-72170646D01*
X152733501Y-72213218D01*
X152757092Y-72278985D01*
X152741381Y-72347065D01*
X152691357Y-72395844D01*
X152678110Y-72401894D01*
X152530065Y-72459247D01*
X152484178Y-72477024D01*
X152484172Y-72477026D01*
X152295016Y-72594146D01*
X152295014Y-72594148D01*
X152130597Y-72744033D01*
X151996520Y-72921580D01*
X151996515Y-72921588D01*
X151897352Y-73120733D01*
X151897346Y-73120748D01*
X151836462Y-73334734D01*
X151836461Y-73334736D01*
X151815934Y-73556271D01*
X151815934Y-73556272D01*
X151836461Y-73777807D01*
X151836462Y-73777809D01*
X151897346Y-73991795D01*
X151897352Y-73991810D01*
X151996515Y-74190955D01*
X151996520Y-74190963D01*
X152130597Y-74368510D01*
X152295014Y-74518395D01*
X152295016Y-74518397D01*
X152484172Y-74635517D01*
X152484173Y-74635517D01*
X152484176Y-74635519D01*
X152678101Y-74710646D01*
X152733501Y-74753218D01*
X152757092Y-74818985D01*
X152741381Y-74887065D01*
X152691357Y-74935844D01*
X152678110Y-74941894D01*
X152530065Y-74999247D01*
X152484178Y-75017024D01*
X152484172Y-75017026D01*
X152295016Y-75134146D01*
X152295014Y-75134148D01*
X152130597Y-75284033D01*
X151996520Y-75461580D01*
X151996515Y-75461588D01*
X151897352Y-75660733D01*
X151897346Y-75660748D01*
X151836462Y-75874734D01*
X151836461Y-75874736D01*
X151815934Y-76096271D01*
X151815934Y-76096272D01*
X151836461Y-76317807D01*
X151836462Y-76317809D01*
X151897346Y-76531795D01*
X151897352Y-76531810D01*
X151996515Y-76730955D01*
X151996520Y-76730963D01*
X152130597Y-76908510D01*
X152295014Y-77058395D01*
X152295016Y-77058397D01*
X152484172Y-77175517D01*
X152484173Y-77175517D01*
X152484176Y-77175519D01*
X152678101Y-77250646D01*
X152733501Y-77293218D01*
X152757092Y-77358985D01*
X152741381Y-77427065D01*
X152691357Y-77475844D01*
X152678110Y-77481894D01*
X152530065Y-77539247D01*
X152484178Y-77557024D01*
X152484172Y-77557026D01*
X152295016Y-77674146D01*
X152295014Y-77674148D01*
X152130597Y-77824033D01*
X151996520Y-78001580D01*
X151996515Y-78001588D01*
X151897352Y-78200733D01*
X151897346Y-78200748D01*
X151836462Y-78414734D01*
X151836461Y-78414736D01*
X151815934Y-78636271D01*
X151815934Y-78636272D01*
X151836461Y-78857807D01*
X151836462Y-78857809D01*
X151897346Y-79071795D01*
X151897352Y-79071810D01*
X151996515Y-79270955D01*
X151996520Y-79270963D01*
X152130597Y-79448510D01*
X152295014Y-79598395D01*
X152295016Y-79598397D01*
X152484172Y-79715517D01*
X152484173Y-79715517D01*
X152484176Y-79715519D01*
X152678792Y-79790914D01*
X152734191Y-79833485D01*
X152757782Y-79899252D01*
X152742071Y-79967332D01*
X152692047Y-80016111D01*
X152678790Y-80022165D01*
X152484410Y-80097468D01*
X152484400Y-80097473D01*
X152368248Y-80169391D01*
X152837710Y-80638852D01*
X152871195Y-80700175D01*
X152866211Y-80769866D01*
X152824340Y-80825800D01*
X152806325Y-80837017D01*
X152783533Y-80848630D01*
X152783526Y-80848635D01*
X152693940Y-80938221D01*
X152693935Y-80938228D01*
X152682322Y-80961020D01*
X152634347Y-81011816D01*
X152566526Y-81028610D01*
X152500391Y-81006072D01*
X152484157Y-80992405D01*
X152012715Y-80520963D01*
X152012714Y-80520963D01*
X151996945Y-80541846D01*
X151897817Y-80740921D01*
X151836955Y-80954832D01*
X151816436Y-81176271D01*
X151816436Y-81176272D01*
X151836955Y-81397711D01*
X151897817Y-81611622D01*
X151996946Y-81810700D01*
X152012714Y-81831580D01*
X152012715Y-81831580D01*
X152484157Y-81360138D01*
X152545480Y-81326653D01*
X152615171Y-81331637D01*
X152671105Y-81373508D01*
X152682319Y-81391518D01*
X152693936Y-81414317D01*
X152693938Y-81414319D01*
X152693940Y-81414322D01*
X152783526Y-81503908D01*
X152783528Y-81503909D01*
X152783532Y-81503913D01*
X152806324Y-81515526D01*
X152857119Y-81563500D01*
X152873914Y-81631321D01*
X152851376Y-81697456D01*
X152837709Y-81713691D01*
X152368248Y-82183151D01*
X152368249Y-82183152D01*
X152484398Y-82255069D01*
X152484399Y-82255070D01*
X152678790Y-82330377D01*
X152734191Y-82372950D01*
X152757782Y-82438717D01*
X152742071Y-82506797D01*
X152692047Y-82555576D01*
X152678790Y-82561631D01*
X152484178Y-82637023D01*
X152484172Y-82637026D01*
X152295016Y-82754146D01*
X152295014Y-82754148D01*
X152130597Y-82904033D01*
X151996520Y-83081580D01*
X151996515Y-83081588D01*
X151897352Y-83280733D01*
X151897346Y-83280748D01*
X151836462Y-83494734D01*
X151836461Y-83494736D01*
X151815934Y-83716271D01*
X151815934Y-83716272D01*
X151836461Y-83937807D01*
X151836462Y-83937809D01*
X151897346Y-84151795D01*
X151897352Y-84151810D01*
X151996515Y-84350955D01*
X151996520Y-84350963D01*
X152130597Y-84528510D01*
X152295014Y-84678395D01*
X152295016Y-84678397D01*
X152484172Y-84795517D01*
X152484173Y-84795517D01*
X152484176Y-84795519D01*
X152678101Y-84870646D01*
X152733501Y-84913218D01*
X152757092Y-84978985D01*
X152741381Y-85047065D01*
X152691357Y-85095844D01*
X152678110Y-85101894D01*
X152530065Y-85159247D01*
X152484178Y-85177024D01*
X152484172Y-85177026D01*
X152295016Y-85294146D01*
X152295014Y-85294148D01*
X152130597Y-85444033D01*
X151996520Y-85621580D01*
X151996515Y-85621588D01*
X151897352Y-85820733D01*
X151897346Y-85820748D01*
X151836462Y-86034734D01*
X151836461Y-86034736D01*
X151815934Y-86256271D01*
X151815934Y-86256272D01*
X151836461Y-86477807D01*
X151836462Y-86477809D01*
X151897346Y-86691795D01*
X151897352Y-86691810D01*
X151996515Y-86890955D01*
X151996520Y-86890963D01*
X152130597Y-87068510D01*
X152295014Y-87218395D01*
X152295016Y-87218397D01*
X152484172Y-87335517D01*
X152484173Y-87335517D01*
X152484176Y-87335519D01*
X152678101Y-87410646D01*
X152733501Y-87453218D01*
X152757092Y-87518985D01*
X152741381Y-87587065D01*
X152691357Y-87635844D01*
X152678110Y-87641894D01*
X152530065Y-87699247D01*
X152484178Y-87717024D01*
X152484172Y-87717026D01*
X152295016Y-87834146D01*
X152295014Y-87834148D01*
X152130597Y-87984033D01*
X151996520Y-88161580D01*
X151996515Y-88161588D01*
X151897352Y-88360733D01*
X151897346Y-88360748D01*
X151836462Y-88574734D01*
X151836461Y-88574736D01*
X151815934Y-88796271D01*
X151815934Y-88796272D01*
X151836461Y-89017807D01*
X151836462Y-89017809D01*
X151897346Y-89231795D01*
X151897352Y-89231810D01*
X151996515Y-89430955D01*
X151996520Y-89430963D01*
X152130597Y-89608510D01*
X152295014Y-89758395D01*
X152295016Y-89758397D01*
X152484172Y-89875517D01*
X152484173Y-89875517D01*
X152484176Y-89875519D01*
X152691637Y-89955890D01*
X152910334Y-89996772D01*
X152910336Y-89996772D01*
X153132818Y-89996772D01*
X153132820Y-89996772D01*
X153351517Y-89955890D01*
X153558978Y-89875519D01*
X153748139Y-89758396D01*
X153912558Y-89608508D01*
X154046635Y-89430961D01*
X154145806Y-89231800D01*
X154172311Y-89138643D01*
X154209590Y-89079550D01*
X154272900Y-89049993D01*
X154342139Y-89059355D01*
X154395326Y-89104665D01*
X154410843Y-89138644D01*
X154437346Y-89231795D01*
X154437352Y-89231810D01*
X154536515Y-89430955D01*
X154536520Y-89430963D01*
X154670597Y-89608510D01*
X154835014Y-89758395D01*
X154835016Y-89758397D01*
X155024172Y-89875517D01*
X155024173Y-89875517D01*
X155024176Y-89875519D01*
X155231637Y-89955890D01*
X155450334Y-89996772D01*
X155450336Y-89996772D01*
X155672818Y-89996772D01*
X155672820Y-89996772D01*
X155891517Y-89955890D01*
X156098978Y-89875519D01*
X156288139Y-89758396D01*
X156452558Y-89608508D01*
X156586635Y-89430961D01*
X156685806Y-89231800D01*
X156746692Y-89017808D01*
X156767220Y-88796272D01*
X156746692Y-88574736D01*
X156685806Y-88360744D01*
X156685801Y-88360733D01*
X156586638Y-88161588D01*
X156586633Y-88161580D01*
X156452556Y-87984033D01*
X156288139Y-87834148D01*
X156288137Y-87834146D01*
X156098981Y-87717026D01*
X156098972Y-87717022D01*
X156005533Y-87680824D01*
X155905052Y-87641897D01*
X155849652Y-87599326D01*
X155826061Y-87533560D01*
X155841772Y-87465479D01*
X155891796Y-87416700D01*
X155905043Y-87410649D01*
X156098978Y-87335519D01*
X156288139Y-87218396D01*
X156452558Y-87068508D01*
X156586635Y-86890961D01*
X156685806Y-86691800D01*
X156746692Y-86477808D01*
X156767220Y-86256272D01*
X156746692Y-86034736D01*
X156685806Y-85820744D01*
X156685801Y-85820733D01*
X156586638Y-85621588D01*
X156586633Y-85621580D01*
X156452556Y-85444033D01*
X156288139Y-85294148D01*
X156288137Y-85294146D01*
X156098981Y-85177026D01*
X156098972Y-85177022D01*
X156005533Y-85140824D01*
X155905052Y-85101897D01*
X155849652Y-85059326D01*
X155826061Y-84993560D01*
X155841772Y-84925479D01*
X155891796Y-84876700D01*
X155905043Y-84870649D01*
X156098978Y-84795519D01*
X156288139Y-84678396D01*
X156452558Y-84528508D01*
X156586635Y-84350961D01*
X156685806Y-84151800D01*
X156746692Y-83937808D01*
X156767220Y-83716272D01*
X156746692Y-83494736D01*
X156685806Y-83280744D01*
X156685801Y-83280733D01*
X156586638Y-83081588D01*
X156586633Y-83081580D01*
X156452556Y-82904033D01*
X156288139Y-82754148D01*
X156288137Y-82754146D01*
X156098981Y-82637026D01*
X156098972Y-82637022D01*
X156005533Y-82600824D01*
X155905052Y-82561897D01*
X155849652Y-82519326D01*
X155826061Y-82453560D01*
X155841772Y-82385479D01*
X155891796Y-82336700D01*
X155905043Y-82330649D01*
X156098978Y-82255519D01*
X156288139Y-82138396D01*
X156452558Y-81988508D01*
X156586635Y-81810961D01*
X156685806Y-81611800D01*
X156746692Y-81397808D01*
X156767220Y-81176272D01*
X156750182Y-80992405D01*
X156746692Y-80954736D01*
X156746691Y-80954734D01*
X156741994Y-80938227D01*
X156685806Y-80740744D01*
X156685801Y-80740733D01*
X156586638Y-80541588D01*
X156586633Y-80541580D01*
X156452556Y-80364033D01*
X156288139Y-80214148D01*
X156288137Y-80214146D01*
X156098981Y-80097026D01*
X156098972Y-80097022D01*
X156005533Y-80060824D01*
X155905052Y-80021897D01*
X155849652Y-79979326D01*
X155826061Y-79913560D01*
X155841772Y-79845479D01*
X155891796Y-79796700D01*
X155905043Y-79790649D01*
X156098978Y-79715519D01*
X156288139Y-79598396D01*
X156452558Y-79448508D01*
X156586635Y-79270961D01*
X156685806Y-79071800D01*
X156746692Y-78857808D01*
X156767220Y-78636272D01*
X156746692Y-78414736D01*
X156685806Y-78200744D01*
X156685801Y-78200733D01*
X156586638Y-78001588D01*
X156586633Y-78001580D01*
X156452556Y-77824033D01*
X156288139Y-77674148D01*
X156288137Y-77674146D01*
X156098981Y-77557026D01*
X156098972Y-77557022D01*
X156005533Y-77520824D01*
X155905052Y-77481897D01*
X155849652Y-77439326D01*
X155826061Y-77373560D01*
X155841772Y-77305479D01*
X155891796Y-77256700D01*
X155905043Y-77250649D01*
X156098978Y-77175519D01*
X156288139Y-77058396D01*
X156452558Y-76908508D01*
X156586635Y-76730961D01*
X156685806Y-76531800D01*
X156746692Y-76317808D01*
X156767220Y-76096272D01*
X156746692Y-75874736D01*
X156685806Y-75660744D01*
X156685801Y-75660733D01*
X156586638Y-75461588D01*
X156586633Y-75461580D01*
X156452556Y-75284033D01*
X156288139Y-75134148D01*
X156288137Y-75134146D01*
X156098981Y-75017026D01*
X156098972Y-75017022D01*
X156005533Y-74980824D01*
X155905052Y-74941897D01*
X155849652Y-74899326D01*
X155826061Y-74833560D01*
X155841772Y-74765479D01*
X155891796Y-74716700D01*
X155905043Y-74710649D01*
X156098978Y-74635519D01*
X156288139Y-74518396D01*
X156452558Y-74368508D01*
X156586635Y-74190961D01*
X156685806Y-73991800D01*
X156746692Y-73777808D01*
X156767220Y-73556272D01*
X156746692Y-73334736D01*
X156685806Y-73120744D01*
X156685801Y-73120733D01*
X156586638Y-72921588D01*
X156586633Y-72921580D01*
X156452556Y-72744033D01*
X156288139Y-72594148D01*
X156288137Y-72594146D01*
X156098981Y-72477026D01*
X156098972Y-72477022D01*
X156005533Y-72440824D01*
X155905052Y-72401897D01*
X155849652Y-72359326D01*
X155826061Y-72293560D01*
X155841772Y-72225479D01*
X155891796Y-72176700D01*
X155905043Y-72170649D01*
X156098978Y-72095519D01*
X156288139Y-71978396D01*
X156452558Y-71828508D01*
X156586635Y-71650961D01*
X156685806Y-71451800D01*
X156746692Y-71237808D01*
X156767220Y-71016272D01*
X156746692Y-70794736D01*
X156685806Y-70580744D01*
X156685801Y-70580733D01*
X156586638Y-70381588D01*
X156586633Y-70381580D01*
X156452556Y-70204033D01*
X156288139Y-70054148D01*
X156288137Y-70054146D01*
X156098981Y-69937026D01*
X156098972Y-69937022D01*
X156005533Y-69900824D01*
X155905052Y-69861897D01*
X155849652Y-69819326D01*
X155826061Y-69753560D01*
X155841772Y-69685479D01*
X155891796Y-69636700D01*
X155905043Y-69630649D01*
X156098978Y-69555519D01*
X156288139Y-69438396D01*
X156452558Y-69288508D01*
X156586635Y-69110961D01*
X156685806Y-68911800D01*
X156746692Y-68697808D01*
X156767220Y-68476272D01*
X156746692Y-68254736D01*
X156685806Y-68040744D01*
X156685801Y-68040733D01*
X156586638Y-67841588D01*
X156586633Y-67841580D01*
X156452556Y-67664033D01*
X156288139Y-67514148D01*
X156288137Y-67514146D01*
X156098981Y-67397026D01*
X156098972Y-67397022D01*
X156005533Y-67360824D01*
X155905052Y-67321897D01*
X155849652Y-67279326D01*
X155826061Y-67213560D01*
X155841772Y-67145479D01*
X155891796Y-67096700D01*
X155905043Y-67090649D01*
X156098978Y-67015519D01*
X156288139Y-66898396D01*
X156452558Y-66748508D01*
X156586635Y-66570961D01*
X156685806Y-66371800D01*
X156746692Y-66157808D01*
X156767220Y-65936272D01*
X156746692Y-65714736D01*
X156685806Y-65500744D01*
X156685801Y-65500733D01*
X156586638Y-65301588D01*
X156586633Y-65301580D01*
X156452556Y-65124033D01*
X156300742Y-64985637D01*
X156264460Y-64925926D01*
X156266221Y-64856078D01*
X156305464Y-64798271D01*
X156369731Y-64770856D01*
X156384280Y-64770000D01*
X157480000Y-64770000D01*
X157480000Y-63500000D01*
X159804473Y-63500000D01*
X159824563Y-63832136D01*
X159824563Y-63832141D01*
X159824564Y-63832142D01*
X159884544Y-64159441D01*
X159884545Y-64159445D01*
X159884546Y-64159449D01*
X159983530Y-64477104D01*
X159983534Y-64477116D01*
X159983537Y-64477123D01*
X160120102Y-64780557D01*
X160292246Y-65065318D01*
X160292251Y-65065326D01*
X160497460Y-65327255D01*
X160732744Y-65562539D01*
X160994673Y-65767748D01*
X160994678Y-65767751D01*
X160994682Y-65767754D01*
X161279443Y-65939898D01*
X161582877Y-66076463D01*
X161582890Y-66076467D01*
X161582895Y-66076469D01*
X161794665Y-66142458D01*
X161900559Y-66175456D01*
X162227858Y-66235436D01*
X162380431Y-66244665D01*
X162476892Y-66250500D01*
X162476894Y-66250500D01*
X162643108Y-66250500D01*
X162705364Y-66246734D01*
X162892142Y-66235436D01*
X163219441Y-66175456D01*
X163537123Y-66076463D01*
X163840557Y-65939898D01*
X164125318Y-65767754D01*
X164387252Y-65562542D01*
X164622542Y-65327252D01*
X164827754Y-65065318D01*
X164999898Y-64780557D01*
X165136463Y-64477123D01*
X165235456Y-64159441D01*
X165295436Y-63832142D01*
X165315527Y-63500000D01*
X165295436Y-63167858D01*
X165235456Y-62840559D01*
X165136463Y-62522877D01*
X164999898Y-62219443D01*
X164827754Y-61934682D01*
X164827751Y-61934678D01*
X164827748Y-61934673D01*
X164622539Y-61672744D01*
X164387255Y-61437460D01*
X164125326Y-61232251D01*
X164125318Y-61232246D01*
X163840557Y-61060102D01*
X163537123Y-60923537D01*
X163537116Y-60923534D01*
X163537104Y-60923530D01*
X163219449Y-60824546D01*
X163219445Y-60824545D01*
X163219441Y-60824544D01*
X162892142Y-60764564D01*
X162892141Y-60764563D01*
X162892136Y-60764563D01*
X162643108Y-60749500D01*
X162643106Y-60749500D01*
X162476894Y-60749500D01*
X162476892Y-60749500D01*
X162227863Y-60764563D01*
X162227857Y-60764564D01*
X162227858Y-60764564D01*
X161900559Y-60824544D01*
X161900556Y-60824544D01*
X161900550Y-60824546D01*
X161582895Y-60923530D01*
X161582879Y-60923536D01*
X161582877Y-60923537D01*
X161389656Y-61010498D01*
X161279447Y-61060100D01*
X161279445Y-61060101D01*
X160994673Y-61232251D01*
X160732744Y-61437460D01*
X160497460Y-61672744D01*
X160292251Y-61934673D01*
X160120101Y-62219445D01*
X160120100Y-62219447D01*
X159983536Y-62522880D01*
X159983530Y-62522895D01*
X159884546Y-62840550D01*
X159824563Y-63167863D01*
X159804473Y-63500000D01*
X157480000Y-63500000D01*
X157480000Y-57274500D01*
X157499685Y-57207461D01*
X157552489Y-57161706D01*
X157604000Y-57150500D01*
X168785500Y-57150500D01*
X168852539Y-57170185D01*
X168898294Y-57222989D01*
X168909500Y-57274500D01*
X168909500Y-126876000D01*
X168889815Y-126943039D01*
X168837011Y-126988794D01*
X168785500Y-127000000D01*
X114424000Y-127000000D01*
X114356961Y-126980315D01*
X114311206Y-126927511D01*
X114300000Y-126876000D01*
X114300000Y-120980001D01*
X145269500Y-120980001D01*
X145269501Y-120980018D01*
X145280000Y-121082796D01*
X145280001Y-121082799D01*
X145335185Y-121249331D01*
X145335186Y-121249334D01*
X145427288Y-121398656D01*
X145551344Y-121522712D01*
X145700666Y-121614814D01*
X145867203Y-121669999D01*
X145969991Y-121680500D01*
X147370008Y-121680499D01*
X147472797Y-121669999D01*
X147639334Y-121614814D01*
X147788656Y-121522712D01*
X147912712Y-121398656D01*
X148004814Y-121249334D01*
X148059999Y-121082797D01*
X148070500Y-120980009D01*
X148070500Y-120339502D01*
X148769500Y-120339502D01*
X148784652Y-120517536D01*
X148844724Y-120748248D01*
X148942919Y-120965480D01*
X148942924Y-120965488D01*
X149076413Y-121162993D01*
X149076418Y-121162998D01*
X149076421Y-121163003D01*
X149241379Y-121335118D01*
X149433053Y-121476879D01*
X149645926Y-121584207D01*
X149873877Y-121654016D01*
X150110346Y-121684298D01*
X150348532Y-121674180D01*
X150581581Y-121623954D01*
X150802790Y-121535064D01*
X151005795Y-121410069D01*
X151184755Y-121252564D01*
X151334523Y-121067080D01*
X151450790Y-120858954D01*
X151530211Y-120634171D01*
X151550224Y-120517453D01*
X151570499Y-120399209D01*
X151570500Y-120399198D01*
X151570500Y-120339478D01*
X152270000Y-120339478D01*
X152285147Y-120517450D01*
X152285148Y-120517453D01*
X152345197Y-120748078D01*
X152443360Y-120965241D01*
X152443362Y-120965244D01*
X152576812Y-121162688D01*
X152576814Y-121162690D01*
X152741706Y-121334736D01*
X152933316Y-121476450D01*
X153146115Y-121583741D01*
X153373987Y-121653526D01*
X153373985Y-121653526D01*
X153420000Y-121659418D01*
X153420000Y-120093658D01*
X153439685Y-120026619D01*
X153492489Y-119980864D01*
X153560184Y-119970719D01*
X153630677Y-119980000D01*
X153630684Y-119980000D01*
X153709316Y-119980000D01*
X153709323Y-119980000D01*
X153779815Y-119970719D01*
X153848849Y-119981484D01*
X153901105Y-120027864D01*
X153920000Y-120093658D01*
X153920000Y-121658264D01*
X154081434Y-121623473D01*
X154302562Y-121534616D01*
X154505494Y-121409666D01*
X154684389Y-121252219D01*
X154684396Y-121252213D01*
X154834102Y-121066805D01*
X154834109Y-121066795D01*
X154950331Y-120858751D01*
X155029722Y-120634052D01*
X155029726Y-120634038D01*
X155069999Y-120399167D01*
X155070000Y-120399156D01*
X155070000Y-119630000D01*
X154383658Y-119630000D01*
X154316619Y-119610315D01*
X154270864Y-119557511D01*
X154260719Y-119489816D01*
X154275177Y-119380000D01*
X154260719Y-119270183D01*
X154271484Y-119201151D01*
X154317864Y-119148895D01*
X154383658Y-119130000D01*
X155070000Y-119130000D01*
X155070000Y-118420522D01*
X155054852Y-118242549D01*
X155054851Y-118242546D01*
X155020339Y-118110000D01*
X159804473Y-118110000D01*
X159824563Y-118442136D01*
X159824563Y-118442141D01*
X159824564Y-118442142D01*
X159884544Y-118769441D01*
X159884545Y-118769445D01*
X159884546Y-118769449D01*
X159983530Y-119087104D01*
X159983534Y-119087116D01*
X159983537Y-119087123D01*
X160120102Y-119390557D01*
X160272763Y-119643089D01*
X160292251Y-119675326D01*
X160497460Y-119937255D01*
X160732744Y-120172539D01*
X160994673Y-120377748D01*
X160994678Y-120377751D01*
X160994682Y-120377754D01*
X161279443Y-120549898D01*
X161582877Y-120686463D01*
X161582890Y-120686467D01*
X161582895Y-120686469D01*
X161780608Y-120748078D01*
X161900559Y-120785456D01*
X162227858Y-120845436D01*
X162405740Y-120856195D01*
X162476892Y-120860500D01*
X162476894Y-120860500D01*
X162643108Y-120860500D01*
X162705364Y-120856734D01*
X162892142Y-120845436D01*
X163219441Y-120785456D01*
X163537123Y-120686463D01*
X163840557Y-120549898D01*
X164125318Y-120377754D01*
X164174150Y-120339497D01*
X164332421Y-120215499D01*
X164387252Y-120172542D01*
X164622542Y-119937252D01*
X164822058Y-119682589D01*
X164827748Y-119675326D01*
X164827748Y-119675324D01*
X164827754Y-119675318D01*
X164999898Y-119390557D01*
X165136463Y-119087123D01*
X165235456Y-118769441D01*
X165295436Y-118442142D01*
X165315527Y-118110000D01*
X165295436Y-117777858D01*
X165235456Y-117450559D01*
X165153302Y-117186915D01*
X165136469Y-117132895D01*
X165136467Y-117132890D01*
X165136463Y-117132877D01*
X164999898Y-116829443D01*
X164827754Y-116544682D01*
X164827751Y-116544678D01*
X164827748Y-116544673D01*
X164622539Y-116282744D01*
X164387255Y-116047460D01*
X164125326Y-115842251D01*
X164125318Y-115842246D01*
X163840557Y-115670102D01*
X163537123Y-115533537D01*
X163537116Y-115533534D01*
X163537104Y-115533530D01*
X163219449Y-115434546D01*
X163219445Y-115434545D01*
X163219441Y-115434544D01*
X162892142Y-115374564D01*
X162892141Y-115374563D01*
X162892136Y-115374563D01*
X162643108Y-115359500D01*
X162643106Y-115359500D01*
X162476894Y-115359500D01*
X162476892Y-115359500D01*
X162227863Y-115374563D01*
X162227857Y-115374564D01*
X162227858Y-115374564D01*
X161900559Y-115434544D01*
X161900556Y-115434544D01*
X161900550Y-115434546D01*
X161582895Y-115533530D01*
X161582879Y-115533536D01*
X161582877Y-115533537D01*
X161389656Y-115620498D01*
X161279447Y-115670100D01*
X161279445Y-115670101D01*
X160994673Y-115842251D01*
X160732744Y-116047460D01*
X160497460Y-116282744D01*
X160292251Y-116544673D01*
X160120101Y-116829445D01*
X160120100Y-116829447D01*
X160070498Y-116939656D01*
X159997554Y-117101734D01*
X159983536Y-117132880D01*
X159983530Y-117132895D01*
X159884546Y-117450550D01*
X159884544Y-117450556D01*
X159884544Y-117450559D01*
X159839838Y-117694513D01*
X159824563Y-117777863D01*
X159804473Y-118110000D01*
X155020339Y-118110000D01*
X154994802Y-118011921D01*
X154896639Y-117794758D01*
X154896637Y-117794755D01*
X154763187Y-117597311D01*
X154763185Y-117597309D01*
X154598293Y-117425263D01*
X154406683Y-117283549D01*
X154193884Y-117176257D01*
X153966020Y-117106475D01*
X153919999Y-117100581D01*
X153920000Y-118666341D01*
X153900315Y-118733380D01*
X153847511Y-118779135D01*
X153779815Y-118789280D01*
X153709333Y-118780001D01*
X153709328Y-118780000D01*
X153709323Y-118780000D01*
X153630677Y-118780000D01*
X153630671Y-118780000D01*
X153630666Y-118780001D01*
X153560185Y-118789280D01*
X153491150Y-118778514D01*
X153438894Y-118732134D01*
X153420000Y-118666341D01*
X153420000Y-117101734D01*
X153419999Y-117101734D01*
X153258566Y-117136525D01*
X153037437Y-117225383D01*
X152834505Y-117350333D01*
X152655610Y-117507780D01*
X152655603Y-117507786D01*
X152505897Y-117693194D01*
X152505890Y-117693204D01*
X152389668Y-117901248D01*
X152310277Y-118125947D01*
X152310273Y-118125961D01*
X152270000Y-118360832D01*
X152270000Y-119130000D01*
X152956342Y-119130000D01*
X153023381Y-119149685D01*
X153069136Y-119202489D01*
X153079280Y-119270183D01*
X153064823Y-119380000D01*
X153079280Y-119489816D01*
X153068516Y-119558849D01*
X153022136Y-119611105D01*
X152956342Y-119630000D01*
X152270000Y-119630000D01*
X152270000Y-120339478D01*
X151570500Y-120339478D01*
X151570500Y-118420498D01*
X151555347Y-118242463D01*
X151495275Y-118011751D01*
X151397080Y-117794519D01*
X151397075Y-117794511D01*
X151263586Y-117597006D01*
X151263582Y-117597001D01*
X151263579Y-117596997D01*
X151098621Y-117424882D01*
X151062517Y-117398180D01*
X150997824Y-117350333D01*
X150906947Y-117283121D01*
X150694074Y-117175793D01*
X150553948Y-117132880D01*
X150466121Y-117105983D01*
X150229647Y-117075701D01*
X149991471Y-117085819D01*
X149991467Y-117085819D01*
X149758419Y-117136045D01*
X149537211Y-117224935D01*
X149334203Y-117349932D01*
X149155245Y-117507435D01*
X149082676Y-117597311D01*
X149005477Y-117692920D01*
X149002521Y-117698212D01*
X148889210Y-117901044D01*
X148809788Y-118125829D01*
X148769500Y-118360790D01*
X148769500Y-120339502D01*
X148070500Y-120339502D01*
X148070499Y-117779992D01*
X148061632Y-117693194D01*
X148059999Y-117677203D01*
X148059998Y-117677200D01*
X148044960Y-117631818D01*
X148004814Y-117510666D01*
X147912712Y-117361344D01*
X147788656Y-117237288D01*
X147639334Y-117145186D01*
X147472797Y-117090001D01*
X147472795Y-117090000D01*
X147370010Y-117079500D01*
X145969998Y-117079500D01*
X145969981Y-117079501D01*
X145867203Y-117090000D01*
X145867200Y-117090001D01*
X145700668Y-117145185D01*
X145700663Y-117145187D01*
X145551342Y-117237289D01*
X145427289Y-117361342D01*
X145335187Y-117510663D01*
X145335185Y-117510666D01*
X145335186Y-117510666D01*
X145280001Y-117677203D01*
X145280001Y-117677204D01*
X145280000Y-117677204D01*
X145269500Y-117779983D01*
X145269500Y-120980001D01*
X114300000Y-120980001D01*
X114300000Y-118110000D01*
X117894473Y-118110000D01*
X117914563Y-118442136D01*
X117914563Y-118442141D01*
X117914564Y-118442142D01*
X117974544Y-118769441D01*
X117974545Y-118769445D01*
X117974546Y-118769449D01*
X118073530Y-119087104D01*
X118073534Y-119087116D01*
X118073537Y-119087123D01*
X118210102Y-119390557D01*
X118362763Y-119643089D01*
X118382251Y-119675326D01*
X118587460Y-119937255D01*
X118822744Y-120172539D01*
X119084673Y-120377748D01*
X119084678Y-120377751D01*
X119084682Y-120377754D01*
X119369443Y-120549898D01*
X119672877Y-120686463D01*
X119672890Y-120686467D01*
X119672895Y-120686469D01*
X119870608Y-120748078D01*
X119990559Y-120785456D01*
X120317858Y-120845436D01*
X120495740Y-120856195D01*
X120566892Y-120860500D01*
X120566894Y-120860500D01*
X120733108Y-120860500D01*
X120795365Y-120856734D01*
X120982142Y-120845436D01*
X121309441Y-120785456D01*
X121627123Y-120686463D01*
X121930557Y-120549898D01*
X122215318Y-120377754D01*
X122264150Y-120339497D01*
X122422421Y-120215499D01*
X122477252Y-120172542D01*
X122712542Y-119937252D01*
X122849162Y-119762870D01*
X127899500Y-119762870D01*
X127899501Y-119762876D01*
X127905908Y-119822483D01*
X127956202Y-119957328D01*
X127956206Y-119957335D01*
X128042452Y-120072544D01*
X128042455Y-120072547D01*
X128157664Y-120158793D01*
X128157671Y-120158797D01*
X128292517Y-120209091D01*
X128292516Y-120209091D01*
X128299444Y-120209835D01*
X128352127Y-120215500D01*
X131047872Y-120215499D01*
X131107483Y-120209091D01*
X131242331Y-120158796D01*
X131357546Y-120072546D01*
X131443796Y-119957331D01*
X131494091Y-119822483D01*
X131500500Y-119762873D01*
X131500500Y-118415004D01*
X132894451Y-118415004D01*
X132914616Y-118684101D01*
X132974664Y-118947188D01*
X132974666Y-118947195D01*
X133025772Y-119077411D01*
X133073257Y-119198398D01*
X133208185Y-119432102D01*
X133308196Y-119557511D01*
X133376442Y-119643089D01*
X133554094Y-119807925D01*
X133574259Y-119826635D01*
X133797226Y-119978651D01*
X134040359Y-120095738D01*
X134298228Y-120175280D01*
X134298229Y-120175280D01*
X134298232Y-120175281D01*
X134565063Y-120215499D01*
X134565068Y-120215499D01*
X134565071Y-120215500D01*
X134565072Y-120215500D01*
X134834928Y-120215500D01*
X134834929Y-120215500D01*
X134834936Y-120215499D01*
X135101767Y-120175281D01*
X135101768Y-120175280D01*
X135101772Y-120175280D01*
X135359641Y-120095738D01*
X135602775Y-119978651D01*
X135825741Y-119826635D01*
X135980987Y-119682588D01*
X136023557Y-119643089D01*
X136023557Y-119643087D01*
X136023561Y-119643085D01*
X136191815Y-119432102D01*
X136326743Y-119198398D01*
X136425334Y-118947195D01*
X136485383Y-118684103D01*
X136503515Y-118442142D01*
X136505549Y-118415004D01*
X137894953Y-118415004D01*
X137915113Y-118684026D01*
X137915113Y-118684028D01*
X137975142Y-118947033D01*
X137975148Y-118947052D01*
X138073709Y-119198181D01*
X138073708Y-119198181D01*
X138208602Y-119431822D01*
X138262294Y-119499151D01*
X138982331Y-118779114D01*
X139043654Y-118745629D01*
X139113345Y-118750613D01*
X139169279Y-118792485D01*
X139174707Y-118800350D01*
X139195187Y-118832620D01*
X139195188Y-118832621D01*
X139314904Y-118945041D01*
X139318266Y-118947484D01*
X139320264Y-118950074D01*
X139320590Y-118950381D01*
X139320540Y-118950433D01*
X139360934Y-119002812D01*
X139366915Y-119072425D01*
X139334311Y-119134221D01*
X139333065Y-119135485D01*
X138614848Y-119853702D01*
X138797483Y-119978220D01*
X138797485Y-119978221D01*
X139040539Y-120095269D01*
X139040537Y-120095269D01*
X139298337Y-120174790D01*
X139298343Y-120174792D01*
X139565101Y-120214999D01*
X139565110Y-120215000D01*
X139834890Y-120215000D01*
X139834898Y-120214999D01*
X140101656Y-120174792D01*
X140101662Y-120174790D01*
X140359461Y-120095269D01*
X140602521Y-119978218D01*
X140785150Y-119853702D01*
X140063234Y-119131787D01*
X140029749Y-119070464D01*
X140034733Y-119000773D01*
X140076605Y-118944839D01*
X140077953Y-118943844D01*
X140148492Y-118892595D01*
X140234871Y-118788180D01*
X140292768Y-118749074D01*
X140362620Y-118747478D01*
X140418094Y-118779541D01*
X141137703Y-119499151D01*
X141137704Y-119499150D01*
X141191393Y-119431828D01*
X141191400Y-119431817D01*
X141326290Y-119198181D01*
X141424851Y-118947052D01*
X141424857Y-118947033D01*
X141484886Y-118684028D01*
X141484886Y-118684026D01*
X141505047Y-118415004D01*
X141505047Y-118414995D01*
X141484886Y-118145973D01*
X141484886Y-118145971D01*
X141424857Y-117882966D01*
X141424851Y-117882947D01*
X141326290Y-117631818D01*
X141326291Y-117631818D01*
X141191397Y-117398177D01*
X141137704Y-117330847D01*
X140417667Y-118050884D01*
X140356344Y-118084369D01*
X140286652Y-118079385D01*
X140230719Y-118037513D01*
X140225290Y-118029646D01*
X140213933Y-118011751D01*
X140204814Y-117997381D01*
X140140942Y-117937402D01*
X140085097Y-117884960D01*
X140081732Y-117882515D01*
X140079731Y-117879920D01*
X140079410Y-117879619D01*
X140079458Y-117879567D01*
X140039064Y-117827187D01*
X140033082Y-117757574D01*
X140065685Y-117695778D01*
X140066932Y-117694513D01*
X140785150Y-116976296D01*
X140602517Y-116851779D01*
X140602516Y-116851778D01*
X140359460Y-116734730D01*
X140359462Y-116734730D01*
X140101662Y-116655209D01*
X140101656Y-116655207D01*
X139834898Y-116615000D01*
X139565101Y-116615000D01*
X139298343Y-116655207D01*
X139298337Y-116655209D01*
X139040538Y-116734730D01*
X138797485Y-116851778D01*
X138797476Y-116851783D01*
X138614848Y-116976296D01*
X139336765Y-117698212D01*
X139370250Y-117759535D01*
X139365266Y-117829226D01*
X139323394Y-117885160D01*
X139321970Y-117886210D01*
X139251510Y-117937402D01*
X139251508Y-117937405D01*
X139165130Y-118041818D01*
X139107230Y-118080925D01*
X139037378Y-118082521D01*
X138981905Y-118050458D01*
X138262295Y-117330848D01*
X138208600Y-117398180D01*
X138073709Y-117631818D01*
X137975148Y-117882947D01*
X137975142Y-117882966D01*
X137915113Y-118145971D01*
X137915113Y-118145973D01*
X137894953Y-118414995D01*
X137894953Y-118415004D01*
X136505549Y-118415004D01*
X136505549Y-118414995D01*
X136485389Y-118145973D01*
X136485383Y-118145897D01*
X136425334Y-117882805D01*
X136326743Y-117631602D01*
X136191815Y-117397898D01*
X136023561Y-117186915D01*
X136023560Y-117186914D01*
X136023557Y-117186910D01*
X135825741Y-117003365D01*
X135786038Y-116976296D01*
X135602775Y-116851349D01*
X135602769Y-116851346D01*
X135602768Y-116851345D01*
X135602767Y-116851344D01*
X135359643Y-116734263D01*
X135359645Y-116734263D01*
X135101773Y-116654720D01*
X135101767Y-116654718D01*
X134834936Y-116614500D01*
X134834929Y-116614500D01*
X134565071Y-116614500D01*
X134565063Y-116614500D01*
X134298232Y-116654718D01*
X134298226Y-116654720D01*
X134040358Y-116734262D01*
X133797230Y-116851346D01*
X133574258Y-117003365D01*
X133376442Y-117186910D01*
X133208185Y-117397898D01*
X133073258Y-117631599D01*
X133073256Y-117631603D01*
X132974666Y-117882804D01*
X132974664Y-117882811D01*
X132914616Y-118145898D01*
X132894451Y-118414995D01*
X132894451Y-118415004D01*
X131500500Y-118415004D01*
X131500499Y-117067128D01*
X131494091Y-117007517D01*
X131492542Y-117003365D01*
X131443797Y-116872671D01*
X131443793Y-116872664D01*
X131357547Y-116757455D01*
X131357544Y-116757452D01*
X131242335Y-116671206D01*
X131242328Y-116671202D01*
X131107482Y-116620908D01*
X131107483Y-116620908D01*
X131047883Y-116614501D01*
X131047881Y-116614500D01*
X131047873Y-116614500D01*
X131047864Y-116614500D01*
X128352129Y-116614500D01*
X128352123Y-116614501D01*
X128292516Y-116620908D01*
X128157671Y-116671202D01*
X128157664Y-116671206D01*
X128042455Y-116757452D01*
X128042452Y-116757455D01*
X127956206Y-116872664D01*
X127956202Y-116872671D01*
X127905908Y-117007517D01*
X127899501Y-117067116D01*
X127899501Y-117067123D01*
X127899500Y-117067135D01*
X127899500Y-119762870D01*
X122849162Y-119762870D01*
X122912058Y-119682589D01*
X122917748Y-119675326D01*
X122917748Y-119675324D01*
X122917754Y-119675318D01*
X123089898Y-119390557D01*
X123226463Y-119087123D01*
X123325456Y-118769441D01*
X123385436Y-118442142D01*
X123405527Y-118110000D01*
X123385436Y-117777858D01*
X123325456Y-117450559D01*
X123243302Y-117186915D01*
X123226469Y-117132895D01*
X123226467Y-117132890D01*
X123226463Y-117132877D01*
X123089898Y-116829443D01*
X122917754Y-116544682D01*
X122917751Y-116544678D01*
X122917748Y-116544673D01*
X122712539Y-116282744D01*
X122477255Y-116047460D01*
X122215326Y-115842251D01*
X122215318Y-115842246D01*
X121930557Y-115670102D01*
X121627123Y-115533537D01*
X121627116Y-115533534D01*
X121627104Y-115533530D01*
X121309449Y-115434546D01*
X121309445Y-115434545D01*
X121309441Y-115434544D01*
X120982142Y-115374564D01*
X120982141Y-115374563D01*
X120982136Y-115374563D01*
X120733108Y-115359500D01*
X120733106Y-115359500D01*
X120566894Y-115359500D01*
X120566892Y-115359500D01*
X120317863Y-115374563D01*
X120317857Y-115374564D01*
X120317858Y-115374564D01*
X119990559Y-115434544D01*
X119990556Y-115434544D01*
X119990550Y-115434546D01*
X119672895Y-115533530D01*
X119672879Y-115533536D01*
X119672877Y-115533537D01*
X119479656Y-115620498D01*
X119369447Y-115670100D01*
X119369445Y-115670101D01*
X119084673Y-115842251D01*
X118822744Y-116047460D01*
X118587460Y-116282744D01*
X118382251Y-116544673D01*
X118210101Y-116829445D01*
X118210100Y-116829447D01*
X118160498Y-116939656D01*
X118087554Y-117101734D01*
X118073536Y-117132880D01*
X118073530Y-117132895D01*
X117974546Y-117450550D01*
X117974544Y-117450556D01*
X117974544Y-117450559D01*
X117929838Y-117694513D01*
X117914563Y-117777863D01*
X117894473Y-118110000D01*
X114300000Y-118110000D01*
X114300000Y-112657870D01*
X145969500Y-112657870D01*
X145969501Y-112657876D01*
X145975908Y-112717483D01*
X146026202Y-112852328D01*
X146026206Y-112852335D01*
X146112452Y-112967544D01*
X146112455Y-112967547D01*
X146227664Y-113053793D01*
X146227671Y-113053797D01*
X146362517Y-113104091D01*
X146362516Y-113104091D01*
X146369444Y-113104835D01*
X146422127Y-113110500D01*
X148217872Y-113110499D01*
X148277483Y-113104091D01*
X148412331Y-113053796D01*
X148527546Y-112967546D01*
X148613796Y-112852331D01*
X148662810Y-112720916D01*
X148704681Y-112664984D01*
X148770145Y-112640566D01*
X148838418Y-112655417D01*
X148866673Y-112676569D01*
X148988599Y-112798495D01*
X149085384Y-112866264D01*
X149182165Y-112934032D01*
X149182167Y-112934033D01*
X149182170Y-112934035D01*
X149396337Y-113033903D01*
X149624592Y-113095063D01*
X149801034Y-113110500D01*
X149859999Y-113115659D01*
X149860000Y-113115659D01*
X149860001Y-113115659D01*
X149918966Y-113110500D01*
X150095408Y-113095063D01*
X150323663Y-113033903D01*
X150537830Y-112934035D01*
X150731401Y-112798495D01*
X150898495Y-112631401D01*
X151028730Y-112445405D01*
X151083307Y-112401781D01*
X151152805Y-112394587D01*
X151215160Y-112426110D01*
X151231879Y-112445405D01*
X151361890Y-112631078D01*
X151528917Y-112798105D01*
X151722421Y-112933600D01*
X151936507Y-113033429D01*
X151936516Y-113033433D01*
X152150000Y-113090634D01*
X152150000Y-112372301D01*
X152169685Y-112305262D01*
X152222489Y-112259507D01*
X152291647Y-112249563D01*
X152364237Y-112260000D01*
X152364238Y-112260000D01*
X152435762Y-112260000D01*
X152435763Y-112260000D01*
X152508353Y-112249563D01*
X152577512Y-112259507D01*
X152630315Y-112305262D01*
X152650000Y-112372301D01*
X152650000Y-113090633D01*
X152863483Y-113033433D01*
X152863492Y-113033429D01*
X153077578Y-112933600D01*
X153271082Y-112798105D01*
X153438105Y-112631082D01*
X153573600Y-112437578D01*
X153673429Y-112223492D01*
X153673432Y-112223486D01*
X153730636Y-112010000D01*
X153013347Y-112010000D01*
X152946308Y-111990315D01*
X152900553Y-111937511D01*
X152890609Y-111868353D01*
X152894369Y-111851067D01*
X152900000Y-111831888D01*
X152900000Y-111688111D01*
X152894369Y-111668933D01*
X152894370Y-111599064D01*
X152932145Y-111540286D01*
X152995701Y-111511262D01*
X153013347Y-111510000D01*
X153730636Y-111510000D01*
X153730635Y-111509999D01*
X153673432Y-111296513D01*
X153673429Y-111296507D01*
X153573600Y-111082422D01*
X153573599Y-111082420D01*
X153438113Y-110888926D01*
X153438108Y-110888920D01*
X153271082Y-110721894D01*
X153077578Y-110586399D01*
X152863492Y-110486570D01*
X152863486Y-110486567D01*
X152650000Y-110429364D01*
X152650000Y-111147698D01*
X152630315Y-111214737D01*
X152577511Y-111260492D01*
X152508355Y-111270436D01*
X152435766Y-111260000D01*
X152435763Y-111260000D01*
X152364237Y-111260000D01*
X152364233Y-111260000D01*
X152291645Y-111270436D01*
X152222487Y-111260492D01*
X152169684Y-111214736D01*
X152150000Y-111147698D01*
X152150000Y-110429364D01*
X152149999Y-110429364D01*
X151936513Y-110486567D01*
X151936507Y-110486570D01*
X151722422Y-110586399D01*
X151722420Y-110586400D01*
X151528926Y-110721886D01*
X151528920Y-110721891D01*
X151361891Y-110888920D01*
X151361890Y-110888922D01*
X151231880Y-111074595D01*
X151177303Y-111118219D01*
X151107804Y-111125412D01*
X151045450Y-111093890D01*
X151028730Y-111074594D01*
X150898494Y-110888597D01*
X150731402Y-110721506D01*
X150731395Y-110721501D01*
X150537834Y-110585967D01*
X150537830Y-110585965D01*
X150537828Y-110585964D01*
X150323663Y-110486097D01*
X150323659Y-110486096D01*
X150323655Y-110486094D01*
X150095413Y-110424938D01*
X150095403Y-110424936D01*
X149860001Y-110404341D01*
X149859999Y-110404341D01*
X149624596Y-110424936D01*
X149624586Y-110424938D01*
X149396344Y-110486094D01*
X149396335Y-110486098D01*
X149182171Y-110585964D01*
X149182169Y-110585965D01*
X148988600Y-110721503D01*
X148866673Y-110843430D01*
X148805350Y-110876914D01*
X148735658Y-110871930D01*
X148679725Y-110830058D01*
X148662810Y-110799081D01*
X148613797Y-110667671D01*
X148613793Y-110667664D01*
X148527547Y-110552455D01*
X148527544Y-110552452D01*
X148412335Y-110466206D01*
X148412328Y-110466202D01*
X148277482Y-110415908D01*
X148277483Y-110415908D01*
X148217883Y-110409501D01*
X148217881Y-110409500D01*
X148217873Y-110409500D01*
X148217864Y-110409500D01*
X146422129Y-110409500D01*
X146422123Y-110409501D01*
X146362516Y-110415908D01*
X146227671Y-110466202D01*
X146227664Y-110466206D01*
X146112455Y-110552452D01*
X146112452Y-110552455D01*
X146026206Y-110667664D01*
X146026202Y-110667671D01*
X145975908Y-110802517D01*
X145969501Y-110862116D01*
X145969500Y-110862135D01*
X145969500Y-112657870D01*
X114300000Y-112657870D01*
X114300000Y-63499999D01*
X117894473Y-63499999D01*
X117914563Y-63832136D01*
X117914563Y-63832141D01*
X117914564Y-63832142D01*
X117974544Y-64159441D01*
X117974545Y-64159445D01*
X117974546Y-64159449D01*
X118073530Y-64477104D01*
X118073534Y-64477116D01*
X118073537Y-64477123D01*
X118210102Y-64780557D01*
X118382246Y-65065318D01*
X118382251Y-65065326D01*
X118587460Y-65327255D01*
X118822744Y-65562539D01*
X119084673Y-65767748D01*
X119084678Y-65767751D01*
X119084682Y-65767754D01*
X119369443Y-65939898D01*
X119672877Y-66076463D01*
X119672890Y-66076467D01*
X119672895Y-66076469D01*
X119884664Y-66142458D01*
X119990559Y-66175456D01*
X120317858Y-66235436D01*
X120470431Y-66244665D01*
X120566892Y-66250500D01*
X120566894Y-66250500D01*
X120733108Y-66250500D01*
X120795365Y-66246734D01*
X120982142Y-66235436D01*
X121309441Y-66175456D01*
X121627123Y-66076463D01*
X121930557Y-65939898D01*
X122215318Y-65767754D01*
X122477252Y-65562542D01*
X122712542Y-65327252D01*
X122917754Y-65065318D01*
X123089898Y-64780557D01*
X123226463Y-64477123D01*
X123325456Y-64159441D01*
X123385436Y-63832142D01*
X123405527Y-63500000D01*
X123385436Y-63167858D01*
X123325456Y-62840559D01*
X123226463Y-62522877D01*
X123089898Y-62219443D01*
X122917754Y-61934682D01*
X122917751Y-61934678D01*
X122917748Y-61934673D01*
X122712539Y-61672744D01*
X122477255Y-61437460D01*
X122215326Y-61232251D01*
X122215318Y-61232246D01*
X121930557Y-61060102D01*
X121627123Y-60923537D01*
X121627116Y-60923534D01*
X121627104Y-60923530D01*
X121309449Y-60824546D01*
X121309445Y-60824545D01*
X121309441Y-60824544D01*
X120982142Y-60764564D01*
X120982141Y-60764563D01*
X120982136Y-60764563D01*
X120733108Y-60749500D01*
X120733106Y-60749500D01*
X120566894Y-60749500D01*
X120566892Y-60749500D01*
X120317863Y-60764563D01*
X120317857Y-60764564D01*
X120317858Y-60764564D01*
X119990559Y-60824544D01*
X119990556Y-60824544D01*
X119990550Y-60824546D01*
X119672895Y-60923530D01*
X119672879Y-60923536D01*
X119672877Y-60923537D01*
X119479656Y-61010498D01*
X119369447Y-61060100D01*
X119369445Y-61060101D01*
X119084673Y-61232251D01*
X118822744Y-61437460D01*
X118587460Y-61672744D01*
X118382251Y-61934673D01*
X118210101Y-62219445D01*
X118210100Y-62219447D01*
X118073536Y-62522880D01*
X118073530Y-62522895D01*
X117974546Y-62840550D01*
X117914563Y-63167863D01*
X117894473Y-63499999D01*
X114300000Y-63499999D01*
X114300000Y-57274500D01*
X114319685Y-57207461D01*
X114372489Y-57161706D01*
X114424000Y-57150500D01*
X125606000Y-57150500D01*
X125673039Y-57170185D01*
G37*
%TD.AperFunction*%
%TA.AperFunction,Conductor*%
G36*
X153542758Y-81346469D02*
G01*
X153558996Y-81360138D01*
X154030438Y-81831580D01*
X154046208Y-81810697D01*
X154046210Y-81810694D01*
X154145337Y-81611621D01*
X154172050Y-81517733D01*
X154209329Y-81458639D01*
X154272638Y-81429081D01*
X154341878Y-81438442D01*
X154395065Y-81483752D01*
X154410583Y-81517731D01*
X154437347Y-81611797D01*
X154437352Y-81611810D01*
X154536515Y-81810955D01*
X154536520Y-81810963D01*
X154670597Y-81988510D01*
X154835014Y-82138395D01*
X154835016Y-82138397D01*
X155024172Y-82255517D01*
X155024173Y-82255517D01*
X155024176Y-82255519D01*
X155218101Y-82330646D01*
X155273501Y-82373218D01*
X155297092Y-82438985D01*
X155281381Y-82507065D01*
X155231357Y-82555844D01*
X155218110Y-82561894D01*
X155070065Y-82619247D01*
X155024178Y-82637024D01*
X155024172Y-82637026D01*
X154835016Y-82754146D01*
X154835014Y-82754148D01*
X154670597Y-82904033D01*
X154536520Y-83081580D01*
X154536515Y-83081588D01*
X154437352Y-83280733D01*
X154437346Y-83280748D01*
X154410843Y-83373899D01*
X154373564Y-83432993D01*
X154310254Y-83462550D01*
X154241015Y-83453188D01*
X154187828Y-83407878D01*
X154172311Y-83373899D01*
X154145807Y-83280748D01*
X154145806Y-83280744D01*
X154145801Y-83280733D01*
X154046638Y-83081588D01*
X154046633Y-83081580D01*
X153912556Y-82904033D01*
X153748139Y-82754148D01*
X153748137Y-82754146D01*
X153558981Y-82637026D01*
X153558975Y-82637023D01*
X153429544Y-82586882D01*
X153364361Y-82561630D01*
X153308962Y-82519058D01*
X153285371Y-82453291D01*
X153301082Y-82385211D01*
X153351106Y-82336432D01*
X153364363Y-82330377D01*
X153558754Y-82255069D01*
X153558758Y-82255067D01*
X153674903Y-82183151D01*
X153205443Y-81713691D01*
X153171958Y-81652368D01*
X153176942Y-81582676D01*
X153218814Y-81526743D01*
X153236822Y-81515530D01*
X153259622Y-81503913D01*
X153349218Y-81414317D01*
X153360831Y-81391524D01*
X153408802Y-81340730D01*
X153476623Y-81323933D01*
X153542758Y-81346469D01*
G37*
%TD.AperFunction*%
%TA.AperFunction,Conductor*%
G36*
X154342139Y-78899355D02*
G01*
X154395326Y-78944665D01*
X154410843Y-78978644D01*
X154437346Y-79071795D01*
X154437352Y-79071810D01*
X154536515Y-79270955D01*
X154536520Y-79270963D01*
X154670597Y-79448510D01*
X154835014Y-79598395D01*
X154835016Y-79598397D01*
X155024172Y-79715517D01*
X155024173Y-79715517D01*
X155024176Y-79715519D01*
X155218101Y-79790646D01*
X155273501Y-79833218D01*
X155297092Y-79898985D01*
X155281381Y-79967065D01*
X155231357Y-80015844D01*
X155218110Y-80021894D01*
X155070065Y-80079247D01*
X155024178Y-80097024D01*
X155024172Y-80097026D01*
X154835016Y-80214146D01*
X154835014Y-80214148D01*
X154670597Y-80364033D01*
X154536520Y-80541580D01*
X154536515Y-80541588D01*
X154437352Y-80740733D01*
X154437347Y-80740746D01*
X154410583Y-80834812D01*
X154373303Y-80893905D01*
X154309994Y-80923462D01*
X154240754Y-80914100D01*
X154187568Y-80868790D01*
X154172050Y-80834810D01*
X154145337Y-80740922D01*
X154046212Y-80541852D01*
X154046207Y-80541844D01*
X154030437Y-80520962D01*
X153558996Y-80992404D01*
X153497673Y-81025889D01*
X153427981Y-81020905D01*
X153372048Y-80979033D01*
X153360833Y-80961023D01*
X153349218Y-80938227D01*
X153349214Y-80938223D01*
X153349213Y-80938221D01*
X153259627Y-80848635D01*
X153259624Y-80848633D01*
X153259622Y-80848631D01*
X153236827Y-80837016D01*
X153186033Y-80789043D01*
X153169238Y-80721222D01*
X153191775Y-80655087D01*
X153205443Y-80638852D01*
X153674904Y-80169391D01*
X153558755Y-80097474D01*
X153558754Y-80097473D01*
X153364363Y-80022166D01*
X153308961Y-79979593D01*
X153285371Y-79913826D01*
X153301082Y-79845746D01*
X153351106Y-79796967D01*
X153364349Y-79790918D01*
X153558978Y-79715519D01*
X153748139Y-79598396D01*
X153912558Y-79448508D01*
X154046635Y-79270961D01*
X154145806Y-79071800D01*
X154172311Y-78978643D01*
X154209590Y-78919550D01*
X154272900Y-78889993D01*
X154342139Y-78899355D01*
G37*
%TD.AperFunction*%
%TD*%
M02*
