%TF.GenerationSoftware,KiCad,Pcbnew,7.0.7*%
%TF.CreationDate,2023-10-30T20:42:16-06:00*%
%TF.ProjectId,RatGDO-OpenSource-D1Mini-ESP32,52617447-444f-42d4-9f70-656e536f7572,rev?*%
%TF.SameCoordinates,Original*%
%TF.FileFunction,Legend,Top*%
%TF.FilePolarity,Positive*%
%FSLAX46Y46*%
G04 Gerber Fmt 4.6, Leading zero omitted, Abs format (unit mm)*
G04 Created by KiCad (PCBNEW 7.0.7) date 2023-10-30 20:42:16*
%MOMM*%
%LPD*%
G01*
G04 APERTURE LIST*
%ADD10C,0.150000*%
%ADD11C,0.120000*%
%ADD12C,0.100000*%
G04 APERTURE END LIST*
D10*
X153432253Y-124165210D02*
X153575110Y-124212829D01*
X153575110Y-124212829D02*
X153622729Y-124260448D01*
X153622729Y-124260448D02*
X153670348Y-124355686D01*
X153670348Y-124355686D02*
X153670348Y-124498543D01*
X153670348Y-124498543D02*
X153622729Y-124593781D01*
X153622729Y-124593781D02*
X153575110Y-124641401D01*
X153575110Y-124641401D02*
X153479872Y-124689020D01*
X153479872Y-124689020D02*
X153098920Y-124689020D01*
X153098920Y-124689020D02*
X153098920Y-123689020D01*
X153098920Y-123689020D02*
X153432253Y-123689020D01*
X153432253Y-123689020D02*
X153527491Y-123736639D01*
X153527491Y-123736639D02*
X153575110Y-123784258D01*
X153575110Y-123784258D02*
X153622729Y-123879496D01*
X153622729Y-123879496D02*
X153622729Y-123974734D01*
X153622729Y-123974734D02*
X153575110Y-124069972D01*
X153575110Y-124069972D02*
X153527491Y-124117591D01*
X153527491Y-124117591D02*
X153432253Y-124165210D01*
X153432253Y-124165210D02*
X153098920Y-124165210D01*
X154575110Y-124689020D02*
X154098920Y-124689020D01*
X154098920Y-124689020D02*
X154098920Y-123689020D01*
X154908444Y-124689020D02*
X154908444Y-123689020D01*
X155479872Y-124689020D02*
X155051301Y-124117591D01*
X155479872Y-123689020D02*
X154908444Y-124260448D01*
X152813206Y-125299020D02*
X153003682Y-125299020D01*
X153003682Y-125299020D02*
X153098920Y-125346639D01*
X153098920Y-125346639D02*
X153194158Y-125441877D01*
X153194158Y-125441877D02*
X153241777Y-125632353D01*
X153241777Y-125632353D02*
X153241777Y-125965686D01*
X153241777Y-125965686D02*
X153194158Y-126156162D01*
X153194158Y-126156162D02*
X153098920Y-126251401D01*
X153098920Y-126251401D02*
X153003682Y-126299020D01*
X153003682Y-126299020D02*
X152813206Y-126299020D01*
X152813206Y-126299020D02*
X152717968Y-126251401D01*
X152717968Y-126251401D02*
X152622730Y-126156162D01*
X152622730Y-126156162D02*
X152575111Y-125965686D01*
X152575111Y-125965686D02*
X152575111Y-125632353D01*
X152575111Y-125632353D02*
X152622730Y-125441877D01*
X152622730Y-125441877D02*
X152717968Y-125346639D01*
X152717968Y-125346639D02*
X152813206Y-125299020D01*
X154003682Y-125775210D02*
X154146539Y-125822829D01*
X154146539Y-125822829D02*
X154194158Y-125870448D01*
X154194158Y-125870448D02*
X154241777Y-125965686D01*
X154241777Y-125965686D02*
X154241777Y-126108543D01*
X154241777Y-126108543D02*
X154194158Y-126203781D01*
X154194158Y-126203781D02*
X154146539Y-126251401D01*
X154146539Y-126251401D02*
X154051301Y-126299020D01*
X154051301Y-126299020D02*
X153670349Y-126299020D01*
X153670349Y-126299020D02*
X153670349Y-125299020D01*
X153670349Y-125299020D02*
X154003682Y-125299020D01*
X154003682Y-125299020D02*
X154098920Y-125346639D01*
X154098920Y-125346639D02*
X154146539Y-125394258D01*
X154146539Y-125394258D02*
X154194158Y-125489496D01*
X154194158Y-125489496D02*
X154194158Y-125584734D01*
X154194158Y-125584734D02*
X154146539Y-125679972D01*
X154146539Y-125679972D02*
X154098920Y-125727591D01*
X154098920Y-125727591D02*
X154003682Y-125775210D01*
X154003682Y-125775210D02*
X153670349Y-125775210D01*
X154622730Y-126251401D02*
X154765587Y-126299020D01*
X154765587Y-126299020D02*
X155003682Y-126299020D01*
X155003682Y-126299020D02*
X155098920Y-126251401D01*
X155098920Y-126251401D02*
X155146539Y-126203781D01*
X155146539Y-126203781D02*
X155194158Y-126108543D01*
X155194158Y-126108543D02*
X155194158Y-126013305D01*
X155194158Y-126013305D02*
X155146539Y-125918067D01*
X155146539Y-125918067D02*
X155098920Y-125870448D01*
X155098920Y-125870448D02*
X155003682Y-125822829D01*
X155003682Y-125822829D02*
X154813206Y-125775210D01*
X154813206Y-125775210D02*
X154717968Y-125727591D01*
X154717968Y-125727591D02*
X154670349Y-125679972D01*
X154670349Y-125679972D02*
X154622730Y-125584734D01*
X154622730Y-125584734D02*
X154622730Y-125489496D01*
X154622730Y-125489496D02*
X154670349Y-125394258D01*
X154670349Y-125394258D02*
X154717968Y-125346639D01*
X154717968Y-125346639D02*
X154813206Y-125299020D01*
X154813206Y-125299020D02*
X155051301Y-125299020D01*
X155051301Y-125299020D02*
X155194158Y-125346639D01*
X155479873Y-125299020D02*
X156051301Y-125299020D01*
X155765587Y-126299020D02*
X155765587Y-125299020D01*
X133903245Y-124759655D02*
X133569912Y-124283464D01*
X133331817Y-124759655D02*
X133331817Y-123759655D01*
X133331817Y-123759655D02*
X133712769Y-123759655D01*
X133712769Y-123759655D02*
X133808007Y-123807274D01*
X133808007Y-123807274D02*
X133855626Y-123854893D01*
X133855626Y-123854893D02*
X133903245Y-123950131D01*
X133903245Y-123950131D02*
X133903245Y-124092988D01*
X133903245Y-124092988D02*
X133855626Y-124188226D01*
X133855626Y-124188226D02*
X133808007Y-124235845D01*
X133808007Y-124235845D02*
X133712769Y-124283464D01*
X133712769Y-124283464D02*
X133331817Y-124283464D01*
X134331817Y-124235845D02*
X134665150Y-124235845D01*
X134808007Y-124759655D02*
X134331817Y-124759655D01*
X134331817Y-124759655D02*
X134331817Y-123759655D01*
X134331817Y-123759655D02*
X134808007Y-123759655D01*
X135236579Y-124759655D02*
X135236579Y-123759655D01*
X135236579Y-123759655D02*
X135474674Y-123759655D01*
X135474674Y-123759655D02*
X135617531Y-123807274D01*
X135617531Y-123807274D02*
X135712769Y-123902512D01*
X135712769Y-123902512D02*
X135760388Y-123997750D01*
X135760388Y-123997750D02*
X135808007Y-124188226D01*
X135808007Y-124188226D02*
X135808007Y-124331083D01*
X135808007Y-124331083D02*
X135760388Y-124521559D01*
X135760388Y-124521559D02*
X135712769Y-124616797D01*
X135712769Y-124616797D02*
X135617531Y-124712036D01*
X135617531Y-124712036D02*
X135474674Y-124759655D01*
X135474674Y-124759655D02*
X135236579Y-124759655D01*
X133569912Y-126274416D02*
X133522293Y-126322036D01*
X133522293Y-126322036D02*
X133379436Y-126369655D01*
X133379436Y-126369655D02*
X133284198Y-126369655D01*
X133284198Y-126369655D02*
X133141341Y-126322036D01*
X133141341Y-126322036D02*
X133046103Y-126226797D01*
X133046103Y-126226797D02*
X132998484Y-126131559D01*
X132998484Y-126131559D02*
X132950865Y-125941083D01*
X132950865Y-125941083D02*
X132950865Y-125798226D01*
X132950865Y-125798226D02*
X132998484Y-125607750D01*
X132998484Y-125607750D02*
X133046103Y-125512512D01*
X133046103Y-125512512D02*
X133141341Y-125417274D01*
X133141341Y-125417274D02*
X133284198Y-125369655D01*
X133284198Y-125369655D02*
X133379436Y-125369655D01*
X133379436Y-125369655D02*
X133522293Y-125417274D01*
X133522293Y-125417274D02*
X133569912Y-125464893D01*
X133855627Y-125369655D02*
X134427055Y-125369655D01*
X134141341Y-126369655D02*
X134141341Y-125369655D01*
X135331817Y-126369655D02*
X134998484Y-125893464D01*
X134760389Y-126369655D02*
X134760389Y-125369655D01*
X134760389Y-125369655D02*
X135141341Y-125369655D01*
X135141341Y-125369655D02*
X135236579Y-125417274D01*
X135236579Y-125417274D02*
X135284198Y-125464893D01*
X135284198Y-125464893D02*
X135331817Y-125560131D01*
X135331817Y-125560131D02*
X135331817Y-125702988D01*
X135331817Y-125702988D02*
X135284198Y-125798226D01*
X135284198Y-125798226D02*
X135236579Y-125845845D01*
X135236579Y-125845845D02*
X135141341Y-125893464D01*
X135141341Y-125893464D02*
X134760389Y-125893464D01*
X136236579Y-126369655D02*
X135760389Y-126369655D01*
X135760389Y-126369655D02*
X135760389Y-125369655D01*
X149624538Y-124689020D02*
X149291205Y-124212829D01*
X149053110Y-124689020D02*
X149053110Y-123689020D01*
X149053110Y-123689020D02*
X149434062Y-123689020D01*
X149434062Y-123689020D02*
X149529300Y-123736639D01*
X149529300Y-123736639D02*
X149576919Y-123784258D01*
X149576919Y-123784258D02*
X149624538Y-123879496D01*
X149624538Y-123879496D02*
X149624538Y-124022353D01*
X149624538Y-124022353D02*
X149576919Y-124117591D01*
X149576919Y-124117591D02*
X149529300Y-124165210D01*
X149529300Y-124165210D02*
X149434062Y-124212829D01*
X149434062Y-124212829D02*
X149053110Y-124212829D01*
X150053110Y-124165210D02*
X150386443Y-124165210D01*
X150529300Y-124689020D02*
X150053110Y-124689020D01*
X150053110Y-124689020D02*
X150053110Y-123689020D01*
X150053110Y-123689020D02*
X150529300Y-123689020D01*
X150957872Y-124689020D02*
X150957872Y-123689020D01*
X150957872Y-123689020D02*
X151195967Y-123689020D01*
X151195967Y-123689020D02*
X151338824Y-123736639D01*
X151338824Y-123736639D02*
X151434062Y-123831877D01*
X151434062Y-123831877D02*
X151481681Y-123927115D01*
X151481681Y-123927115D02*
X151529300Y-124117591D01*
X151529300Y-124117591D02*
X151529300Y-124260448D01*
X151529300Y-124260448D02*
X151481681Y-124450924D01*
X151481681Y-124450924D02*
X151434062Y-124546162D01*
X151434062Y-124546162D02*
X151338824Y-124641401D01*
X151338824Y-124641401D02*
X151195967Y-124689020D01*
X151195967Y-124689020D02*
X150957872Y-124689020D01*
X149291205Y-126203781D02*
X149243586Y-126251401D01*
X149243586Y-126251401D02*
X149100729Y-126299020D01*
X149100729Y-126299020D02*
X149005491Y-126299020D01*
X149005491Y-126299020D02*
X148862634Y-126251401D01*
X148862634Y-126251401D02*
X148767396Y-126156162D01*
X148767396Y-126156162D02*
X148719777Y-126060924D01*
X148719777Y-126060924D02*
X148672158Y-125870448D01*
X148672158Y-125870448D02*
X148672158Y-125727591D01*
X148672158Y-125727591D02*
X148719777Y-125537115D01*
X148719777Y-125537115D02*
X148767396Y-125441877D01*
X148767396Y-125441877D02*
X148862634Y-125346639D01*
X148862634Y-125346639D02*
X149005491Y-125299020D01*
X149005491Y-125299020D02*
X149100729Y-125299020D01*
X149100729Y-125299020D02*
X149243586Y-125346639D01*
X149243586Y-125346639D02*
X149291205Y-125394258D01*
X149576920Y-125299020D02*
X150148348Y-125299020D01*
X149862634Y-126299020D02*
X149862634Y-125299020D01*
X151053110Y-126299020D02*
X150719777Y-125822829D01*
X150481682Y-126299020D02*
X150481682Y-125299020D01*
X150481682Y-125299020D02*
X150862634Y-125299020D01*
X150862634Y-125299020D02*
X150957872Y-125346639D01*
X150957872Y-125346639D02*
X151005491Y-125394258D01*
X151005491Y-125394258D02*
X151053110Y-125489496D01*
X151053110Y-125489496D02*
X151053110Y-125632353D01*
X151053110Y-125632353D02*
X151005491Y-125727591D01*
X151005491Y-125727591D02*
X150957872Y-125775210D01*
X150957872Y-125775210D02*
X150862634Y-125822829D01*
X150862634Y-125822829D02*
X150481682Y-125822829D01*
X151957872Y-126299020D02*
X151481682Y-126299020D01*
X151481682Y-126299020D02*
X151481682Y-125299020D01*
X128132770Y-123759655D02*
X128370865Y-124759655D01*
X128370865Y-124759655D02*
X128561341Y-124045369D01*
X128561341Y-124045369D02*
X128751817Y-124759655D01*
X128751817Y-124759655D02*
X128989913Y-123759655D01*
X129370865Y-124759655D02*
X129370865Y-123759655D01*
X129370865Y-124235845D02*
X129942293Y-124235845D01*
X129942293Y-124759655D02*
X129942293Y-123759655D01*
X130275627Y-123759655D02*
X130847055Y-123759655D01*
X130561341Y-124759655D02*
X130561341Y-123759655D01*
X128704198Y-125417274D02*
X128608960Y-125369655D01*
X128608960Y-125369655D02*
X128466103Y-125369655D01*
X128466103Y-125369655D02*
X128323246Y-125417274D01*
X128323246Y-125417274D02*
X128228008Y-125512512D01*
X128228008Y-125512512D02*
X128180389Y-125607750D01*
X128180389Y-125607750D02*
X128132770Y-125798226D01*
X128132770Y-125798226D02*
X128132770Y-125941083D01*
X128132770Y-125941083D02*
X128180389Y-126131559D01*
X128180389Y-126131559D02*
X128228008Y-126226797D01*
X128228008Y-126226797D02*
X128323246Y-126322036D01*
X128323246Y-126322036D02*
X128466103Y-126369655D01*
X128466103Y-126369655D02*
X128561341Y-126369655D01*
X128561341Y-126369655D02*
X128704198Y-126322036D01*
X128704198Y-126322036D02*
X128751817Y-126274416D01*
X128751817Y-126274416D02*
X128751817Y-125941083D01*
X128751817Y-125941083D02*
X128561341Y-125941083D01*
X129180389Y-126369655D02*
X129180389Y-125369655D01*
X129180389Y-125369655D02*
X129751817Y-126369655D01*
X129751817Y-126369655D02*
X129751817Y-125369655D01*
X130228008Y-126369655D02*
X130228008Y-125369655D01*
X130228008Y-125369655D02*
X130466103Y-125369655D01*
X130466103Y-125369655D02*
X130608960Y-125417274D01*
X130608960Y-125417274D02*
X130704198Y-125512512D01*
X130704198Y-125512512D02*
X130751817Y-125607750D01*
X130751817Y-125607750D02*
X130799436Y-125798226D01*
X130799436Y-125798226D02*
X130799436Y-125941083D01*
X130799436Y-125941083D02*
X130751817Y-126131559D01*
X130751817Y-126131559D02*
X130704198Y-126226797D01*
X130704198Y-126226797D02*
X130608960Y-126322036D01*
X130608960Y-126322036D02*
X130466103Y-126369655D01*
X130466103Y-126369655D02*
X130228008Y-126369655D01*
X125946188Y-109019819D02*
X126136664Y-109019819D01*
X126136664Y-109019819D02*
X126231902Y-109067438D01*
X126231902Y-109067438D02*
X126327140Y-109162676D01*
X126327140Y-109162676D02*
X126374759Y-109353152D01*
X126374759Y-109353152D02*
X126374759Y-109686485D01*
X126374759Y-109686485D02*
X126327140Y-109876961D01*
X126327140Y-109876961D02*
X126231902Y-109972200D01*
X126231902Y-109972200D02*
X126136664Y-110019819D01*
X126136664Y-110019819D02*
X125946188Y-110019819D01*
X125946188Y-110019819D02*
X125850950Y-109972200D01*
X125850950Y-109972200D02*
X125755712Y-109876961D01*
X125755712Y-109876961D02*
X125708093Y-109686485D01*
X125708093Y-109686485D02*
X125708093Y-109353152D01*
X125708093Y-109353152D02*
X125755712Y-109162676D01*
X125755712Y-109162676D02*
X125850950Y-109067438D01*
X125850950Y-109067438D02*
X125946188Y-109019819D01*
X126803331Y-109353152D02*
X126803331Y-110019819D01*
X126803331Y-109448390D02*
X126850950Y-109400771D01*
X126850950Y-109400771D02*
X126946188Y-109353152D01*
X126946188Y-109353152D02*
X127089045Y-109353152D01*
X127089045Y-109353152D02*
X127184283Y-109400771D01*
X127184283Y-109400771D02*
X127231902Y-109496009D01*
X127231902Y-109496009D02*
X127231902Y-110019819D01*
X127850950Y-110019819D02*
X127755712Y-109972200D01*
X127755712Y-109972200D02*
X127708093Y-109876961D01*
X127708093Y-109876961D02*
X127708093Y-109019819D01*
X128136665Y-109353152D02*
X128374760Y-110019819D01*
X128612855Y-109353152D02*
X128374760Y-110019819D01*
X128374760Y-110019819D02*
X128279522Y-110257914D01*
X128279522Y-110257914D02*
X128231903Y-110305533D01*
X128231903Y-110305533D02*
X128136665Y-110353152D01*
X130279522Y-110019819D02*
X129708094Y-110019819D01*
X129993808Y-110019819D02*
X129993808Y-109019819D01*
X129993808Y-109019819D02*
X129898570Y-109162676D01*
X129898570Y-109162676D02*
X129803332Y-109257914D01*
X129803332Y-109257914D02*
X129708094Y-109305533D01*
X131327142Y-109019819D02*
X131898570Y-109019819D01*
X131612856Y-110019819D02*
X131612856Y-109019819D01*
X132612856Y-109972200D02*
X132517618Y-110019819D01*
X132517618Y-110019819D02*
X132327142Y-110019819D01*
X132327142Y-110019819D02*
X132231904Y-109972200D01*
X132231904Y-109972200D02*
X132184285Y-109876961D01*
X132184285Y-109876961D02*
X132184285Y-109496009D01*
X132184285Y-109496009D02*
X132231904Y-109400771D01*
X132231904Y-109400771D02*
X132327142Y-109353152D01*
X132327142Y-109353152D02*
X132517618Y-109353152D01*
X132517618Y-109353152D02*
X132612856Y-109400771D01*
X132612856Y-109400771D02*
X132660475Y-109496009D01*
X132660475Y-109496009D02*
X132660475Y-109591247D01*
X132660475Y-109591247D02*
X132184285Y-109686485D01*
X133089047Y-110019819D02*
X133089047Y-109353152D01*
X133089047Y-109543628D02*
X133136666Y-109448390D01*
X133136666Y-109448390D02*
X133184285Y-109400771D01*
X133184285Y-109400771D02*
X133279523Y-109353152D01*
X133279523Y-109353152D02*
X133374761Y-109353152D01*
X133708095Y-110019819D02*
X133708095Y-109353152D01*
X133708095Y-109448390D02*
X133755714Y-109400771D01*
X133755714Y-109400771D02*
X133850952Y-109353152D01*
X133850952Y-109353152D02*
X133993809Y-109353152D01*
X133993809Y-109353152D02*
X134089047Y-109400771D01*
X134089047Y-109400771D02*
X134136666Y-109496009D01*
X134136666Y-109496009D02*
X134136666Y-110019819D01*
X134136666Y-109496009D02*
X134184285Y-109400771D01*
X134184285Y-109400771D02*
X134279523Y-109353152D01*
X134279523Y-109353152D02*
X134422380Y-109353152D01*
X134422380Y-109353152D02*
X134517619Y-109400771D01*
X134517619Y-109400771D02*
X134565238Y-109496009D01*
X134565238Y-109496009D02*
X134565238Y-110019819D01*
X135041428Y-110019819D02*
X135041428Y-109353152D01*
X135041428Y-109019819D02*
X134993809Y-109067438D01*
X134993809Y-109067438D02*
X135041428Y-109115057D01*
X135041428Y-109115057D02*
X135089047Y-109067438D01*
X135089047Y-109067438D02*
X135041428Y-109019819D01*
X135041428Y-109019819D02*
X135041428Y-109115057D01*
X135517618Y-109353152D02*
X135517618Y-110019819D01*
X135517618Y-109448390D02*
X135565237Y-109400771D01*
X135565237Y-109400771D02*
X135660475Y-109353152D01*
X135660475Y-109353152D02*
X135803332Y-109353152D01*
X135803332Y-109353152D02*
X135898570Y-109400771D01*
X135898570Y-109400771D02*
X135946189Y-109496009D01*
X135946189Y-109496009D02*
X135946189Y-110019819D01*
X136850951Y-110019819D02*
X136850951Y-109496009D01*
X136850951Y-109496009D02*
X136803332Y-109400771D01*
X136803332Y-109400771D02*
X136708094Y-109353152D01*
X136708094Y-109353152D02*
X136517618Y-109353152D01*
X136517618Y-109353152D02*
X136422380Y-109400771D01*
X136850951Y-109972200D02*
X136755713Y-110019819D01*
X136755713Y-110019819D02*
X136517618Y-110019819D01*
X136517618Y-110019819D02*
X136422380Y-109972200D01*
X136422380Y-109972200D02*
X136374761Y-109876961D01*
X136374761Y-109876961D02*
X136374761Y-109781723D01*
X136374761Y-109781723D02*
X136422380Y-109686485D01*
X136422380Y-109686485D02*
X136517618Y-109638866D01*
X136517618Y-109638866D02*
X136755713Y-109638866D01*
X136755713Y-109638866D02*
X136850951Y-109591247D01*
X137469999Y-110019819D02*
X137374761Y-109972200D01*
X137374761Y-109972200D02*
X137327142Y-109876961D01*
X137327142Y-109876961D02*
X137327142Y-109019819D01*
X138946190Y-109496009D02*
X139089047Y-109543628D01*
X139089047Y-109543628D02*
X139136666Y-109591247D01*
X139136666Y-109591247D02*
X139184285Y-109686485D01*
X139184285Y-109686485D02*
X139184285Y-109829342D01*
X139184285Y-109829342D02*
X139136666Y-109924580D01*
X139136666Y-109924580D02*
X139089047Y-109972200D01*
X139089047Y-109972200D02*
X138993809Y-110019819D01*
X138993809Y-110019819D02*
X138612857Y-110019819D01*
X138612857Y-110019819D02*
X138612857Y-109019819D01*
X138612857Y-109019819D02*
X138946190Y-109019819D01*
X138946190Y-109019819D02*
X139041428Y-109067438D01*
X139041428Y-109067438D02*
X139089047Y-109115057D01*
X139089047Y-109115057D02*
X139136666Y-109210295D01*
X139136666Y-109210295D02*
X139136666Y-109305533D01*
X139136666Y-109305533D02*
X139089047Y-109400771D01*
X139089047Y-109400771D02*
X139041428Y-109448390D01*
X139041428Y-109448390D02*
X138946190Y-109496009D01*
X138946190Y-109496009D02*
X138612857Y-109496009D01*
X139755714Y-110019819D02*
X139660476Y-109972200D01*
X139660476Y-109972200D02*
X139612857Y-109876961D01*
X139612857Y-109876961D02*
X139612857Y-109019819D01*
X140279524Y-110019819D02*
X140184286Y-109972200D01*
X140184286Y-109972200D02*
X140136667Y-109924580D01*
X140136667Y-109924580D02*
X140089048Y-109829342D01*
X140089048Y-109829342D02*
X140089048Y-109543628D01*
X140089048Y-109543628D02*
X140136667Y-109448390D01*
X140136667Y-109448390D02*
X140184286Y-109400771D01*
X140184286Y-109400771D02*
X140279524Y-109353152D01*
X140279524Y-109353152D02*
X140422381Y-109353152D01*
X140422381Y-109353152D02*
X140517619Y-109400771D01*
X140517619Y-109400771D02*
X140565238Y-109448390D01*
X140565238Y-109448390D02*
X140612857Y-109543628D01*
X140612857Y-109543628D02*
X140612857Y-109829342D01*
X140612857Y-109829342D02*
X140565238Y-109924580D01*
X140565238Y-109924580D02*
X140517619Y-109972200D01*
X140517619Y-109972200D02*
X140422381Y-110019819D01*
X140422381Y-110019819D02*
X140279524Y-110019819D01*
X141470000Y-109972200D02*
X141374762Y-110019819D01*
X141374762Y-110019819D02*
X141184286Y-110019819D01*
X141184286Y-110019819D02*
X141089048Y-109972200D01*
X141089048Y-109972200D02*
X141041429Y-109924580D01*
X141041429Y-109924580D02*
X140993810Y-109829342D01*
X140993810Y-109829342D02*
X140993810Y-109543628D01*
X140993810Y-109543628D02*
X141041429Y-109448390D01*
X141041429Y-109448390D02*
X141089048Y-109400771D01*
X141089048Y-109400771D02*
X141184286Y-109353152D01*
X141184286Y-109353152D02*
X141374762Y-109353152D01*
X141374762Y-109353152D02*
X141470000Y-109400771D01*
X141898572Y-110019819D02*
X141898572Y-109019819D01*
X141993810Y-109638866D02*
X142279524Y-110019819D01*
X142279524Y-109353152D02*
X141898572Y-109734104D01*
X143470001Y-110019819D02*
X143470001Y-109019819D01*
X143470001Y-109019819D02*
X144041429Y-110019819D01*
X144041429Y-110019819D02*
X144041429Y-109019819D01*
X144898572Y-109972200D02*
X144803334Y-110019819D01*
X144803334Y-110019819D02*
X144612858Y-110019819D01*
X144612858Y-110019819D02*
X144517620Y-109972200D01*
X144517620Y-109972200D02*
X144470001Y-109876961D01*
X144470001Y-109876961D02*
X144470001Y-109496009D01*
X144470001Y-109496009D02*
X144517620Y-109400771D01*
X144517620Y-109400771D02*
X144612858Y-109353152D01*
X144612858Y-109353152D02*
X144803334Y-109353152D01*
X144803334Y-109353152D02*
X144898572Y-109400771D01*
X144898572Y-109400771D02*
X144946191Y-109496009D01*
X144946191Y-109496009D02*
X144946191Y-109591247D01*
X144946191Y-109591247D02*
X144470001Y-109686485D01*
X145755715Y-109972200D02*
X145660477Y-110019819D01*
X145660477Y-110019819D02*
X145470001Y-110019819D01*
X145470001Y-110019819D02*
X145374763Y-109972200D01*
X145374763Y-109972200D02*
X145327144Y-109876961D01*
X145327144Y-109876961D02*
X145327144Y-109496009D01*
X145327144Y-109496009D02*
X145374763Y-109400771D01*
X145374763Y-109400771D02*
X145470001Y-109353152D01*
X145470001Y-109353152D02*
X145660477Y-109353152D01*
X145660477Y-109353152D02*
X145755715Y-109400771D01*
X145755715Y-109400771D02*
X145803334Y-109496009D01*
X145803334Y-109496009D02*
X145803334Y-109591247D01*
X145803334Y-109591247D02*
X145327144Y-109686485D01*
X146660477Y-110019819D02*
X146660477Y-109019819D01*
X146660477Y-109972200D02*
X146565239Y-110019819D01*
X146565239Y-110019819D02*
X146374763Y-110019819D01*
X146374763Y-110019819D02*
X146279525Y-109972200D01*
X146279525Y-109972200D02*
X146231906Y-109924580D01*
X146231906Y-109924580D02*
X146184287Y-109829342D01*
X146184287Y-109829342D02*
X146184287Y-109543628D01*
X146184287Y-109543628D02*
X146231906Y-109448390D01*
X146231906Y-109448390D02*
X146279525Y-109400771D01*
X146279525Y-109400771D02*
X146374763Y-109353152D01*
X146374763Y-109353152D02*
X146565239Y-109353152D01*
X146565239Y-109353152D02*
X146660477Y-109400771D01*
X147089049Y-109972200D02*
X147184287Y-110019819D01*
X147184287Y-110019819D02*
X147374763Y-110019819D01*
X147374763Y-110019819D02*
X147470001Y-109972200D01*
X147470001Y-109972200D02*
X147517620Y-109876961D01*
X147517620Y-109876961D02*
X147517620Y-109829342D01*
X147517620Y-109829342D02*
X147470001Y-109734104D01*
X147470001Y-109734104D02*
X147374763Y-109686485D01*
X147374763Y-109686485D02*
X147231906Y-109686485D01*
X147231906Y-109686485D02*
X147136668Y-109638866D01*
X147136668Y-109638866D02*
X147089049Y-109543628D01*
X147089049Y-109543628D02*
X147089049Y-109496009D01*
X147089049Y-109496009D02*
X147136668Y-109400771D01*
X147136668Y-109400771D02*
X147231906Y-109353152D01*
X147231906Y-109353152D02*
X147374763Y-109353152D01*
X147374763Y-109353152D02*
X147470001Y-109400771D01*
X148708097Y-110019819D02*
X148708097Y-109019819D01*
X148708097Y-109019819D02*
X149089049Y-109019819D01*
X149089049Y-109019819D02*
X149184287Y-109067438D01*
X149184287Y-109067438D02*
X149231906Y-109115057D01*
X149231906Y-109115057D02*
X149279525Y-109210295D01*
X149279525Y-109210295D02*
X149279525Y-109353152D01*
X149279525Y-109353152D02*
X149231906Y-109448390D01*
X149231906Y-109448390D02*
X149184287Y-109496009D01*
X149184287Y-109496009D02*
X149089049Y-109543628D01*
X149089049Y-109543628D02*
X148708097Y-109543628D01*
X149850954Y-110019819D02*
X149755716Y-109972200D01*
X149755716Y-109972200D02*
X149708097Y-109924580D01*
X149708097Y-109924580D02*
X149660478Y-109829342D01*
X149660478Y-109829342D02*
X149660478Y-109543628D01*
X149660478Y-109543628D02*
X149708097Y-109448390D01*
X149708097Y-109448390D02*
X149755716Y-109400771D01*
X149755716Y-109400771D02*
X149850954Y-109353152D01*
X149850954Y-109353152D02*
X149993811Y-109353152D01*
X149993811Y-109353152D02*
X150089049Y-109400771D01*
X150089049Y-109400771D02*
X150136668Y-109448390D01*
X150136668Y-109448390D02*
X150184287Y-109543628D01*
X150184287Y-109543628D02*
X150184287Y-109829342D01*
X150184287Y-109829342D02*
X150136668Y-109924580D01*
X150136668Y-109924580D02*
X150089049Y-109972200D01*
X150089049Y-109972200D02*
X149993811Y-110019819D01*
X149993811Y-110019819D02*
X149850954Y-110019819D01*
X150612859Y-109353152D02*
X150612859Y-110353152D01*
X150612859Y-109400771D02*
X150708097Y-109353152D01*
X150708097Y-109353152D02*
X150898573Y-109353152D01*
X150898573Y-109353152D02*
X150993811Y-109400771D01*
X150993811Y-109400771D02*
X151041430Y-109448390D01*
X151041430Y-109448390D02*
X151089049Y-109543628D01*
X151089049Y-109543628D02*
X151089049Y-109829342D01*
X151089049Y-109829342D02*
X151041430Y-109924580D01*
X151041430Y-109924580D02*
X150993811Y-109972200D01*
X150993811Y-109972200D02*
X150898573Y-110019819D01*
X150898573Y-110019819D02*
X150708097Y-110019819D01*
X150708097Y-110019819D02*
X150612859Y-109972200D01*
X151946192Y-109353152D02*
X151946192Y-110019819D01*
X151517621Y-109353152D02*
X151517621Y-109876961D01*
X151517621Y-109876961D02*
X151565240Y-109972200D01*
X151565240Y-109972200D02*
X151660478Y-110019819D01*
X151660478Y-110019819D02*
X151803335Y-110019819D01*
X151803335Y-110019819D02*
X151898573Y-109972200D01*
X151898573Y-109972200D02*
X151946192Y-109924580D01*
X152565240Y-110019819D02*
X152470002Y-109972200D01*
X152470002Y-109972200D02*
X152422383Y-109876961D01*
X152422383Y-109876961D02*
X152422383Y-109019819D01*
X153374764Y-110019819D02*
X153374764Y-109496009D01*
X153374764Y-109496009D02*
X153327145Y-109400771D01*
X153327145Y-109400771D02*
X153231907Y-109353152D01*
X153231907Y-109353152D02*
X153041431Y-109353152D01*
X153041431Y-109353152D02*
X152946193Y-109400771D01*
X153374764Y-109972200D02*
X153279526Y-110019819D01*
X153279526Y-110019819D02*
X153041431Y-110019819D01*
X153041431Y-110019819D02*
X152946193Y-109972200D01*
X152946193Y-109972200D02*
X152898574Y-109876961D01*
X152898574Y-109876961D02*
X152898574Y-109781723D01*
X152898574Y-109781723D02*
X152946193Y-109686485D01*
X152946193Y-109686485D02*
X153041431Y-109638866D01*
X153041431Y-109638866D02*
X153279526Y-109638866D01*
X153279526Y-109638866D02*
X153374764Y-109591247D01*
X153708098Y-109353152D02*
X154089050Y-109353152D01*
X153850955Y-109019819D02*
X153850955Y-109876961D01*
X153850955Y-109876961D02*
X153898574Y-109972200D01*
X153898574Y-109972200D02*
X153993812Y-110019819D01*
X153993812Y-110019819D02*
X154089050Y-110019819D01*
X154803336Y-109972200D02*
X154708098Y-110019819D01*
X154708098Y-110019819D02*
X154517622Y-110019819D01*
X154517622Y-110019819D02*
X154422384Y-109972200D01*
X154422384Y-109972200D02*
X154374765Y-109876961D01*
X154374765Y-109876961D02*
X154374765Y-109496009D01*
X154374765Y-109496009D02*
X154422384Y-109400771D01*
X154422384Y-109400771D02*
X154517622Y-109353152D01*
X154517622Y-109353152D02*
X154708098Y-109353152D01*
X154708098Y-109353152D02*
X154803336Y-109400771D01*
X154803336Y-109400771D02*
X154850955Y-109496009D01*
X154850955Y-109496009D02*
X154850955Y-109591247D01*
X154850955Y-109591247D02*
X154374765Y-109686485D01*
X155708098Y-110019819D02*
X155708098Y-109019819D01*
X155708098Y-109972200D02*
X155612860Y-110019819D01*
X155612860Y-110019819D02*
X155422384Y-110019819D01*
X155422384Y-110019819D02*
X155327146Y-109972200D01*
X155327146Y-109972200D02*
X155279527Y-109924580D01*
X155279527Y-109924580D02*
X155231908Y-109829342D01*
X155231908Y-109829342D02*
X155231908Y-109543628D01*
X155231908Y-109543628D02*
X155279527Y-109448390D01*
X155279527Y-109448390D02*
X155327146Y-109400771D01*
X155327146Y-109400771D02*
X155422384Y-109353152D01*
X155422384Y-109353152D02*
X155612860Y-109353152D01*
X155612860Y-109353152D02*
X155708098Y-109400771D01*
X156184289Y-109924580D02*
X156231908Y-109972200D01*
X156231908Y-109972200D02*
X156184289Y-110019819D01*
X156184289Y-110019819D02*
X156136670Y-109972200D01*
X156136670Y-109972200D02*
X156184289Y-109924580D01*
X156184289Y-109924580D02*
X156184289Y-110019819D01*
X133231904Y-110629819D02*
X133803332Y-110629819D01*
X133517618Y-111629819D02*
X133517618Y-110629819D01*
X134136666Y-111629819D02*
X134136666Y-110629819D01*
X134565237Y-111629819D02*
X134565237Y-111106009D01*
X134565237Y-111106009D02*
X134517618Y-111010771D01*
X134517618Y-111010771D02*
X134422380Y-110963152D01*
X134422380Y-110963152D02*
X134279523Y-110963152D01*
X134279523Y-110963152D02*
X134184285Y-111010771D01*
X134184285Y-111010771D02*
X134136666Y-111058390D01*
X135422380Y-111582200D02*
X135327142Y-111629819D01*
X135327142Y-111629819D02*
X135136666Y-111629819D01*
X135136666Y-111629819D02*
X135041428Y-111582200D01*
X135041428Y-111582200D02*
X134993809Y-111486961D01*
X134993809Y-111486961D02*
X134993809Y-111106009D01*
X134993809Y-111106009D02*
X135041428Y-111010771D01*
X135041428Y-111010771D02*
X135136666Y-110963152D01*
X135136666Y-110963152D02*
X135327142Y-110963152D01*
X135327142Y-110963152D02*
X135422380Y-111010771D01*
X135422380Y-111010771D02*
X135469999Y-111106009D01*
X135469999Y-111106009D02*
X135469999Y-111201247D01*
X135469999Y-111201247D02*
X134993809Y-111296485D01*
X137231904Y-111534580D02*
X137184285Y-111582200D01*
X137184285Y-111582200D02*
X137041428Y-111629819D01*
X137041428Y-111629819D02*
X136946190Y-111629819D01*
X136946190Y-111629819D02*
X136803333Y-111582200D01*
X136803333Y-111582200D02*
X136708095Y-111486961D01*
X136708095Y-111486961D02*
X136660476Y-111391723D01*
X136660476Y-111391723D02*
X136612857Y-111201247D01*
X136612857Y-111201247D02*
X136612857Y-111058390D01*
X136612857Y-111058390D02*
X136660476Y-110867914D01*
X136660476Y-110867914D02*
X136708095Y-110772676D01*
X136708095Y-110772676D02*
X136803333Y-110677438D01*
X136803333Y-110677438D02*
X136946190Y-110629819D01*
X136946190Y-110629819D02*
X137041428Y-110629819D01*
X137041428Y-110629819D02*
X137184285Y-110677438D01*
X137184285Y-110677438D02*
X137231904Y-110725057D01*
X137660476Y-111629819D02*
X137660476Y-110629819D01*
X138089047Y-111629819D02*
X138089047Y-111106009D01*
X138089047Y-111106009D02*
X138041428Y-111010771D01*
X138041428Y-111010771D02*
X137946190Y-110963152D01*
X137946190Y-110963152D02*
X137803333Y-110963152D01*
X137803333Y-110963152D02*
X137708095Y-111010771D01*
X137708095Y-111010771D02*
X137660476Y-111058390D01*
X138708095Y-111629819D02*
X138612857Y-111582200D01*
X138612857Y-111582200D02*
X138565238Y-111534580D01*
X138565238Y-111534580D02*
X138517619Y-111439342D01*
X138517619Y-111439342D02*
X138517619Y-111153628D01*
X138517619Y-111153628D02*
X138565238Y-111058390D01*
X138565238Y-111058390D02*
X138612857Y-111010771D01*
X138612857Y-111010771D02*
X138708095Y-110963152D01*
X138708095Y-110963152D02*
X138850952Y-110963152D01*
X138850952Y-110963152D02*
X138946190Y-111010771D01*
X138946190Y-111010771D02*
X138993809Y-111058390D01*
X138993809Y-111058390D02*
X139041428Y-111153628D01*
X139041428Y-111153628D02*
X139041428Y-111439342D01*
X139041428Y-111439342D02*
X138993809Y-111534580D01*
X138993809Y-111534580D02*
X138946190Y-111582200D01*
X138946190Y-111582200D02*
X138850952Y-111629819D01*
X138850952Y-111629819D02*
X138708095Y-111629819D01*
X139470000Y-111629819D02*
X139470000Y-110963152D01*
X139470000Y-110629819D02*
X139422381Y-110677438D01*
X139422381Y-110677438D02*
X139470000Y-110725057D01*
X139470000Y-110725057D02*
X139517619Y-110677438D01*
X139517619Y-110677438D02*
X139470000Y-110629819D01*
X139470000Y-110629819D02*
X139470000Y-110725057D01*
X140374761Y-111582200D02*
X140279523Y-111629819D01*
X140279523Y-111629819D02*
X140089047Y-111629819D01*
X140089047Y-111629819D02*
X139993809Y-111582200D01*
X139993809Y-111582200D02*
X139946190Y-111534580D01*
X139946190Y-111534580D02*
X139898571Y-111439342D01*
X139898571Y-111439342D02*
X139898571Y-111153628D01*
X139898571Y-111153628D02*
X139946190Y-111058390D01*
X139946190Y-111058390D02*
X139993809Y-111010771D01*
X139993809Y-111010771D02*
X140089047Y-110963152D01*
X140089047Y-110963152D02*
X140279523Y-110963152D01*
X140279523Y-110963152D02*
X140374761Y-111010771D01*
X141184285Y-111582200D02*
X141089047Y-111629819D01*
X141089047Y-111629819D02*
X140898571Y-111629819D01*
X140898571Y-111629819D02*
X140803333Y-111582200D01*
X140803333Y-111582200D02*
X140755714Y-111486961D01*
X140755714Y-111486961D02*
X140755714Y-111106009D01*
X140755714Y-111106009D02*
X140803333Y-111010771D01*
X140803333Y-111010771D02*
X140898571Y-110963152D01*
X140898571Y-110963152D02*
X141089047Y-110963152D01*
X141089047Y-110963152D02*
X141184285Y-111010771D01*
X141184285Y-111010771D02*
X141231904Y-111106009D01*
X141231904Y-111106009D02*
X141231904Y-111201247D01*
X141231904Y-111201247D02*
X140755714Y-111296485D01*
X142422381Y-111629819D02*
X142422381Y-110629819D01*
X142850952Y-111582200D02*
X142946190Y-111629819D01*
X142946190Y-111629819D02*
X143136666Y-111629819D01*
X143136666Y-111629819D02*
X143231904Y-111582200D01*
X143231904Y-111582200D02*
X143279523Y-111486961D01*
X143279523Y-111486961D02*
X143279523Y-111439342D01*
X143279523Y-111439342D02*
X143231904Y-111344104D01*
X143231904Y-111344104D02*
X143136666Y-111296485D01*
X143136666Y-111296485D02*
X142993809Y-111296485D01*
X142993809Y-111296485D02*
X142898571Y-111248866D01*
X142898571Y-111248866D02*
X142850952Y-111153628D01*
X142850952Y-111153628D02*
X142850952Y-111106009D01*
X142850952Y-111106009D02*
X142898571Y-111010771D01*
X142898571Y-111010771D02*
X142993809Y-110963152D01*
X142993809Y-110963152D02*
X143136666Y-110963152D01*
X143136666Y-110963152D02*
X143231904Y-111010771D01*
X144660476Y-111153628D02*
X144660476Y-111629819D01*
X144327143Y-110629819D02*
X144660476Y-111153628D01*
X144660476Y-111153628D02*
X144993809Y-110629819D01*
X145470000Y-111629819D02*
X145374762Y-111582200D01*
X145374762Y-111582200D02*
X145327143Y-111534580D01*
X145327143Y-111534580D02*
X145279524Y-111439342D01*
X145279524Y-111439342D02*
X145279524Y-111153628D01*
X145279524Y-111153628D02*
X145327143Y-111058390D01*
X145327143Y-111058390D02*
X145374762Y-111010771D01*
X145374762Y-111010771D02*
X145470000Y-110963152D01*
X145470000Y-110963152D02*
X145612857Y-110963152D01*
X145612857Y-110963152D02*
X145708095Y-111010771D01*
X145708095Y-111010771D02*
X145755714Y-111058390D01*
X145755714Y-111058390D02*
X145803333Y-111153628D01*
X145803333Y-111153628D02*
X145803333Y-111439342D01*
X145803333Y-111439342D02*
X145755714Y-111534580D01*
X145755714Y-111534580D02*
X145708095Y-111582200D01*
X145708095Y-111582200D02*
X145612857Y-111629819D01*
X145612857Y-111629819D02*
X145470000Y-111629819D01*
X146660476Y-110963152D02*
X146660476Y-111629819D01*
X146231905Y-110963152D02*
X146231905Y-111486961D01*
X146231905Y-111486961D02*
X146279524Y-111582200D01*
X146279524Y-111582200D02*
X146374762Y-111629819D01*
X146374762Y-111629819D02*
X146517619Y-111629819D01*
X146517619Y-111629819D02*
X146612857Y-111582200D01*
X146612857Y-111582200D02*
X146660476Y-111534580D01*
X147136667Y-111629819D02*
X147136667Y-110963152D01*
X147136667Y-111153628D02*
X147184286Y-111058390D01*
X147184286Y-111058390D02*
X147231905Y-111010771D01*
X147231905Y-111010771D02*
X147327143Y-110963152D01*
X147327143Y-110963152D02*
X147422381Y-110963152D01*
X147708096Y-111582200D02*
X147803334Y-111629819D01*
X147803334Y-111629819D02*
X147993810Y-111629819D01*
X147993810Y-111629819D02*
X148089048Y-111582200D01*
X148089048Y-111582200D02*
X148136667Y-111486961D01*
X148136667Y-111486961D02*
X148136667Y-111439342D01*
X148136667Y-111439342D02*
X148089048Y-111344104D01*
X148089048Y-111344104D02*
X147993810Y-111296485D01*
X147993810Y-111296485D02*
X147850953Y-111296485D01*
X147850953Y-111296485D02*
X147755715Y-111248866D01*
X147755715Y-111248866D02*
X147708096Y-111153628D01*
X147708096Y-111153628D02*
X147708096Y-111106009D01*
X147708096Y-111106009D02*
X147755715Y-111010771D01*
X147755715Y-111010771D02*
X147850953Y-110963152D01*
X147850953Y-110963152D02*
X147993810Y-110963152D01*
X147993810Y-110963152D02*
X148089048Y-111010771D01*
X148565239Y-111534580D02*
X148612858Y-111582200D01*
X148612858Y-111582200D02*
X148565239Y-111629819D01*
X148565239Y-111629819D02*
X148517620Y-111582200D01*
X148517620Y-111582200D02*
X148565239Y-111534580D01*
X148565239Y-111534580D02*
X148565239Y-111629819D01*
X138792769Y-124235845D02*
X138935626Y-124283464D01*
X138935626Y-124283464D02*
X138983245Y-124331083D01*
X138983245Y-124331083D02*
X139030864Y-124426321D01*
X139030864Y-124426321D02*
X139030864Y-124569178D01*
X139030864Y-124569178D02*
X138983245Y-124664416D01*
X138983245Y-124664416D02*
X138935626Y-124712036D01*
X138935626Y-124712036D02*
X138840388Y-124759655D01*
X138840388Y-124759655D02*
X138459436Y-124759655D01*
X138459436Y-124759655D02*
X138459436Y-123759655D01*
X138459436Y-123759655D02*
X138792769Y-123759655D01*
X138792769Y-123759655D02*
X138888007Y-123807274D01*
X138888007Y-123807274D02*
X138935626Y-123854893D01*
X138935626Y-123854893D02*
X138983245Y-123950131D01*
X138983245Y-123950131D02*
X138983245Y-124045369D01*
X138983245Y-124045369D02*
X138935626Y-124140607D01*
X138935626Y-124140607D02*
X138888007Y-124188226D01*
X138888007Y-124188226D02*
X138792769Y-124235845D01*
X138792769Y-124235845D02*
X138459436Y-124235845D01*
X139935626Y-124759655D02*
X139459436Y-124759655D01*
X139459436Y-124759655D02*
X139459436Y-123759655D01*
X140268960Y-124759655D02*
X140268960Y-123759655D01*
X140840388Y-124759655D02*
X140411817Y-124188226D01*
X140840388Y-123759655D02*
X140268960Y-124331083D01*
X138173722Y-125369655D02*
X138364198Y-125369655D01*
X138364198Y-125369655D02*
X138459436Y-125417274D01*
X138459436Y-125417274D02*
X138554674Y-125512512D01*
X138554674Y-125512512D02*
X138602293Y-125702988D01*
X138602293Y-125702988D02*
X138602293Y-126036321D01*
X138602293Y-126036321D02*
X138554674Y-126226797D01*
X138554674Y-126226797D02*
X138459436Y-126322036D01*
X138459436Y-126322036D02*
X138364198Y-126369655D01*
X138364198Y-126369655D02*
X138173722Y-126369655D01*
X138173722Y-126369655D02*
X138078484Y-126322036D01*
X138078484Y-126322036D02*
X137983246Y-126226797D01*
X137983246Y-126226797D02*
X137935627Y-126036321D01*
X137935627Y-126036321D02*
X137935627Y-125702988D01*
X137935627Y-125702988D02*
X137983246Y-125512512D01*
X137983246Y-125512512D02*
X138078484Y-125417274D01*
X138078484Y-125417274D02*
X138173722Y-125369655D01*
X139364198Y-125845845D02*
X139507055Y-125893464D01*
X139507055Y-125893464D02*
X139554674Y-125941083D01*
X139554674Y-125941083D02*
X139602293Y-126036321D01*
X139602293Y-126036321D02*
X139602293Y-126179178D01*
X139602293Y-126179178D02*
X139554674Y-126274416D01*
X139554674Y-126274416D02*
X139507055Y-126322036D01*
X139507055Y-126322036D02*
X139411817Y-126369655D01*
X139411817Y-126369655D02*
X139030865Y-126369655D01*
X139030865Y-126369655D02*
X139030865Y-125369655D01*
X139030865Y-125369655D02*
X139364198Y-125369655D01*
X139364198Y-125369655D02*
X139459436Y-125417274D01*
X139459436Y-125417274D02*
X139507055Y-125464893D01*
X139507055Y-125464893D02*
X139554674Y-125560131D01*
X139554674Y-125560131D02*
X139554674Y-125655369D01*
X139554674Y-125655369D02*
X139507055Y-125750607D01*
X139507055Y-125750607D02*
X139459436Y-125798226D01*
X139459436Y-125798226D02*
X139364198Y-125845845D01*
X139364198Y-125845845D02*
X139030865Y-125845845D01*
X139983246Y-126322036D02*
X140126103Y-126369655D01*
X140126103Y-126369655D02*
X140364198Y-126369655D01*
X140364198Y-126369655D02*
X140459436Y-126322036D01*
X140459436Y-126322036D02*
X140507055Y-126274416D01*
X140507055Y-126274416D02*
X140554674Y-126179178D01*
X140554674Y-126179178D02*
X140554674Y-126083940D01*
X140554674Y-126083940D02*
X140507055Y-125988702D01*
X140507055Y-125988702D02*
X140459436Y-125941083D01*
X140459436Y-125941083D02*
X140364198Y-125893464D01*
X140364198Y-125893464D02*
X140173722Y-125845845D01*
X140173722Y-125845845D02*
X140078484Y-125798226D01*
X140078484Y-125798226D02*
X140030865Y-125750607D01*
X140030865Y-125750607D02*
X139983246Y-125655369D01*
X139983246Y-125655369D02*
X139983246Y-125560131D01*
X139983246Y-125560131D02*
X140030865Y-125464893D01*
X140030865Y-125464893D02*
X140078484Y-125417274D01*
X140078484Y-125417274D02*
X140173722Y-125369655D01*
X140173722Y-125369655D02*
X140411817Y-125369655D01*
X140411817Y-125369655D02*
X140554674Y-125417274D01*
X140840389Y-125369655D02*
X141411817Y-125369655D01*
X141126103Y-126369655D02*
X141126103Y-125369655D01*
X144984043Y-123689020D02*
X145222138Y-124689020D01*
X145222138Y-124689020D02*
X145412614Y-123974734D01*
X145412614Y-123974734D02*
X145603090Y-124689020D01*
X145603090Y-124689020D02*
X145841186Y-123689020D01*
X146222138Y-124689020D02*
X146222138Y-123689020D01*
X146222138Y-124165210D02*
X146793566Y-124165210D01*
X146793566Y-124689020D02*
X146793566Y-123689020D01*
X147126900Y-123689020D02*
X147698328Y-123689020D01*
X147412614Y-124689020D02*
X147412614Y-123689020D01*
X145555471Y-125346639D02*
X145460233Y-125299020D01*
X145460233Y-125299020D02*
X145317376Y-125299020D01*
X145317376Y-125299020D02*
X145174519Y-125346639D01*
X145174519Y-125346639D02*
X145079281Y-125441877D01*
X145079281Y-125441877D02*
X145031662Y-125537115D01*
X145031662Y-125537115D02*
X144984043Y-125727591D01*
X144984043Y-125727591D02*
X144984043Y-125870448D01*
X144984043Y-125870448D02*
X145031662Y-126060924D01*
X145031662Y-126060924D02*
X145079281Y-126156162D01*
X145079281Y-126156162D02*
X145174519Y-126251401D01*
X145174519Y-126251401D02*
X145317376Y-126299020D01*
X145317376Y-126299020D02*
X145412614Y-126299020D01*
X145412614Y-126299020D02*
X145555471Y-126251401D01*
X145555471Y-126251401D02*
X145603090Y-126203781D01*
X145603090Y-126203781D02*
X145603090Y-125870448D01*
X145603090Y-125870448D02*
X145412614Y-125870448D01*
X146031662Y-126299020D02*
X146031662Y-125299020D01*
X146031662Y-125299020D02*
X146603090Y-126299020D01*
X146603090Y-126299020D02*
X146603090Y-125299020D01*
X147079281Y-126299020D02*
X147079281Y-125299020D01*
X147079281Y-125299020D02*
X147317376Y-125299020D01*
X147317376Y-125299020D02*
X147460233Y-125346639D01*
X147460233Y-125346639D02*
X147555471Y-125441877D01*
X147555471Y-125441877D02*
X147603090Y-125537115D01*
X147603090Y-125537115D02*
X147650709Y-125727591D01*
X147650709Y-125727591D02*
X147650709Y-125870448D01*
X147650709Y-125870448D02*
X147603090Y-126060924D01*
X147603090Y-126060924D02*
X147555471Y-126156162D01*
X147555471Y-126156162D02*
X147460233Y-126251401D01*
X147460233Y-126251401D02*
X147317376Y-126299020D01*
X147317376Y-126299020D02*
X147079281Y-126299020D01*
X161123333Y-71574819D02*
X160790000Y-71098628D01*
X160551905Y-71574819D02*
X160551905Y-70574819D01*
X160551905Y-70574819D02*
X160932857Y-70574819D01*
X160932857Y-70574819D02*
X161028095Y-70622438D01*
X161028095Y-70622438D02*
X161075714Y-70670057D01*
X161075714Y-70670057D02*
X161123333Y-70765295D01*
X161123333Y-70765295D02*
X161123333Y-70908152D01*
X161123333Y-70908152D02*
X161075714Y-71003390D01*
X161075714Y-71003390D02*
X161028095Y-71051009D01*
X161028095Y-71051009D02*
X160932857Y-71098628D01*
X160932857Y-71098628D02*
X160551905Y-71098628D01*
X161456667Y-70574819D02*
X162075714Y-70574819D01*
X162075714Y-70574819D02*
X161742381Y-70955771D01*
X161742381Y-70955771D02*
X161885238Y-70955771D01*
X161885238Y-70955771D02*
X161980476Y-71003390D01*
X161980476Y-71003390D02*
X162028095Y-71051009D01*
X162028095Y-71051009D02*
X162075714Y-71146247D01*
X162075714Y-71146247D02*
X162075714Y-71384342D01*
X162075714Y-71384342D02*
X162028095Y-71479580D01*
X162028095Y-71479580D02*
X161980476Y-71527200D01*
X161980476Y-71527200D02*
X161885238Y-71574819D01*
X161885238Y-71574819D02*
X161599524Y-71574819D01*
X161599524Y-71574819D02*
X161504286Y-71527200D01*
X161504286Y-71527200D02*
X161456667Y-71479580D01*
X158987261Y-74350057D02*
X158892023Y-74302438D01*
X158892023Y-74302438D02*
X158796785Y-74207200D01*
X158796785Y-74207200D02*
X158653928Y-74064342D01*
X158653928Y-74064342D02*
X158558690Y-74016723D01*
X158558690Y-74016723D02*
X158463452Y-74016723D01*
X158511071Y-74254819D02*
X158415833Y-74207200D01*
X158415833Y-74207200D02*
X158320595Y-74111961D01*
X158320595Y-74111961D02*
X158272976Y-73921485D01*
X158272976Y-73921485D02*
X158272976Y-73588152D01*
X158272976Y-73588152D02*
X158320595Y-73397676D01*
X158320595Y-73397676D02*
X158415833Y-73302438D01*
X158415833Y-73302438D02*
X158511071Y-73254819D01*
X158511071Y-73254819D02*
X158701547Y-73254819D01*
X158701547Y-73254819D02*
X158796785Y-73302438D01*
X158796785Y-73302438D02*
X158892023Y-73397676D01*
X158892023Y-73397676D02*
X158939642Y-73588152D01*
X158939642Y-73588152D02*
X158939642Y-73921485D01*
X158939642Y-73921485D02*
X158892023Y-74111961D01*
X158892023Y-74111961D02*
X158796785Y-74207200D01*
X158796785Y-74207200D02*
X158701547Y-74254819D01*
X158701547Y-74254819D02*
X158511071Y-74254819D01*
X159320595Y-73350057D02*
X159368214Y-73302438D01*
X159368214Y-73302438D02*
X159463452Y-73254819D01*
X159463452Y-73254819D02*
X159701547Y-73254819D01*
X159701547Y-73254819D02*
X159796785Y-73302438D01*
X159796785Y-73302438D02*
X159844404Y-73350057D01*
X159844404Y-73350057D02*
X159892023Y-73445295D01*
X159892023Y-73445295D02*
X159892023Y-73540533D01*
X159892023Y-73540533D02*
X159844404Y-73683390D01*
X159844404Y-73683390D02*
X159272976Y-74254819D01*
X159272976Y-74254819D02*
X159892023Y-74254819D01*
X147828095Y-95974819D02*
X147828095Y-96784342D01*
X147828095Y-96784342D02*
X147875714Y-96879580D01*
X147875714Y-96879580D02*
X147923333Y-96927200D01*
X147923333Y-96927200D02*
X148018571Y-96974819D01*
X148018571Y-96974819D02*
X148209047Y-96974819D01*
X148209047Y-96974819D02*
X148304285Y-96927200D01*
X148304285Y-96927200D02*
X148351904Y-96879580D01*
X148351904Y-96879580D02*
X148399523Y-96784342D01*
X148399523Y-96784342D02*
X148399523Y-95974819D01*
X148828095Y-96070057D02*
X148875714Y-96022438D01*
X148875714Y-96022438D02*
X148970952Y-95974819D01*
X148970952Y-95974819D02*
X149209047Y-95974819D01*
X149209047Y-95974819D02*
X149304285Y-96022438D01*
X149304285Y-96022438D02*
X149351904Y-96070057D01*
X149351904Y-96070057D02*
X149399523Y-96165295D01*
X149399523Y-96165295D02*
X149399523Y-96260533D01*
X149399523Y-96260533D02*
X149351904Y-96403390D01*
X149351904Y-96403390D02*
X148780476Y-96974819D01*
X148780476Y-96974819D02*
X149399523Y-96974819D01*
X139708095Y-97244819D02*
X139708095Y-98054342D01*
X139708095Y-98054342D02*
X139755714Y-98149580D01*
X139755714Y-98149580D02*
X139803333Y-98197200D01*
X139803333Y-98197200D02*
X139898571Y-98244819D01*
X139898571Y-98244819D02*
X140089047Y-98244819D01*
X140089047Y-98244819D02*
X140184285Y-98197200D01*
X140184285Y-98197200D02*
X140231904Y-98149580D01*
X140231904Y-98149580D02*
X140279523Y-98054342D01*
X140279523Y-98054342D02*
X140279523Y-97244819D01*
X140708095Y-98197200D02*
X140850952Y-98244819D01*
X140850952Y-98244819D02*
X141089047Y-98244819D01*
X141089047Y-98244819D02*
X141184285Y-98197200D01*
X141184285Y-98197200D02*
X141231904Y-98149580D01*
X141231904Y-98149580D02*
X141279523Y-98054342D01*
X141279523Y-98054342D02*
X141279523Y-97959104D01*
X141279523Y-97959104D02*
X141231904Y-97863866D01*
X141231904Y-97863866D02*
X141184285Y-97816247D01*
X141184285Y-97816247D02*
X141089047Y-97768628D01*
X141089047Y-97768628D02*
X140898571Y-97721009D01*
X140898571Y-97721009D02*
X140803333Y-97673390D01*
X140803333Y-97673390D02*
X140755714Y-97625771D01*
X140755714Y-97625771D02*
X140708095Y-97530533D01*
X140708095Y-97530533D02*
X140708095Y-97435295D01*
X140708095Y-97435295D02*
X140755714Y-97340057D01*
X140755714Y-97340057D02*
X140803333Y-97292438D01*
X140803333Y-97292438D02*
X140898571Y-97244819D01*
X140898571Y-97244819D02*
X141136666Y-97244819D01*
X141136666Y-97244819D02*
X141279523Y-97292438D01*
X142041428Y-97721009D02*
X142184285Y-97768628D01*
X142184285Y-97768628D02*
X142231904Y-97816247D01*
X142231904Y-97816247D02*
X142279523Y-97911485D01*
X142279523Y-97911485D02*
X142279523Y-98054342D01*
X142279523Y-98054342D02*
X142231904Y-98149580D01*
X142231904Y-98149580D02*
X142184285Y-98197200D01*
X142184285Y-98197200D02*
X142089047Y-98244819D01*
X142089047Y-98244819D02*
X141708095Y-98244819D01*
X141708095Y-98244819D02*
X141708095Y-97244819D01*
X141708095Y-97244819D02*
X142041428Y-97244819D01*
X142041428Y-97244819D02*
X142136666Y-97292438D01*
X142136666Y-97292438D02*
X142184285Y-97340057D01*
X142184285Y-97340057D02*
X142231904Y-97435295D01*
X142231904Y-97435295D02*
X142231904Y-97530533D01*
X142231904Y-97530533D02*
X142184285Y-97625771D01*
X142184285Y-97625771D02*
X142136666Y-97673390D01*
X142136666Y-97673390D02*
X142041428Y-97721009D01*
X142041428Y-97721009D02*
X141708095Y-97721009D01*
X128992380Y-93164819D02*
X128659047Y-92688628D01*
X128420952Y-93164819D02*
X128420952Y-92164819D01*
X128420952Y-92164819D02*
X128801904Y-92164819D01*
X128801904Y-92164819D02*
X128897142Y-92212438D01*
X128897142Y-92212438D02*
X128944761Y-92260057D01*
X128944761Y-92260057D02*
X128992380Y-92355295D01*
X128992380Y-92355295D02*
X128992380Y-92498152D01*
X128992380Y-92498152D02*
X128944761Y-92593390D01*
X128944761Y-92593390D02*
X128897142Y-92641009D01*
X128897142Y-92641009D02*
X128801904Y-92688628D01*
X128801904Y-92688628D02*
X128420952Y-92688628D01*
X129373333Y-93117200D02*
X129516190Y-93164819D01*
X129516190Y-93164819D02*
X129754285Y-93164819D01*
X129754285Y-93164819D02*
X129849523Y-93117200D01*
X129849523Y-93117200D02*
X129897142Y-93069580D01*
X129897142Y-93069580D02*
X129944761Y-92974342D01*
X129944761Y-92974342D02*
X129944761Y-92879104D01*
X129944761Y-92879104D02*
X129897142Y-92783866D01*
X129897142Y-92783866D02*
X129849523Y-92736247D01*
X129849523Y-92736247D02*
X129754285Y-92688628D01*
X129754285Y-92688628D02*
X129563809Y-92641009D01*
X129563809Y-92641009D02*
X129468571Y-92593390D01*
X129468571Y-92593390D02*
X129420952Y-92545771D01*
X129420952Y-92545771D02*
X129373333Y-92450533D01*
X129373333Y-92450533D02*
X129373333Y-92355295D01*
X129373333Y-92355295D02*
X129420952Y-92260057D01*
X129420952Y-92260057D02*
X129468571Y-92212438D01*
X129468571Y-92212438D02*
X129563809Y-92164819D01*
X129563809Y-92164819D02*
X129801904Y-92164819D01*
X129801904Y-92164819D02*
X129944761Y-92212438D01*
X130230476Y-92164819D02*
X130801904Y-92164819D01*
X130516190Y-93164819D02*
X130516190Y-92164819D01*
X158654761Y-86437557D02*
X158559523Y-86389938D01*
X158559523Y-86389938D02*
X158464285Y-86294700D01*
X158464285Y-86294700D02*
X158321428Y-86151842D01*
X158321428Y-86151842D02*
X158226190Y-86104223D01*
X158226190Y-86104223D02*
X158130952Y-86104223D01*
X158178571Y-86342319D02*
X158083333Y-86294700D01*
X158083333Y-86294700D02*
X157988095Y-86199461D01*
X157988095Y-86199461D02*
X157940476Y-86008985D01*
X157940476Y-86008985D02*
X157940476Y-85675652D01*
X157940476Y-85675652D02*
X157988095Y-85485176D01*
X157988095Y-85485176D02*
X158083333Y-85389938D01*
X158083333Y-85389938D02*
X158178571Y-85342319D01*
X158178571Y-85342319D02*
X158369047Y-85342319D01*
X158369047Y-85342319D02*
X158464285Y-85389938D01*
X158464285Y-85389938D02*
X158559523Y-85485176D01*
X158559523Y-85485176D02*
X158607142Y-85675652D01*
X158607142Y-85675652D02*
X158607142Y-86008985D01*
X158607142Y-86008985D02*
X158559523Y-86199461D01*
X158559523Y-86199461D02*
X158464285Y-86294700D01*
X158464285Y-86294700D02*
X158369047Y-86342319D01*
X158369047Y-86342319D02*
X158178571Y-86342319D01*
X159559523Y-86342319D02*
X158988095Y-86342319D01*
X159273809Y-86342319D02*
X159273809Y-85342319D01*
X159273809Y-85342319D02*
X159178571Y-85485176D01*
X159178571Y-85485176D02*
X159083333Y-85580414D01*
X159083333Y-85580414D02*
X158988095Y-85628033D01*
X157146666Y-113754819D02*
X157146666Y-114469104D01*
X157146666Y-114469104D02*
X157099047Y-114611961D01*
X157099047Y-114611961D02*
X157003809Y-114707200D01*
X157003809Y-114707200D02*
X156860952Y-114754819D01*
X156860952Y-114754819D02*
X156765714Y-114754819D01*
X157575238Y-113850057D02*
X157622857Y-113802438D01*
X157622857Y-113802438D02*
X157718095Y-113754819D01*
X157718095Y-113754819D02*
X157956190Y-113754819D01*
X157956190Y-113754819D02*
X158051428Y-113802438D01*
X158051428Y-113802438D02*
X158099047Y-113850057D01*
X158099047Y-113850057D02*
X158146666Y-113945295D01*
X158146666Y-113945295D02*
X158146666Y-114040533D01*
X158146666Y-114040533D02*
X158099047Y-114183390D01*
X158099047Y-114183390D02*
X157527619Y-114754819D01*
X157527619Y-114754819D02*
X158146666Y-114754819D01*
X125396666Y-113754819D02*
X125396666Y-114469104D01*
X125396666Y-114469104D02*
X125349047Y-114611961D01*
X125349047Y-114611961D02*
X125253809Y-114707200D01*
X125253809Y-114707200D02*
X125110952Y-114754819D01*
X125110952Y-114754819D02*
X125015714Y-114754819D01*
X126396666Y-114754819D02*
X125825238Y-114754819D01*
X126110952Y-114754819D02*
X126110952Y-113754819D01*
X126110952Y-113754819D02*
X126015714Y-113897676D01*
X126015714Y-113897676D02*
X125920476Y-113992914D01*
X125920476Y-113992914D02*
X125825238Y-114040533D01*
X120483333Y-79194819D02*
X120150000Y-78718628D01*
X119911905Y-79194819D02*
X119911905Y-78194819D01*
X119911905Y-78194819D02*
X120292857Y-78194819D01*
X120292857Y-78194819D02*
X120388095Y-78242438D01*
X120388095Y-78242438D02*
X120435714Y-78290057D01*
X120435714Y-78290057D02*
X120483333Y-78385295D01*
X120483333Y-78385295D02*
X120483333Y-78528152D01*
X120483333Y-78528152D02*
X120435714Y-78623390D01*
X120435714Y-78623390D02*
X120388095Y-78671009D01*
X120388095Y-78671009D02*
X120292857Y-78718628D01*
X120292857Y-78718628D02*
X119911905Y-78718628D01*
X120864286Y-78290057D02*
X120911905Y-78242438D01*
X120911905Y-78242438D02*
X121007143Y-78194819D01*
X121007143Y-78194819D02*
X121245238Y-78194819D01*
X121245238Y-78194819D02*
X121340476Y-78242438D01*
X121340476Y-78242438D02*
X121388095Y-78290057D01*
X121388095Y-78290057D02*
X121435714Y-78385295D01*
X121435714Y-78385295D02*
X121435714Y-78480533D01*
X121435714Y-78480533D02*
X121388095Y-78623390D01*
X121388095Y-78623390D02*
X120816667Y-79194819D01*
X120816667Y-79194819D02*
X121435714Y-79194819D01*
X120483333Y-83004819D02*
X120150000Y-82528628D01*
X119911905Y-83004819D02*
X119911905Y-82004819D01*
X119911905Y-82004819D02*
X120292857Y-82004819D01*
X120292857Y-82004819D02*
X120388095Y-82052438D01*
X120388095Y-82052438D02*
X120435714Y-82100057D01*
X120435714Y-82100057D02*
X120483333Y-82195295D01*
X120483333Y-82195295D02*
X120483333Y-82338152D01*
X120483333Y-82338152D02*
X120435714Y-82433390D01*
X120435714Y-82433390D02*
X120388095Y-82481009D01*
X120388095Y-82481009D02*
X120292857Y-82528628D01*
X120292857Y-82528628D02*
X119911905Y-82528628D01*
X121435714Y-83004819D02*
X120864286Y-83004819D01*
X121150000Y-83004819D02*
X121150000Y-82004819D01*
X121150000Y-82004819D02*
X121054762Y-82147676D01*
X121054762Y-82147676D02*
X120959524Y-82242914D01*
X120959524Y-82242914D02*
X120864286Y-82290533D01*
D11*
%TO.C,R3*%
X158977064Y-71999162D02*
X158522936Y-71999162D01*
X158977064Y-70529162D02*
X158522936Y-70529162D01*
%TO.C,Q2*%
X159082500Y-74640000D02*
X157407500Y-74640000D01*
X159082500Y-74640000D02*
X159732500Y-74640000D01*
X159082500Y-77760000D02*
X158432500Y-77760000D01*
X159082500Y-77760000D02*
X159732500Y-77760000D01*
%TO.C,U2*%
X125730000Y-60960000D02*
X125730000Y-90170000D01*
X125730000Y-90170000D02*
X128270000Y-90170000D01*
X128270000Y-58420000D02*
X125730000Y-60960000D01*
X128270000Y-58420000D02*
X129540000Y-58420000D01*
X128270000Y-90170000D02*
X128270000Y-95250000D01*
X128270000Y-95250000D02*
X156210000Y-95250000D01*
X135890000Y-92710000D02*
X146050000Y-92710000D01*
X135890000Y-95250000D02*
X135890000Y-92710000D01*
X135890000Y-95250000D02*
X135890000Y-101600000D01*
X135890000Y-101600000D02*
X146050000Y-101600000D01*
X146050000Y-92710000D02*
X146050000Y-95250000D01*
X146050000Y-101600000D02*
X146050000Y-95250000D01*
X153670000Y-58420000D02*
X129540000Y-58420000D01*
X153670000Y-58420000D02*
X156210000Y-60960000D01*
X156210000Y-60960000D02*
X156210000Y-95250000D01*
D12*
X128270000Y-93980000D02*
X127000000Y-93980000D01*
X127000000Y-91440000D01*
X128270000Y-91440000D01*
X128270000Y-93980000D01*
G36*
X128270000Y-93980000D02*
G01*
X127000000Y-93980000D01*
X127000000Y-91440000D01*
X128270000Y-91440000D01*
X128270000Y-93980000D01*
G37*
D11*
%TO.C,Q1*%
X158750000Y-85047500D02*
X160425000Y-85047500D01*
X158750000Y-85047500D02*
X158100000Y-85047500D01*
X158750000Y-81927500D02*
X159400000Y-81927500D01*
X158750000Y-81927500D02*
X158100000Y-81927500D01*
%TO.C,J2*%
X143720000Y-114630000D02*
X145720000Y-114630000D01*
X143720000Y-115880000D02*
X143720000Y-114630000D01*
X144110000Y-115020000D02*
X144110000Y-122490000D01*
X144110000Y-122490000D02*
X156230000Y-122490000D01*
X145170000Y-115980000D02*
X148170000Y-115980000D01*
X145170000Y-117330000D02*
X145920000Y-117330000D01*
X145170000Y-121630000D02*
X145170000Y-117330000D01*
X145420000Y-116980000D02*
X145170000Y-115980000D01*
X145920000Y-116980000D02*
X145420000Y-116980000D01*
X145920000Y-117330000D02*
X145920000Y-116980000D01*
X145920000Y-121630000D02*
X145170000Y-121630000D01*
X147420000Y-116980000D02*
X147420000Y-117330000D01*
X147420000Y-117330000D02*
X148170000Y-117330000D01*
X147920000Y-116980000D02*
X147420000Y-116980000D01*
X148170000Y-115980000D02*
X147920000Y-116980000D01*
X148170000Y-117330000D02*
X148170000Y-121630000D01*
X148170000Y-121630000D02*
X147420000Y-121630000D01*
X148670000Y-115980000D02*
X151670000Y-115980000D01*
X148670000Y-117330000D02*
X149420000Y-117330000D01*
X148670000Y-121630000D02*
X148670000Y-117330000D01*
X148920000Y-116980000D02*
X148670000Y-115980000D01*
X149420000Y-116980000D02*
X148920000Y-116980000D01*
X149420000Y-117330000D02*
X149420000Y-116980000D01*
X149420000Y-121630000D02*
X148670000Y-121630000D01*
X150920000Y-116980000D02*
X150920000Y-117330000D01*
X150920000Y-117330000D02*
X151670000Y-117330000D01*
X151420000Y-116980000D02*
X150920000Y-116980000D01*
X151670000Y-115980000D02*
X151420000Y-116980000D01*
X151670000Y-117330000D02*
X151670000Y-121630000D01*
X151670000Y-121630000D02*
X150920000Y-121630000D01*
X152170000Y-115980000D02*
X155170000Y-115980000D01*
X152170000Y-117330000D02*
X152920000Y-117330000D01*
X152170000Y-121630000D02*
X152170000Y-117330000D01*
X152420000Y-116980000D02*
X152170000Y-115980000D01*
X152920000Y-116980000D02*
X152420000Y-116980000D01*
X152920000Y-117330000D02*
X152920000Y-116980000D01*
X152920000Y-121630000D02*
X152170000Y-121630000D01*
X154420000Y-116980000D02*
X154420000Y-117330000D01*
X154420000Y-117330000D02*
X155170000Y-117330000D01*
X154920000Y-116980000D02*
X154420000Y-116980000D01*
X155170000Y-115980000D02*
X154920000Y-116980000D01*
X155170000Y-117330000D02*
X155170000Y-121630000D01*
X155170000Y-121630000D02*
X154420000Y-121630000D01*
X156230000Y-115020000D02*
X144110000Y-115020000D01*
X156230000Y-122490000D02*
X156230000Y-115020000D01*
X147419647Y-121629845D02*
G75*
G03*
X145920000Y-121630000I-749647J-1700155D01*
G01*
X150919647Y-121629845D02*
G75*
G03*
X149420000Y-121630000I-749647J-1700155D01*
G01*
X154419647Y-121629845D02*
G75*
G03*
X152920000Y-121630000I-749647J-1700155D01*
G01*
%TO.C,J1*%
X126900000Y-122575000D02*
X126900000Y-123315000D01*
X126900000Y-123315000D02*
X127400000Y-123315000D01*
X127140000Y-113154000D02*
X127140000Y-123075000D01*
X127140000Y-113154000D02*
X142260000Y-113154000D01*
X127140000Y-116114000D02*
X142260000Y-116114000D01*
X127140000Y-121015000D02*
X142260000Y-121015000D01*
X127140000Y-122515000D02*
X142260000Y-122515000D01*
X127140000Y-123075000D02*
X142260000Y-123075000D01*
X133473000Y-119438000D02*
X133426000Y-119484000D01*
X133666000Y-119654000D02*
X133631000Y-119689000D01*
X135770000Y-117140000D02*
X135735000Y-117176000D01*
X135975000Y-117346000D02*
X135928000Y-117392000D01*
X138473000Y-119438000D02*
X138426000Y-119484000D01*
X138666000Y-119654000D02*
X138631000Y-119689000D01*
X140770000Y-117140000D02*
X140735000Y-117176000D01*
X140975000Y-117346000D02*
X140928000Y-117392000D01*
X142260000Y-113154000D02*
X142260000Y-123075000D01*
X128165001Y-117731001D02*
G75*
G03*
X128164574Y-119098042I1534992J-684000D01*
G01*
X130383999Y-116880001D02*
G75*
G03*
X129016958Y-116879574I-684000J-1534992D01*
G01*
X129016000Y-119949999D02*
G75*
G03*
X129728805Y-120095252I683999J1535000D01*
G01*
X129700000Y-120094999D02*
G75*
G03*
X130383318Y-119949755I0J1679999D01*
G01*
X131235000Y-119099000D02*
G75*
G03*
X131235426Y-117731958I-1535000J684000D01*
G01*
X136380000Y-118415000D02*
G75*
G03*
X136380000Y-118415000I-1680000J0D01*
G01*
X141380000Y-118415000D02*
G75*
G03*
X141380000Y-118415000I-1680000J0D01*
G01*
%TO.C,R2*%
X123417064Y-79475000D02*
X122962936Y-79475000D01*
X123417064Y-78005000D02*
X122962936Y-78005000D01*
%TO.C,R1*%
X122962936Y-81815000D02*
X123417064Y-81815000D01*
X122962936Y-83285000D02*
X123417064Y-83285000D01*
%TD*%
M02*
