%TF.GenerationSoftware,KiCad,Pcbnew,7.0.7*%
<<<<<<< Updated upstream
%TF.CreationDate,2023-10-30T20:42:16-06:00*%
%TF.ProjectId,RatGDO-OpenSource-D1Mini-ESP32,52617447-444f-42d4-9f70-656e536f7572,rev?*%
=======
%TF.CreationDate,2023-10-28T20:58:12-06:00*%
%TF.ProjectId,RatGDO-OpenSource,52617447-444f-42d4-9f70-656e536f7572,rev?*%
>>>>>>> Stashed changes
%TF.SameCoordinates,Original*%
%TF.FileFunction,Legend,Bot*%
%TF.FilePolarity,Positive*%
%FSLAX46Y46*%
G04 Gerber Fmt 4.6, Leading zero omitted, Abs format (unit mm)*
<<<<<<< Updated upstream
G04 Created by KiCad (PCBNEW 7.0.7) date 2023-10-30 20:42:16*
=======
G04 Created by KiCad (PCBNEW 7.0.7) date 2023-10-28 20:58:12*
>>>>>>> Stashed changes
%MOMM*%
%LPD*%
G01*
G04 APERTURE LIST*
%ADD10C,0.150000*%
G04 APERTURE END LIST*
D10*
<<<<<<< Updated upstream
X149777123Y-75773032D02*
X149872361Y-75725413D01*
X149872361Y-75725413D02*
X150015218Y-75725413D01*
X150015218Y-75725413D02*
X150158075Y-75773032D01*
X150158075Y-75773032D02*
X150253313Y-75868270D01*
X150253313Y-75868270D02*
X150300932Y-75963508D01*
X150300932Y-75963508D02*
X150348551Y-76153984D01*
X150348551Y-76153984D02*
X150348551Y-76296841D01*
X150348551Y-76296841D02*
X150300932Y-76487317D01*
X150300932Y-76487317D02*
X150253313Y-76582555D01*
X150253313Y-76582555D02*
X150158075Y-76677794D01*
X150158075Y-76677794D02*
X150015218Y-76725413D01*
X150015218Y-76725413D02*
X149919980Y-76725413D01*
X149919980Y-76725413D02*
X149777123Y-76677794D01*
X149777123Y-76677794D02*
X149729504Y-76630174D01*
X149729504Y-76630174D02*
X149729504Y-76296841D01*
X149729504Y-76296841D02*
X149919980Y-76296841D01*
X149300932Y-76725413D02*
X149300932Y-75725413D01*
X149300932Y-75725413D02*
X148919980Y-75725413D01*
X148919980Y-75725413D02*
X148824742Y-75773032D01*
X148824742Y-75773032D02*
X148777123Y-75820651D01*
X148777123Y-75820651D02*
X148729504Y-75915889D01*
X148729504Y-75915889D02*
X148729504Y-76058746D01*
X148729504Y-76058746D02*
X148777123Y-76153984D01*
X148777123Y-76153984D02*
X148824742Y-76201603D01*
X148824742Y-76201603D02*
X148919980Y-76249222D01*
X148919980Y-76249222D02*
X149300932Y-76249222D01*
X148300932Y-76725413D02*
X148300932Y-75725413D01*
X147634266Y-75725413D02*
X147443790Y-75725413D01*
X147443790Y-75725413D02*
X147348552Y-75773032D01*
X147348552Y-75773032D02*
X147253314Y-75868270D01*
X147253314Y-75868270D02*
X147205695Y-76058746D01*
X147205695Y-76058746D02*
X147205695Y-76392079D01*
X147205695Y-76392079D02*
X147253314Y-76582555D01*
X147253314Y-76582555D02*
X147348552Y-76677794D01*
X147348552Y-76677794D02*
X147443790Y-76725413D01*
X147443790Y-76725413D02*
X147634266Y-76725413D01*
X147634266Y-76725413D02*
X147729504Y-76677794D01*
X147729504Y-76677794D02*
X147824742Y-76582555D01*
X147824742Y-76582555D02*
X147872361Y-76392079D01*
X147872361Y-76392079D02*
X147872361Y-76058746D01*
X147872361Y-76058746D02*
X147824742Y-75868270D01*
X147824742Y-75868270D02*
X147729504Y-75773032D01*
X147729504Y-75773032D02*
X147634266Y-75725413D01*
X146253314Y-76725413D02*
X146824742Y-76725413D01*
X146539028Y-76725413D02*
X146539028Y-75725413D01*
X146539028Y-75725413D02*
X146634266Y-75868270D01*
X146634266Y-75868270D02*
X146729504Y-75963508D01*
X146729504Y-75963508D02*
X146824742Y-76011127D01*
X145919980Y-75725413D02*
X145253314Y-75725413D01*
X145253314Y-75725413D02*
X145681885Y-76725413D01*
X133537507Y-66395116D02*
X133870840Y-65918925D01*
X134108935Y-66395116D02*
X134108935Y-65395116D01*
X134108935Y-65395116D02*
X133727983Y-65395116D01*
X133727983Y-65395116D02*
X133632745Y-65442735D01*
X133632745Y-65442735D02*
X133585126Y-65490354D01*
X133585126Y-65490354D02*
X133537507Y-65585592D01*
X133537507Y-65585592D02*
X133537507Y-65728449D01*
X133537507Y-65728449D02*
X133585126Y-65823687D01*
X133585126Y-65823687D02*
X133632745Y-65871306D01*
X133632745Y-65871306D02*
X133727983Y-65918925D01*
X133727983Y-65918925D02*
X134108935Y-65918925D01*
X133156554Y-66347497D02*
X133013697Y-66395116D01*
X133013697Y-66395116D02*
X132775602Y-66395116D01*
X132775602Y-66395116D02*
X132680364Y-66347497D01*
X132680364Y-66347497D02*
X132632745Y-66299877D01*
X132632745Y-66299877D02*
X132585126Y-66204639D01*
X132585126Y-66204639D02*
X132585126Y-66109401D01*
X132585126Y-66109401D02*
X132632745Y-66014163D01*
X132632745Y-66014163D02*
X132680364Y-65966544D01*
X132680364Y-65966544D02*
X132775602Y-65918925D01*
X132775602Y-65918925D02*
X132966078Y-65871306D01*
X132966078Y-65871306D02*
X133061316Y-65823687D01*
X133061316Y-65823687D02*
X133108935Y-65776068D01*
X133108935Y-65776068D02*
X133156554Y-65680830D01*
X133156554Y-65680830D02*
X133156554Y-65585592D01*
X133156554Y-65585592D02*
X133108935Y-65490354D01*
X133108935Y-65490354D02*
X133061316Y-65442735D01*
X133061316Y-65442735D02*
X132966078Y-65395116D01*
X132966078Y-65395116D02*
X132727983Y-65395116D01*
X132727983Y-65395116D02*
X132585126Y-65442735D01*
X132299411Y-65395116D02*
X131727983Y-65395116D01*
X132013697Y-66395116D02*
X132013697Y-65395116D01*
X149777123Y-70693032D02*
X149872361Y-70645413D01*
X149872361Y-70645413D02*
X150015218Y-70645413D01*
X150015218Y-70645413D02*
X150158075Y-70693032D01*
X150158075Y-70693032D02*
X150253313Y-70788270D01*
X150253313Y-70788270D02*
X150300932Y-70883508D01*
X150300932Y-70883508D02*
X150348551Y-71073984D01*
X150348551Y-71073984D02*
X150348551Y-71216841D01*
X150348551Y-71216841D02*
X150300932Y-71407317D01*
X150300932Y-71407317D02*
X150253313Y-71502555D01*
X150253313Y-71502555D02*
X150158075Y-71597794D01*
X150158075Y-71597794D02*
X150015218Y-71645413D01*
X150015218Y-71645413D02*
X149919980Y-71645413D01*
X149919980Y-71645413D02*
X149777123Y-71597794D01*
X149777123Y-71597794D02*
X149729504Y-71550174D01*
X149729504Y-71550174D02*
X149729504Y-71216841D01*
X149729504Y-71216841D02*
X149919980Y-71216841D01*
X149300932Y-71645413D02*
X149300932Y-70645413D01*
X149300932Y-70645413D02*
X148919980Y-70645413D01*
X148919980Y-70645413D02*
X148824742Y-70693032D01*
X148824742Y-70693032D02*
X148777123Y-70740651D01*
X148777123Y-70740651D02*
X148729504Y-70835889D01*
X148729504Y-70835889D02*
X148729504Y-70978746D01*
X148729504Y-70978746D02*
X148777123Y-71073984D01*
X148777123Y-71073984D02*
X148824742Y-71121603D01*
X148824742Y-71121603D02*
X148919980Y-71169222D01*
X148919980Y-71169222D02*
X149300932Y-71169222D01*
X148300932Y-71645413D02*
X148300932Y-70645413D01*
X147634266Y-70645413D02*
X147443790Y-70645413D01*
X147443790Y-70645413D02*
X147348552Y-70693032D01*
X147348552Y-70693032D02*
X147253314Y-70788270D01*
X147253314Y-70788270D02*
X147205695Y-70978746D01*
X147205695Y-70978746D02*
X147205695Y-71312079D01*
X147205695Y-71312079D02*
X147253314Y-71502555D01*
X147253314Y-71502555D02*
X147348552Y-71597794D01*
X147348552Y-71597794D02*
X147443790Y-71645413D01*
X147443790Y-71645413D02*
X147634266Y-71645413D01*
X147634266Y-71645413D02*
X147729504Y-71597794D01*
X147729504Y-71597794D02*
X147824742Y-71502555D01*
X147824742Y-71502555D02*
X147872361Y-71312079D01*
X147872361Y-71312079D02*
X147872361Y-70978746D01*
X147872361Y-70978746D02*
X147824742Y-70788270D01*
X147824742Y-70788270D02*
X147729504Y-70693032D01*
X147729504Y-70693032D02*
X147634266Y-70645413D01*
X146824742Y-70740651D02*
X146777123Y-70693032D01*
X146777123Y-70693032D02*
X146681885Y-70645413D01*
X146681885Y-70645413D02*
X146443790Y-70645413D01*
X146443790Y-70645413D02*
X146348552Y-70693032D01*
X146348552Y-70693032D02*
X146300933Y-70740651D01*
X146300933Y-70740651D02*
X146253314Y-70835889D01*
X146253314Y-70835889D02*
X146253314Y-70931127D01*
X146253314Y-70931127D02*
X146300933Y-71073984D01*
X146300933Y-71073984D02*
X146872361Y-71645413D01*
X146872361Y-71645413D02*
X146253314Y-71645413D01*
X145872361Y-70740651D02*
X145824742Y-70693032D01*
X145824742Y-70693032D02*
X145729504Y-70645413D01*
X145729504Y-70645413D02*
X145491409Y-70645413D01*
X145491409Y-70645413D02*
X145396171Y-70693032D01*
X145396171Y-70693032D02*
X145348552Y-70740651D01*
X145348552Y-70740651D02*
X145300933Y-70835889D01*
X145300933Y-70835889D02*
X145300933Y-70931127D01*
X145300933Y-70931127D02*
X145348552Y-71073984D01*
X145348552Y-71073984D02*
X145919980Y-71645413D01*
X145919980Y-71645413D02*
X145300933Y-71645413D01*
X149729504Y-69105413D02*
X150062837Y-68629222D01*
X150300932Y-69105413D02*
X150300932Y-68105413D01*
X150300932Y-68105413D02*
X149919980Y-68105413D01*
X149919980Y-68105413D02*
X149824742Y-68153032D01*
X149824742Y-68153032D02*
X149777123Y-68200651D01*
X149777123Y-68200651D02*
X149729504Y-68295889D01*
X149729504Y-68295889D02*
X149729504Y-68438746D01*
X149729504Y-68438746D02*
X149777123Y-68533984D01*
X149777123Y-68533984D02*
X149824742Y-68581603D01*
X149824742Y-68581603D02*
X149919980Y-68629222D01*
X149919980Y-68629222D02*
X150300932Y-68629222D01*
X149396170Y-68105413D02*
X148729504Y-69105413D01*
X148729504Y-68105413D02*
X149396170Y-69105413D01*
X149777123Y-78313032D02*
X149872361Y-78265413D01*
X149872361Y-78265413D02*
X150015218Y-78265413D01*
X150015218Y-78265413D02*
X150158075Y-78313032D01*
X150158075Y-78313032D02*
X150253313Y-78408270D01*
X150253313Y-78408270D02*
X150300932Y-78503508D01*
X150300932Y-78503508D02*
X150348551Y-78693984D01*
X150348551Y-78693984D02*
X150348551Y-78836841D01*
X150348551Y-78836841D02*
X150300932Y-79027317D01*
X150300932Y-79027317D02*
X150253313Y-79122555D01*
X150253313Y-79122555D02*
X150158075Y-79217794D01*
X150158075Y-79217794D02*
X150015218Y-79265413D01*
X150015218Y-79265413D02*
X149919980Y-79265413D01*
X149919980Y-79265413D02*
X149777123Y-79217794D01*
X149777123Y-79217794D02*
X149729504Y-79170174D01*
X149729504Y-79170174D02*
X149729504Y-78836841D01*
X149729504Y-78836841D02*
X149919980Y-78836841D01*
X149300932Y-79265413D02*
X149300932Y-78265413D01*
X149300932Y-78265413D02*
X148919980Y-78265413D01*
X148919980Y-78265413D02*
X148824742Y-78313032D01*
X148824742Y-78313032D02*
X148777123Y-78360651D01*
X148777123Y-78360651D02*
X148729504Y-78455889D01*
X148729504Y-78455889D02*
X148729504Y-78598746D01*
X148729504Y-78598746D02*
X148777123Y-78693984D01*
X148777123Y-78693984D02*
X148824742Y-78741603D01*
X148824742Y-78741603D02*
X148919980Y-78789222D01*
X148919980Y-78789222D02*
X149300932Y-78789222D01*
X148300932Y-79265413D02*
X148300932Y-78265413D01*
X147634266Y-78265413D02*
X147443790Y-78265413D01*
X147443790Y-78265413D02*
X147348552Y-78313032D01*
X147348552Y-78313032D02*
X147253314Y-78408270D01*
X147253314Y-78408270D02*
X147205695Y-78598746D01*
X147205695Y-78598746D02*
X147205695Y-78932079D01*
X147205695Y-78932079D02*
X147253314Y-79122555D01*
X147253314Y-79122555D02*
X147348552Y-79217794D01*
X147348552Y-79217794D02*
X147443790Y-79265413D01*
X147443790Y-79265413D02*
X147634266Y-79265413D01*
X147634266Y-79265413D02*
X147729504Y-79217794D01*
X147729504Y-79217794D02*
X147824742Y-79122555D01*
X147824742Y-79122555D02*
X147872361Y-78932079D01*
X147872361Y-78932079D02*
X147872361Y-78598746D01*
X147872361Y-78598746D02*
X147824742Y-78408270D01*
X147824742Y-78408270D02*
X147729504Y-78313032D01*
X147729504Y-78313032D02*
X147634266Y-78265413D01*
X146253314Y-79265413D02*
X146824742Y-79265413D01*
X146539028Y-79265413D02*
X146539028Y-78265413D01*
X146539028Y-78265413D02*
X146634266Y-78408270D01*
X146634266Y-78408270D02*
X146729504Y-78503508D01*
X146729504Y-78503508D02*
X146824742Y-78551127D01*
X145396171Y-78265413D02*
X145586647Y-78265413D01*
X145586647Y-78265413D02*
X145681885Y-78313032D01*
X145681885Y-78313032D02*
X145729504Y-78360651D01*
X145729504Y-78360651D02*
X145824742Y-78503508D01*
X145824742Y-78503508D02*
X145872361Y-78693984D01*
X145872361Y-78693984D02*
X145872361Y-79074936D01*
X145872361Y-79074936D02*
X145824742Y-79170174D01*
X145824742Y-79170174D02*
X145777123Y-79217794D01*
X145777123Y-79217794D02*
X145681885Y-79265413D01*
X145681885Y-79265413D02*
X145491409Y-79265413D01*
X145491409Y-79265413D02*
X145396171Y-79217794D01*
X145396171Y-79217794D02*
X145348552Y-79170174D01*
X145348552Y-79170174D02*
X145300933Y-79074936D01*
X145300933Y-79074936D02*
X145300933Y-78836841D01*
X145300933Y-78836841D02*
X145348552Y-78741603D01*
X145348552Y-78741603D02*
X145396171Y-78693984D01*
X145396171Y-78693984D02*
X145491409Y-78646365D01*
X145491409Y-78646365D02*
X145681885Y-78646365D01*
X145681885Y-78646365D02*
X145777123Y-78693984D01*
X145777123Y-78693984D02*
X145824742Y-78741603D01*
X145824742Y-78741603D02*
X145872361Y-78836841D01*
X136299411Y-78142735D02*
X136394649Y-78095116D01*
X136394649Y-78095116D02*
X136537506Y-78095116D01*
X136537506Y-78095116D02*
X136680363Y-78142735D01*
X136680363Y-78142735D02*
X136775601Y-78237973D01*
X136775601Y-78237973D02*
X136823220Y-78333211D01*
X136823220Y-78333211D02*
X136870839Y-78523687D01*
X136870839Y-78523687D02*
X136870839Y-78666544D01*
X136870839Y-78666544D02*
X136823220Y-78857020D01*
X136823220Y-78857020D02*
X136775601Y-78952258D01*
X136775601Y-78952258D02*
X136680363Y-79047497D01*
X136680363Y-79047497D02*
X136537506Y-79095116D01*
X136537506Y-79095116D02*
X136442268Y-79095116D01*
X136442268Y-79095116D02*
X136299411Y-79047497D01*
X136299411Y-79047497D02*
X136251792Y-78999877D01*
X136251792Y-78999877D02*
X136251792Y-78666544D01*
X136251792Y-78666544D02*
X136442268Y-78666544D01*
X135823220Y-79095116D02*
X135823220Y-78095116D01*
X135823220Y-78095116D02*
X135442268Y-78095116D01*
X135442268Y-78095116D02*
X135347030Y-78142735D01*
X135347030Y-78142735D02*
X135299411Y-78190354D01*
X135299411Y-78190354D02*
X135251792Y-78285592D01*
X135251792Y-78285592D02*
X135251792Y-78428449D01*
X135251792Y-78428449D02*
X135299411Y-78523687D01*
X135299411Y-78523687D02*
X135347030Y-78571306D01*
X135347030Y-78571306D02*
X135442268Y-78618925D01*
X135442268Y-78618925D02*
X135823220Y-78618925D01*
X134823220Y-79095116D02*
X134823220Y-78095116D01*
X134156554Y-78095116D02*
X133966078Y-78095116D01*
X133966078Y-78095116D02*
X133870840Y-78142735D01*
X133870840Y-78142735D02*
X133775602Y-78237973D01*
X133775602Y-78237973D02*
X133727983Y-78428449D01*
X133727983Y-78428449D02*
X133727983Y-78761782D01*
X133727983Y-78761782D02*
X133775602Y-78952258D01*
X133775602Y-78952258D02*
X133870840Y-79047497D01*
X133870840Y-79047497D02*
X133966078Y-79095116D01*
X133966078Y-79095116D02*
X134156554Y-79095116D01*
X134156554Y-79095116D02*
X134251792Y-79047497D01*
X134251792Y-79047497D02*
X134347030Y-78952258D01*
X134347030Y-78952258D02*
X134394649Y-78761782D01*
X134394649Y-78761782D02*
X134394649Y-78428449D01*
X134394649Y-78428449D02*
X134347030Y-78237973D01*
X134347030Y-78237973D02*
X134251792Y-78142735D01*
X134251792Y-78142735D02*
X134156554Y-78095116D01*
X133347030Y-78190354D02*
X133299411Y-78142735D01*
X133299411Y-78142735D02*
X133204173Y-78095116D01*
X133204173Y-78095116D02*
X132966078Y-78095116D01*
X132966078Y-78095116D02*
X132870840Y-78142735D01*
X132870840Y-78142735D02*
X132823221Y-78190354D01*
X132823221Y-78190354D02*
X132775602Y-78285592D01*
X132775602Y-78285592D02*
X132775602Y-78380830D01*
X132775602Y-78380830D02*
X132823221Y-78523687D01*
X132823221Y-78523687D02*
X133394649Y-79095116D01*
X133394649Y-79095116D02*
X132775602Y-79095116D01*
X132442268Y-78095116D02*
X131823221Y-78095116D01*
X131823221Y-78095116D02*
X132156554Y-78476068D01*
X132156554Y-78476068D02*
X132013697Y-78476068D01*
X132013697Y-78476068D02*
X131918459Y-78523687D01*
X131918459Y-78523687D02*
X131870840Y-78571306D01*
X131870840Y-78571306D02*
X131823221Y-78666544D01*
X131823221Y-78666544D02*
X131823221Y-78904639D01*
X131823221Y-78904639D02*
X131870840Y-78999877D01*
X131870840Y-78999877D02*
X131918459Y-79047497D01*
X131918459Y-79047497D02*
X132013697Y-79095116D01*
X132013697Y-79095116D02*
X132299411Y-79095116D01*
X132299411Y-79095116D02*
X132394649Y-79047497D01*
X132394649Y-79047497D02*
X132442268Y-78999877D01*
X149824742Y-83345413D02*
X150300932Y-83345413D01*
X150300932Y-83345413D02*
X150348551Y-83821603D01*
X150348551Y-83821603D02*
X150300932Y-83773984D01*
X150300932Y-83773984D02*
X150205694Y-83726365D01*
X150205694Y-83726365D02*
X149967599Y-83726365D01*
X149967599Y-83726365D02*
X149872361Y-83773984D01*
X149872361Y-83773984D02*
X149824742Y-83821603D01*
X149824742Y-83821603D02*
X149777123Y-83916841D01*
X149777123Y-83916841D02*
X149777123Y-84154936D01*
X149777123Y-84154936D02*
X149824742Y-84250174D01*
X149824742Y-84250174D02*
X149872361Y-84297794D01*
X149872361Y-84297794D02*
X149967599Y-84345413D01*
X149967599Y-84345413D02*
X150205694Y-84345413D01*
X150205694Y-84345413D02*
X150300932Y-84297794D01*
X150300932Y-84297794D02*
X150348551Y-84250174D01*
X149443789Y-83678746D02*
X149205694Y-84345413D01*
X149205694Y-84345413D02*
X148967599Y-83678746D01*
X135347030Y-80682735D02*
X135442268Y-80635116D01*
X135442268Y-80635116D02*
X135585125Y-80635116D01*
X135585125Y-80635116D02*
X135727982Y-80682735D01*
X135727982Y-80682735D02*
X135823220Y-80777973D01*
X135823220Y-80777973D02*
X135870839Y-80873211D01*
X135870839Y-80873211D02*
X135918458Y-81063687D01*
X135918458Y-81063687D02*
X135918458Y-81206544D01*
X135918458Y-81206544D02*
X135870839Y-81397020D01*
X135870839Y-81397020D02*
X135823220Y-81492258D01*
X135823220Y-81492258D02*
X135727982Y-81587497D01*
X135727982Y-81587497D02*
X135585125Y-81635116D01*
X135585125Y-81635116D02*
X135489887Y-81635116D01*
X135489887Y-81635116D02*
X135347030Y-81587497D01*
X135347030Y-81587497D02*
X135299411Y-81539877D01*
X135299411Y-81539877D02*
X135299411Y-81206544D01*
X135299411Y-81206544D02*
X135489887Y-81206544D01*
X134870839Y-81635116D02*
X134870839Y-80635116D01*
X134870839Y-80635116D02*
X134489887Y-80635116D01*
X134489887Y-80635116D02*
X134394649Y-80682735D01*
X134394649Y-80682735D02*
X134347030Y-80730354D01*
X134347030Y-80730354D02*
X134299411Y-80825592D01*
X134299411Y-80825592D02*
X134299411Y-80968449D01*
X134299411Y-80968449D02*
X134347030Y-81063687D01*
X134347030Y-81063687D02*
X134394649Y-81111306D01*
X134394649Y-81111306D02*
X134489887Y-81158925D01*
X134489887Y-81158925D02*
X134870839Y-81158925D01*
X133870839Y-81635116D02*
X133870839Y-80635116D01*
X133204173Y-80635116D02*
X133013697Y-80635116D01*
X133013697Y-80635116D02*
X132918459Y-80682735D01*
X132918459Y-80682735D02*
X132823221Y-80777973D01*
X132823221Y-80777973D02*
X132775602Y-80968449D01*
X132775602Y-80968449D02*
X132775602Y-81301782D01*
X132775602Y-81301782D02*
X132823221Y-81492258D01*
X132823221Y-81492258D02*
X132918459Y-81587497D01*
X132918459Y-81587497D02*
X133013697Y-81635116D01*
X133013697Y-81635116D02*
X133204173Y-81635116D01*
X133204173Y-81635116D02*
X133299411Y-81587497D01*
X133299411Y-81587497D02*
X133394649Y-81492258D01*
X133394649Y-81492258D02*
X133442268Y-81301782D01*
X133442268Y-81301782D02*
X133442268Y-80968449D01*
X133442268Y-80968449D02*
X133394649Y-80777973D01*
X133394649Y-80777973D02*
X133299411Y-80682735D01*
X133299411Y-80682735D02*
X133204173Y-80635116D01*
X131870840Y-80635116D02*
X132347030Y-80635116D01*
X132347030Y-80635116D02*
X132394649Y-81111306D01*
X132394649Y-81111306D02*
X132347030Y-81063687D01*
X132347030Y-81063687D02*
X132251792Y-81016068D01*
X132251792Y-81016068D02*
X132013697Y-81016068D01*
X132013697Y-81016068D02*
X131918459Y-81063687D01*
X131918459Y-81063687D02*
X131870840Y-81111306D01*
X131870840Y-81111306D02*
X131823221Y-81206544D01*
X131823221Y-81206544D02*
X131823221Y-81444639D01*
X131823221Y-81444639D02*
X131870840Y-81539877D01*
X131870840Y-81539877D02*
X131918459Y-81587497D01*
X131918459Y-81587497D02*
X132013697Y-81635116D01*
X132013697Y-81635116D02*
X132251792Y-81635116D01*
X132251792Y-81635116D02*
X132347030Y-81587497D01*
X132347030Y-81587497D02*
X132394649Y-81539877D01*
X133347030Y-68411306D02*
X133013697Y-68411306D01*
X132870840Y-68935116D02*
X133347030Y-68935116D01*
X133347030Y-68935116D02*
X133347030Y-67935116D01*
X133347030Y-67935116D02*
X132870840Y-67935116D01*
X132442268Y-68935116D02*
X132442268Y-67935116D01*
X132442268Y-67935116D02*
X131870840Y-68935116D01*
X131870840Y-68935116D02*
X131870840Y-67935116D01*
X136299411Y-75602735D02*
X136394649Y-75555116D01*
X136394649Y-75555116D02*
X136537506Y-75555116D01*
X136537506Y-75555116D02*
X136680363Y-75602735D01*
X136680363Y-75602735D02*
X136775601Y-75697973D01*
X136775601Y-75697973D02*
X136823220Y-75793211D01*
X136823220Y-75793211D02*
X136870839Y-75983687D01*
X136870839Y-75983687D02*
X136870839Y-76126544D01*
X136870839Y-76126544D02*
X136823220Y-76317020D01*
X136823220Y-76317020D02*
X136775601Y-76412258D01*
X136775601Y-76412258D02*
X136680363Y-76507497D01*
X136680363Y-76507497D02*
X136537506Y-76555116D01*
X136537506Y-76555116D02*
X136442268Y-76555116D01*
X136442268Y-76555116D02*
X136299411Y-76507497D01*
X136299411Y-76507497D02*
X136251792Y-76459877D01*
X136251792Y-76459877D02*
X136251792Y-76126544D01*
X136251792Y-76126544D02*
X136442268Y-76126544D01*
X135823220Y-76555116D02*
X135823220Y-75555116D01*
X135823220Y-75555116D02*
X135442268Y-75555116D01*
X135442268Y-75555116D02*
X135347030Y-75602735D01*
X135347030Y-75602735D02*
X135299411Y-75650354D01*
X135299411Y-75650354D02*
X135251792Y-75745592D01*
X135251792Y-75745592D02*
X135251792Y-75888449D01*
X135251792Y-75888449D02*
X135299411Y-75983687D01*
X135299411Y-75983687D02*
X135347030Y-76031306D01*
X135347030Y-76031306D02*
X135442268Y-76078925D01*
X135442268Y-76078925D02*
X135823220Y-76078925D01*
X134823220Y-76555116D02*
X134823220Y-75555116D01*
X134156554Y-75555116D02*
X133966078Y-75555116D01*
X133966078Y-75555116D02*
X133870840Y-75602735D01*
X133870840Y-75602735D02*
X133775602Y-75697973D01*
X133775602Y-75697973D02*
X133727983Y-75888449D01*
X133727983Y-75888449D02*
X133727983Y-76221782D01*
X133727983Y-76221782D02*
X133775602Y-76412258D01*
X133775602Y-76412258D02*
X133870840Y-76507497D01*
X133870840Y-76507497D02*
X133966078Y-76555116D01*
X133966078Y-76555116D02*
X134156554Y-76555116D01*
X134156554Y-76555116D02*
X134251792Y-76507497D01*
X134251792Y-76507497D02*
X134347030Y-76412258D01*
X134347030Y-76412258D02*
X134394649Y-76221782D01*
X134394649Y-76221782D02*
X134394649Y-75888449D01*
X134394649Y-75888449D02*
X134347030Y-75697973D01*
X134347030Y-75697973D02*
X134251792Y-75602735D01*
X134251792Y-75602735D02*
X134156554Y-75555116D01*
X132775602Y-76555116D02*
X133347030Y-76555116D01*
X133061316Y-76555116D02*
X133061316Y-75555116D01*
X133061316Y-75555116D02*
X133156554Y-75697973D01*
X133156554Y-75697973D02*
X133251792Y-75793211D01*
X133251792Y-75793211D02*
X133347030Y-75840830D01*
X132299411Y-76555116D02*
X132108935Y-76555116D01*
X132108935Y-76555116D02*
X132013697Y-76507497D01*
X132013697Y-76507497D02*
X131966078Y-76459877D01*
X131966078Y-76459877D02*
X131870840Y-76317020D01*
X131870840Y-76317020D02*
X131823221Y-76126544D01*
X131823221Y-76126544D02*
X131823221Y-75745592D01*
X131823221Y-75745592D02*
X131870840Y-75650354D01*
X131870840Y-75650354D02*
X131918459Y-75602735D01*
X131918459Y-75602735D02*
X132013697Y-75555116D01*
X132013697Y-75555116D02*
X132204173Y-75555116D01*
X132204173Y-75555116D02*
X132299411Y-75602735D01*
X132299411Y-75602735D02*
X132347030Y-75650354D01*
X132347030Y-75650354D02*
X132394649Y-75745592D01*
X132394649Y-75745592D02*
X132394649Y-75983687D01*
X132394649Y-75983687D02*
X132347030Y-76078925D01*
X132347030Y-76078925D02*
X132299411Y-76126544D01*
X132299411Y-76126544D02*
X132204173Y-76174163D01*
X132204173Y-76174163D02*
X132013697Y-76174163D01*
X132013697Y-76174163D02*
X131918459Y-76126544D01*
X131918459Y-76126544D02*
X131870840Y-76078925D01*
X131870840Y-76078925D02*
X131823221Y-75983687D01*
X150443789Y-65565413D02*
X149872361Y-65565413D01*
X150158075Y-66565413D02*
X150158075Y-65565413D01*
X149634265Y-65565413D02*
X148967599Y-66565413D01*
X148967599Y-65565413D02*
X149634265Y-66565413D01*
X138299411Y-83175116D02*
X137966078Y-84175116D01*
X137966078Y-84175116D02*
X137632745Y-83175116D01*
X136727983Y-84079877D02*
X136775602Y-84127497D01*
X136775602Y-84127497D02*
X136918459Y-84175116D01*
X136918459Y-84175116D02*
X137013697Y-84175116D01*
X137013697Y-84175116D02*
X137156554Y-84127497D01*
X137156554Y-84127497D02*
X137251792Y-84032258D01*
X137251792Y-84032258D02*
X137299411Y-83937020D01*
X137299411Y-83937020D02*
X137347030Y-83746544D01*
X137347030Y-83746544D02*
X137347030Y-83603687D01*
X137347030Y-83603687D02*
X137299411Y-83413211D01*
X137299411Y-83413211D02*
X137251792Y-83317973D01*
X137251792Y-83317973D02*
X137156554Y-83222735D01*
X137156554Y-83222735D02*
X137013697Y-83175116D01*
X137013697Y-83175116D02*
X136918459Y-83175116D01*
X136918459Y-83175116D02*
X136775602Y-83222735D01*
X136775602Y-83222735D02*
X136727983Y-83270354D01*
X135727983Y-84079877D02*
X135775602Y-84127497D01*
X135775602Y-84127497D02*
X135918459Y-84175116D01*
X135918459Y-84175116D02*
X136013697Y-84175116D01*
X136013697Y-84175116D02*
X136156554Y-84127497D01*
X136156554Y-84127497D02*
X136251792Y-84032258D01*
X136251792Y-84032258D02*
X136299411Y-83937020D01*
X136299411Y-83937020D02*
X136347030Y-83746544D01*
X136347030Y-83746544D02*
X136347030Y-83603687D01*
X136347030Y-83603687D02*
X136299411Y-83413211D01*
X136299411Y-83413211D02*
X136251792Y-83317973D01*
X136251792Y-83317973D02*
X136156554Y-83222735D01*
X136156554Y-83222735D02*
X136013697Y-83175116D01*
X136013697Y-83175116D02*
X135918459Y-83175116D01*
X135918459Y-83175116D02*
X135775602Y-83222735D01*
X135775602Y-83222735D02*
X135727983Y-83270354D01*
X135299411Y-83794163D02*
X134537507Y-83794163D01*
X134156554Y-83175116D02*
X133537507Y-83175116D01*
X133537507Y-83175116D02*
X133870840Y-83556068D01*
X133870840Y-83556068D02*
X133727983Y-83556068D01*
X133727983Y-83556068D02*
X133632745Y-83603687D01*
X133632745Y-83603687D02*
X133585126Y-83651306D01*
X133585126Y-83651306D02*
X133537507Y-83746544D01*
X133537507Y-83746544D02*
X133537507Y-83984639D01*
X133537507Y-83984639D02*
X133585126Y-84079877D01*
X133585126Y-84079877D02*
X133632745Y-84127497D01*
X133632745Y-84127497D02*
X133727983Y-84175116D01*
X133727983Y-84175116D02*
X134013697Y-84175116D01*
X134013697Y-84175116D02*
X134108935Y-84127497D01*
X134108935Y-84127497D02*
X134156554Y-84079877D01*
X133204173Y-83508449D02*
X132966078Y-84175116D01*
X132966078Y-84175116D02*
X132727983Y-83508449D01*
X132442268Y-83175116D02*
X131823221Y-83175116D01*
X131823221Y-83175116D02*
X132156554Y-83556068D01*
X132156554Y-83556068D02*
X132013697Y-83556068D01*
X132013697Y-83556068D02*
X131918459Y-83603687D01*
X131918459Y-83603687D02*
X131870840Y-83651306D01*
X131870840Y-83651306D02*
X131823221Y-83746544D01*
X131823221Y-83746544D02*
X131823221Y-83984639D01*
X131823221Y-83984639D02*
X131870840Y-84079877D01*
X131870840Y-84079877D02*
X131918459Y-84127497D01*
X131918459Y-84127497D02*
X132013697Y-84175116D01*
X132013697Y-84175116D02*
X132299411Y-84175116D01*
X132299411Y-84175116D02*
X132394649Y-84127497D01*
X132394649Y-84127497D02*
X132442268Y-84079877D01*
X149777123Y-80853032D02*
X149872361Y-80805413D01*
X149872361Y-80805413D02*
X150015218Y-80805413D01*
X150015218Y-80805413D02*
X150158075Y-80853032D01*
X150158075Y-80853032D02*
X150253313Y-80948270D01*
X150253313Y-80948270D02*
X150300932Y-81043508D01*
X150300932Y-81043508D02*
X150348551Y-81233984D01*
X150348551Y-81233984D02*
X150348551Y-81376841D01*
X150348551Y-81376841D02*
X150300932Y-81567317D01*
X150300932Y-81567317D02*
X150253313Y-81662555D01*
X150253313Y-81662555D02*
X150158075Y-81757794D01*
X150158075Y-81757794D02*
X150015218Y-81805413D01*
X150015218Y-81805413D02*
X149919980Y-81805413D01*
X149919980Y-81805413D02*
X149777123Y-81757794D01*
X149777123Y-81757794D02*
X149729504Y-81710174D01*
X149729504Y-81710174D02*
X149729504Y-81376841D01*
X149729504Y-81376841D02*
X149919980Y-81376841D01*
X149300932Y-81805413D02*
X149300932Y-80805413D01*
X149300932Y-80805413D02*
X148729504Y-81805413D01*
X148729504Y-81805413D02*
X148729504Y-80805413D01*
X148253313Y-81805413D02*
X148253313Y-80805413D01*
X148253313Y-80805413D02*
X148015218Y-80805413D01*
X148015218Y-80805413D02*
X147872361Y-80853032D01*
X147872361Y-80853032D02*
X147777123Y-80948270D01*
X147777123Y-80948270D02*
X147729504Y-81043508D01*
X147729504Y-81043508D02*
X147681885Y-81233984D01*
X147681885Y-81233984D02*
X147681885Y-81376841D01*
X147681885Y-81376841D02*
X147729504Y-81567317D01*
X147729504Y-81567317D02*
X147777123Y-81662555D01*
X147777123Y-81662555D02*
X147872361Y-81757794D01*
X147872361Y-81757794D02*
X148015218Y-81805413D01*
X148015218Y-81805413D02*
X148253313Y-81805413D01*
X136299411Y-73062735D02*
X136394649Y-73015116D01*
X136394649Y-73015116D02*
X136537506Y-73015116D01*
X136537506Y-73015116D02*
X136680363Y-73062735D01*
X136680363Y-73062735D02*
X136775601Y-73157973D01*
X136775601Y-73157973D02*
X136823220Y-73253211D01*
X136823220Y-73253211D02*
X136870839Y-73443687D01*
X136870839Y-73443687D02*
X136870839Y-73586544D01*
X136870839Y-73586544D02*
X136823220Y-73777020D01*
X136823220Y-73777020D02*
X136775601Y-73872258D01*
X136775601Y-73872258D02*
X136680363Y-73967497D01*
X136680363Y-73967497D02*
X136537506Y-74015116D01*
X136537506Y-74015116D02*
X136442268Y-74015116D01*
X136442268Y-74015116D02*
X136299411Y-73967497D01*
X136299411Y-73967497D02*
X136251792Y-73919877D01*
X136251792Y-73919877D02*
X136251792Y-73586544D01*
X136251792Y-73586544D02*
X136442268Y-73586544D01*
X135823220Y-74015116D02*
X135823220Y-73015116D01*
X135823220Y-73015116D02*
X135442268Y-73015116D01*
X135442268Y-73015116D02*
X135347030Y-73062735D01*
X135347030Y-73062735D02*
X135299411Y-73110354D01*
X135299411Y-73110354D02*
X135251792Y-73205592D01*
X135251792Y-73205592D02*
X135251792Y-73348449D01*
X135251792Y-73348449D02*
X135299411Y-73443687D01*
X135299411Y-73443687D02*
X135347030Y-73491306D01*
X135347030Y-73491306D02*
X135442268Y-73538925D01*
X135442268Y-73538925D02*
X135823220Y-73538925D01*
X134823220Y-74015116D02*
X134823220Y-73015116D01*
X134156554Y-73015116D02*
X133966078Y-73015116D01*
X133966078Y-73015116D02*
X133870840Y-73062735D01*
X133870840Y-73062735D02*
X133775602Y-73157973D01*
X133775602Y-73157973D02*
X133727983Y-73348449D01*
X133727983Y-73348449D02*
X133727983Y-73681782D01*
X133727983Y-73681782D02*
X133775602Y-73872258D01*
X133775602Y-73872258D02*
X133870840Y-73967497D01*
X133870840Y-73967497D02*
X133966078Y-74015116D01*
X133966078Y-74015116D02*
X134156554Y-74015116D01*
X134156554Y-74015116D02*
X134251792Y-73967497D01*
X134251792Y-73967497D02*
X134347030Y-73872258D01*
X134347030Y-73872258D02*
X134394649Y-73681782D01*
X134394649Y-73681782D02*
X134394649Y-73348449D01*
X134394649Y-73348449D02*
X134347030Y-73157973D01*
X134347030Y-73157973D02*
X134251792Y-73062735D01*
X134251792Y-73062735D02*
X134156554Y-73015116D01*
X132775602Y-74015116D02*
X133347030Y-74015116D01*
X133061316Y-74015116D02*
X133061316Y-73015116D01*
X133061316Y-73015116D02*
X133156554Y-73157973D01*
X133156554Y-73157973D02*
X133251792Y-73253211D01*
X133251792Y-73253211D02*
X133347030Y-73300830D01*
X132204173Y-73443687D02*
X132299411Y-73396068D01*
X132299411Y-73396068D02*
X132347030Y-73348449D01*
X132347030Y-73348449D02*
X132394649Y-73253211D01*
X132394649Y-73253211D02*
X132394649Y-73205592D01*
X132394649Y-73205592D02*
X132347030Y-73110354D01*
X132347030Y-73110354D02*
X132299411Y-73062735D01*
X132299411Y-73062735D02*
X132204173Y-73015116D01*
X132204173Y-73015116D02*
X132013697Y-73015116D01*
X132013697Y-73015116D02*
X131918459Y-73062735D01*
X131918459Y-73062735D02*
X131870840Y-73110354D01*
X131870840Y-73110354D02*
X131823221Y-73205592D01*
X131823221Y-73205592D02*
X131823221Y-73253211D01*
X131823221Y-73253211D02*
X131870840Y-73348449D01*
X131870840Y-73348449D02*
X131918459Y-73396068D01*
X131918459Y-73396068D02*
X132013697Y-73443687D01*
X132013697Y-73443687D02*
X132204173Y-73443687D01*
X132204173Y-73443687D02*
X132299411Y-73491306D01*
X132299411Y-73491306D02*
X132347030Y-73538925D01*
X132347030Y-73538925D02*
X132394649Y-73634163D01*
X132394649Y-73634163D02*
X132394649Y-73824639D01*
X132394649Y-73824639D02*
X132347030Y-73919877D01*
X132347030Y-73919877D02*
X132299411Y-73967497D01*
X132299411Y-73967497D02*
X132204173Y-74015116D01*
X132204173Y-74015116D02*
X132013697Y-74015116D01*
X132013697Y-74015116D02*
X131918459Y-73967497D01*
X131918459Y-73967497D02*
X131870840Y-73919877D01*
X131870840Y-73919877D02*
X131823221Y-73824639D01*
X131823221Y-73824639D02*
X131823221Y-73634163D01*
X131823221Y-73634163D02*
X131870840Y-73538925D01*
X131870840Y-73538925D02*
X131918459Y-73491306D01*
X131918459Y-73491306D02*
X132013697Y-73443687D01*
X136299411Y-70522735D02*
X136394649Y-70475116D01*
X136394649Y-70475116D02*
X136537506Y-70475116D01*
X136537506Y-70475116D02*
X136680363Y-70522735D01*
X136680363Y-70522735D02*
X136775601Y-70617973D01*
X136775601Y-70617973D02*
X136823220Y-70713211D01*
X136823220Y-70713211D02*
X136870839Y-70903687D01*
X136870839Y-70903687D02*
X136870839Y-71046544D01*
X136870839Y-71046544D02*
X136823220Y-71237020D01*
X136823220Y-71237020D02*
X136775601Y-71332258D01*
X136775601Y-71332258D02*
X136680363Y-71427497D01*
X136680363Y-71427497D02*
X136537506Y-71475116D01*
X136537506Y-71475116D02*
X136442268Y-71475116D01*
X136442268Y-71475116D02*
X136299411Y-71427497D01*
X136299411Y-71427497D02*
X136251792Y-71379877D01*
X136251792Y-71379877D02*
X136251792Y-71046544D01*
X136251792Y-71046544D02*
X136442268Y-71046544D01*
X135823220Y-71475116D02*
X135823220Y-70475116D01*
X135823220Y-70475116D02*
X135442268Y-70475116D01*
X135442268Y-70475116D02*
X135347030Y-70522735D01*
X135347030Y-70522735D02*
X135299411Y-70570354D01*
X135299411Y-70570354D02*
X135251792Y-70665592D01*
X135251792Y-70665592D02*
X135251792Y-70808449D01*
X135251792Y-70808449D02*
X135299411Y-70903687D01*
X135299411Y-70903687D02*
X135347030Y-70951306D01*
X135347030Y-70951306D02*
X135442268Y-70998925D01*
X135442268Y-70998925D02*
X135823220Y-70998925D01*
X134823220Y-71475116D02*
X134823220Y-70475116D01*
X134156554Y-70475116D02*
X133966078Y-70475116D01*
X133966078Y-70475116D02*
X133870840Y-70522735D01*
X133870840Y-70522735D02*
X133775602Y-70617973D01*
X133775602Y-70617973D02*
X133727983Y-70808449D01*
X133727983Y-70808449D02*
X133727983Y-71141782D01*
X133727983Y-71141782D02*
X133775602Y-71332258D01*
X133775602Y-71332258D02*
X133870840Y-71427497D01*
X133870840Y-71427497D02*
X133966078Y-71475116D01*
X133966078Y-71475116D02*
X134156554Y-71475116D01*
X134156554Y-71475116D02*
X134251792Y-71427497D01*
X134251792Y-71427497D02*
X134347030Y-71332258D01*
X134347030Y-71332258D02*
X134394649Y-71141782D01*
X134394649Y-71141782D02*
X134394649Y-70808449D01*
X134394649Y-70808449D02*
X134347030Y-70617973D01*
X134347030Y-70617973D02*
X134251792Y-70522735D01*
X134251792Y-70522735D02*
X134156554Y-70475116D01*
X133347030Y-70570354D02*
X133299411Y-70522735D01*
X133299411Y-70522735D02*
X133204173Y-70475116D01*
X133204173Y-70475116D02*
X132966078Y-70475116D01*
X132966078Y-70475116D02*
X132870840Y-70522735D01*
X132870840Y-70522735D02*
X132823221Y-70570354D01*
X132823221Y-70570354D02*
X132775602Y-70665592D01*
X132775602Y-70665592D02*
X132775602Y-70760830D01*
X132775602Y-70760830D02*
X132823221Y-70903687D01*
X132823221Y-70903687D02*
X133394649Y-71475116D01*
X133394649Y-71475116D02*
X132775602Y-71475116D01*
X131918459Y-70475116D02*
X132108935Y-70475116D01*
X132108935Y-70475116D02*
X132204173Y-70522735D01*
X132204173Y-70522735D02*
X132251792Y-70570354D01*
X132251792Y-70570354D02*
X132347030Y-70713211D01*
X132347030Y-70713211D02*
X132394649Y-70903687D01*
X132394649Y-70903687D02*
X132394649Y-71284639D01*
X132394649Y-71284639D02*
X132347030Y-71379877D01*
X132347030Y-71379877D02*
X132299411Y-71427497D01*
X132299411Y-71427497D02*
X132204173Y-71475116D01*
X132204173Y-71475116D02*
X132013697Y-71475116D01*
X132013697Y-71475116D02*
X131918459Y-71427497D01*
X131918459Y-71427497D02*
X131870840Y-71379877D01*
X131870840Y-71379877D02*
X131823221Y-71284639D01*
X131823221Y-71284639D02*
X131823221Y-71046544D01*
X131823221Y-71046544D02*
X131870840Y-70951306D01*
X131870840Y-70951306D02*
X131918459Y-70903687D01*
X131918459Y-70903687D02*
X132013697Y-70856068D01*
X132013697Y-70856068D02*
X132204173Y-70856068D01*
X132204173Y-70856068D02*
X132299411Y-70903687D01*
X132299411Y-70903687D02*
X132347030Y-70951306D01*
X132347030Y-70951306D02*
X132394649Y-71046544D01*
X149777123Y-73233032D02*
X149872361Y-73185413D01*
X149872361Y-73185413D02*
X150015218Y-73185413D01*
X150015218Y-73185413D02*
X150158075Y-73233032D01*
X150158075Y-73233032D02*
X150253313Y-73328270D01*
X150253313Y-73328270D02*
X150300932Y-73423508D01*
X150300932Y-73423508D02*
X150348551Y-73613984D01*
X150348551Y-73613984D02*
X150348551Y-73756841D01*
X150348551Y-73756841D02*
X150300932Y-73947317D01*
X150300932Y-73947317D02*
X150253313Y-74042555D01*
X150253313Y-74042555D02*
X150158075Y-74137794D01*
X150158075Y-74137794D02*
X150015218Y-74185413D01*
X150015218Y-74185413D02*
X149919980Y-74185413D01*
X149919980Y-74185413D02*
X149777123Y-74137794D01*
X149777123Y-74137794D02*
X149729504Y-74090174D01*
X149729504Y-74090174D02*
X149729504Y-73756841D01*
X149729504Y-73756841D02*
X149919980Y-73756841D01*
X149300932Y-74185413D02*
X149300932Y-73185413D01*
X149300932Y-73185413D02*
X148919980Y-73185413D01*
X148919980Y-73185413D02*
X148824742Y-73233032D01*
X148824742Y-73233032D02*
X148777123Y-73280651D01*
X148777123Y-73280651D02*
X148729504Y-73375889D01*
X148729504Y-73375889D02*
X148729504Y-73518746D01*
X148729504Y-73518746D02*
X148777123Y-73613984D01*
X148777123Y-73613984D02*
X148824742Y-73661603D01*
X148824742Y-73661603D02*
X148919980Y-73709222D01*
X148919980Y-73709222D02*
X149300932Y-73709222D01*
X148300932Y-74185413D02*
X148300932Y-73185413D01*
X147634266Y-73185413D02*
X147443790Y-73185413D01*
X147443790Y-73185413D02*
X147348552Y-73233032D01*
X147348552Y-73233032D02*
X147253314Y-73328270D01*
X147253314Y-73328270D02*
X147205695Y-73518746D01*
X147205695Y-73518746D02*
X147205695Y-73852079D01*
X147205695Y-73852079D02*
X147253314Y-74042555D01*
X147253314Y-74042555D02*
X147348552Y-74137794D01*
X147348552Y-74137794D02*
X147443790Y-74185413D01*
X147443790Y-74185413D02*
X147634266Y-74185413D01*
X147634266Y-74185413D02*
X147729504Y-74137794D01*
X147729504Y-74137794D02*
X147824742Y-74042555D01*
X147824742Y-74042555D02*
X147872361Y-73852079D01*
X147872361Y-73852079D02*
X147872361Y-73518746D01*
X147872361Y-73518746D02*
X147824742Y-73328270D01*
X147824742Y-73328270D02*
X147729504Y-73233032D01*
X147729504Y-73233032D02*
X147634266Y-73185413D01*
X146824742Y-73280651D02*
X146777123Y-73233032D01*
X146777123Y-73233032D02*
X146681885Y-73185413D01*
X146681885Y-73185413D02*
X146443790Y-73185413D01*
X146443790Y-73185413D02*
X146348552Y-73233032D01*
X146348552Y-73233032D02*
X146300933Y-73280651D01*
X146300933Y-73280651D02*
X146253314Y-73375889D01*
X146253314Y-73375889D02*
X146253314Y-73471127D01*
X146253314Y-73471127D02*
X146300933Y-73613984D01*
X146300933Y-73613984D02*
X146872361Y-74185413D01*
X146872361Y-74185413D02*
X146253314Y-74185413D01*
X145300933Y-74185413D02*
X145872361Y-74185413D01*
X145586647Y-74185413D02*
X145586647Y-73185413D01*
X145586647Y-73185413D02*
X145681885Y-73328270D01*
X145681885Y-73328270D02*
X145777123Y-73423508D01*
X145777123Y-73423508D02*
X145872361Y-73471127D01*
=======
X157820651Y-75773427D02*
X157915889Y-75725808D01*
X157915889Y-75725808D02*
X158058746Y-75725808D01*
X158058746Y-75725808D02*
X158201603Y-75773427D01*
X158201603Y-75773427D02*
X158296841Y-75868665D01*
X158296841Y-75868665D02*
X158344460Y-75963903D01*
X158344460Y-75963903D02*
X158392079Y-76154379D01*
X158392079Y-76154379D02*
X158392079Y-76297236D01*
X158392079Y-76297236D02*
X158344460Y-76487712D01*
X158344460Y-76487712D02*
X158296841Y-76582950D01*
X158296841Y-76582950D02*
X158201603Y-76678189D01*
X158201603Y-76678189D02*
X158058746Y-76725808D01*
X158058746Y-76725808D02*
X157963508Y-76725808D01*
X157963508Y-76725808D02*
X157820651Y-76678189D01*
X157820651Y-76678189D02*
X157773032Y-76630569D01*
X157773032Y-76630569D02*
X157773032Y-76297236D01*
X157773032Y-76297236D02*
X157963508Y-76297236D01*
X157344460Y-76725808D02*
X157344460Y-75725808D01*
X157344460Y-75725808D02*
X156963508Y-75725808D01*
X156963508Y-75725808D02*
X156868270Y-75773427D01*
X156868270Y-75773427D02*
X156820651Y-75821046D01*
X156820651Y-75821046D02*
X156773032Y-75916284D01*
X156773032Y-75916284D02*
X156773032Y-76059141D01*
X156773032Y-76059141D02*
X156820651Y-76154379D01*
X156820651Y-76154379D02*
X156868270Y-76201998D01*
X156868270Y-76201998D02*
X156963508Y-76249617D01*
X156963508Y-76249617D02*
X157344460Y-76249617D01*
X156344460Y-76725808D02*
X156344460Y-75725808D01*
X155677794Y-75725808D02*
X155487318Y-75725808D01*
X155487318Y-75725808D02*
X155392080Y-75773427D01*
X155392080Y-75773427D02*
X155296842Y-75868665D01*
X155296842Y-75868665D02*
X155249223Y-76059141D01*
X155249223Y-76059141D02*
X155249223Y-76392474D01*
X155249223Y-76392474D02*
X155296842Y-76582950D01*
X155296842Y-76582950D02*
X155392080Y-76678189D01*
X155392080Y-76678189D02*
X155487318Y-76725808D01*
X155487318Y-76725808D02*
X155677794Y-76725808D01*
X155677794Y-76725808D02*
X155773032Y-76678189D01*
X155773032Y-76678189D02*
X155868270Y-76582950D01*
X155868270Y-76582950D02*
X155915889Y-76392474D01*
X155915889Y-76392474D02*
X155915889Y-76059141D01*
X155915889Y-76059141D02*
X155868270Y-75868665D01*
X155868270Y-75868665D02*
X155773032Y-75773427D01*
X155773032Y-75773427D02*
X155677794Y-75725808D01*
X154630175Y-75725808D02*
X154534937Y-75725808D01*
X154534937Y-75725808D02*
X154439699Y-75773427D01*
X154439699Y-75773427D02*
X154392080Y-75821046D01*
X154392080Y-75821046D02*
X154344461Y-75916284D01*
X154344461Y-75916284D02*
X154296842Y-76106760D01*
X154296842Y-76106760D02*
X154296842Y-76344855D01*
X154296842Y-76344855D02*
X154344461Y-76535331D01*
X154344461Y-76535331D02*
X154392080Y-76630569D01*
X154392080Y-76630569D02*
X154439699Y-76678189D01*
X154439699Y-76678189D02*
X154534937Y-76725808D01*
X154534937Y-76725808D02*
X154630175Y-76725808D01*
X154630175Y-76725808D02*
X154725413Y-76678189D01*
X154725413Y-76678189D02*
X154773032Y-76630569D01*
X154773032Y-76630569D02*
X154820651Y-76535331D01*
X154820651Y-76535331D02*
X154868270Y-76344855D01*
X154868270Y-76344855D02*
X154868270Y-76106760D01*
X154868270Y-76106760D02*
X154820651Y-75916284D01*
X154820651Y-75916284D02*
X154773032Y-75821046D01*
X154773032Y-75821046D02*
X154725413Y-75773427D01*
X154725413Y-75773427D02*
X154630175Y-75725808D01*
X126877700Y-66395116D02*
X127211033Y-65918925D01*
X127449128Y-66395116D02*
X127449128Y-65395116D01*
X127449128Y-65395116D02*
X127068176Y-65395116D01*
X127068176Y-65395116D02*
X126972938Y-65442735D01*
X126972938Y-65442735D02*
X126925319Y-65490354D01*
X126925319Y-65490354D02*
X126877700Y-65585592D01*
X126877700Y-65585592D02*
X126877700Y-65728449D01*
X126877700Y-65728449D02*
X126925319Y-65823687D01*
X126925319Y-65823687D02*
X126972938Y-65871306D01*
X126972938Y-65871306D02*
X127068176Y-65918925D01*
X127068176Y-65918925D02*
X127449128Y-65918925D01*
X126496747Y-66347497D02*
X126353890Y-66395116D01*
X126353890Y-66395116D02*
X126115795Y-66395116D01*
X126115795Y-66395116D02*
X126020557Y-66347497D01*
X126020557Y-66347497D02*
X125972938Y-66299877D01*
X125972938Y-66299877D02*
X125925319Y-66204639D01*
X125925319Y-66204639D02*
X125925319Y-66109401D01*
X125925319Y-66109401D02*
X125972938Y-66014163D01*
X125972938Y-66014163D02*
X126020557Y-65966544D01*
X126020557Y-65966544D02*
X126115795Y-65918925D01*
X126115795Y-65918925D02*
X126306271Y-65871306D01*
X126306271Y-65871306D02*
X126401509Y-65823687D01*
X126401509Y-65823687D02*
X126449128Y-65776068D01*
X126449128Y-65776068D02*
X126496747Y-65680830D01*
X126496747Y-65680830D02*
X126496747Y-65585592D01*
X126496747Y-65585592D02*
X126449128Y-65490354D01*
X126449128Y-65490354D02*
X126401509Y-65442735D01*
X126401509Y-65442735D02*
X126306271Y-65395116D01*
X126306271Y-65395116D02*
X126068176Y-65395116D01*
X126068176Y-65395116D02*
X125925319Y-65442735D01*
X125639604Y-65395116D02*
X125068176Y-65395116D01*
X125353890Y-66395116D02*
X125353890Y-65395116D01*
X157820651Y-70693427D02*
X157915889Y-70645808D01*
X157915889Y-70645808D02*
X158058746Y-70645808D01*
X158058746Y-70645808D02*
X158201603Y-70693427D01*
X158201603Y-70693427D02*
X158296841Y-70788665D01*
X158296841Y-70788665D02*
X158344460Y-70883903D01*
X158344460Y-70883903D02*
X158392079Y-71074379D01*
X158392079Y-71074379D02*
X158392079Y-71217236D01*
X158392079Y-71217236D02*
X158344460Y-71407712D01*
X158344460Y-71407712D02*
X158296841Y-71502950D01*
X158296841Y-71502950D02*
X158201603Y-71598189D01*
X158201603Y-71598189D02*
X158058746Y-71645808D01*
X158058746Y-71645808D02*
X157963508Y-71645808D01*
X157963508Y-71645808D02*
X157820651Y-71598189D01*
X157820651Y-71598189D02*
X157773032Y-71550569D01*
X157773032Y-71550569D02*
X157773032Y-71217236D01*
X157773032Y-71217236D02*
X157963508Y-71217236D01*
X157344460Y-71645808D02*
X157344460Y-70645808D01*
X157344460Y-70645808D02*
X156963508Y-70645808D01*
X156963508Y-70645808D02*
X156868270Y-70693427D01*
X156868270Y-70693427D02*
X156820651Y-70741046D01*
X156820651Y-70741046D02*
X156773032Y-70836284D01*
X156773032Y-70836284D02*
X156773032Y-70979141D01*
X156773032Y-70979141D02*
X156820651Y-71074379D01*
X156820651Y-71074379D02*
X156868270Y-71121998D01*
X156868270Y-71121998D02*
X156963508Y-71169617D01*
X156963508Y-71169617D02*
X157344460Y-71169617D01*
X156344460Y-71645808D02*
X156344460Y-70645808D01*
X155677794Y-70645808D02*
X155487318Y-70645808D01*
X155487318Y-70645808D02*
X155392080Y-70693427D01*
X155392080Y-70693427D02*
X155296842Y-70788665D01*
X155296842Y-70788665D02*
X155249223Y-70979141D01*
X155249223Y-70979141D02*
X155249223Y-71312474D01*
X155249223Y-71312474D02*
X155296842Y-71502950D01*
X155296842Y-71502950D02*
X155392080Y-71598189D01*
X155392080Y-71598189D02*
X155487318Y-71645808D01*
X155487318Y-71645808D02*
X155677794Y-71645808D01*
X155677794Y-71645808D02*
X155773032Y-71598189D01*
X155773032Y-71598189D02*
X155868270Y-71502950D01*
X155868270Y-71502950D02*
X155915889Y-71312474D01*
X155915889Y-71312474D02*
X155915889Y-70979141D01*
X155915889Y-70979141D02*
X155868270Y-70788665D01*
X155868270Y-70788665D02*
X155773032Y-70693427D01*
X155773032Y-70693427D02*
X155677794Y-70645808D01*
X154344461Y-70645808D02*
X154820651Y-70645808D01*
X154820651Y-70645808D02*
X154868270Y-71121998D01*
X154868270Y-71121998D02*
X154820651Y-71074379D01*
X154820651Y-71074379D02*
X154725413Y-71026760D01*
X154725413Y-71026760D02*
X154487318Y-71026760D01*
X154487318Y-71026760D02*
X154392080Y-71074379D01*
X154392080Y-71074379D02*
X154344461Y-71121998D01*
X154344461Y-71121998D02*
X154296842Y-71217236D01*
X154296842Y-71217236D02*
X154296842Y-71455331D01*
X154296842Y-71455331D02*
X154344461Y-71550569D01*
X154344461Y-71550569D02*
X154392080Y-71598189D01*
X154392080Y-71598189D02*
X154487318Y-71645808D01*
X154487318Y-71645808D02*
X154725413Y-71645808D01*
X154725413Y-71645808D02*
X154820651Y-71598189D01*
X154820651Y-71598189D02*
X154868270Y-71550569D01*
X157820651Y-68153427D02*
X157915889Y-68105808D01*
X157915889Y-68105808D02*
X158058746Y-68105808D01*
X158058746Y-68105808D02*
X158201603Y-68153427D01*
X158201603Y-68153427D02*
X158296841Y-68248665D01*
X158296841Y-68248665D02*
X158344460Y-68343903D01*
X158344460Y-68343903D02*
X158392079Y-68534379D01*
X158392079Y-68534379D02*
X158392079Y-68677236D01*
X158392079Y-68677236D02*
X158344460Y-68867712D01*
X158344460Y-68867712D02*
X158296841Y-68962950D01*
X158296841Y-68962950D02*
X158201603Y-69058189D01*
X158201603Y-69058189D02*
X158058746Y-69105808D01*
X158058746Y-69105808D02*
X157963508Y-69105808D01*
X157963508Y-69105808D02*
X157820651Y-69058189D01*
X157820651Y-69058189D02*
X157773032Y-69010569D01*
X157773032Y-69010569D02*
X157773032Y-68677236D01*
X157773032Y-68677236D02*
X157963508Y-68677236D01*
X157344460Y-69105808D02*
X157344460Y-68105808D01*
X157344460Y-68105808D02*
X156963508Y-68105808D01*
X156963508Y-68105808D02*
X156868270Y-68153427D01*
X156868270Y-68153427D02*
X156820651Y-68201046D01*
X156820651Y-68201046D02*
X156773032Y-68296284D01*
X156773032Y-68296284D02*
X156773032Y-68439141D01*
X156773032Y-68439141D02*
X156820651Y-68534379D01*
X156820651Y-68534379D02*
X156868270Y-68581998D01*
X156868270Y-68581998D02*
X156963508Y-68629617D01*
X156963508Y-68629617D02*
X157344460Y-68629617D01*
X156344460Y-69105808D02*
X156344460Y-68105808D01*
X155677794Y-68105808D02*
X155487318Y-68105808D01*
X155487318Y-68105808D02*
X155392080Y-68153427D01*
X155392080Y-68153427D02*
X155296842Y-68248665D01*
X155296842Y-68248665D02*
X155249223Y-68439141D01*
X155249223Y-68439141D02*
X155249223Y-68772474D01*
X155249223Y-68772474D02*
X155296842Y-68962950D01*
X155296842Y-68962950D02*
X155392080Y-69058189D01*
X155392080Y-69058189D02*
X155487318Y-69105808D01*
X155487318Y-69105808D02*
X155677794Y-69105808D01*
X155677794Y-69105808D02*
X155773032Y-69058189D01*
X155773032Y-69058189D02*
X155868270Y-68962950D01*
X155868270Y-68962950D02*
X155915889Y-68772474D01*
X155915889Y-68772474D02*
X155915889Y-68439141D01*
X155915889Y-68439141D02*
X155868270Y-68248665D01*
X155868270Y-68248665D02*
X155773032Y-68153427D01*
X155773032Y-68153427D02*
X155677794Y-68105808D01*
X154915889Y-68105808D02*
X154296842Y-68105808D01*
X154296842Y-68105808D02*
X154630175Y-68486760D01*
X154630175Y-68486760D02*
X154487318Y-68486760D01*
X154487318Y-68486760D02*
X154392080Y-68534379D01*
X154392080Y-68534379D02*
X154344461Y-68581998D01*
X154344461Y-68581998D02*
X154296842Y-68677236D01*
X154296842Y-68677236D02*
X154296842Y-68915331D01*
X154296842Y-68915331D02*
X154344461Y-69010569D01*
X154344461Y-69010569D02*
X154392080Y-69058189D01*
X154392080Y-69058189D02*
X154487318Y-69105808D01*
X154487318Y-69105808D02*
X154773032Y-69105808D01*
X154773032Y-69105808D02*
X154868270Y-69058189D01*
X154868270Y-69058189D02*
X154915889Y-69010569D01*
X157820651Y-78313427D02*
X157915889Y-78265808D01*
X157915889Y-78265808D02*
X158058746Y-78265808D01*
X158058746Y-78265808D02*
X158201603Y-78313427D01*
X158201603Y-78313427D02*
X158296841Y-78408665D01*
X158296841Y-78408665D02*
X158344460Y-78503903D01*
X158344460Y-78503903D02*
X158392079Y-78694379D01*
X158392079Y-78694379D02*
X158392079Y-78837236D01*
X158392079Y-78837236D02*
X158344460Y-79027712D01*
X158344460Y-79027712D02*
X158296841Y-79122950D01*
X158296841Y-79122950D02*
X158201603Y-79218189D01*
X158201603Y-79218189D02*
X158058746Y-79265808D01*
X158058746Y-79265808D02*
X157963508Y-79265808D01*
X157963508Y-79265808D02*
X157820651Y-79218189D01*
X157820651Y-79218189D02*
X157773032Y-79170569D01*
X157773032Y-79170569D02*
X157773032Y-78837236D01*
X157773032Y-78837236D02*
X157963508Y-78837236D01*
X157344460Y-79265808D02*
X157344460Y-78265808D01*
X157344460Y-78265808D02*
X156963508Y-78265808D01*
X156963508Y-78265808D02*
X156868270Y-78313427D01*
X156868270Y-78313427D02*
X156820651Y-78361046D01*
X156820651Y-78361046D02*
X156773032Y-78456284D01*
X156773032Y-78456284D02*
X156773032Y-78599141D01*
X156773032Y-78599141D02*
X156820651Y-78694379D01*
X156820651Y-78694379D02*
X156868270Y-78741998D01*
X156868270Y-78741998D02*
X156963508Y-78789617D01*
X156963508Y-78789617D02*
X157344460Y-78789617D01*
X156344460Y-79265808D02*
X156344460Y-78265808D01*
X155677794Y-78265808D02*
X155487318Y-78265808D01*
X155487318Y-78265808D02*
X155392080Y-78313427D01*
X155392080Y-78313427D02*
X155296842Y-78408665D01*
X155296842Y-78408665D02*
X155249223Y-78599141D01*
X155249223Y-78599141D02*
X155249223Y-78932474D01*
X155249223Y-78932474D02*
X155296842Y-79122950D01*
X155296842Y-79122950D02*
X155392080Y-79218189D01*
X155392080Y-79218189D02*
X155487318Y-79265808D01*
X155487318Y-79265808D02*
X155677794Y-79265808D01*
X155677794Y-79265808D02*
X155773032Y-79218189D01*
X155773032Y-79218189D02*
X155868270Y-79122950D01*
X155868270Y-79122950D02*
X155915889Y-78932474D01*
X155915889Y-78932474D02*
X155915889Y-78599141D01*
X155915889Y-78599141D02*
X155868270Y-78408665D01*
X155868270Y-78408665D02*
X155773032Y-78313427D01*
X155773032Y-78313427D02*
X155677794Y-78265808D01*
X154868270Y-78361046D02*
X154820651Y-78313427D01*
X154820651Y-78313427D02*
X154725413Y-78265808D01*
X154725413Y-78265808D02*
X154487318Y-78265808D01*
X154487318Y-78265808D02*
X154392080Y-78313427D01*
X154392080Y-78313427D02*
X154344461Y-78361046D01*
X154344461Y-78361046D02*
X154296842Y-78456284D01*
X154296842Y-78456284D02*
X154296842Y-78551522D01*
X154296842Y-78551522D02*
X154344461Y-78694379D01*
X154344461Y-78694379D02*
X154915889Y-79265808D01*
X154915889Y-79265808D02*
X154296842Y-79265808D01*
X126925319Y-78142735D02*
X127020557Y-78095116D01*
X127020557Y-78095116D02*
X127163414Y-78095116D01*
X127163414Y-78095116D02*
X127306271Y-78142735D01*
X127306271Y-78142735D02*
X127401509Y-78237973D01*
X127401509Y-78237973D02*
X127449128Y-78333211D01*
X127449128Y-78333211D02*
X127496747Y-78523687D01*
X127496747Y-78523687D02*
X127496747Y-78666544D01*
X127496747Y-78666544D02*
X127449128Y-78857020D01*
X127449128Y-78857020D02*
X127401509Y-78952258D01*
X127401509Y-78952258D02*
X127306271Y-79047497D01*
X127306271Y-79047497D02*
X127163414Y-79095116D01*
X127163414Y-79095116D02*
X127068176Y-79095116D01*
X127068176Y-79095116D02*
X126925319Y-79047497D01*
X126925319Y-79047497D02*
X126877700Y-78999877D01*
X126877700Y-78999877D02*
X126877700Y-78666544D01*
X126877700Y-78666544D02*
X127068176Y-78666544D01*
X126449128Y-79095116D02*
X126449128Y-78095116D01*
X126449128Y-78095116D02*
X126068176Y-78095116D01*
X126068176Y-78095116D02*
X125972938Y-78142735D01*
X125972938Y-78142735D02*
X125925319Y-78190354D01*
X125925319Y-78190354D02*
X125877700Y-78285592D01*
X125877700Y-78285592D02*
X125877700Y-78428449D01*
X125877700Y-78428449D02*
X125925319Y-78523687D01*
X125925319Y-78523687D02*
X125972938Y-78571306D01*
X125972938Y-78571306D02*
X126068176Y-78618925D01*
X126068176Y-78618925D02*
X126449128Y-78618925D01*
X125449128Y-79095116D02*
X125449128Y-78095116D01*
X124782462Y-78095116D02*
X124591986Y-78095116D01*
X124591986Y-78095116D02*
X124496748Y-78142735D01*
X124496748Y-78142735D02*
X124401510Y-78237973D01*
X124401510Y-78237973D02*
X124353891Y-78428449D01*
X124353891Y-78428449D02*
X124353891Y-78761782D01*
X124353891Y-78761782D02*
X124401510Y-78952258D01*
X124401510Y-78952258D02*
X124496748Y-79047497D01*
X124496748Y-79047497D02*
X124591986Y-79095116D01*
X124591986Y-79095116D02*
X124782462Y-79095116D01*
X124782462Y-79095116D02*
X124877700Y-79047497D01*
X124877700Y-79047497D02*
X124972938Y-78952258D01*
X124972938Y-78952258D02*
X125020557Y-78761782D01*
X125020557Y-78761782D02*
X125020557Y-78428449D01*
X125020557Y-78428449D02*
X124972938Y-78237973D01*
X124972938Y-78237973D02*
X124877700Y-78142735D01*
X124877700Y-78142735D02*
X124782462Y-78095116D01*
X123401510Y-79095116D02*
X123972938Y-79095116D01*
X123687224Y-79095116D02*
X123687224Y-78095116D01*
X123687224Y-78095116D02*
X123782462Y-78237973D01*
X123782462Y-78237973D02*
X123877700Y-78333211D01*
X123877700Y-78333211D02*
X123972938Y-78380830D01*
X123068176Y-78095116D02*
X122449129Y-78095116D01*
X122449129Y-78095116D02*
X122782462Y-78476068D01*
X122782462Y-78476068D02*
X122639605Y-78476068D01*
X122639605Y-78476068D02*
X122544367Y-78523687D01*
X122544367Y-78523687D02*
X122496748Y-78571306D01*
X122496748Y-78571306D02*
X122449129Y-78666544D01*
X122449129Y-78666544D02*
X122449129Y-78904639D01*
X122449129Y-78904639D02*
X122496748Y-78999877D01*
X122496748Y-78999877D02*
X122544367Y-79047497D01*
X122544367Y-79047497D02*
X122639605Y-79095116D01*
X122639605Y-79095116D02*
X122925319Y-79095116D01*
X122925319Y-79095116D02*
X123020557Y-79047497D01*
X123020557Y-79047497D02*
X123068176Y-78999877D01*
X155106366Y-83345808D02*
X155582556Y-83345808D01*
X155582556Y-83345808D02*
X155630175Y-83821998D01*
X155630175Y-83821998D02*
X155582556Y-83774379D01*
X155582556Y-83774379D02*
X155487318Y-83726760D01*
X155487318Y-83726760D02*
X155249223Y-83726760D01*
X155249223Y-83726760D02*
X155153985Y-83774379D01*
X155153985Y-83774379D02*
X155106366Y-83821998D01*
X155106366Y-83821998D02*
X155058747Y-83917236D01*
X155058747Y-83917236D02*
X155058747Y-84155331D01*
X155058747Y-84155331D02*
X155106366Y-84250569D01*
X155106366Y-84250569D02*
X155153985Y-84298189D01*
X155153985Y-84298189D02*
X155249223Y-84345808D01*
X155249223Y-84345808D02*
X155487318Y-84345808D01*
X155487318Y-84345808D02*
X155582556Y-84298189D01*
X155582556Y-84298189D02*
X155630175Y-84250569D01*
X154725413Y-83679141D02*
X154487318Y-84345808D01*
X154487318Y-84345808D02*
X154249223Y-83679141D01*
X126925319Y-80682735D02*
X127020557Y-80635116D01*
X127020557Y-80635116D02*
X127163414Y-80635116D01*
X127163414Y-80635116D02*
X127306271Y-80682735D01*
X127306271Y-80682735D02*
X127401509Y-80777973D01*
X127401509Y-80777973D02*
X127449128Y-80873211D01*
X127449128Y-80873211D02*
X127496747Y-81063687D01*
X127496747Y-81063687D02*
X127496747Y-81206544D01*
X127496747Y-81206544D02*
X127449128Y-81397020D01*
X127449128Y-81397020D02*
X127401509Y-81492258D01*
X127401509Y-81492258D02*
X127306271Y-81587497D01*
X127306271Y-81587497D02*
X127163414Y-81635116D01*
X127163414Y-81635116D02*
X127068176Y-81635116D01*
X127068176Y-81635116D02*
X126925319Y-81587497D01*
X126925319Y-81587497D02*
X126877700Y-81539877D01*
X126877700Y-81539877D02*
X126877700Y-81206544D01*
X126877700Y-81206544D02*
X127068176Y-81206544D01*
X126449128Y-81635116D02*
X126449128Y-80635116D01*
X126449128Y-80635116D02*
X126068176Y-80635116D01*
X126068176Y-80635116D02*
X125972938Y-80682735D01*
X125972938Y-80682735D02*
X125925319Y-80730354D01*
X125925319Y-80730354D02*
X125877700Y-80825592D01*
X125877700Y-80825592D02*
X125877700Y-80968449D01*
X125877700Y-80968449D02*
X125925319Y-81063687D01*
X125925319Y-81063687D02*
X125972938Y-81111306D01*
X125972938Y-81111306D02*
X126068176Y-81158925D01*
X126068176Y-81158925D02*
X126449128Y-81158925D01*
X125449128Y-81635116D02*
X125449128Y-80635116D01*
X124782462Y-80635116D02*
X124591986Y-80635116D01*
X124591986Y-80635116D02*
X124496748Y-80682735D01*
X124496748Y-80682735D02*
X124401510Y-80777973D01*
X124401510Y-80777973D02*
X124353891Y-80968449D01*
X124353891Y-80968449D02*
X124353891Y-81301782D01*
X124353891Y-81301782D02*
X124401510Y-81492258D01*
X124401510Y-81492258D02*
X124496748Y-81587497D01*
X124496748Y-81587497D02*
X124591986Y-81635116D01*
X124591986Y-81635116D02*
X124782462Y-81635116D01*
X124782462Y-81635116D02*
X124877700Y-81587497D01*
X124877700Y-81587497D02*
X124972938Y-81492258D01*
X124972938Y-81492258D02*
X125020557Y-81301782D01*
X125020557Y-81301782D02*
X125020557Y-80968449D01*
X125020557Y-80968449D02*
X124972938Y-80777973D01*
X124972938Y-80777973D02*
X124877700Y-80682735D01*
X124877700Y-80682735D02*
X124782462Y-80635116D01*
X123401510Y-81635116D02*
X123972938Y-81635116D01*
X123687224Y-81635116D02*
X123687224Y-80635116D01*
X123687224Y-80635116D02*
X123782462Y-80777973D01*
X123782462Y-80777973D02*
X123877700Y-80873211D01*
X123877700Y-80873211D02*
X123972938Y-80920830D01*
X122496748Y-80635116D02*
X122972938Y-80635116D01*
X122972938Y-80635116D02*
X123020557Y-81111306D01*
X123020557Y-81111306D02*
X122972938Y-81063687D01*
X122972938Y-81063687D02*
X122877700Y-81016068D01*
X122877700Y-81016068D02*
X122639605Y-81016068D01*
X122639605Y-81016068D02*
X122544367Y-81063687D01*
X122544367Y-81063687D02*
X122496748Y-81111306D01*
X122496748Y-81111306D02*
X122449129Y-81206544D01*
X122449129Y-81206544D02*
X122449129Y-81444639D01*
X122449129Y-81444639D02*
X122496748Y-81539877D01*
X122496748Y-81539877D02*
X122544367Y-81587497D01*
X122544367Y-81587497D02*
X122639605Y-81635116D01*
X122639605Y-81635116D02*
X122877700Y-81635116D01*
X122877700Y-81635116D02*
X122972938Y-81587497D01*
X122972938Y-81587497D02*
X123020557Y-81539877D01*
X127449128Y-68411306D02*
X127115795Y-68411306D01*
X126972938Y-68935116D02*
X127449128Y-68935116D01*
X127449128Y-68935116D02*
X127449128Y-67935116D01*
X127449128Y-67935116D02*
X126972938Y-67935116D01*
X126544366Y-68935116D02*
X126544366Y-67935116D01*
X126544366Y-67935116D02*
X125972938Y-68935116D01*
X125972938Y-68935116D02*
X125972938Y-67935116D01*
X126925319Y-75602735D02*
X127020557Y-75555116D01*
X127020557Y-75555116D02*
X127163414Y-75555116D01*
X127163414Y-75555116D02*
X127306271Y-75602735D01*
X127306271Y-75602735D02*
X127401509Y-75697973D01*
X127401509Y-75697973D02*
X127449128Y-75793211D01*
X127449128Y-75793211D02*
X127496747Y-75983687D01*
X127496747Y-75983687D02*
X127496747Y-76126544D01*
X127496747Y-76126544D02*
X127449128Y-76317020D01*
X127449128Y-76317020D02*
X127401509Y-76412258D01*
X127401509Y-76412258D02*
X127306271Y-76507497D01*
X127306271Y-76507497D02*
X127163414Y-76555116D01*
X127163414Y-76555116D02*
X127068176Y-76555116D01*
X127068176Y-76555116D02*
X126925319Y-76507497D01*
X126925319Y-76507497D02*
X126877700Y-76459877D01*
X126877700Y-76459877D02*
X126877700Y-76126544D01*
X126877700Y-76126544D02*
X127068176Y-76126544D01*
X126449128Y-76555116D02*
X126449128Y-75555116D01*
X126449128Y-75555116D02*
X126068176Y-75555116D01*
X126068176Y-75555116D02*
X125972938Y-75602735D01*
X125972938Y-75602735D02*
X125925319Y-75650354D01*
X125925319Y-75650354D02*
X125877700Y-75745592D01*
X125877700Y-75745592D02*
X125877700Y-75888449D01*
X125877700Y-75888449D02*
X125925319Y-75983687D01*
X125925319Y-75983687D02*
X125972938Y-76031306D01*
X125972938Y-76031306D02*
X126068176Y-76078925D01*
X126068176Y-76078925D02*
X126449128Y-76078925D01*
X125449128Y-76555116D02*
X125449128Y-75555116D01*
X124782462Y-75555116D02*
X124591986Y-75555116D01*
X124591986Y-75555116D02*
X124496748Y-75602735D01*
X124496748Y-75602735D02*
X124401510Y-75697973D01*
X124401510Y-75697973D02*
X124353891Y-75888449D01*
X124353891Y-75888449D02*
X124353891Y-76221782D01*
X124353891Y-76221782D02*
X124401510Y-76412258D01*
X124401510Y-76412258D02*
X124496748Y-76507497D01*
X124496748Y-76507497D02*
X124591986Y-76555116D01*
X124591986Y-76555116D02*
X124782462Y-76555116D01*
X124782462Y-76555116D02*
X124877700Y-76507497D01*
X124877700Y-76507497D02*
X124972938Y-76412258D01*
X124972938Y-76412258D02*
X125020557Y-76221782D01*
X125020557Y-76221782D02*
X125020557Y-75888449D01*
X125020557Y-75888449D02*
X124972938Y-75697973D01*
X124972938Y-75697973D02*
X124877700Y-75602735D01*
X124877700Y-75602735D02*
X124782462Y-75555116D01*
X123401510Y-76555116D02*
X123972938Y-76555116D01*
X123687224Y-76555116D02*
X123687224Y-75555116D01*
X123687224Y-75555116D02*
X123782462Y-75697973D01*
X123782462Y-75697973D02*
X123877700Y-75793211D01*
X123877700Y-75793211D02*
X123972938Y-75840830D01*
X123020557Y-75650354D02*
X122972938Y-75602735D01*
X122972938Y-75602735D02*
X122877700Y-75555116D01*
X122877700Y-75555116D02*
X122639605Y-75555116D01*
X122639605Y-75555116D02*
X122544367Y-75602735D01*
X122544367Y-75602735D02*
X122496748Y-75650354D01*
X122496748Y-75650354D02*
X122449129Y-75745592D01*
X122449129Y-75745592D02*
X122449129Y-75840830D01*
X122449129Y-75840830D02*
X122496748Y-75983687D01*
X122496748Y-75983687D02*
X123068176Y-76555116D01*
X123068176Y-76555116D02*
X122449129Y-76555116D01*
X157820651Y-65613427D02*
X157915889Y-65565808D01*
X157915889Y-65565808D02*
X158058746Y-65565808D01*
X158058746Y-65565808D02*
X158201603Y-65613427D01*
X158201603Y-65613427D02*
X158296841Y-65708665D01*
X158296841Y-65708665D02*
X158344460Y-65803903D01*
X158344460Y-65803903D02*
X158392079Y-65994379D01*
X158392079Y-65994379D02*
X158392079Y-66137236D01*
X158392079Y-66137236D02*
X158344460Y-66327712D01*
X158344460Y-66327712D02*
X158296841Y-66422950D01*
X158296841Y-66422950D02*
X158201603Y-66518189D01*
X158201603Y-66518189D02*
X158058746Y-66565808D01*
X158058746Y-66565808D02*
X157963508Y-66565808D01*
X157963508Y-66565808D02*
X157820651Y-66518189D01*
X157820651Y-66518189D02*
X157773032Y-66470569D01*
X157773032Y-66470569D02*
X157773032Y-66137236D01*
X157773032Y-66137236D02*
X157963508Y-66137236D01*
X157344460Y-66565808D02*
X157344460Y-65565808D01*
X157344460Y-65565808D02*
X156963508Y-65565808D01*
X156963508Y-65565808D02*
X156868270Y-65613427D01*
X156868270Y-65613427D02*
X156820651Y-65661046D01*
X156820651Y-65661046D02*
X156773032Y-65756284D01*
X156773032Y-65756284D02*
X156773032Y-65899141D01*
X156773032Y-65899141D02*
X156820651Y-65994379D01*
X156820651Y-65994379D02*
X156868270Y-66041998D01*
X156868270Y-66041998D02*
X156963508Y-66089617D01*
X156963508Y-66089617D02*
X157344460Y-66089617D01*
X156344460Y-66565808D02*
X156344460Y-65565808D01*
X155677794Y-65565808D02*
X155487318Y-65565808D01*
X155487318Y-65565808D02*
X155392080Y-65613427D01*
X155392080Y-65613427D02*
X155296842Y-65708665D01*
X155296842Y-65708665D02*
X155249223Y-65899141D01*
X155249223Y-65899141D02*
X155249223Y-66232474D01*
X155249223Y-66232474D02*
X155296842Y-66422950D01*
X155296842Y-66422950D02*
X155392080Y-66518189D01*
X155392080Y-66518189D02*
X155487318Y-66565808D01*
X155487318Y-66565808D02*
X155677794Y-66565808D01*
X155677794Y-66565808D02*
X155773032Y-66518189D01*
X155773032Y-66518189D02*
X155868270Y-66422950D01*
X155868270Y-66422950D02*
X155915889Y-66232474D01*
X155915889Y-66232474D02*
X155915889Y-65899141D01*
X155915889Y-65899141D02*
X155868270Y-65708665D01*
X155868270Y-65708665D02*
X155773032Y-65613427D01*
X155773032Y-65613427D02*
X155677794Y-65565808D01*
X154296842Y-66565808D02*
X154868270Y-66565808D01*
X154582556Y-66565808D02*
X154582556Y-65565808D01*
X154582556Y-65565808D02*
X154677794Y-65708665D01*
X154677794Y-65708665D02*
X154773032Y-65803903D01*
X154773032Y-65803903D02*
X154868270Y-65851522D01*
X127591985Y-83175116D02*
X127258652Y-84175116D01*
X127258652Y-84175116D02*
X126925319Y-83175116D01*
X126020557Y-84079877D02*
X126068176Y-84127497D01*
X126068176Y-84127497D02*
X126211033Y-84175116D01*
X126211033Y-84175116D02*
X126306271Y-84175116D01*
X126306271Y-84175116D02*
X126449128Y-84127497D01*
X126449128Y-84127497D02*
X126544366Y-84032258D01*
X126544366Y-84032258D02*
X126591985Y-83937020D01*
X126591985Y-83937020D02*
X126639604Y-83746544D01*
X126639604Y-83746544D02*
X126639604Y-83603687D01*
X126639604Y-83603687D02*
X126591985Y-83413211D01*
X126591985Y-83413211D02*
X126544366Y-83317973D01*
X126544366Y-83317973D02*
X126449128Y-83222735D01*
X126449128Y-83222735D02*
X126306271Y-83175116D01*
X126306271Y-83175116D02*
X126211033Y-83175116D01*
X126211033Y-83175116D02*
X126068176Y-83222735D01*
X126068176Y-83222735D02*
X126020557Y-83270354D01*
X125020557Y-84079877D02*
X125068176Y-84127497D01*
X125068176Y-84127497D02*
X125211033Y-84175116D01*
X125211033Y-84175116D02*
X125306271Y-84175116D01*
X125306271Y-84175116D02*
X125449128Y-84127497D01*
X125449128Y-84127497D02*
X125544366Y-84032258D01*
X125544366Y-84032258D02*
X125591985Y-83937020D01*
X125591985Y-83937020D02*
X125639604Y-83746544D01*
X125639604Y-83746544D02*
X125639604Y-83603687D01*
X125639604Y-83603687D02*
X125591985Y-83413211D01*
X125591985Y-83413211D02*
X125544366Y-83317973D01*
X125544366Y-83317973D02*
X125449128Y-83222735D01*
X125449128Y-83222735D02*
X125306271Y-83175116D01*
X125306271Y-83175116D02*
X125211033Y-83175116D01*
X125211033Y-83175116D02*
X125068176Y-83222735D01*
X125068176Y-83222735D02*
X125020557Y-83270354D01*
X124591985Y-83794163D02*
X123830081Y-83794163D01*
X123449128Y-83175116D02*
X122830081Y-83175116D01*
X122830081Y-83175116D02*
X123163414Y-83556068D01*
X123163414Y-83556068D02*
X123020557Y-83556068D01*
X123020557Y-83556068D02*
X122925319Y-83603687D01*
X122925319Y-83603687D02*
X122877700Y-83651306D01*
X122877700Y-83651306D02*
X122830081Y-83746544D01*
X122830081Y-83746544D02*
X122830081Y-83984639D01*
X122830081Y-83984639D02*
X122877700Y-84079877D01*
X122877700Y-84079877D02*
X122925319Y-84127497D01*
X122925319Y-84127497D02*
X123020557Y-84175116D01*
X123020557Y-84175116D02*
X123306271Y-84175116D01*
X123306271Y-84175116D02*
X123401509Y-84127497D01*
X123401509Y-84127497D02*
X123449128Y-84079877D01*
X122496747Y-83508449D02*
X122258652Y-84175116D01*
X122258652Y-84175116D02*
X122020557Y-83508449D01*
X121734842Y-83175116D02*
X121115795Y-83175116D01*
X121115795Y-83175116D02*
X121449128Y-83556068D01*
X121449128Y-83556068D02*
X121306271Y-83556068D01*
X121306271Y-83556068D02*
X121211033Y-83603687D01*
X121211033Y-83603687D02*
X121163414Y-83651306D01*
X121163414Y-83651306D02*
X121115795Y-83746544D01*
X121115795Y-83746544D02*
X121115795Y-83984639D01*
X121115795Y-83984639D02*
X121163414Y-84079877D01*
X121163414Y-84079877D02*
X121211033Y-84127497D01*
X121211033Y-84127497D02*
X121306271Y-84175116D01*
X121306271Y-84175116D02*
X121591985Y-84175116D01*
X121591985Y-84175116D02*
X121687223Y-84127497D01*
X121687223Y-84127497D02*
X121734842Y-84079877D01*
X156392080Y-80853427D02*
X156487318Y-80805808D01*
X156487318Y-80805808D02*
X156630175Y-80805808D01*
X156630175Y-80805808D02*
X156773032Y-80853427D01*
X156773032Y-80853427D02*
X156868270Y-80948665D01*
X156868270Y-80948665D02*
X156915889Y-81043903D01*
X156915889Y-81043903D02*
X156963508Y-81234379D01*
X156963508Y-81234379D02*
X156963508Y-81377236D01*
X156963508Y-81377236D02*
X156915889Y-81567712D01*
X156915889Y-81567712D02*
X156868270Y-81662950D01*
X156868270Y-81662950D02*
X156773032Y-81758189D01*
X156773032Y-81758189D02*
X156630175Y-81805808D01*
X156630175Y-81805808D02*
X156534937Y-81805808D01*
X156534937Y-81805808D02*
X156392080Y-81758189D01*
X156392080Y-81758189D02*
X156344461Y-81710569D01*
X156344461Y-81710569D02*
X156344461Y-81377236D01*
X156344461Y-81377236D02*
X156534937Y-81377236D01*
X155915889Y-81805808D02*
X155915889Y-80805808D01*
X155915889Y-80805808D02*
X155344461Y-81805808D01*
X155344461Y-81805808D02*
X155344461Y-80805808D01*
X154868270Y-81805808D02*
X154868270Y-80805808D01*
X154868270Y-80805808D02*
X154630175Y-80805808D01*
X154630175Y-80805808D02*
X154487318Y-80853427D01*
X154487318Y-80853427D02*
X154392080Y-80948665D01*
X154392080Y-80948665D02*
X154344461Y-81043903D01*
X154344461Y-81043903D02*
X154296842Y-81234379D01*
X154296842Y-81234379D02*
X154296842Y-81377236D01*
X154296842Y-81377236D02*
X154344461Y-81567712D01*
X154344461Y-81567712D02*
X154392080Y-81662950D01*
X154392080Y-81662950D02*
X154487318Y-81758189D01*
X154487318Y-81758189D02*
X154630175Y-81805808D01*
X154630175Y-81805808D02*
X154868270Y-81805808D01*
X126925319Y-73062735D02*
X127020557Y-73015116D01*
X127020557Y-73015116D02*
X127163414Y-73015116D01*
X127163414Y-73015116D02*
X127306271Y-73062735D01*
X127306271Y-73062735D02*
X127401509Y-73157973D01*
X127401509Y-73157973D02*
X127449128Y-73253211D01*
X127449128Y-73253211D02*
X127496747Y-73443687D01*
X127496747Y-73443687D02*
X127496747Y-73586544D01*
X127496747Y-73586544D02*
X127449128Y-73777020D01*
X127449128Y-73777020D02*
X127401509Y-73872258D01*
X127401509Y-73872258D02*
X127306271Y-73967497D01*
X127306271Y-73967497D02*
X127163414Y-74015116D01*
X127163414Y-74015116D02*
X127068176Y-74015116D01*
X127068176Y-74015116D02*
X126925319Y-73967497D01*
X126925319Y-73967497D02*
X126877700Y-73919877D01*
X126877700Y-73919877D02*
X126877700Y-73586544D01*
X126877700Y-73586544D02*
X127068176Y-73586544D01*
X126449128Y-74015116D02*
X126449128Y-73015116D01*
X126449128Y-73015116D02*
X126068176Y-73015116D01*
X126068176Y-73015116D02*
X125972938Y-73062735D01*
X125972938Y-73062735D02*
X125925319Y-73110354D01*
X125925319Y-73110354D02*
X125877700Y-73205592D01*
X125877700Y-73205592D02*
X125877700Y-73348449D01*
X125877700Y-73348449D02*
X125925319Y-73443687D01*
X125925319Y-73443687D02*
X125972938Y-73491306D01*
X125972938Y-73491306D02*
X126068176Y-73538925D01*
X126068176Y-73538925D02*
X126449128Y-73538925D01*
X125449128Y-74015116D02*
X125449128Y-73015116D01*
X124782462Y-73015116D02*
X124591986Y-73015116D01*
X124591986Y-73015116D02*
X124496748Y-73062735D01*
X124496748Y-73062735D02*
X124401510Y-73157973D01*
X124401510Y-73157973D02*
X124353891Y-73348449D01*
X124353891Y-73348449D02*
X124353891Y-73681782D01*
X124353891Y-73681782D02*
X124401510Y-73872258D01*
X124401510Y-73872258D02*
X124496748Y-73967497D01*
X124496748Y-73967497D02*
X124591986Y-74015116D01*
X124591986Y-74015116D02*
X124782462Y-74015116D01*
X124782462Y-74015116D02*
X124877700Y-73967497D01*
X124877700Y-73967497D02*
X124972938Y-73872258D01*
X124972938Y-73872258D02*
X125020557Y-73681782D01*
X125020557Y-73681782D02*
X125020557Y-73348449D01*
X125020557Y-73348449D02*
X124972938Y-73157973D01*
X124972938Y-73157973D02*
X124877700Y-73062735D01*
X124877700Y-73062735D02*
X124782462Y-73015116D01*
X123401510Y-74015116D02*
X123972938Y-74015116D01*
X123687224Y-74015116D02*
X123687224Y-73015116D01*
X123687224Y-73015116D02*
X123782462Y-73157973D01*
X123782462Y-73157973D02*
X123877700Y-73253211D01*
X123877700Y-73253211D02*
X123972938Y-73300830D01*
X122544367Y-73348449D02*
X122544367Y-74015116D01*
X122782462Y-72967497D02*
X123020557Y-73681782D01*
X123020557Y-73681782D02*
X122401510Y-73681782D01*
X126925319Y-70522735D02*
X127020557Y-70475116D01*
X127020557Y-70475116D02*
X127163414Y-70475116D01*
X127163414Y-70475116D02*
X127306271Y-70522735D01*
X127306271Y-70522735D02*
X127401509Y-70617973D01*
X127401509Y-70617973D02*
X127449128Y-70713211D01*
X127449128Y-70713211D02*
X127496747Y-70903687D01*
X127496747Y-70903687D02*
X127496747Y-71046544D01*
X127496747Y-71046544D02*
X127449128Y-71237020D01*
X127449128Y-71237020D02*
X127401509Y-71332258D01*
X127401509Y-71332258D02*
X127306271Y-71427497D01*
X127306271Y-71427497D02*
X127163414Y-71475116D01*
X127163414Y-71475116D02*
X127068176Y-71475116D01*
X127068176Y-71475116D02*
X126925319Y-71427497D01*
X126925319Y-71427497D02*
X126877700Y-71379877D01*
X126877700Y-71379877D02*
X126877700Y-71046544D01*
X126877700Y-71046544D02*
X127068176Y-71046544D01*
X126449128Y-71475116D02*
X126449128Y-70475116D01*
X126449128Y-70475116D02*
X126068176Y-70475116D01*
X126068176Y-70475116D02*
X125972938Y-70522735D01*
X125972938Y-70522735D02*
X125925319Y-70570354D01*
X125925319Y-70570354D02*
X125877700Y-70665592D01*
X125877700Y-70665592D02*
X125877700Y-70808449D01*
X125877700Y-70808449D02*
X125925319Y-70903687D01*
X125925319Y-70903687D02*
X125972938Y-70951306D01*
X125972938Y-70951306D02*
X126068176Y-70998925D01*
X126068176Y-70998925D02*
X126449128Y-70998925D01*
X125449128Y-71475116D02*
X125449128Y-70475116D01*
X124782462Y-70475116D02*
X124591986Y-70475116D01*
X124591986Y-70475116D02*
X124496748Y-70522735D01*
X124496748Y-70522735D02*
X124401510Y-70617973D01*
X124401510Y-70617973D02*
X124353891Y-70808449D01*
X124353891Y-70808449D02*
X124353891Y-71141782D01*
X124353891Y-71141782D02*
X124401510Y-71332258D01*
X124401510Y-71332258D02*
X124496748Y-71427497D01*
X124496748Y-71427497D02*
X124591986Y-71475116D01*
X124591986Y-71475116D02*
X124782462Y-71475116D01*
X124782462Y-71475116D02*
X124877700Y-71427497D01*
X124877700Y-71427497D02*
X124972938Y-71332258D01*
X124972938Y-71332258D02*
X125020557Y-71141782D01*
X125020557Y-71141782D02*
X125020557Y-70808449D01*
X125020557Y-70808449D02*
X124972938Y-70617973D01*
X124972938Y-70617973D02*
X124877700Y-70522735D01*
X124877700Y-70522735D02*
X124782462Y-70475116D01*
X123401510Y-71475116D02*
X123972938Y-71475116D01*
X123687224Y-71475116D02*
X123687224Y-70475116D01*
X123687224Y-70475116D02*
X123782462Y-70617973D01*
X123782462Y-70617973D02*
X123877700Y-70713211D01*
X123877700Y-70713211D02*
X123972938Y-70760830D01*
X122544367Y-70475116D02*
X122734843Y-70475116D01*
X122734843Y-70475116D02*
X122830081Y-70522735D01*
X122830081Y-70522735D02*
X122877700Y-70570354D01*
X122877700Y-70570354D02*
X122972938Y-70713211D01*
X122972938Y-70713211D02*
X123020557Y-70903687D01*
X123020557Y-70903687D02*
X123020557Y-71284639D01*
X123020557Y-71284639D02*
X122972938Y-71379877D01*
X122972938Y-71379877D02*
X122925319Y-71427497D01*
X122925319Y-71427497D02*
X122830081Y-71475116D01*
X122830081Y-71475116D02*
X122639605Y-71475116D01*
X122639605Y-71475116D02*
X122544367Y-71427497D01*
X122544367Y-71427497D02*
X122496748Y-71379877D01*
X122496748Y-71379877D02*
X122449129Y-71284639D01*
X122449129Y-71284639D02*
X122449129Y-71046544D01*
X122449129Y-71046544D02*
X122496748Y-70951306D01*
X122496748Y-70951306D02*
X122544367Y-70903687D01*
X122544367Y-70903687D02*
X122639605Y-70856068D01*
X122639605Y-70856068D02*
X122830081Y-70856068D01*
X122830081Y-70856068D02*
X122925319Y-70903687D01*
X122925319Y-70903687D02*
X122972938Y-70951306D01*
X122972938Y-70951306D02*
X123020557Y-71046544D01*
X157820651Y-73233427D02*
X157915889Y-73185808D01*
X157915889Y-73185808D02*
X158058746Y-73185808D01*
X158058746Y-73185808D02*
X158201603Y-73233427D01*
X158201603Y-73233427D02*
X158296841Y-73328665D01*
X158296841Y-73328665D02*
X158344460Y-73423903D01*
X158344460Y-73423903D02*
X158392079Y-73614379D01*
X158392079Y-73614379D02*
X158392079Y-73757236D01*
X158392079Y-73757236D02*
X158344460Y-73947712D01*
X158344460Y-73947712D02*
X158296841Y-74042950D01*
X158296841Y-74042950D02*
X158201603Y-74138189D01*
X158201603Y-74138189D02*
X158058746Y-74185808D01*
X158058746Y-74185808D02*
X157963508Y-74185808D01*
X157963508Y-74185808D02*
X157820651Y-74138189D01*
X157820651Y-74138189D02*
X157773032Y-74090569D01*
X157773032Y-74090569D02*
X157773032Y-73757236D01*
X157773032Y-73757236D02*
X157963508Y-73757236D01*
X157344460Y-74185808D02*
X157344460Y-73185808D01*
X157344460Y-73185808D02*
X156963508Y-73185808D01*
X156963508Y-73185808D02*
X156868270Y-73233427D01*
X156868270Y-73233427D02*
X156820651Y-73281046D01*
X156820651Y-73281046D02*
X156773032Y-73376284D01*
X156773032Y-73376284D02*
X156773032Y-73519141D01*
X156773032Y-73519141D02*
X156820651Y-73614379D01*
X156820651Y-73614379D02*
X156868270Y-73661998D01*
X156868270Y-73661998D02*
X156963508Y-73709617D01*
X156963508Y-73709617D02*
X157344460Y-73709617D01*
X156344460Y-74185808D02*
X156344460Y-73185808D01*
X155677794Y-73185808D02*
X155487318Y-73185808D01*
X155487318Y-73185808D02*
X155392080Y-73233427D01*
X155392080Y-73233427D02*
X155296842Y-73328665D01*
X155296842Y-73328665D02*
X155249223Y-73519141D01*
X155249223Y-73519141D02*
X155249223Y-73852474D01*
X155249223Y-73852474D02*
X155296842Y-74042950D01*
X155296842Y-74042950D02*
X155392080Y-74138189D01*
X155392080Y-74138189D02*
X155487318Y-74185808D01*
X155487318Y-74185808D02*
X155677794Y-74185808D01*
X155677794Y-74185808D02*
X155773032Y-74138189D01*
X155773032Y-74138189D02*
X155868270Y-74042950D01*
X155868270Y-74042950D02*
X155915889Y-73852474D01*
X155915889Y-73852474D02*
X155915889Y-73519141D01*
X155915889Y-73519141D02*
X155868270Y-73328665D01*
X155868270Y-73328665D02*
X155773032Y-73233427D01*
X155773032Y-73233427D02*
X155677794Y-73185808D01*
X154392080Y-73519141D02*
X154392080Y-74185808D01*
X154630175Y-73138189D02*
X154868270Y-73852474D01*
X154868270Y-73852474D02*
X154249223Y-73852474D01*
>>>>>>> Stashed changes
M02*
