%TF.GenerationSoftware,KiCad,Pcbnew,7.0.7*%
%TF.CreationDate,2023-10-31T08:11:39-06:00*%
%TF.ProjectId,RatGDO-OpenSource-D1Mini-ESP8266,52617447-444f-42d4-9f70-656e536f7572,rev?*%
%TF.SameCoordinates,Original*%
%TF.FileFunction,Copper,L1,Top*%
%TF.FilePolarity,Positive*%
%FSLAX46Y46*%
G04 Gerber Fmt 4.6, Leading zero omitted, Abs format (unit mm)*
G04 Created by KiCad (PCBNEW 7.0.7) date 2023-10-31 08:11:39*
%MOMM*%
%LPD*%
G01*
G04 APERTURE LIST*
G04 Aperture macros list*
%AMRoundRect*
0 Rectangle with rounded corners*
0 $1 Rounding radius*
0 $2 $3 $4 $5 $6 $7 $8 $9 X,Y pos of 4 corners*
0 Add a 4 corners polygon primitive as box body*
4,1,4,$2,$3,$4,$5,$6,$7,$8,$9,$2,$3,0*
0 Add four circle primitives for the rounded corners*
1,1,$1+$1,$2,$3*
1,1,$1+$1,$4,$5*
1,1,$1+$1,$6,$7*
1,1,$1+$1,$8,$9*
0 Add four rect primitives between the rounded corners*
20,1,$1+$1,$2,$3,$4,$5,0*
20,1,$1+$1,$4,$5,$6,$7,0*
20,1,$1+$1,$6,$7,$8,$9,0*
20,1,$1+$1,$8,$9,$2,$3,0*%
G04 Aperture macros list end*
%TA.AperFunction,SMDPad,CuDef*%
%ADD10RoundRect,0.250000X0.262500X0.450000X-0.262500X0.450000X-0.262500X-0.450000X0.262500X-0.450000X0*%
%TD*%
%TA.AperFunction,ComponentPad*%
%ADD11R,2.000000X2.000000*%
%TD*%
%TA.AperFunction,ComponentPad*%
%ADD12O,2.000000X1.600000*%
%TD*%
%TA.AperFunction,ComponentPad*%
%ADD13R,1.700000X1.700000*%
%TD*%
%TA.AperFunction,ComponentPad*%
%ADD14O,1.700000X1.700000*%
%TD*%
%TA.AperFunction,SMDPad,CuDef*%
%ADD15RoundRect,0.150000X-0.587500X-0.150000X0.587500X-0.150000X0.587500X0.150000X-0.587500X0.150000X0*%
%TD*%
%TA.AperFunction,SMDPad,CuDef*%
%ADD16RoundRect,0.150000X0.587500X0.150000X-0.587500X0.150000X-0.587500X-0.150000X0.587500X-0.150000X0*%
%TD*%
%TA.AperFunction,ComponentPad*%
%ADD17RoundRect,0.250000X-0.650000X-1.550000X0.650000X-1.550000X0.650000X1.550000X-0.650000X1.550000X0*%
%TD*%
%TA.AperFunction,ComponentPad*%
%ADD18O,1.800000X3.600000*%
%TD*%
%TA.AperFunction,ComponentPad*%
%ADD19R,2.600000X2.600000*%
%TD*%
%TA.AperFunction,ComponentPad*%
%ADD20C,2.600000*%
%TD*%
%TA.AperFunction,SMDPad,CuDef*%
%ADD21RoundRect,0.250000X-0.262500X-0.450000X0.262500X-0.450000X0.262500X0.450000X-0.262500X0.450000X0*%
%TD*%
%TA.AperFunction,ViaPad*%
%ADD22C,0.800000*%
%TD*%
%TA.AperFunction,Conductor*%
%ADD23C,0.250000*%
%TD*%
G04 APERTURE END LIST*
D10*
%TO.P,R3,1*%
%TO.N,GND*%
X159551173Y-71215222D03*
%TO.P,R3,2*%
%TO.N,Net-(Q2-G)*%
X157726173Y-71215222D03*
%TD*%
D11*
%TO.P,U1,1,~{RST}*%
%TO.N,unconnected-(U1-~{RST}-Pad1)*%
X129547500Y-66160000D03*
D12*
%TO.P,U1,2,A0*%
%TO.N,unconnected-(U1-A0-Pad2)*%
X129547500Y-68700000D03*
%TO.P,U1,3,D0*%
%TO.N,unconnected-(U1-D0-Pad3)*%
X129547500Y-71240000D03*
%TO.P,U1,4,SCK/D5*%
%TO.N,unconnected-(U1-SCK{slash}D5-Pad4)*%
X129547500Y-73780000D03*
%TO.P,U1,5,MISO/D6*%
%TO.N,unconnected-(U1-MISO{slash}D6-Pad5)*%
X129547500Y-76320000D03*
%TO.P,U1,6,MOSI/D7*%
%TO.N,Net-(U1-MOSI{slash}D7)*%
X129547500Y-78860000D03*
%TO.P,U1,7,CS/D8*%
%TO.N,unconnected-(U1-CS{slash}D8-Pad7)*%
X129547500Y-81400000D03*
%TO.P,U1,8,3V3*%
%TO.N,+3.3V*%
X129547500Y-83940000D03*
%TO.P,U1,9,5V*%
%TO.N,+5V*%
X152407500Y-83940000D03*
%TO.P,U1,10,GND*%
%TO.N,GND*%
X152407500Y-81400000D03*
%TO.P,U1,11,D4*%
%TO.N,unconnected-(U1-D4-Pad11)*%
X152407500Y-78860000D03*
%TO.P,U1,12,D3*%
%TO.N,unconnected-(U1-D3-Pad12)*%
X152407500Y-76320000D03*
%TO.P,U1,13,SDA/D2*%
%TO.N,Net-(Q1-D)*%
X152407500Y-73780000D03*
%TO.P,U1,14,SCL/D1*%
%TO.N,Net-(Q2-G)*%
X152407500Y-71240000D03*
%TO.P,U1,15,RX*%
%TO.N,unconnected-(U1-RX-Pad15)*%
X152407500Y-68700000D03*
%TO.P,U1,16,TX*%
%TO.N,unconnected-(U1-TX-Pad16)*%
X152407500Y-66160000D03*
%TD*%
D13*
%TO.P,J3,1,Blk/Obst*%
%TO.N,Net-(J1-Blk{slash}Obst)*%
X147335000Y-111760000D03*
D14*
%TO.P,J3,2,Red/Cntrl*%
%TO.N,Net-(J1-Red{slash}Cntrl)*%
X149875000Y-111760000D03*
%TO.P,J3,3,Wht/Gnd*%
%TO.N,GND*%
X152415000Y-111760000D03*
%TD*%
D15*
%TO.P,Q2,1,G*%
%TO.N,Net-(Q2-G)*%
X158071757Y-73632843D03*
%TO.P,Q2,2,S*%
%TO.N,GND*%
X158071757Y-75532843D03*
%TO.P,Q2,3,D*%
%TO.N,Net-(J1-Red{slash}Cntrl)*%
X159946757Y-74582843D03*
%TD*%
D16*
%TO.P,Q1,1,G*%
%TO.N,Net-(J1-Red{slash}Cntrl)*%
X160096200Y-80709515D03*
%TO.P,Q1,2,S*%
%TO.N,GND*%
X160096200Y-78809515D03*
%TO.P,Q1,3,D*%
%TO.N,Net-(Q1-D)*%
X158221200Y-79759515D03*
%TD*%
D17*
%TO.P,J2,1,Blk/Obst*%
%TO.N,Net-(J1-Blk{slash}Obst)*%
X146670000Y-119380000D03*
D18*
%TO.P,J2,2,Red/Cntrl*%
%TO.N,Net-(J1-Red{slash}Cntrl)*%
X150170000Y-119380000D03*
%TO.P,J2,3,Wht/Gnd*%
%TO.N,GND*%
X153670000Y-119380000D03*
%TD*%
D19*
%TO.P,J1,1,Blk/Obst*%
%TO.N,Net-(J1-Blk{slash}Obst)*%
X129700000Y-118415000D03*
D20*
%TO.P,J1,2,Red/Cntrl*%
%TO.N,Net-(J1-Red{slash}Cntrl)*%
X134700000Y-118415000D03*
%TO.P,J1,3,Wht/Gnd*%
%TO.N,GND*%
X139700000Y-118415000D03*
%TD*%
D10*
%TO.P,R2,1*%
%TO.N,Net-(U1-MOSI{slash}D7)*%
X124102500Y-78740000D03*
%TO.P,R2,2*%
%TO.N,GND*%
X122277500Y-78740000D03*
%TD*%
D21*
%TO.P,R1,1*%
%TO.N,Net-(J1-Blk{slash}Obst)*%
X122277500Y-82550000D03*
%TO.P,R1,2*%
%TO.N,Net-(U1-MOSI{slash}D7)*%
X124102500Y-82550000D03*
%TD*%
D22*
%TO.N,GND*%
X160020000Y-69850000D03*
X156210000Y-74930000D03*
X121920000Y-80010000D03*
X161290000Y-78740000D03*
%TD*%
D23*
%TO.N,Net-(Q1-D)*%
X158221200Y-79759515D02*
X152407500Y-73945815D01*
X152407500Y-73945815D02*
X152407500Y-73780000D01*
%TO.N,Net-(Q2-G)*%
X157701395Y-71240000D02*
X157726173Y-71215222D01*
X158071757Y-71560806D02*
X158071757Y-73632843D01*
X152407500Y-71240000D02*
X157701395Y-71240000D01*
X157726173Y-71215222D02*
X158071757Y-71560806D01*
%TO.N,Net-(U1-MOSI{slash}D7)*%
X124222500Y-78860000D02*
X129547500Y-78860000D01*
X124102500Y-78740000D02*
X124222500Y-78860000D01*
X124102500Y-82550000D02*
X124102500Y-78740000D01*
%TO.N,unconnected-(U1-CS{slash}D8-Pad7)*%
X129660000Y-81400000D02*
X129547500Y-81400000D01*
%TO.N,GND*%
X156812843Y-75532843D02*
X156210000Y-74930000D01*
X122277500Y-78740000D02*
X122277500Y-79652500D01*
X160096200Y-78809515D02*
X161220485Y-78809515D01*
X158071757Y-75532843D02*
X156812843Y-75532843D01*
X161220485Y-78809515D02*
X161290000Y-78740000D01*
X159551173Y-71215222D02*
X159551173Y-70318827D01*
X159551173Y-70318827D02*
X160020000Y-69850000D01*
X122277500Y-79652500D02*
X121920000Y-80010000D01*
%TO.N,Net-(J1-Blk{slash}Obst)*%
X136355000Y-111760000D02*
X147335000Y-111760000D01*
X129700000Y-118270000D02*
X129700000Y-118415000D01*
X129700000Y-118415000D02*
X131935000Y-120650000D01*
X131935000Y-120650000D02*
X145400000Y-120650000D01*
X129700000Y-118415000D02*
X136355000Y-111760000D01*
X122277500Y-82550000D02*
X122277500Y-110847500D01*
X122277500Y-110847500D02*
X129700000Y-118270000D01*
X145400000Y-120650000D02*
X146670000Y-119380000D01*
%TO.N,Net-(J1-Red{slash}Cntrl)*%
X160269590Y-80785715D02*
X162015000Y-79040305D01*
X162015000Y-79040305D02*
X162015000Y-76651086D01*
X146360000Y-115570000D02*
X150170000Y-119380000D01*
X150170000Y-119380000D02*
X150170000Y-112055000D01*
X160020000Y-80785715D02*
X160096200Y-80709515D01*
X162015000Y-76651086D02*
X159946757Y-74582843D01*
X160020000Y-80785715D02*
X160269590Y-80785715D01*
X150170000Y-112055000D02*
X149875000Y-111760000D01*
X134700000Y-118415000D02*
X137545000Y-115570000D01*
X149875000Y-111760000D02*
X149875000Y-110475000D01*
X137545000Y-115570000D02*
X146360000Y-115570000D01*
X149875000Y-110475000D02*
X160020000Y-100330000D01*
X160020000Y-100330000D02*
X160020000Y-80785715D01*
%TD*%
M02*
