%TF.GenerationSoftware,KiCad,Pcbnew,7.0.7*%
%TF.CreationDate,2023-10-27T22:05:31-06:00*%
%TF.ProjectId,RatGDO-OpenSource,52617447-444f-42d4-9f70-656e536f7572,rev?*%
%TF.SameCoordinates,Original*%
%TF.FileFunction,Copper,L2,Bot*%
%TF.FilePolarity,Positive*%
%FSLAX46Y46*%
G04 Gerber Fmt 4.6, Leading zero omitted, Abs format (unit mm)*
G04 Created by KiCad (PCBNEW 7.0.7) date 2023-10-27 22:05:31*
%MOMM*%
%LPD*%
G01*
G04 APERTURE LIST*
G04 Aperture macros list*
%AMRoundRect*
0 Rectangle with rounded corners*
0 $1 Rounding radius*
0 $2 $3 $4 $5 $6 $7 $8 $9 X,Y pos of 4 corners*
0 Add a 4 corners polygon primitive as box body*
4,1,4,$2,$3,$4,$5,$6,$7,$8,$9,$2,$3,0*
0 Add four circle primitives for the rounded corners*
1,1,$1+$1,$2,$3*
1,1,$1+$1,$4,$5*
1,1,$1+$1,$6,$7*
1,1,$1+$1,$8,$9*
0 Add four rect primitives between the rounded corners*
20,1,$1+$1,$2,$3,$4,$5,0*
20,1,$1+$1,$4,$5,$6,$7,0*
20,1,$1+$1,$6,$7,$8,$9,0*
20,1,$1+$1,$8,$9,$2,$3,0*%
G04 Aperture macros list end*
%TA.AperFunction,ComponentPad*%
%ADD10R,2.000000X2.000000*%
%TD*%
%TA.AperFunction,ComponentPad*%
%ADD11O,2.000000X1.600000*%
%TD*%
%TA.AperFunction,ComponentPad*%
%ADD12C,2.000000*%
%TD*%
%TA.AperFunction,ComponentPad*%
%ADD13RoundRect,0.250000X-0.650000X-1.550000X0.650000X-1.550000X0.650000X1.550000X-0.650000X1.550000X0*%
%TD*%
%TA.AperFunction,ComponentPad*%
%ADD14O,1.800000X3.600000*%
%TD*%
%TA.AperFunction,ComponentPad*%
%ADD15R,2.600000X2.600000*%
%TD*%
%TA.AperFunction,ComponentPad*%
%ADD16C,2.600000*%
%TD*%
%TA.AperFunction,ViaPad*%
%ADD17C,0.800000*%
%TD*%
%TA.AperFunction,Conductor*%
%ADD18C,0.250000*%
%TD*%
G04 APERTURE END LIST*
D10*
%TO.P,U1,1,~{RST}*%
%TO.N,unconnected-(U1-~{RST}-Pad1)*%
X129547500Y-66160000D03*
D11*
%TO.P,U1,2,A0*%
%TO.N,unconnected-(U1-A0-Pad2)*%
X129547500Y-68700000D03*
%TO.P,U1,3,D0*%
%TO.N,unconnected-(U1-D0-Pad3)*%
X129547500Y-71240000D03*
%TO.P,U1,4,SCK/D5*%
%TO.N,unconnected-(U1-SCK{slash}D5-Pad4)*%
X129547500Y-73780000D03*
%TO.P,U1,5,MISO/D6*%
%TO.N,unconnected-(U1-MISO{slash}D6-Pad5)*%
X129547500Y-76320000D03*
%TO.P,U1,6,MOSI/D7*%
%TO.N,unconnected-(U1-MOSI{slash}D7-Pad6)*%
X129547500Y-78860000D03*
%TO.P,U1,7,CS/D8*%
%TO.N,Net-(U1-CS{slash}D8)*%
X129547500Y-81400000D03*
%TO.P,U1,8,3V3*%
%TO.N,VCC*%
X129547500Y-83940000D03*
%TO.P,U1,9,5V*%
%TO.N,unconnected-(U1-5V-Pad9)*%
X152407500Y-83940000D03*
%TO.P,U1,10,GND*%
%TO.N,GND*%
X152407500Y-81400000D03*
%TO.P,U1,11,D4*%
%TO.N,unconnected-(U1-D4-Pad11)*%
X152407500Y-78860000D03*
%TO.P,U1,12,D3*%
%TO.N,unconnected-(U1-D3-Pad12)*%
X152407500Y-76320000D03*
%TO.P,U1,13,SDA/D2*%
%TO.N,unconnected-(U1-SDA{slash}D2-Pad13)*%
X152407500Y-73780000D03*
%TO.P,U1,14,SCL/D1*%
%TO.N,Net-(Q1-D)*%
X152407500Y-71240000D03*
%TO.P,U1,15,RX*%
%TO.N,unconnected-(U1-RX-Pad15)*%
X152407500Y-68700000D03*
%TO.P,U1,16,TX*%
%TO.N,unconnected-(U1-TX-Pad16)*%
X152407500Y-66160000D03*
%TD*%
D10*
%TO.P,C2,1*%
%TO.N,VCC*%
X142240000Y-100330000D03*
D12*
%TO.P,C2,2*%
%TO.N,GND*%
X142240000Y-105330000D03*
%TD*%
D13*
%TO.P,J2,1,Pin_1*%
%TO.N,Net-(J1-Pin_1)*%
X146670000Y-119380000D03*
D14*
%TO.P,J2,2,Pin_2*%
%TO.N,Net-(J1-Pin_2)*%
X150170000Y-119380000D03*
%TO.P,J2,3,Pin_3*%
%TO.N,GND*%
X153670000Y-119380000D03*
%TD*%
D15*
%TO.P,J1,1,Pin_1*%
%TO.N,Net-(J1-Pin_1)*%
X129700000Y-118415000D03*
D16*
%TO.P,J1,2,Pin_2*%
%TO.N,Net-(J1-Pin_2)*%
X134700000Y-118415000D03*
%TO.P,J1,3,Pin_3*%
%TO.N,GND*%
X139700000Y-118415000D03*
%TD*%
D17*
%TO.N,GND*%
X153670000Y-116840000D03*
X139700000Y-107460000D03*
X139700000Y-115570000D03*
X161290000Y-88900000D03*
X161290000Y-80010000D03*
X148590000Y-82550000D03*
%TD*%
D18*
%TO.N,GND*%
X139700000Y-107950000D02*
X139700000Y-91440000D01*
X161290000Y-80010000D02*
X161290000Y-88900000D01*
X148590000Y-111760000D02*
X153670000Y-116840000D01*
X139700000Y-107950000D02*
X139700000Y-107460000D01*
X139700000Y-111760000D02*
X148590000Y-111760000D01*
X139700000Y-91440000D02*
X148590000Y-82550000D01*
X139700000Y-115570000D02*
X139700000Y-111760000D01*
X139700000Y-111760000D02*
X139700000Y-107950000D01*
%TD*%
M02*
