%TF.GenerationSoftware,KiCad,Pcbnew,7.0.7*%
%TF.CreationDate,2023-10-27T22:05:09-06:00*%
%TF.ProjectId,RatGDO-OpenSource,52617447-444f-42d4-9f70-656e536f7572,rev?*%
%TF.SameCoordinates,Original*%
%TF.FileFunction,Drillmap*%
%TF.FilePolarity,Positive*%
%FSLAX45Y45*%
G04 Gerber Fmt 4.5, Leading zero omitted, Abs format (unit mm)*
G04 Created by KiCad (PCBNEW 7.0.7) date 2023-10-27 22:05:09*
%MOMM*%
%LPD*%
G01*
G04 APERTURE LIST*
%ADD10C,0.100000*%
%ADD11C,0.200000*%
%ADD12C,0.500000*%
G04 APERTURE END LIST*
D10*
X11391000Y-5573000D02*
X16891000Y-5573000D01*
X16891000Y-12573000D01*
X11391000Y-12573000D01*
X11391000Y-5573000D01*
D11*
D12*
X11815000Y-11561000D02*
X12315000Y-12061000D01*
X12315000Y-11561000D02*
X11815000Y-12061000D01*
X11942000Y-5973000D02*
X12442000Y-6473000D01*
X12442000Y-5973000D02*
X11942000Y-6473000D01*
X15879000Y-5973000D02*
X16379000Y-6473000D01*
X16379000Y-5973000D02*
X15879000Y-6473000D01*
X16006000Y-11561000D02*
X16506000Y-12061000D01*
X16506000Y-11561000D02*
X16006000Y-12061000D01*
D11*
X11646777Y-12889484D02*
X11646777Y-12689484D01*
X11646777Y-12689484D02*
X11694396Y-12689484D01*
X11694396Y-12689484D02*
X11722967Y-12699008D01*
X11722967Y-12699008D02*
X11742015Y-12718055D01*
X11742015Y-12718055D02*
X11751539Y-12737103D01*
X11751539Y-12737103D02*
X11761062Y-12775198D01*
X11761062Y-12775198D02*
X11761062Y-12803769D01*
X11761062Y-12803769D02*
X11751539Y-12841865D01*
X11751539Y-12841865D02*
X11742015Y-12860912D01*
X11742015Y-12860912D02*
X11722967Y-12879960D01*
X11722967Y-12879960D02*
X11694396Y-12889484D01*
X11694396Y-12889484D02*
X11646777Y-12889484D01*
X11846777Y-12889484D02*
X11846777Y-12756150D01*
X11846777Y-12794246D02*
X11856301Y-12775198D01*
X11856301Y-12775198D02*
X11865824Y-12765674D01*
X11865824Y-12765674D02*
X11884872Y-12756150D01*
X11884872Y-12756150D02*
X11903920Y-12756150D01*
X11970586Y-12889484D02*
X11970586Y-12756150D01*
X11970586Y-12689484D02*
X11961062Y-12699008D01*
X11961062Y-12699008D02*
X11970586Y-12708531D01*
X11970586Y-12708531D02*
X11980110Y-12699008D01*
X11980110Y-12699008D02*
X11970586Y-12689484D01*
X11970586Y-12689484D02*
X11970586Y-12708531D01*
X12094396Y-12889484D02*
X12075348Y-12879960D01*
X12075348Y-12879960D02*
X12065824Y-12860912D01*
X12065824Y-12860912D02*
X12065824Y-12689484D01*
X12199158Y-12889484D02*
X12180110Y-12879960D01*
X12180110Y-12879960D02*
X12170586Y-12860912D01*
X12170586Y-12860912D02*
X12170586Y-12689484D01*
X12427729Y-12889484D02*
X12427729Y-12689484D01*
X12427729Y-12689484D02*
X12494396Y-12832341D01*
X12494396Y-12832341D02*
X12561062Y-12689484D01*
X12561062Y-12689484D02*
X12561062Y-12889484D01*
X12742015Y-12889484D02*
X12742015Y-12784722D01*
X12742015Y-12784722D02*
X12732491Y-12765674D01*
X12732491Y-12765674D02*
X12713443Y-12756150D01*
X12713443Y-12756150D02*
X12675348Y-12756150D01*
X12675348Y-12756150D02*
X12656301Y-12765674D01*
X12742015Y-12879960D02*
X12722967Y-12889484D01*
X12722967Y-12889484D02*
X12675348Y-12889484D01*
X12675348Y-12889484D02*
X12656301Y-12879960D01*
X12656301Y-12879960D02*
X12646777Y-12860912D01*
X12646777Y-12860912D02*
X12646777Y-12841865D01*
X12646777Y-12841865D02*
X12656301Y-12822817D01*
X12656301Y-12822817D02*
X12675348Y-12813293D01*
X12675348Y-12813293D02*
X12722967Y-12813293D01*
X12722967Y-12813293D02*
X12742015Y-12803769D01*
X12837253Y-12756150D02*
X12837253Y-12956150D01*
X12837253Y-12765674D02*
X12856301Y-12756150D01*
X12856301Y-12756150D02*
X12894396Y-12756150D01*
X12894396Y-12756150D02*
X12913443Y-12765674D01*
X12913443Y-12765674D02*
X12922967Y-12775198D01*
X12922967Y-12775198D02*
X12932491Y-12794246D01*
X12932491Y-12794246D02*
X12932491Y-12851388D01*
X12932491Y-12851388D02*
X12922967Y-12870436D01*
X12922967Y-12870436D02*
X12913443Y-12879960D01*
X12913443Y-12879960D02*
X12894396Y-12889484D01*
X12894396Y-12889484D02*
X12856301Y-12889484D01*
X12856301Y-12889484D02*
X12837253Y-12879960D01*
X13018205Y-12870436D02*
X13027729Y-12879960D01*
X13027729Y-12879960D02*
X13018205Y-12889484D01*
X13018205Y-12889484D02*
X13008682Y-12879960D01*
X13008682Y-12879960D02*
X13018205Y-12870436D01*
X13018205Y-12870436D02*
X13018205Y-12889484D01*
X13018205Y-12765674D02*
X13027729Y-12775198D01*
X13027729Y-12775198D02*
X13018205Y-12784722D01*
X13018205Y-12784722D02*
X13008682Y-12775198D01*
X13008682Y-12775198D02*
X13018205Y-12765674D01*
X13018205Y-12765674D02*
X13018205Y-12784722D01*
X11186000Y-13118000D02*
X11386000Y-13318000D01*
X11386000Y-13118000D02*
X11186000Y-13318000D01*
X11742015Y-13109484D02*
X11646777Y-13109484D01*
X11646777Y-13109484D02*
X11637253Y-13204722D01*
X11637253Y-13204722D02*
X11646777Y-13195198D01*
X11646777Y-13195198D02*
X11665824Y-13185674D01*
X11665824Y-13185674D02*
X11713443Y-13185674D01*
X11713443Y-13185674D02*
X11732491Y-13195198D01*
X11732491Y-13195198D02*
X11742015Y-13204722D01*
X11742015Y-13204722D02*
X11751539Y-13223769D01*
X11751539Y-13223769D02*
X11751539Y-13271388D01*
X11751539Y-13271388D02*
X11742015Y-13290436D01*
X11742015Y-13290436D02*
X11732491Y-13299960D01*
X11732491Y-13299960D02*
X11713443Y-13309484D01*
X11713443Y-13309484D02*
X11665824Y-13309484D01*
X11665824Y-13309484D02*
X11646777Y-13299960D01*
X11646777Y-13299960D02*
X11637253Y-13290436D01*
X11837253Y-13290436D02*
X11846777Y-13299960D01*
X11846777Y-13299960D02*
X11837253Y-13309484D01*
X11837253Y-13309484D02*
X11827729Y-13299960D01*
X11827729Y-13299960D02*
X11837253Y-13290436D01*
X11837253Y-13290436D02*
X11837253Y-13309484D01*
X11970586Y-13109484D02*
X11989634Y-13109484D01*
X11989634Y-13109484D02*
X12008682Y-13119008D01*
X12008682Y-13119008D02*
X12018205Y-13128531D01*
X12018205Y-13128531D02*
X12027729Y-13147579D01*
X12027729Y-13147579D02*
X12037253Y-13185674D01*
X12037253Y-13185674D02*
X12037253Y-13233293D01*
X12037253Y-13233293D02*
X12027729Y-13271388D01*
X12027729Y-13271388D02*
X12018205Y-13290436D01*
X12018205Y-13290436D02*
X12008682Y-13299960D01*
X12008682Y-13299960D02*
X11989634Y-13309484D01*
X11989634Y-13309484D02*
X11970586Y-13309484D01*
X11970586Y-13309484D02*
X11951539Y-13299960D01*
X11951539Y-13299960D02*
X11942015Y-13290436D01*
X11942015Y-13290436D02*
X11932491Y-13271388D01*
X11932491Y-13271388D02*
X11922967Y-13233293D01*
X11922967Y-13233293D02*
X11922967Y-13185674D01*
X11922967Y-13185674D02*
X11932491Y-13147579D01*
X11932491Y-13147579D02*
X11942015Y-13128531D01*
X11942015Y-13128531D02*
X11951539Y-13119008D01*
X11951539Y-13119008D02*
X11970586Y-13109484D01*
X12161062Y-13109484D02*
X12180110Y-13109484D01*
X12180110Y-13109484D02*
X12199158Y-13119008D01*
X12199158Y-13119008D02*
X12208682Y-13128531D01*
X12208682Y-13128531D02*
X12218205Y-13147579D01*
X12218205Y-13147579D02*
X12227729Y-13185674D01*
X12227729Y-13185674D02*
X12227729Y-13233293D01*
X12227729Y-13233293D02*
X12218205Y-13271388D01*
X12218205Y-13271388D02*
X12208682Y-13290436D01*
X12208682Y-13290436D02*
X12199158Y-13299960D01*
X12199158Y-13299960D02*
X12180110Y-13309484D01*
X12180110Y-13309484D02*
X12161062Y-13309484D01*
X12161062Y-13309484D02*
X12142015Y-13299960D01*
X12142015Y-13299960D02*
X12132491Y-13290436D01*
X12132491Y-13290436D02*
X12122967Y-13271388D01*
X12122967Y-13271388D02*
X12113443Y-13233293D01*
X12113443Y-13233293D02*
X12113443Y-13185674D01*
X12113443Y-13185674D02*
X12122967Y-13147579D01*
X12122967Y-13147579D02*
X12132491Y-13128531D01*
X12132491Y-13128531D02*
X12142015Y-13119008D01*
X12142015Y-13119008D02*
X12161062Y-13109484D01*
X12351539Y-13109484D02*
X12370586Y-13109484D01*
X12370586Y-13109484D02*
X12389634Y-13119008D01*
X12389634Y-13119008D02*
X12399158Y-13128531D01*
X12399158Y-13128531D02*
X12408682Y-13147579D01*
X12408682Y-13147579D02*
X12418205Y-13185674D01*
X12418205Y-13185674D02*
X12418205Y-13233293D01*
X12418205Y-13233293D02*
X12408682Y-13271388D01*
X12408682Y-13271388D02*
X12399158Y-13290436D01*
X12399158Y-13290436D02*
X12389634Y-13299960D01*
X12389634Y-13299960D02*
X12370586Y-13309484D01*
X12370586Y-13309484D02*
X12351539Y-13309484D01*
X12351539Y-13309484D02*
X12332491Y-13299960D01*
X12332491Y-13299960D02*
X12322967Y-13290436D01*
X12322967Y-13290436D02*
X12313443Y-13271388D01*
X12313443Y-13271388D02*
X12303920Y-13233293D01*
X12303920Y-13233293D02*
X12303920Y-13185674D01*
X12303920Y-13185674D02*
X12313443Y-13147579D01*
X12313443Y-13147579D02*
X12322967Y-13128531D01*
X12322967Y-13128531D02*
X12332491Y-13119008D01*
X12332491Y-13119008D02*
X12351539Y-13109484D01*
X12503920Y-13309484D02*
X12503920Y-13176150D01*
X12503920Y-13195198D02*
X12513443Y-13185674D01*
X12513443Y-13185674D02*
X12532491Y-13176150D01*
X12532491Y-13176150D02*
X12561063Y-13176150D01*
X12561063Y-13176150D02*
X12580110Y-13185674D01*
X12580110Y-13185674D02*
X12589634Y-13204722D01*
X12589634Y-13204722D02*
X12589634Y-13309484D01*
X12589634Y-13204722D02*
X12599158Y-13185674D01*
X12599158Y-13185674D02*
X12618205Y-13176150D01*
X12618205Y-13176150D02*
X12646777Y-13176150D01*
X12646777Y-13176150D02*
X12665824Y-13185674D01*
X12665824Y-13185674D02*
X12675348Y-13204722D01*
X12675348Y-13204722D02*
X12675348Y-13309484D01*
X12770586Y-13309484D02*
X12770586Y-13176150D01*
X12770586Y-13195198D02*
X12780110Y-13185674D01*
X12780110Y-13185674D02*
X12799158Y-13176150D01*
X12799158Y-13176150D02*
X12827729Y-13176150D01*
X12827729Y-13176150D02*
X12846777Y-13185674D01*
X12846777Y-13185674D02*
X12856301Y-13204722D01*
X12856301Y-13204722D02*
X12856301Y-13309484D01*
X12856301Y-13204722D02*
X12865824Y-13185674D01*
X12865824Y-13185674D02*
X12884872Y-13176150D01*
X12884872Y-13176150D02*
X12913443Y-13176150D01*
X12913443Y-13176150D02*
X12932491Y-13185674D01*
X12932491Y-13185674D02*
X12942015Y-13204722D01*
X12942015Y-13204722D02*
X12942015Y-13309484D01*
X13332491Y-13099960D02*
X13161063Y-13357103D01*
X13589634Y-13109484D02*
X13608682Y-13109484D01*
X13608682Y-13109484D02*
X13627729Y-13119008D01*
X13627729Y-13119008D02*
X13637253Y-13128531D01*
X13637253Y-13128531D02*
X13646777Y-13147579D01*
X13646777Y-13147579D02*
X13656301Y-13185674D01*
X13656301Y-13185674D02*
X13656301Y-13233293D01*
X13656301Y-13233293D02*
X13646777Y-13271388D01*
X13646777Y-13271388D02*
X13637253Y-13290436D01*
X13637253Y-13290436D02*
X13627729Y-13299960D01*
X13627729Y-13299960D02*
X13608682Y-13309484D01*
X13608682Y-13309484D02*
X13589634Y-13309484D01*
X13589634Y-13309484D02*
X13570586Y-13299960D01*
X13570586Y-13299960D02*
X13561063Y-13290436D01*
X13561063Y-13290436D02*
X13551539Y-13271388D01*
X13551539Y-13271388D02*
X13542015Y-13233293D01*
X13542015Y-13233293D02*
X13542015Y-13185674D01*
X13542015Y-13185674D02*
X13551539Y-13147579D01*
X13551539Y-13147579D02*
X13561063Y-13128531D01*
X13561063Y-13128531D02*
X13570586Y-13119008D01*
X13570586Y-13119008D02*
X13589634Y-13109484D01*
X13742015Y-13290436D02*
X13751539Y-13299960D01*
X13751539Y-13299960D02*
X13742015Y-13309484D01*
X13742015Y-13309484D02*
X13732491Y-13299960D01*
X13732491Y-13299960D02*
X13742015Y-13290436D01*
X13742015Y-13290436D02*
X13742015Y-13309484D01*
X13942015Y-13309484D02*
X13827729Y-13309484D01*
X13884872Y-13309484D02*
X13884872Y-13109484D01*
X13884872Y-13109484D02*
X13865825Y-13138055D01*
X13865825Y-13138055D02*
X13846777Y-13157103D01*
X13846777Y-13157103D02*
X13827729Y-13166627D01*
X14037253Y-13309484D02*
X14075348Y-13309484D01*
X14075348Y-13309484D02*
X14094396Y-13299960D01*
X14094396Y-13299960D02*
X14103920Y-13290436D01*
X14103920Y-13290436D02*
X14122967Y-13261865D01*
X14122967Y-13261865D02*
X14132491Y-13223769D01*
X14132491Y-13223769D02*
X14132491Y-13147579D01*
X14132491Y-13147579D02*
X14122967Y-13128531D01*
X14122967Y-13128531D02*
X14113444Y-13119008D01*
X14113444Y-13119008D02*
X14094396Y-13109484D01*
X14094396Y-13109484D02*
X14056301Y-13109484D01*
X14056301Y-13109484D02*
X14037253Y-13119008D01*
X14037253Y-13119008D02*
X14027729Y-13128531D01*
X14027729Y-13128531D02*
X14018206Y-13147579D01*
X14018206Y-13147579D02*
X14018206Y-13195198D01*
X14018206Y-13195198D02*
X14027729Y-13214246D01*
X14027729Y-13214246D02*
X14037253Y-13223769D01*
X14037253Y-13223769D02*
X14056301Y-13233293D01*
X14056301Y-13233293D02*
X14094396Y-13233293D01*
X14094396Y-13233293D02*
X14113444Y-13223769D01*
X14113444Y-13223769D02*
X14122967Y-13214246D01*
X14122967Y-13214246D02*
X14132491Y-13195198D01*
X14303920Y-13109484D02*
X14265825Y-13109484D01*
X14265825Y-13109484D02*
X14246777Y-13119008D01*
X14246777Y-13119008D02*
X14237253Y-13128531D01*
X14237253Y-13128531D02*
X14218206Y-13157103D01*
X14218206Y-13157103D02*
X14208682Y-13195198D01*
X14208682Y-13195198D02*
X14208682Y-13271388D01*
X14208682Y-13271388D02*
X14218206Y-13290436D01*
X14218206Y-13290436D02*
X14227729Y-13299960D01*
X14227729Y-13299960D02*
X14246777Y-13309484D01*
X14246777Y-13309484D02*
X14284872Y-13309484D01*
X14284872Y-13309484D02*
X14303920Y-13299960D01*
X14303920Y-13299960D02*
X14313444Y-13290436D01*
X14313444Y-13290436D02*
X14322967Y-13271388D01*
X14322967Y-13271388D02*
X14322967Y-13223769D01*
X14322967Y-13223769D02*
X14313444Y-13204722D01*
X14313444Y-13204722D02*
X14303920Y-13195198D01*
X14303920Y-13195198D02*
X14284872Y-13185674D01*
X14284872Y-13185674D02*
X14246777Y-13185674D01*
X14246777Y-13185674D02*
X14227729Y-13195198D01*
X14227729Y-13195198D02*
X14218206Y-13204722D01*
X14218206Y-13204722D02*
X14208682Y-13223769D01*
X14418206Y-13309484D02*
X14456301Y-13309484D01*
X14456301Y-13309484D02*
X14475348Y-13299960D01*
X14475348Y-13299960D02*
X14484872Y-13290436D01*
X14484872Y-13290436D02*
X14503920Y-13261865D01*
X14503920Y-13261865D02*
X14513444Y-13223769D01*
X14513444Y-13223769D02*
X14513444Y-13147579D01*
X14513444Y-13147579D02*
X14503920Y-13128531D01*
X14503920Y-13128531D02*
X14494396Y-13119008D01*
X14494396Y-13119008D02*
X14475348Y-13109484D01*
X14475348Y-13109484D02*
X14437253Y-13109484D01*
X14437253Y-13109484D02*
X14418206Y-13119008D01*
X14418206Y-13119008D02*
X14408682Y-13128531D01*
X14408682Y-13128531D02*
X14399158Y-13147579D01*
X14399158Y-13147579D02*
X14399158Y-13195198D01*
X14399158Y-13195198D02*
X14408682Y-13214246D01*
X14408682Y-13214246D02*
X14418206Y-13223769D01*
X14418206Y-13223769D02*
X14437253Y-13233293D01*
X14437253Y-13233293D02*
X14475348Y-13233293D01*
X14475348Y-13233293D02*
X14494396Y-13223769D01*
X14494396Y-13223769D02*
X14503920Y-13214246D01*
X14503920Y-13214246D02*
X14513444Y-13195198D01*
X14589634Y-13109484D02*
X14589634Y-13147579D01*
X14665825Y-13109484D02*
X14665825Y-13147579D01*
X14961063Y-13385674D02*
X14951539Y-13376150D01*
X14951539Y-13376150D02*
X14932491Y-13347579D01*
X14932491Y-13347579D02*
X14922968Y-13328531D01*
X14922968Y-13328531D02*
X14913444Y-13299960D01*
X14913444Y-13299960D02*
X14903920Y-13252341D01*
X14903920Y-13252341D02*
X14903920Y-13214246D01*
X14903920Y-13214246D02*
X14913444Y-13166627D01*
X14913444Y-13166627D02*
X14922968Y-13138055D01*
X14922968Y-13138055D02*
X14932491Y-13119008D01*
X14932491Y-13119008D02*
X14951539Y-13090436D01*
X14951539Y-13090436D02*
X14961063Y-13080912D01*
X15122968Y-13176150D02*
X15122968Y-13309484D01*
X15075348Y-13099960D02*
X15027729Y-13242817D01*
X15027729Y-13242817D02*
X15151539Y-13242817D01*
X15380110Y-13309484D02*
X15380110Y-13109484D01*
X15465825Y-13309484D02*
X15465825Y-13204722D01*
X15465825Y-13204722D02*
X15456301Y-13185674D01*
X15456301Y-13185674D02*
X15437253Y-13176150D01*
X15437253Y-13176150D02*
X15408682Y-13176150D01*
X15408682Y-13176150D02*
X15389634Y-13185674D01*
X15389634Y-13185674D02*
X15380110Y-13195198D01*
X15589634Y-13309484D02*
X15570587Y-13299960D01*
X15570587Y-13299960D02*
X15561063Y-13290436D01*
X15561063Y-13290436D02*
X15551539Y-13271388D01*
X15551539Y-13271388D02*
X15551539Y-13214246D01*
X15551539Y-13214246D02*
X15561063Y-13195198D01*
X15561063Y-13195198D02*
X15570587Y-13185674D01*
X15570587Y-13185674D02*
X15589634Y-13176150D01*
X15589634Y-13176150D02*
X15618206Y-13176150D01*
X15618206Y-13176150D02*
X15637253Y-13185674D01*
X15637253Y-13185674D02*
X15646777Y-13195198D01*
X15646777Y-13195198D02*
X15656301Y-13214246D01*
X15656301Y-13214246D02*
X15656301Y-13271388D01*
X15656301Y-13271388D02*
X15646777Y-13290436D01*
X15646777Y-13290436D02*
X15637253Y-13299960D01*
X15637253Y-13299960D02*
X15618206Y-13309484D01*
X15618206Y-13309484D02*
X15589634Y-13309484D01*
X15770587Y-13309484D02*
X15751539Y-13299960D01*
X15751539Y-13299960D02*
X15742015Y-13280912D01*
X15742015Y-13280912D02*
X15742015Y-13109484D01*
X15922968Y-13299960D02*
X15903920Y-13309484D01*
X15903920Y-13309484D02*
X15865825Y-13309484D01*
X15865825Y-13309484D02*
X15846777Y-13299960D01*
X15846777Y-13299960D02*
X15837253Y-13280912D01*
X15837253Y-13280912D02*
X15837253Y-13204722D01*
X15837253Y-13204722D02*
X15846777Y-13185674D01*
X15846777Y-13185674D02*
X15865825Y-13176150D01*
X15865825Y-13176150D02*
X15903920Y-13176150D01*
X15903920Y-13176150D02*
X15922968Y-13185674D01*
X15922968Y-13185674D02*
X15932491Y-13204722D01*
X15932491Y-13204722D02*
X15932491Y-13223769D01*
X15932491Y-13223769D02*
X15837253Y-13242817D01*
X16008682Y-13299960D02*
X16027730Y-13309484D01*
X16027730Y-13309484D02*
X16065825Y-13309484D01*
X16065825Y-13309484D02*
X16084872Y-13299960D01*
X16084872Y-13299960D02*
X16094396Y-13280912D01*
X16094396Y-13280912D02*
X16094396Y-13271388D01*
X16094396Y-13271388D02*
X16084872Y-13252341D01*
X16084872Y-13252341D02*
X16065825Y-13242817D01*
X16065825Y-13242817D02*
X16037253Y-13242817D01*
X16037253Y-13242817D02*
X16018206Y-13233293D01*
X16018206Y-13233293D02*
X16008682Y-13214246D01*
X16008682Y-13214246D02*
X16008682Y-13204722D01*
X16008682Y-13204722D02*
X16018206Y-13185674D01*
X16018206Y-13185674D02*
X16037253Y-13176150D01*
X16037253Y-13176150D02*
X16065825Y-13176150D01*
X16065825Y-13176150D02*
X16084872Y-13185674D01*
X16161063Y-13385674D02*
X16170587Y-13376150D01*
X16170587Y-13376150D02*
X16189634Y-13347579D01*
X16189634Y-13347579D02*
X16199158Y-13328531D01*
X16199158Y-13328531D02*
X16208682Y-13299960D01*
X16208682Y-13299960D02*
X16218206Y-13252341D01*
X16218206Y-13252341D02*
X16218206Y-13214246D01*
X16218206Y-13214246D02*
X16208682Y-13166627D01*
X16208682Y-13166627D02*
X16199158Y-13138055D01*
X16199158Y-13138055D02*
X16189634Y-13119008D01*
X16189634Y-13119008D02*
X16170587Y-13090436D01*
X16170587Y-13090436D02*
X16161063Y-13080912D01*
X16522968Y-13385674D02*
X16513444Y-13376150D01*
X16513444Y-13376150D02*
X16494396Y-13347579D01*
X16494396Y-13347579D02*
X16484872Y-13328531D01*
X16484872Y-13328531D02*
X16475349Y-13299960D01*
X16475349Y-13299960D02*
X16465825Y-13252341D01*
X16465825Y-13252341D02*
X16465825Y-13214246D01*
X16465825Y-13214246D02*
X16475349Y-13166627D01*
X16475349Y-13166627D02*
X16484872Y-13138055D01*
X16484872Y-13138055D02*
X16494396Y-13119008D01*
X16494396Y-13119008D02*
X16513444Y-13090436D01*
X16513444Y-13090436D02*
X16522968Y-13080912D01*
X16599158Y-13176150D02*
X16599158Y-13309484D01*
X16599158Y-13195198D02*
X16608682Y-13185674D01*
X16608682Y-13185674D02*
X16627730Y-13176150D01*
X16627730Y-13176150D02*
X16656301Y-13176150D01*
X16656301Y-13176150D02*
X16675349Y-13185674D01*
X16675349Y-13185674D02*
X16684872Y-13204722D01*
X16684872Y-13204722D02*
X16684872Y-13309484D01*
X16808682Y-13309484D02*
X16789634Y-13299960D01*
X16789634Y-13299960D02*
X16780111Y-13290436D01*
X16780111Y-13290436D02*
X16770587Y-13271388D01*
X16770587Y-13271388D02*
X16770587Y-13214246D01*
X16770587Y-13214246D02*
X16780111Y-13195198D01*
X16780111Y-13195198D02*
X16789634Y-13185674D01*
X16789634Y-13185674D02*
X16808682Y-13176150D01*
X16808682Y-13176150D02*
X16837254Y-13176150D01*
X16837254Y-13176150D02*
X16856301Y-13185674D01*
X16856301Y-13185674D02*
X16865825Y-13195198D01*
X16865825Y-13195198D02*
X16875349Y-13214246D01*
X16875349Y-13214246D02*
X16875349Y-13271388D01*
X16875349Y-13271388D02*
X16865825Y-13290436D01*
X16865825Y-13290436D02*
X16856301Y-13299960D01*
X16856301Y-13299960D02*
X16837254Y-13309484D01*
X16837254Y-13309484D02*
X16808682Y-13309484D01*
X16932492Y-13176150D02*
X17008682Y-13176150D01*
X16961063Y-13109484D02*
X16961063Y-13280912D01*
X16961063Y-13280912D02*
X16970587Y-13299960D01*
X16970587Y-13299960D02*
X16989634Y-13309484D01*
X16989634Y-13309484D02*
X17008682Y-13309484D01*
X17227730Y-13176150D02*
X17227730Y-13376150D01*
X17227730Y-13185674D02*
X17246777Y-13176150D01*
X17246777Y-13176150D02*
X17284873Y-13176150D01*
X17284873Y-13176150D02*
X17303920Y-13185674D01*
X17303920Y-13185674D02*
X17313444Y-13195198D01*
X17313444Y-13195198D02*
X17322968Y-13214246D01*
X17322968Y-13214246D02*
X17322968Y-13271388D01*
X17322968Y-13271388D02*
X17313444Y-13290436D01*
X17313444Y-13290436D02*
X17303920Y-13299960D01*
X17303920Y-13299960D02*
X17284873Y-13309484D01*
X17284873Y-13309484D02*
X17246777Y-13309484D01*
X17246777Y-13309484D02*
X17227730Y-13299960D01*
X17437254Y-13309484D02*
X17418206Y-13299960D01*
X17418206Y-13299960D02*
X17408682Y-13280912D01*
X17408682Y-13280912D02*
X17408682Y-13109484D01*
X17599158Y-13309484D02*
X17599158Y-13204722D01*
X17599158Y-13204722D02*
X17589635Y-13185674D01*
X17589635Y-13185674D02*
X17570587Y-13176150D01*
X17570587Y-13176150D02*
X17532492Y-13176150D01*
X17532492Y-13176150D02*
X17513444Y-13185674D01*
X17599158Y-13299960D02*
X17580111Y-13309484D01*
X17580111Y-13309484D02*
X17532492Y-13309484D01*
X17532492Y-13309484D02*
X17513444Y-13299960D01*
X17513444Y-13299960D02*
X17503920Y-13280912D01*
X17503920Y-13280912D02*
X17503920Y-13261865D01*
X17503920Y-13261865D02*
X17513444Y-13242817D01*
X17513444Y-13242817D02*
X17532492Y-13233293D01*
X17532492Y-13233293D02*
X17580111Y-13233293D01*
X17580111Y-13233293D02*
X17599158Y-13223769D01*
X17665825Y-13176150D02*
X17742015Y-13176150D01*
X17694396Y-13109484D02*
X17694396Y-13280912D01*
X17694396Y-13280912D02*
X17703920Y-13299960D01*
X17703920Y-13299960D02*
X17722968Y-13309484D01*
X17722968Y-13309484D02*
X17742015Y-13309484D01*
X17884873Y-13299960D02*
X17865825Y-13309484D01*
X17865825Y-13309484D02*
X17827730Y-13309484D01*
X17827730Y-13309484D02*
X17808682Y-13299960D01*
X17808682Y-13299960D02*
X17799158Y-13280912D01*
X17799158Y-13280912D02*
X17799158Y-13204722D01*
X17799158Y-13204722D02*
X17808682Y-13185674D01*
X17808682Y-13185674D02*
X17827730Y-13176150D01*
X17827730Y-13176150D02*
X17865825Y-13176150D01*
X17865825Y-13176150D02*
X17884873Y-13185674D01*
X17884873Y-13185674D02*
X17894396Y-13204722D01*
X17894396Y-13204722D02*
X17894396Y-13223769D01*
X17894396Y-13223769D02*
X17799158Y-13242817D01*
X18065825Y-13309484D02*
X18065825Y-13109484D01*
X18065825Y-13299960D02*
X18046777Y-13309484D01*
X18046777Y-13309484D02*
X18008682Y-13309484D01*
X18008682Y-13309484D02*
X17989635Y-13299960D01*
X17989635Y-13299960D02*
X17980111Y-13290436D01*
X17980111Y-13290436D02*
X17970587Y-13271388D01*
X17970587Y-13271388D02*
X17970587Y-13214246D01*
X17970587Y-13214246D02*
X17980111Y-13195198D01*
X17980111Y-13195198D02*
X17989635Y-13185674D01*
X17989635Y-13185674D02*
X18008682Y-13176150D01*
X18008682Y-13176150D02*
X18046777Y-13176150D01*
X18046777Y-13176150D02*
X18065825Y-13185674D01*
X18142016Y-13385674D02*
X18151539Y-13376150D01*
X18151539Y-13376150D02*
X18170587Y-13347579D01*
X18170587Y-13347579D02*
X18180111Y-13328531D01*
X18180111Y-13328531D02*
X18189635Y-13299960D01*
X18189635Y-13299960D02*
X18199158Y-13252341D01*
X18199158Y-13252341D02*
X18199158Y-13214246D01*
X18199158Y-13214246D02*
X18189635Y-13166627D01*
X18189635Y-13166627D02*
X18180111Y-13138055D01*
X18180111Y-13138055D02*
X18170587Y-13119008D01*
X18170587Y-13119008D02*
X18151539Y-13090436D01*
X18151539Y-13090436D02*
X18142016Y-13080912D01*
M02*
