%TF.GenerationSoftware,KiCad,Pcbnew,7.0.7*%
%TF.CreationDate,2023-10-30T20:38:44-06:00*%
%TF.ProjectId,RatGDO-OpenSource-D1Mini-ESP8266,52617447-444f-42d4-9f70-656e536f7572,rev?*%
%TF.SameCoordinates,Original*%
%TF.FileFunction,Copper,L1,Top*%
%TF.FilePolarity,Positive*%
%FSLAX46Y46*%
G04 Gerber Fmt 4.6, Leading zero omitted, Abs format (unit mm)*
G04 Created by KiCad (PCBNEW 7.0.7) date 2023-10-30 20:38:44*
%MOMM*%
%LPD*%
G01*
G04 APERTURE LIST*
G04 Aperture macros list*
%AMRoundRect*
0 Rectangle with rounded corners*
0 $1 Rounding radius*
0 $2 $3 $4 $5 $6 $7 $8 $9 X,Y pos of 4 corners*
0 Add a 4 corners polygon primitive as box body*
4,1,4,$2,$3,$4,$5,$6,$7,$8,$9,$2,$3,0*
0 Add four circle primitives for the rounded corners*
1,1,$1+$1,$2,$3*
1,1,$1+$1,$4,$5*
1,1,$1+$1,$6,$7*
1,1,$1+$1,$8,$9*
0 Add four rect primitives between the rounded corners*
20,1,$1+$1,$2,$3,$4,$5,0*
20,1,$1+$1,$4,$5,$6,$7,0*
20,1,$1+$1,$6,$7,$8,$9,0*
20,1,$1+$1,$8,$9,$2,$3,0*%
G04 Aperture macros list end*
%TA.AperFunction,SMDPad,CuDef*%
%ADD10RoundRect,0.250000X0.262500X0.450000X-0.262500X0.450000X-0.262500X-0.450000X0.262500X-0.450000X0*%
%TD*%
%TA.AperFunction,ComponentPad*%
%ADD11R,2.000000X2.000000*%
%TD*%
%TA.AperFunction,ComponentPad*%
%ADD12O,2.000000X1.600000*%
%TD*%
%TA.AperFunction,SMDPad,CuDef*%
%ADD13RoundRect,0.150000X-0.587500X-0.150000X0.587500X-0.150000X0.587500X0.150000X-0.587500X0.150000X0*%
%TD*%
%TA.AperFunction,SMDPad,CuDef*%
%ADD14RoundRect,0.150000X0.587500X0.150000X-0.587500X0.150000X-0.587500X-0.150000X0.587500X-0.150000X0*%
%TD*%
%TA.AperFunction,ComponentPad*%
%ADD15RoundRect,0.250000X-0.650000X-1.550000X0.650000X-1.550000X0.650000X1.550000X-0.650000X1.550000X0*%
%TD*%
%TA.AperFunction,ComponentPad*%
%ADD16O,1.800000X3.600000*%
%TD*%
%TA.AperFunction,ComponentPad*%
%ADD17R,2.600000X2.600000*%
%TD*%
%TA.AperFunction,ComponentPad*%
%ADD18C,2.600000*%
%TD*%
%TA.AperFunction,SMDPad,CuDef*%
%ADD19RoundRect,0.250000X-0.262500X-0.450000X0.262500X-0.450000X0.262500X0.450000X-0.262500X0.450000X0*%
%TD*%
%TA.AperFunction,ViaPad*%
%ADD20C,0.800000*%
%TD*%
%TA.AperFunction,Conductor*%
%ADD21C,0.250000*%
%TD*%
G04 APERTURE END LIST*
D10*
%TO.P,R3,1*%
%TO.N,GND*%
X159662500Y-71264162D03*
%TO.P,R3,2*%
%TO.N,Net-(Q2-G)*%
X157837500Y-71264162D03*
%TD*%
D11*
%TO.P,U1,1,~{RST}*%
%TO.N,unconnected-(U1-~{RST}-Pad1)*%
X129547500Y-66160000D03*
D12*
%TO.P,U1,2,A0*%
%TO.N,unconnected-(U1-A0-Pad2)*%
X129547500Y-68700000D03*
%TO.P,U1,3,D0*%
%TO.N,unconnected-(U1-D0-Pad3)*%
X129547500Y-71240000D03*
%TO.P,U1,4,SCK/D5*%
%TO.N,unconnected-(U1-SCK{slash}D5-Pad4)*%
X129547500Y-73780000D03*
%TO.P,U1,5,MISO/D6*%
%TO.N,unconnected-(U1-MISO{slash}D6-Pad5)*%
X129547500Y-76320000D03*
%TO.P,U1,6,MOSI/D7*%
%TO.N,Net-(U1-MOSI{slash}D7)*%
X129547500Y-78860000D03*
%TO.P,U1,7,CS/D8*%
%TO.N,unconnected-(U1-CS{slash}D8-Pad7)*%
X129547500Y-81400000D03*
%TO.P,U1,8,3V3*%
%TO.N,+3.3V*%
X129547500Y-83940000D03*
%TO.P,U1,9,5V*%
%TO.N,+5V*%
X152407500Y-83940000D03*
%TO.P,U1,10,GND*%
%TO.N,GND*%
X152407500Y-81400000D03*
%TO.P,U1,11,D4*%
%TO.N,unconnected-(U1-D4-Pad11)*%
X152407500Y-78860000D03*
%TO.P,U1,12,D3*%
%TO.N,unconnected-(U1-D3-Pad12)*%
X152407500Y-76320000D03*
%TO.P,U1,13,SDA/D2*%
%TO.N,Net-(Q1-D)*%
X152407500Y-73780000D03*
%TO.P,U1,14,SCL/D1*%
%TO.N,Net-(Q2-G)*%
X152407500Y-71240000D03*
%TO.P,U1,15,RX*%
%TO.N,unconnected-(U1-RX-Pad15)*%
X152407500Y-68700000D03*
%TO.P,U1,16,TX*%
%TO.N,unconnected-(U1-TX-Pad16)*%
X152407500Y-66160000D03*
%TD*%
D13*
%TO.P,Q2,1,G*%
%TO.N,Net-(Q2-G)*%
X158145000Y-75250000D03*
%TO.P,Q2,2,S*%
%TO.N,GND*%
X158145000Y-77150000D03*
%TO.P,Q2,3,D*%
%TO.N,Net-(J1-Pin_2)*%
X160020000Y-76200000D03*
%TD*%
D14*
%TO.P,Q1,1,G*%
%TO.N,Net-(J1-Pin_2)*%
X159687500Y-84437500D03*
%TO.P,Q1,2,S*%
%TO.N,GND*%
X159687500Y-82537500D03*
%TO.P,Q1,3,D*%
%TO.N,Net-(Q1-D)*%
X157812500Y-83487500D03*
%TD*%
D15*
%TO.P,J2,1,Pin_1*%
%TO.N,Net-(J1-Pin_1)*%
X146670000Y-119380000D03*
D16*
%TO.P,J2,2,Pin_2*%
%TO.N,Net-(J1-Pin_2)*%
X150170000Y-119380000D03*
%TO.P,J2,3,Pin_3*%
%TO.N,GND*%
X153670000Y-119380000D03*
%TD*%
D17*
%TO.P,J1,1,Pin_1*%
%TO.N,Net-(J1-Pin_1)*%
X129700000Y-118415000D03*
D18*
%TO.P,J1,2,Pin_2*%
%TO.N,Net-(J1-Pin_2)*%
X134700000Y-118415000D03*
%TO.P,J1,3,Pin_3*%
%TO.N,GND*%
X139700000Y-118415000D03*
%TD*%
D10*
%TO.P,R2,1*%
%TO.N,Net-(U1-MOSI{slash}D7)*%
X124102500Y-78740000D03*
%TO.P,R2,2*%
%TO.N,GND*%
X122277500Y-78740000D03*
%TD*%
D19*
%TO.P,R1,1*%
%TO.N,Net-(J1-Pin_1)*%
X122277500Y-82550000D03*
%TO.P,R1,2*%
%TO.N,Net-(U1-MOSI{slash}D7)*%
X124102500Y-82550000D03*
%TD*%
D20*
%TO.N,GND*%
X160020000Y-81280000D03*
X160020000Y-72390000D03*
X157480000Y-78740000D03*
X121920000Y-80010000D03*
%TD*%
D21*
%TO.N,Net-(J1-Pin_2)*%
X160750000Y-83375000D02*
X159687500Y-84437500D01*
X160750000Y-76930000D02*
X160750000Y-83375000D01*
X148590000Y-114300000D02*
X152400000Y-114300000D01*
X160020000Y-76200000D02*
X160750000Y-76930000D01*
X148590000Y-114300000D02*
X150170000Y-115880000D01*
X138815000Y-114300000D02*
X148590000Y-114300000D01*
X134700000Y-118415000D02*
X138815000Y-114300000D01*
X159687500Y-84437500D02*
X159687500Y-107012500D01*
X150170000Y-115880000D02*
X150170000Y-119380000D01*
X159687500Y-107012500D02*
X152400000Y-114300000D01*
%TO.N,Net-(J1-Pin_1)*%
X129700000Y-118415000D02*
X122277500Y-110992500D01*
X129700000Y-118415000D02*
X129700000Y-120810000D01*
X144130000Y-121920000D02*
X146670000Y-119380000D01*
X122277500Y-110992500D02*
X122277500Y-82550000D01*
X129700000Y-120810000D02*
X130810000Y-121920000D01*
X130810000Y-121920000D02*
X144130000Y-121920000D01*
%TO.N,Net-(Q1-D)*%
X157812500Y-83487500D02*
X156210000Y-81885000D01*
X156210000Y-77582500D02*
X152407500Y-73780000D01*
X156210000Y-81885000D02*
X156210000Y-77582500D01*
%TO.N,Net-(Q2-G)*%
X157813338Y-71240000D02*
X152407500Y-71240000D01*
X157837500Y-71264162D02*
X157813338Y-71240000D01*
X158145000Y-75250000D02*
X157837500Y-74942500D01*
X157837500Y-74942500D02*
X157837500Y-71264162D01*
%TO.N,Net-(U1-MOSI{slash}D7)*%
X124222500Y-78860000D02*
X129547500Y-78860000D01*
X124102500Y-78740000D02*
X124222500Y-78860000D01*
X124102500Y-82550000D02*
X124102500Y-78740000D01*
%TO.N,unconnected-(U1-CS{slash}D8-Pad7)*%
X129660000Y-81400000D02*
X129547500Y-81400000D01*
%TO.N,GND*%
X159687500Y-82537500D02*
X159687500Y-81612500D01*
X159687500Y-81612500D02*
X160020000Y-81280000D01*
X159662500Y-71264162D02*
X159662500Y-72032500D01*
X158145000Y-78075000D02*
X157480000Y-78740000D01*
X158145000Y-77150000D02*
X158145000Y-78075000D01*
X122277500Y-78740000D02*
X122277500Y-79652500D01*
X159662500Y-72032500D02*
X160020000Y-72390000D01*
X122277500Y-79652500D02*
X121920000Y-80010000D01*
%TD*%
M02*
