%TF.GenerationSoftware,KiCad,Pcbnew,7.0.7*%
%TF.CreationDate,2023-11-08T06:20:36-07:00*%
%TF.ProjectId,RatGDO-OpenSource-Bare-ESP8266,52617447-444f-42d4-9f70-656e536f7572,rev?*%
%TF.SameCoordinates,Original*%
%TF.FileFunction,Copper,L2,Bot*%
%TF.FilePolarity,Positive*%
%FSLAX46Y46*%
G04 Gerber Fmt 4.6, Leading zero omitted, Abs format (unit mm)*
G04 Created by KiCad (PCBNEW 7.0.7) date 2023-11-08 06:20:36*
%MOMM*%
%LPD*%
G01*
G04 APERTURE LIST*
G04 Aperture macros list*
%AMRoundRect*
0 Rectangle with rounded corners*
0 $1 Rounding radius*
0 $2 $3 $4 $5 $6 $7 $8 $9 X,Y pos of 4 corners*
0 Add a 4 corners polygon primitive as box body*
4,1,4,$2,$3,$4,$5,$6,$7,$8,$9,$2,$3,0*
0 Add four circle primitives for the rounded corners*
1,1,$1+$1,$2,$3*
1,1,$1+$1,$4,$5*
1,1,$1+$1,$6,$7*
1,1,$1+$1,$8,$9*
0 Add four rect primitives between the rounded corners*
20,1,$1+$1,$2,$3,$4,$5,0*
20,1,$1+$1,$4,$5,$6,$7,0*
20,1,$1+$1,$6,$7,$8,$9,0*
20,1,$1+$1,$8,$9,$2,$3,0*%
G04 Aperture macros list end*
%TA.AperFunction,ComponentPad*%
%ADD10R,1.700000X1.700000*%
%TD*%
%TA.AperFunction,ComponentPad*%
%ADD11O,1.700000X1.700000*%
%TD*%
%TA.AperFunction,ComponentPad*%
%ADD12R,4.572000X4.572000*%
%TD*%
%TA.AperFunction,ComponentPad*%
%ADD13RoundRect,0.250000X-0.650000X-1.550000X0.650000X-1.550000X0.650000X1.550000X-0.650000X1.550000X0*%
%TD*%
%TA.AperFunction,ComponentPad*%
%ADD14O,1.800000X3.600000*%
%TD*%
%TA.AperFunction,ComponentPad*%
%ADD15R,2.600000X2.600000*%
%TD*%
%TA.AperFunction,ComponentPad*%
%ADD16C,2.600000*%
%TD*%
%TA.AperFunction,ViaPad*%
%ADD17C,0.800000*%
%TD*%
%TA.AperFunction,Conductor*%
%ADD18C,0.500000*%
%TD*%
%TA.AperFunction,Conductor*%
%ADD19C,0.350000*%
%TD*%
G04 APERTURE END LIST*
D10*
%TO.P,J6,1,Pin_1*%
%TO.N,+3.3V*%
X130810000Y-87630000D03*
D11*
%TO.P,J6,2,Pin_2*%
%TO.N,Net-(J5-+3.3V)*%
X130810000Y-90170000D03*
%TD*%
D10*
%TO.P,J4,1,Pin_1*%
%TO.N,Net-(J4-Pin_1)*%
X165125000Y-73670000D03*
D11*
%TO.P,J4,2,Pin_2*%
%TO.N,Net-(J4-Pin_2)*%
X165125000Y-76210000D03*
%TO.P,J4,3,Pin_3*%
%TO.N,+3.3V*%
X165125000Y-78750000D03*
%TO.P,J4,4,Pin_4*%
%TO.N,GND*%
X165125000Y-81290000D03*
%TD*%
D12*
%TO.P,U2,1,+IN*%
%TO.N,+12V*%
X121920000Y-101600000D03*
%TO.P,U2,2,-IN*%
%TO.N,GND*%
X121920000Y-117348000D03*
%TO.P,U2,3,+OUT*%
%TO.N,Net-(J5-+3.3V)*%
X159802372Y-101531072D03*
%TO.P,U2,4,-OUT*%
%TO.N,GND*%
X159802372Y-117369206D03*
%TD*%
D10*
%TO.P,J3,1,Pin_1*%
%TO.N,Net-(J1-BLK{slash}OBST)*%
X147320000Y-124155000D03*
D11*
%TO.P,J3,2,Pin_2*%
%TO.N,Net-(J1-RED{slash}CTRL)*%
X149860000Y-124155000D03*
%TO.P,J3,3,Pin_3*%
%TO.N,GND*%
X152400000Y-124155000D03*
%TD*%
D13*
%TO.P,J2,1,Pin_1*%
%TO.N,Net-(J1-BLK{slash}OBST)*%
X146670000Y-131775000D03*
D14*
%TO.P,J2,2,Pin_2*%
%TO.N,Net-(J1-RED{slash}CTRL)*%
X150170000Y-131775000D03*
%TO.P,J2,3,Pin_3*%
%TO.N,GND*%
X153670000Y-131775000D03*
%TD*%
D15*
%TO.P,J1,1,BLK/OBST*%
%TO.N,Net-(J1-BLK{slash}OBST)*%
X129700000Y-130810000D03*
D16*
%TO.P,J1,2,RED/CTRL*%
%TO.N,Net-(J1-RED{slash}CTRL)*%
X134700000Y-130810000D03*
%TO.P,J1,3,WHT/GND*%
%TO.N,GND*%
X139700000Y-130810000D03*
%TD*%
D15*
%TO.P,J5,1,+12V*%
%TO.N,+12V*%
X121615000Y-87670000D03*
D16*
%TO.P,J5,2,+3.3V*%
%TO.N,Net-(J5-+3.3V)*%
X121615000Y-92670000D03*
%TD*%
D17*
%TO.N,GND*%
X128270000Y-81280000D03*
%TO.N,+3.3V*%
X162560000Y-78740000D03*
X154311702Y-76828298D03*
%TO.N,Net-(U1-GPIO0)*%
X161290000Y-77470000D03*
X152400000Y-72613392D03*
%TO.N,GND*%
X153641871Y-71148129D03*
X151130000Y-80010000D03*
X165100000Y-97790000D03*
%TD*%
D18*
%TO.N,+3.3V*%
X156223404Y-78740000D02*
X162560000Y-78740000D01*
X154311702Y-76828298D02*
X156223404Y-78740000D01*
D19*
%TO.N,Net-(U1-GPIO0)*%
X156433392Y-72613392D02*
X161290000Y-77470000D01*
X152400000Y-72613392D02*
X156433392Y-72613392D01*
%TD*%
%TA.AperFunction,Conductor*%
%TO.N,GND*%
G36*
X133000198Y-57170185D02*
G01*
X133045953Y-57222989D01*
X133057159Y-57274500D01*
X133057159Y-64588892D01*
X149297159Y-64588892D01*
X149297159Y-63500000D01*
X159804473Y-63500000D01*
X159824563Y-63832136D01*
X159824563Y-63832141D01*
X159824564Y-63832142D01*
X159884544Y-64159441D01*
X159884545Y-64159445D01*
X159884546Y-64159449D01*
X159983530Y-64477104D01*
X159983534Y-64477116D01*
X159983537Y-64477123D01*
X160120102Y-64780557D01*
X160292246Y-65065318D01*
X160292251Y-65065326D01*
X160497460Y-65327255D01*
X160732744Y-65562539D01*
X160994673Y-65767748D01*
X160994678Y-65767751D01*
X160994682Y-65767754D01*
X161279443Y-65939898D01*
X161582877Y-66076463D01*
X161582890Y-66076467D01*
X161582895Y-66076469D01*
X161794665Y-66142458D01*
X161900559Y-66175456D01*
X162227858Y-66235436D01*
X162405740Y-66246196D01*
X162476892Y-66250500D01*
X162476894Y-66250500D01*
X162643108Y-66250500D01*
X162705364Y-66246734D01*
X162892142Y-66235436D01*
X163219441Y-66175456D01*
X163537123Y-66076463D01*
X163840557Y-65939898D01*
X164125318Y-65767754D01*
X164387252Y-65562542D01*
X164622542Y-65327252D01*
X164827754Y-65065318D01*
X164999898Y-64780557D01*
X165136463Y-64477123D01*
X165235456Y-64159441D01*
X165295436Y-63832142D01*
X165315527Y-63500000D01*
X165295436Y-63167858D01*
X165235456Y-62840559D01*
X165136463Y-62522877D01*
X164999898Y-62219443D01*
X164827754Y-61934682D01*
X164827751Y-61934678D01*
X164827748Y-61934673D01*
X164622539Y-61672744D01*
X164387255Y-61437460D01*
X164125326Y-61232251D01*
X164125318Y-61232246D01*
X163840557Y-61060102D01*
X163537123Y-60923537D01*
X163537116Y-60923534D01*
X163537104Y-60923530D01*
X163219449Y-60824546D01*
X163219445Y-60824545D01*
X163219441Y-60824544D01*
X162892142Y-60764564D01*
X162892141Y-60764563D01*
X162892136Y-60764563D01*
X162643108Y-60749500D01*
X162643106Y-60749500D01*
X162476894Y-60749500D01*
X162476892Y-60749500D01*
X162227863Y-60764563D01*
X162227857Y-60764564D01*
X162227858Y-60764564D01*
X161900559Y-60824544D01*
X161900556Y-60824544D01*
X161900550Y-60824546D01*
X161582895Y-60923530D01*
X161582879Y-60923536D01*
X161582877Y-60923537D01*
X161389656Y-61010498D01*
X161279447Y-61060100D01*
X161279445Y-61060101D01*
X160994673Y-61232251D01*
X160732744Y-61437460D01*
X160497460Y-61672744D01*
X160292251Y-61934673D01*
X160120101Y-62219445D01*
X160120100Y-62219447D01*
X159983536Y-62522880D01*
X159983530Y-62522895D01*
X159884546Y-62840550D01*
X159824563Y-63167863D01*
X159804473Y-63500000D01*
X149297159Y-63500000D01*
X149297159Y-57274500D01*
X149316844Y-57207461D01*
X149369648Y-57161706D01*
X149421159Y-57150500D01*
X168785500Y-57150500D01*
X168852539Y-57170185D01*
X168898294Y-57222989D01*
X168909500Y-57274500D01*
X168909500Y-139576029D01*
X168889815Y-139643068D01*
X168837011Y-139688823D01*
X168785529Y-139700029D01*
X114034528Y-139712978D01*
X113967484Y-139693309D01*
X113921717Y-139640516D01*
X113910500Y-139588982D01*
X113910500Y-133375001D01*
X145269500Y-133375001D01*
X145269501Y-133375018D01*
X145280000Y-133477796D01*
X145280001Y-133477799D01*
X145335185Y-133644331D01*
X145335186Y-133644334D01*
X145427288Y-133793656D01*
X145551344Y-133917712D01*
X145700666Y-134009814D01*
X145867203Y-134064999D01*
X145969991Y-134075500D01*
X147370008Y-134075499D01*
X147472797Y-134064999D01*
X147639334Y-134009814D01*
X147788656Y-133917712D01*
X147912712Y-133793656D01*
X148004814Y-133644334D01*
X148059999Y-133477797D01*
X148070500Y-133375009D01*
X148070500Y-132734502D01*
X148769500Y-132734502D01*
X148784652Y-132912536D01*
X148844724Y-133143248D01*
X148942919Y-133360480D01*
X148942924Y-133360488D01*
X149076413Y-133557993D01*
X149076418Y-133557998D01*
X149076421Y-133558003D01*
X149241379Y-133730118D01*
X149433053Y-133871879D01*
X149645926Y-133979207D01*
X149873877Y-134049016D01*
X150110346Y-134079298D01*
X150348532Y-134069180D01*
X150581581Y-134018954D01*
X150802790Y-133930064D01*
X151005795Y-133805069D01*
X151184755Y-133647564D01*
X151334523Y-133462080D01*
X151450790Y-133253954D01*
X151530211Y-133029171D01*
X151550224Y-132912453D01*
X151570499Y-132794209D01*
X151570500Y-132794198D01*
X151570500Y-132734478D01*
X152270000Y-132734478D01*
X152285147Y-132912450D01*
X152285148Y-132912453D01*
X152345197Y-133143078D01*
X152443360Y-133360241D01*
X152443362Y-133360244D01*
X152576812Y-133557688D01*
X152576814Y-133557690D01*
X152741706Y-133729736D01*
X152933316Y-133871450D01*
X153146115Y-133978741D01*
X153373987Y-134048526D01*
X153373985Y-134048526D01*
X153420000Y-134054418D01*
X153420000Y-132488658D01*
X153439685Y-132421619D01*
X153492489Y-132375864D01*
X153560184Y-132365719D01*
X153630677Y-132375000D01*
X153630684Y-132375000D01*
X153709316Y-132375000D01*
X153709323Y-132375000D01*
X153779815Y-132365719D01*
X153848849Y-132376484D01*
X153901105Y-132422864D01*
X153920000Y-132488658D01*
X153920000Y-134053264D01*
X154081434Y-134018473D01*
X154302562Y-133929616D01*
X154505494Y-133804666D01*
X154684389Y-133647219D01*
X154684396Y-133647213D01*
X154834102Y-133461805D01*
X154834109Y-133461795D01*
X154950331Y-133253751D01*
X155029722Y-133029052D01*
X155029726Y-133029038D01*
X155069999Y-132794167D01*
X155070000Y-132794156D01*
X155070000Y-132025000D01*
X154383658Y-132025000D01*
X154316619Y-132005315D01*
X154270864Y-131952511D01*
X154260719Y-131884816D01*
X154275177Y-131775000D01*
X154260719Y-131665183D01*
X154271484Y-131596151D01*
X154317864Y-131543895D01*
X154383658Y-131525000D01*
X155070000Y-131525000D01*
X155070000Y-130815522D01*
X155054852Y-130637549D01*
X155054851Y-130637546D01*
X155020339Y-130505000D01*
X159804473Y-130505000D01*
X159824563Y-130837136D01*
X159824563Y-130837141D01*
X159824564Y-130837142D01*
X159884544Y-131164441D01*
X159884545Y-131164445D01*
X159884546Y-131164449D01*
X159983530Y-131482104D01*
X159983534Y-131482116D01*
X159983537Y-131482123D01*
X160120102Y-131785557D01*
X160272763Y-132038089D01*
X160292251Y-132070326D01*
X160497460Y-132332255D01*
X160732744Y-132567539D01*
X160994673Y-132772748D01*
X160994678Y-132772751D01*
X160994682Y-132772754D01*
X161279443Y-132944898D01*
X161582877Y-133081463D01*
X161582890Y-133081467D01*
X161582895Y-133081469D01*
X161780608Y-133143078D01*
X161900559Y-133180456D01*
X162227858Y-133240436D01*
X162405740Y-133251196D01*
X162476892Y-133255500D01*
X162476894Y-133255500D01*
X162643108Y-133255500D01*
X162705365Y-133251734D01*
X162892142Y-133240436D01*
X163219441Y-133180456D01*
X163537123Y-133081463D01*
X163840557Y-132944898D01*
X164125318Y-132772754D01*
X164174150Y-132734497D01*
X164332421Y-132610499D01*
X164387252Y-132567542D01*
X164622542Y-132332252D01*
X164822058Y-132077589D01*
X164827748Y-132070326D01*
X164827748Y-132070324D01*
X164827754Y-132070318D01*
X164999898Y-131785557D01*
X165136463Y-131482123D01*
X165235456Y-131164441D01*
X165295436Y-130837142D01*
X165315527Y-130505000D01*
X165295436Y-130172858D01*
X165235456Y-129845559D01*
X165153302Y-129581915D01*
X165136469Y-129527895D01*
X165136467Y-129527890D01*
X165136463Y-129527877D01*
X164999898Y-129224443D01*
X164827754Y-128939682D01*
X164827751Y-128939678D01*
X164827748Y-128939673D01*
X164622539Y-128677744D01*
X164387255Y-128442460D01*
X164125326Y-128237251D01*
X164125318Y-128237246D01*
X163840557Y-128065102D01*
X163537123Y-127928537D01*
X163537116Y-127928534D01*
X163537104Y-127928530D01*
X163219449Y-127829546D01*
X163219445Y-127829545D01*
X163219441Y-127829544D01*
X162892142Y-127769564D01*
X162892141Y-127769563D01*
X162892136Y-127769563D01*
X162643108Y-127754500D01*
X162643106Y-127754500D01*
X162476894Y-127754500D01*
X162476892Y-127754500D01*
X162227863Y-127769563D01*
X162227857Y-127769564D01*
X162227858Y-127769564D01*
X161900559Y-127829544D01*
X161900556Y-127829544D01*
X161900550Y-127829546D01*
X161582895Y-127928530D01*
X161582879Y-127928536D01*
X161582877Y-127928537D01*
X161389656Y-128015498D01*
X161279447Y-128065100D01*
X161279445Y-128065101D01*
X160994673Y-128237251D01*
X160732744Y-128442460D01*
X160497460Y-128677744D01*
X160292251Y-128939673D01*
X160120101Y-129224445D01*
X160120100Y-129224447D01*
X160070498Y-129334656D01*
X159997554Y-129496734D01*
X159983536Y-129527880D01*
X159983530Y-129527895D01*
X159884546Y-129845550D01*
X159884544Y-129845556D01*
X159884544Y-129845559D01*
X159839838Y-130089513D01*
X159824563Y-130172863D01*
X159804473Y-130505000D01*
X155020339Y-130505000D01*
X154994802Y-130406921D01*
X154896639Y-130189758D01*
X154896637Y-130189755D01*
X154763187Y-129992311D01*
X154763185Y-129992309D01*
X154598293Y-129820263D01*
X154406683Y-129678549D01*
X154193884Y-129571257D01*
X153966020Y-129501475D01*
X153919999Y-129495581D01*
X153920000Y-131061341D01*
X153900315Y-131128380D01*
X153847511Y-131174135D01*
X153779815Y-131184280D01*
X153709333Y-131175001D01*
X153709328Y-131175000D01*
X153709323Y-131175000D01*
X153630677Y-131175000D01*
X153630671Y-131175000D01*
X153630666Y-131175001D01*
X153560185Y-131184280D01*
X153491150Y-131173514D01*
X153438894Y-131127134D01*
X153420000Y-131061341D01*
X153420000Y-129496734D01*
X153419999Y-129496734D01*
X153258566Y-129531525D01*
X153037437Y-129620383D01*
X152834505Y-129745333D01*
X152655610Y-129902780D01*
X152655603Y-129902786D01*
X152505897Y-130088194D01*
X152505890Y-130088204D01*
X152389668Y-130296248D01*
X152310277Y-130520947D01*
X152310273Y-130520961D01*
X152270000Y-130755832D01*
X152270000Y-131525000D01*
X152956342Y-131525000D01*
X153023381Y-131544685D01*
X153069136Y-131597489D01*
X153079280Y-131665183D01*
X153064823Y-131775000D01*
X153079280Y-131884816D01*
X153068516Y-131953849D01*
X153022136Y-132006105D01*
X152956342Y-132025000D01*
X152270000Y-132025000D01*
X152270000Y-132734478D01*
X151570500Y-132734478D01*
X151570500Y-130815498D01*
X151555347Y-130637463D01*
X151495275Y-130406751D01*
X151397080Y-130189519D01*
X151397075Y-130189511D01*
X151263586Y-129992006D01*
X151263582Y-129992001D01*
X151263579Y-129991997D01*
X151098621Y-129819882D01*
X151062517Y-129793180D01*
X150997824Y-129745333D01*
X150906947Y-129678121D01*
X150694074Y-129570793D01*
X150553948Y-129527880D01*
X150466121Y-129500983D01*
X150229647Y-129470701D01*
X149991471Y-129480819D01*
X149991467Y-129480819D01*
X149758419Y-129531045D01*
X149537211Y-129619935D01*
X149334203Y-129744932D01*
X149155245Y-129902435D01*
X149082676Y-129992311D01*
X149005477Y-130087920D01*
X149002521Y-130093212D01*
X148889210Y-130296044D01*
X148809788Y-130520829D01*
X148769500Y-130755790D01*
X148769500Y-132734502D01*
X148070500Y-132734502D01*
X148070499Y-130174992D01*
X148061632Y-130088194D01*
X148059999Y-130072203D01*
X148059998Y-130072200D01*
X148044960Y-130026818D01*
X148004814Y-129905666D01*
X147912712Y-129756344D01*
X147788656Y-129632288D01*
X147639334Y-129540186D01*
X147472797Y-129485001D01*
X147472795Y-129485000D01*
X147370010Y-129474500D01*
X145969998Y-129474500D01*
X145969981Y-129474501D01*
X145867203Y-129485000D01*
X145867200Y-129485001D01*
X145700668Y-129540185D01*
X145700663Y-129540187D01*
X145551342Y-129632289D01*
X145427289Y-129756342D01*
X145335187Y-129905663D01*
X145335185Y-129905666D01*
X145335186Y-129905666D01*
X145280001Y-130072203D01*
X145280001Y-130072204D01*
X145280000Y-130072204D01*
X145269500Y-130174983D01*
X145269500Y-133375001D01*
X113910500Y-133375001D01*
X113910500Y-130505000D01*
X117894473Y-130505000D01*
X117914563Y-130837136D01*
X117914563Y-130837141D01*
X117914564Y-130837142D01*
X117974544Y-131164441D01*
X117974545Y-131164445D01*
X117974546Y-131164449D01*
X118073530Y-131482104D01*
X118073534Y-131482116D01*
X118073537Y-131482123D01*
X118210102Y-131785557D01*
X118362763Y-132038089D01*
X118382251Y-132070326D01*
X118587460Y-132332255D01*
X118822744Y-132567539D01*
X119084673Y-132772748D01*
X119084678Y-132772751D01*
X119084682Y-132772754D01*
X119369443Y-132944898D01*
X119672877Y-133081463D01*
X119672890Y-133081467D01*
X119672895Y-133081469D01*
X119870608Y-133143078D01*
X119990559Y-133180456D01*
X120317858Y-133240436D01*
X120495740Y-133251196D01*
X120566892Y-133255500D01*
X120566894Y-133255500D01*
X120733108Y-133255500D01*
X120795364Y-133251734D01*
X120982142Y-133240436D01*
X121309441Y-133180456D01*
X121627123Y-133081463D01*
X121930557Y-132944898D01*
X122215318Y-132772754D01*
X122264150Y-132734497D01*
X122422421Y-132610499D01*
X122477252Y-132567542D01*
X122712542Y-132332252D01*
X122849162Y-132157870D01*
X127899500Y-132157870D01*
X127899501Y-132157876D01*
X127905908Y-132217483D01*
X127956202Y-132352328D01*
X127956206Y-132352335D01*
X128042452Y-132467544D01*
X128042455Y-132467547D01*
X128157664Y-132553793D01*
X128157671Y-132553797D01*
X128292517Y-132604091D01*
X128292516Y-132604091D01*
X128299444Y-132604835D01*
X128352127Y-132610500D01*
X131047872Y-132610499D01*
X131107483Y-132604091D01*
X131242331Y-132553796D01*
X131357546Y-132467546D01*
X131443796Y-132352331D01*
X131494091Y-132217483D01*
X131500500Y-132157873D01*
X131500500Y-130810004D01*
X132894451Y-130810004D01*
X132914616Y-131079101D01*
X132974664Y-131342188D01*
X132974666Y-131342195D01*
X133025772Y-131472411D01*
X133073257Y-131593398D01*
X133208185Y-131827102D01*
X133308196Y-131952511D01*
X133376442Y-132038089D01*
X133554094Y-132202925D01*
X133574259Y-132221635D01*
X133797226Y-132373651D01*
X134040359Y-132490738D01*
X134298228Y-132570280D01*
X134298229Y-132570280D01*
X134298232Y-132570281D01*
X134565063Y-132610499D01*
X134565068Y-132610499D01*
X134565071Y-132610500D01*
X134565072Y-132610500D01*
X134834928Y-132610500D01*
X134834929Y-132610500D01*
X134834936Y-132610499D01*
X135101767Y-132570281D01*
X135101768Y-132570280D01*
X135101772Y-132570280D01*
X135359641Y-132490738D01*
X135602775Y-132373651D01*
X135825741Y-132221635D01*
X135980987Y-132077588D01*
X136023557Y-132038089D01*
X136023557Y-132038087D01*
X136023561Y-132038085D01*
X136191815Y-131827102D01*
X136326743Y-131593398D01*
X136425334Y-131342195D01*
X136485383Y-131079103D01*
X136503515Y-130837142D01*
X136505549Y-130810004D01*
X137894953Y-130810004D01*
X137915113Y-131079026D01*
X137915113Y-131079028D01*
X137975142Y-131342033D01*
X137975148Y-131342052D01*
X138073709Y-131593181D01*
X138073708Y-131593181D01*
X138208602Y-131826822D01*
X138262294Y-131894151D01*
X138982331Y-131174114D01*
X139043654Y-131140629D01*
X139113345Y-131145613D01*
X139169279Y-131187485D01*
X139174707Y-131195350D01*
X139195187Y-131227620D01*
X139195188Y-131227621D01*
X139314904Y-131340041D01*
X139318266Y-131342484D01*
X139320264Y-131345074D01*
X139320590Y-131345381D01*
X139320540Y-131345433D01*
X139360934Y-131397812D01*
X139366915Y-131467425D01*
X139334311Y-131529221D01*
X139333065Y-131530485D01*
X138614848Y-132248702D01*
X138797483Y-132373220D01*
X138797485Y-132373221D01*
X139040539Y-132490269D01*
X139040537Y-132490269D01*
X139298337Y-132569790D01*
X139298343Y-132569792D01*
X139565101Y-132609999D01*
X139565110Y-132610000D01*
X139834890Y-132610000D01*
X139834898Y-132609999D01*
X140101656Y-132569792D01*
X140101662Y-132569790D01*
X140359461Y-132490269D01*
X140602521Y-132373218D01*
X140785150Y-132248702D01*
X140063234Y-131526787D01*
X140029749Y-131465464D01*
X140034733Y-131395773D01*
X140076605Y-131339839D01*
X140077953Y-131338844D01*
X140148492Y-131287595D01*
X140234871Y-131183180D01*
X140292768Y-131144074D01*
X140362620Y-131142478D01*
X140418094Y-131174541D01*
X141137703Y-131894151D01*
X141137704Y-131894150D01*
X141191393Y-131826828D01*
X141191400Y-131826817D01*
X141326290Y-131593181D01*
X141424851Y-131342052D01*
X141424857Y-131342033D01*
X141484886Y-131079028D01*
X141484886Y-131079026D01*
X141505047Y-130810004D01*
X141505047Y-130809995D01*
X141484886Y-130540973D01*
X141484886Y-130540971D01*
X141424857Y-130277966D01*
X141424851Y-130277947D01*
X141326290Y-130026818D01*
X141326291Y-130026818D01*
X141191397Y-129793177D01*
X141137704Y-129725847D01*
X140417667Y-130445884D01*
X140356344Y-130479369D01*
X140286652Y-130474385D01*
X140230719Y-130432513D01*
X140225290Y-130424646D01*
X140213933Y-130406751D01*
X140204814Y-130392381D01*
X140140942Y-130332402D01*
X140085097Y-130279960D01*
X140081732Y-130277515D01*
X140079731Y-130274920D01*
X140079410Y-130274619D01*
X140079458Y-130274567D01*
X140039064Y-130222187D01*
X140033082Y-130152574D01*
X140065685Y-130090778D01*
X140066932Y-130089513D01*
X140785150Y-129371296D01*
X140602517Y-129246779D01*
X140602516Y-129246778D01*
X140359460Y-129129730D01*
X140359462Y-129129730D01*
X140101662Y-129050209D01*
X140101656Y-129050207D01*
X139834898Y-129010000D01*
X139565101Y-129010000D01*
X139298343Y-129050207D01*
X139298337Y-129050209D01*
X139040538Y-129129730D01*
X138797485Y-129246778D01*
X138797476Y-129246783D01*
X138614848Y-129371296D01*
X139336765Y-130093212D01*
X139370250Y-130154535D01*
X139365266Y-130224226D01*
X139323394Y-130280160D01*
X139321970Y-130281210D01*
X139251510Y-130332402D01*
X139251508Y-130332405D01*
X139165130Y-130436818D01*
X139107230Y-130475925D01*
X139037378Y-130477521D01*
X138981905Y-130445458D01*
X138262295Y-129725848D01*
X138208600Y-129793180D01*
X138073709Y-130026818D01*
X137975148Y-130277947D01*
X137975142Y-130277966D01*
X137915113Y-130540971D01*
X137915113Y-130540973D01*
X137894953Y-130809995D01*
X137894953Y-130810004D01*
X136505549Y-130810004D01*
X136505549Y-130809995D01*
X136485389Y-130540973D01*
X136485383Y-130540897D01*
X136425334Y-130277805D01*
X136326743Y-130026602D01*
X136191815Y-129792898D01*
X136023561Y-129581915D01*
X136023560Y-129581914D01*
X136023557Y-129581910D01*
X135825741Y-129398365D01*
X135786038Y-129371296D01*
X135602775Y-129246349D01*
X135602769Y-129246346D01*
X135602768Y-129246345D01*
X135602767Y-129246344D01*
X135359643Y-129129263D01*
X135359645Y-129129263D01*
X135101773Y-129049720D01*
X135101767Y-129049718D01*
X134834936Y-129009500D01*
X134834929Y-129009500D01*
X134565071Y-129009500D01*
X134565063Y-129009500D01*
X134298232Y-129049718D01*
X134298226Y-129049720D01*
X134040358Y-129129262D01*
X133797230Y-129246346D01*
X133574258Y-129398365D01*
X133376442Y-129581910D01*
X133208185Y-129792898D01*
X133073258Y-130026599D01*
X133073256Y-130026603D01*
X132974666Y-130277804D01*
X132974664Y-130277811D01*
X132914616Y-130540898D01*
X132894451Y-130809995D01*
X132894451Y-130810004D01*
X131500500Y-130810004D01*
X131500499Y-129462128D01*
X131494091Y-129402517D01*
X131492542Y-129398365D01*
X131443797Y-129267671D01*
X131443793Y-129267664D01*
X131357547Y-129152455D01*
X131357544Y-129152452D01*
X131242335Y-129066206D01*
X131242328Y-129066202D01*
X131107482Y-129015908D01*
X131107483Y-129015908D01*
X131047883Y-129009501D01*
X131047881Y-129009500D01*
X131047873Y-129009500D01*
X131047864Y-129009500D01*
X128352129Y-129009500D01*
X128352123Y-129009501D01*
X128292516Y-129015908D01*
X128157671Y-129066202D01*
X128157664Y-129066206D01*
X128042455Y-129152452D01*
X128042452Y-129152455D01*
X127956206Y-129267664D01*
X127956202Y-129267671D01*
X127905908Y-129402517D01*
X127899501Y-129462116D01*
X127899501Y-129462123D01*
X127899500Y-129462135D01*
X127899500Y-132157870D01*
X122849162Y-132157870D01*
X122912058Y-132077589D01*
X122917748Y-132070326D01*
X122917748Y-132070324D01*
X122917754Y-132070318D01*
X123089898Y-131785557D01*
X123226463Y-131482123D01*
X123325456Y-131164441D01*
X123385436Y-130837142D01*
X123405527Y-130505000D01*
X123385436Y-130172858D01*
X123325456Y-129845559D01*
X123243302Y-129581915D01*
X123226469Y-129527895D01*
X123226467Y-129527890D01*
X123226463Y-129527877D01*
X123089898Y-129224443D01*
X122917754Y-128939682D01*
X122917751Y-128939678D01*
X122917748Y-128939673D01*
X122712539Y-128677744D01*
X122477255Y-128442460D01*
X122215326Y-128237251D01*
X122215318Y-128237246D01*
X121930557Y-128065102D01*
X121627123Y-127928537D01*
X121627116Y-127928534D01*
X121627104Y-127928530D01*
X121309449Y-127829546D01*
X121309445Y-127829545D01*
X121309441Y-127829544D01*
X120982142Y-127769564D01*
X120982141Y-127769563D01*
X120982136Y-127769563D01*
X120733108Y-127754500D01*
X120733106Y-127754500D01*
X120566894Y-127754500D01*
X120566892Y-127754500D01*
X120317863Y-127769563D01*
X120317857Y-127769564D01*
X120317858Y-127769564D01*
X119990559Y-127829544D01*
X119990556Y-127829544D01*
X119990550Y-127829546D01*
X119672895Y-127928530D01*
X119672879Y-127928536D01*
X119672877Y-127928537D01*
X119479656Y-128015498D01*
X119369447Y-128065100D01*
X119369445Y-128065101D01*
X119084673Y-128237251D01*
X118822744Y-128442460D01*
X118587460Y-128677744D01*
X118382251Y-128939673D01*
X118210101Y-129224445D01*
X118210100Y-129224447D01*
X118160498Y-129334656D01*
X118087554Y-129496734D01*
X118073536Y-129527880D01*
X118073530Y-129527895D01*
X117974546Y-129845550D01*
X117974544Y-129845556D01*
X117974544Y-129845559D01*
X117929838Y-130089513D01*
X117914563Y-130172863D01*
X117894473Y-130505000D01*
X113910500Y-130505000D01*
X113910500Y-125052870D01*
X145969500Y-125052870D01*
X145969501Y-125052876D01*
X145975908Y-125112483D01*
X146026202Y-125247328D01*
X146026206Y-125247335D01*
X146112452Y-125362544D01*
X146112455Y-125362547D01*
X146227664Y-125448793D01*
X146227671Y-125448797D01*
X146362517Y-125499091D01*
X146362516Y-125499091D01*
X146369444Y-125499835D01*
X146422127Y-125505500D01*
X148217872Y-125505499D01*
X148277483Y-125499091D01*
X148412331Y-125448796D01*
X148527546Y-125362546D01*
X148613796Y-125247331D01*
X148662810Y-125115916D01*
X148704681Y-125059984D01*
X148770145Y-125035566D01*
X148838418Y-125050417D01*
X148866673Y-125071568D01*
X148988599Y-125193495D01*
X149085384Y-125261264D01*
X149182165Y-125329032D01*
X149182167Y-125329033D01*
X149182170Y-125329035D01*
X149396337Y-125428903D01*
X149624592Y-125490063D01*
X149801034Y-125505500D01*
X149859999Y-125510659D01*
X149860000Y-125510659D01*
X149860001Y-125510659D01*
X149918966Y-125505500D01*
X150095408Y-125490063D01*
X150323663Y-125428903D01*
X150537830Y-125329035D01*
X150731401Y-125193495D01*
X150898495Y-125026401D01*
X151028730Y-124840405D01*
X151083307Y-124796781D01*
X151152805Y-124789587D01*
X151215160Y-124821110D01*
X151231879Y-124840405D01*
X151361890Y-125026078D01*
X151528917Y-125193105D01*
X151722421Y-125328600D01*
X151936507Y-125428429D01*
X151936516Y-125428433D01*
X152150000Y-125485634D01*
X152150000Y-124767301D01*
X152169685Y-124700262D01*
X152222489Y-124654507D01*
X152291647Y-124644563D01*
X152364237Y-124655000D01*
X152364238Y-124655000D01*
X152435762Y-124655000D01*
X152435763Y-124655000D01*
X152508353Y-124644563D01*
X152577512Y-124654507D01*
X152630315Y-124700262D01*
X152650000Y-124767301D01*
X152650000Y-125485633D01*
X152863483Y-125428433D01*
X152863492Y-125428429D01*
X153077578Y-125328600D01*
X153271082Y-125193105D01*
X153438105Y-125026082D01*
X153573600Y-124832578D01*
X153673429Y-124618492D01*
X153673432Y-124618486D01*
X153730636Y-124405000D01*
X153013347Y-124405000D01*
X152946308Y-124385315D01*
X152900553Y-124332511D01*
X152890609Y-124263353D01*
X152894369Y-124246067D01*
X152900000Y-124226888D01*
X152900000Y-124083111D01*
X152894369Y-124063933D01*
X152894370Y-123994064D01*
X152932145Y-123935286D01*
X152995701Y-123906262D01*
X153013347Y-123905000D01*
X153730636Y-123905000D01*
X153730635Y-123904999D01*
X153673432Y-123691513D01*
X153673429Y-123691507D01*
X153573600Y-123477422D01*
X153573599Y-123477420D01*
X153438113Y-123283926D01*
X153438108Y-123283920D01*
X153271082Y-123116894D01*
X153077578Y-122981399D01*
X152863492Y-122881570D01*
X152863486Y-122881567D01*
X152650000Y-122824364D01*
X152650000Y-123542698D01*
X152630315Y-123609737D01*
X152577511Y-123655492D01*
X152508355Y-123665436D01*
X152435766Y-123655000D01*
X152435763Y-123655000D01*
X152364237Y-123655000D01*
X152364233Y-123655000D01*
X152291645Y-123665436D01*
X152222487Y-123655492D01*
X152169684Y-123609736D01*
X152150000Y-123542698D01*
X152150000Y-122824364D01*
X152149999Y-122824364D01*
X151936513Y-122881567D01*
X151936507Y-122881570D01*
X151722422Y-122981399D01*
X151722420Y-122981400D01*
X151528926Y-123116886D01*
X151528920Y-123116891D01*
X151361891Y-123283920D01*
X151361890Y-123283922D01*
X151231880Y-123469595D01*
X151177303Y-123513219D01*
X151107804Y-123520412D01*
X151045450Y-123488890D01*
X151028730Y-123469594D01*
X150898494Y-123283597D01*
X150731402Y-123116506D01*
X150731395Y-123116501D01*
X150537834Y-122980967D01*
X150537830Y-122980965D01*
X150537830Y-122980964D01*
X150323663Y-122881097D01*
X150323659Y-122881096D01*
X150323655Y-122881094D01*
X150095413Y-122819938D01*
X150095403Y-122819936D01*
X149860001Y-122799341D01*
X149859999Y-122799341D01*
X149624596Y-122819936D01*
X149624586Y-122819938D01*
X149396344Y-122881094D01*
X149396335Y-122881098D01*
X149182171Y-122980964D01*
X149182169Y-122980965D01*
X148988600Y-123116503D01*
X148866673Y-123238430D01*
X148805350Y-123271914D01*
X148735658Y-123266930D01*
X148679725Y-123225058D01*
X148662810Y-123194081D01*
X148613797Y-123062671D01*
X148613793Y-123062664D01*
X148527547Y-122947455D01*
X148527544Y-122947452D01*
X148412335Y-122861206D01*
X148412328Y-122861202D01*
X148277482Y-122810908D01*
X148277483Y-122810908D01*
X148217883Y-122804501D01*
X148217881Y-122804500D01*
X148217873Y-122804500D01*
X148217864Y-122804500D01*
X146422129Y-122804500D01*
X146422123Y-122804501D01*
X146362516Y-122810908D01*
X146227671Y-122861202D01*
X146227664Y-122861206D01*
X146112455Y-122947452D01*
X146112452Y-122947455D01*
X146026206Y-123062664D01*
X146026202Y-123062671D01*
X145975908Y-123197517D01*
X145969501Y-123257116D01*
X145969500Y-123257135D01*
X145969500Y-125052870D01*
X113910500Y-125052870D01*
X113910500Y-119681844D01*
X119134000Y-119681844D01*
X119140401Y-119741372D01*
X119140403Y-119741379D01*
X119190645Y-119876086D01*
X119190649Y-119876093D01*
X119276809Y-119991187D01*
X119276812Y-119991190D01*
X119391906Y-120077350D01*
X119391913Y-120077354D01*
X119526620Y-120127596D01*
X119526627Y-120127598D01*
X119586155Y-120133999D01*
X119586172Y-120134000D01*
X121669999Y-120134000D01*
X121669999Y-118061658D01*
X121689684Y-117994619D01*
X121742487Y-117948864D01*
X121810183Y-117938719D01*
X121880677Y-117948000D01*
X121880684Y-117948000D01*
X121959316Y-117948000D01*
X121959323Y-117948000D01*
X122029815Y-117938719D01*
X122098849Y-117949484D01*
X122151105Y-117995864D01*
X122170000Y-118061658D01*
X122170000Y-120134000D01*
X124253828Y-120134000D01*
X124253844Y-120133999D01*
X124313372Y-120127598D01*
X124313379Y-120127596D01*
X124448086Y-120077354D01*
X124448093Y-120077350D01*
X124563187Y-119991190D01*
X124563190Y-119991187D01*
X124649350Y-119876093D01*
X124649354Y-119876086D01*
X124699596Y-119741379D01*
X124699598Y-119741372D01*
X124703719Y-119703050D01*
X157016372Y-119703050D01*
X157022773Y-119762578D01*
X157022775Y-119762585D01*
X157073017Y-119897292D01*
X157073021Y-119897299D01*
X157159181Y-120012393D01*
X157159184Y-120012396D01*
X157274278Y-120098556D01*
X157274285Y-120098560D01*
X157408992Y-120148802D01*
X157408999Y-120148804D01*
X157468527Y-120155205D01*
X157468544Y-120155206D01*
X159552372Y-120155206D01*
X159552372Y-118082864D01*
X159572057Y-118015825D01*
X159624861Y-117970070D01*
X159692556Y-117959925D01*
X159763049Y-117969206D01*
X159763056Y-117969206D01*
X159841688Y-117969206D01*
X159841695Y-117969206D01*
X159912187Y-117959925D01*
X159981221Y-117970690D01*
X160033477Y-118017070D01*
X160052372Y-118082864D01*
X160052372Y-120155206D01*
X162136200Y-120155206D01*
X162136216Y-120155205D01*
X162195744Y-120148804D01*
X162195751Y-120148802D01*
X162330458Y-120098560D01*
X162330465Y-120098556D01*
X162445559Y-120012396D01*
X162445562Y-120012393D01*
X162531722Y-119897299D01*
X162531726Y-119897292D01*
X162581968Y-119762585D01*
X162581970Y-119762578D01*
X162588371Y-119703050D01*
X162588372Y-119703033D01*
X162588372Y-117619206D01*
X160516030Y-117619206D01*
X160448991Y-117599521D01*
X160403236Y-117546717D01*
X160393091Y-117479022D01*
X160407549Y-117369206D01*
X160393091Y-117259389D01*
X160403856Y-117190357D01*
X160450236Y-117138101D01*
X160516030Y-117119206D01*
X162588372Y-117119206D01*
X162588372Y-115035378D01*
X162588371Y-115035361D01*
X162581970Y-114975833D01*
X162581968Y-114975826D01*
X162531726Y-114841119D01*
X162531722Y-114841112D01*
X162445562Y-114726018D01*
X162445559Y-114726015D01*
X162330465Y-114639855D01*
X162330458Y-114639851D01*
X162195751Y-114589609D01*
X162195744Y-114589607D01*
X162136216Y-114583206D01*
X160052372Y-114583206D01*
X160052372Y-116655547D01*
X160032687Y-116722586D01*
X159979883Y-116768341D01*
X159912187Y-116778486D01*
X159841705Y-116769207D01*
X159841700Y-116769206D01*
X159841695Y-116769206D01*
X159763049Y-116769206D01*
X159763043Y-116769206D01*
X159763038Y-116769207D01*
X159692557Y-116778486D01*
X159623522Y-116767720D01*
X159571266Y-116721340D01*
X159552372Y-116655547D01*
X159552372Y-114583206D01*
X157468527Y-114583206D01*
X157408999Y-114589607D01*
X157408992Y-114589609D01*
X157274285Y-114639851D01*
X157274278Y-114639855D01*
X157159184Y-114726015D01*
X157159181Y-114726018D01*
X157073021Y-114841112D01*
X157073017Y-114841119D01*
X157022775Y-114975826D01*
X157022773Y-114975833D01*
X157016372Y-115035361D01*
X157016372Y-117119206D01*
X159088714Y-117119206D01*
X159155753Y-117138891D01*
X159201508Y-117191695D01*
X159211652Y-117259389D01*
X159197195Y-117369206D01*
X159211652Y-117479022D01*
X159200888Y-117548055D01*
X159154508Y-117600311D01*
X159088714Y-117619206D01*
X157016372Y-117619206D01*
X157016372Y-119703050D01*
X124703719Y-119703050D01*
X124705999Y-119681844D01*
X124706000Y-119681827D01*
X124706000Y-117598000D01*
X122633658Y-117598000D01*
X122566619Y-117578315D01*
X122520864Y-117525511D01*
X122510719Y-117457816D01*
X122525177Y-117348000D01*
X122510719Y-117238183D01*
X122521484Y-117169151D01*
X122567864Y-117116895D01*
X122633658Y-117098000D01*
X124706000Y-117098000D01*
X124706000Y-115014172D01*
X124705999Y-115014155D01*
X124699598Y-114954627D01*
X124699596Y-114954620D01*
X124649354Y-114819913D01*
X124649350Y-114819906D01*
X124563190Y-114704812D01*
X124563187Y-114704809D01*
X124448093Y-114618649D01*
X124448086Y-114618645D01*
X124313379Y-114568403D01*
X124313372Y-114568401D01*
X124253844Y-114562000D01*
X122170000Y-114562000D01*
X122170000Y-116634341D01*
X122150315Y-116701380D01*
X122097511Y-116747135D01*
X122029815Y-116757280D01*
X121959333Y-116748001D01*
X121959328Y-116748000D01*
X121959323Y-116748000D01*
X121880677Y-116748000D01*
X121880671Y-116748000D01*
X121880666Y-116748001D01*
X121810184Y-116757280D01*
X121741148Y-116746514D01*
X121688893Y-116700134D01*
X121669999Y-116634341D01*
X121670000Y-114562000D01*
X119586155Y-114562000D01*
X119526627Y-114568401D01*
X119526620Y-114568403D01*
X119391913Y-114618645D01*
X119391906Y-114618649D01*
X119276812Y-114704809D01*
X119276809Y-114704812D01*
X119190649Y-114819906D01*
X119190645Y-114819913D01*
X119140403Y-114954620D01*
X119140401Y-114954627D01*
X119134000Y-115014155D01*
X119134000Y-117098000D01*
X121206342Y-117098000D01*
X121273381Y-117117685D01*
X121319136Y-117170489D01*
X121329280Y-117238183D01*
X121314823Y-117348000D01*
X121329280Y-117457816D01*
X121318516Y-117526849D01*
X121272136Y-117579105D01*
X121206342Y-117598000D01*
X119134000Y-117598000D01*
X119134000Y-119681844D01*
X113910500Y-119681844D01*
X113910500Y-113371911D01*
X113935657Y-103933870D01*
X119133500Y-103933870D01*
X119133501Y-103933876D01*
X119139908Y-103993483D01*
X119190202Y-104128328D01*
X119190206Y-104128335D01*
X119276452Y-104243544D01*
X119276455Y-104243547D01*
X119391664Y-104329793D01*
X119391671Y-104329797D01*
X119526517Y-104380091D01*
X119526516Y-104380091D01*
X119533444Y-104380835D01*
X119586127Y-104386500D01*
X124253872Y-104386499D01*
X124313483Y-104380091D01*
X124448331Y-104329796D01*
X124563546Y-104243546D01*
X124649796Y-104128331D01*
X124700091Y-103993483D01*
X124706500Y-103933873D01*
X124706500Y-103864942D01*
X157015872Y-103864942D01*
X157015873Y-103864948D01*
X157022280Y-103924555D01*
X157072574Y-104059400D01*
X157072578Y-104059407D01*
X157158824Y-104174616D01*
X157158827Y-104174619D01*
X157274036Y-104260865D01*
X157274043Y-104260869D01*
X157408889Y-104311163D01*
X157408888Y-104311163D01*
X157415816Y-104311907D01*
X157468499Y-104317572D01*
X162136244Y-104317571D01*
X162195855Y-104311163D01*
X162330703Y-104260868D01*
X162445918Y-104174618D01*
X162532168Y-104059403D01*
X162582463Y-103924555D01*
X162588872Y-103864945D01*
X162588871Y-99197200D01*
X162582463Y-99137589D01*
X162557877Y-99071671D01*
X162532169Y-99002743D01*
X162532165Y-99002736D01*
X162445919Y-98887527D01*
X162445916Y-98887524D01*
X162330707Y-98801278D01*
X162330700Y-98801274D01*
X162195854Y-98750980D01*
X162195855Y-98750980D01*
X162136255Y-98744573D01*
X162136253Y-98744572D01*
X162136245Y-98744572D01*
X162136236Y-98744572D01*
X157468501Y-98744572D01*
X157468495Y-98744573D01*
X157408888Y-98750980D01*
X157274043Y-98801274D01*
X157274036Y-98801278D01*
X157158827Y-98887524D01*
X157158824Y-98887527D01*
X157072578Y-99002736D01*
X157072574Y-99002743D01*
X157022280Y-99137589D01*
X157015873Y-99197188D01*
X157015873Y-99197195D01*
X157015872Y-99197207D01*
X157015872Y-103864942D01*
X124706500Y-103864942D01*
X124706499Y-99266128D01*
X124700091Y-99206517D01*
X124696616Y-99197201D01*
X124649797Y-99071671D01*
X124649793Y-99071664D01*
X124563547Y-98956455D01*
X124563544Y-98956452D01*
X124448335Y-98870206D01*
X124448328Y-98870202D01*
X124313482Y-98819908D01*
X124313483Y-98819908D01*
X124253883Y-98813501D01*
X124253881Y-98813500D01*
X124253873Y-98813500D01*
X124253864Y-98813500D01*
X119586129Y-98813500D01*
X119586123Y-98813501D01*
X119526516Y-98819908D01*
X119391671Y-98870202D01*
X119391664Y-98870206D01*
X119276455Y-98956452D01*
X119276452Y-98956455D01*
X119190206Y-99071664D01*
X119190202Y-99071671D01*
X119139908Y-99206517D01*
X119133501Y-99266116D01*
X119133501Y-99266123D01*
X119133500Y-99266135D01*
X119133500Y-103933870D01*
X113935657Y-103933870D01*
X113965681Y-92670004D01*
X119809451Y-92670004D01*
X119829616Y-92939101D01*
X119889664Y-93202188D01*
X119889666Y-93202195D01*
X119988257Y-93453398D01*
X120123185Y-93687102D01*
X120259080Y-93857509D01*
X120291442Y-93898089D01*
X120478183Y-94071358D01*
X120489259Y-94081635D01*
X120712226Y-94233651D01*
X120955359Y-94350738D01*
X121213228Y-94430280D01*
X121213229Y-94430280D01*
X121213232Y-94430281D01*
X121480063Y-94470499D01*
X121480068Y-94470499D01*
X121480071Y-94470500D01*
X121480072Y-94470500D01*
X121749928Y-94470500D01*
X121749929Y-94470500D01*
X121749936Y-94470499D01*
X122016767Y-94430281D01*
X122016768Y-94430280D01*
X122016772Y-94430280D01*
X122274641Y-94350738D01*
X122517775Y-94233651D01*
X122740741Y-94081635D01*
X122938561Y-93898085D01*
X123106815Y-93687102D01*
X123241743Y-93453398D01*
X123340334Y-93202195D01*
X123400383Y-92939103D01*
X123420549Y-92670000D01*
X123400383Y-92400897D01*
X123340334Y-92137805D01*
X123241743Y-91886602D01*
X123106815Y-91652898D01*
X122938561Y-91441915D01*
X122938560Y-91441914D01*
X122938557Y-91441910D01*
X122740741Y-91258365D01*
X122740741Y-91258364D01*
X122517775Y-91106349D01*
X122517769Y-91106346D01*
X122517768Y-91106345D01*
X122517767Y-91106344D01*
X122274643Y-90989263D01*
X122274645Y-90989263D01*
X122016773Y-90909720D01*
X122016767Y-90909718D01*
X121749936Y-90869500D01*
X121749929Y-90869500D01*
X121480071Y-90869500D01*
X121480063Y-90869500D01*
X121213232Y-90909718D01*
X121213226Y-90909720D01*
X120955358Y-90989262D01*
X120712230Y-91106346D01*
X120489258Y-91258365D01*
X120291442Y-91441910D01*
X120123185Y-91652898D01*
X119988258Y-91886599D01*
X119988256Y-91886603D01*
X119889666Y-92137804D01*
X119889664Y-92137811D01*
X119829616Y-92400898D01*
X119809451Y-92669995D01*
X119809451Y-92670004D01*
X113965681Y-92670004D01*
X113972345Y-90170000D01*
X129454341Y-90170000D01*
X129474936Y-90405403D01*
X129474938Y-90405413D01*
X129536094Y-90633655D01*
X129536096Y-90633659D01*
X129536097Y-90633663D01*
X129635964Y-90847830D01*
X129635965Y-90847830D01*
X129635967Y-90847834D01*
X129744281Y-91002521D01*
X129771505Y-91041401D01*
X129938599Y-91208495D01*
X130009821Y-91258365D01*
X130132165Y-91344032D01*
X130132167Y-91344033D01*
X130132170Y-91344035D01*
X130346337Y-91443903D01*
X130574592Y-91505063D01*
X130762918Y-91521539D01*
X130809999Y-91525659D01*
X130810000Y-91525659D01*
X130810001Y-91525659D01*
X130849234Y-91522226D01*
X131045408Y-91505063D01*
X131273663Y-91443903D01*
X131487830Y-91344035D01*
X131681401Y-91208495D01*
X131848495Y-91041401D01*
X131984035Y-90847830D01*
X132083903Y-90633663D01*
X132145063Y-90405408D01*
X132165659Y-90170000D01*
X132145063Y-89934592D01*
X132083903Y-89706337D01*
X131984035Y-89492171D01*
X131968860Y-89470499D01*
X131848496Y-89298600D01*
X131848495Y-89298599D01*
X131726567Y-89176671D01*
X131693084Y-89115351D01*
X131698068Y-89045659D01*
X131739939Y-88989725D01*
X131770915Y-88972810D01*
X131902331Y-88923796D01*
X132017546Y-88837546D01*
X132103796Y-88722331D01*
X132154091Y-88587483D01*
X132160500Y-88527873D01*
X132160499Y-86732128D01*
X132154091Y-86672517D01*
X132103796Y-86537669D01*
X132103795Y-86537668D01*
X132103793Y-86537664D01*
X132017547Y-86422455D01*
X132017544Y-86422452D01*
X131902335Y-86336206D01*
X131902328Y-86336202D01*
X131767482Y-86285908D01*
X131767483Y-86285908D01*
X131707883Y-86279501D01*
X131707881Y-86279500D01*
X131707873Y-86279500D01*
X131707864Y-86279500D01*
X129912129Y-86279500D01*
X129912123Y-86279501D01*
X129852516Y-86285908D01*
X129717671Y-86336202D01*
X129717664Y-86336206D01*
X129602455Y-86422452D01*
X129602452Y-86422455D01*
X129516206Y-86537664D01*
X129516202Y-86537671D01*
X129465908Y-86672517D01*
X129459501Y-86732116D01*
X129459501Y-86732123D01*
X129459500Y-86732135D01*
X129459500Y-88527870D01*
X129459501Y-88527876D01*
X129465908Y-88587483D01*
X129516202Y-88722328D01*
X129516206Y-88722335D01*
X129602452Y-88837544D01*
X129602455Y-88837547D01*
X129717664Y-88923793D01*
X129717671Y-88923797D01*
X129849081Y-88972810D01*
X129905015Y-89014681D01*
X129929432Y-89080145D01*
X129914580Y-89148418D01*
X129893430Y-89176673D01*
X129771503Y-89298600D01*
X129635965Y-89492169D01*
X129635964Y-89492171D01*
X129536098Y-89706335D01*
X129536094Y-89706344D01*
X129474938Y-89934586D01*
X129474936Y-89934596D01*
X129454341Y-90169999D01*
X129454341Y-90170000D01*
X113972345Y-90170000D01*
X113975416Y-89017870D01*
X119814500Y-89017870D01*
X119814501Y-89017876D01*
X119820908Y-89077483D01*
X119871202Y-89212328D01*
X119871206Y-89212335D01*
X119957452Y-89327544D01*
X119957455Y-89327547D01*
X120072664Y-89413793D01*
X120072671Y-89413797D01*
X120207517Y-89464091D01*
X120207516Y-89464091D01*
X120214444Y-89464835D01*
X120267127Y-89470500D01*
X122962872Y-89470499D01*
X123022483Y-89464091D01*
X123157331Y-89413796D01*
X123272546Y-89327546D01*
X123358796Y-89212331D01*
X123409091Y-89077483D01*
X123415500Y-89017873D01*
X123415499Y-86322128D01*
X123409091Y-86262517D01*
X123358796Y-86127669D01*
X123358795Y-86127668D01*
X123358793Y-86127664D01*
X123272547Y-86012455D01*
X123272544Y-86012452D01*
X123157335Y-85926206D01*
X123157328Y-85926202D01*
X123022482Y-85875908D01*
X123022483Y-85875908D01*
X122962883Y-85869501D01*
X122962881Y-85869500D01*
X122962873Y-85869500D01*
X122962864Y-85869500D01*
X120267129Y-85869500D01*
X120267123Y-85869501D01*
X120207516Y-85875908D01*
X120072671Y-85926202D01*
X120072664Y-85926206D01*
X119957455Y-86012452D01*
X119957452Y-86012455D01*
X119871206Y-86127664D01*
X119871202Y-86127671D01*
X119820908Y-86262517D01*
X119814501Y-86322116D01*
X119814501Y-86322123D01*
X119814500Y-86322135D01*
X119814500Y-89017870D01*
X113975416Y-89017870D01*
X114019142Y-72613392D01*
X151494540Y-72613392D01*
X151514326Y-72801648D01*
X151514327Y-72801651D01*
X151572818Y-72981669D01*
X151572821Y-72981676D01*
X151667467Y-73145608D01*
X151794129Y-73286279D01*
X151794129Y-73286280D01*
X151947265Y-73397540D01*
X151947270Y-73397543D01*
X152120192Y-73474534D01*
X152120197Y-73474536D01*
X152305354Y-73513892D01*
X152305355Y-73513892D01*
X152494644Y-73513892D01*
X152494646Y-73513892D01*
X152679803Y-73474536D01*
X152852730Y-73397543D01*
X152952287Y-73325211D01*
X152969681Y-73312574D01*
X153035487Y-73289094D01*
X153042566Y-73288892D01*
X156102229Y-73288892D01*
X156169268Y-73308577D01*
X156189910Y-73325211D01*
X160359343Y-77494644D01*
X160392828Y-77555967D01*
X160394982Y-77569360D01*
X160399511Y-77612446D01*
X160404326Y-77658257D01*
X160404327Y-77658260D01*
X160459213Y-77827182D01*
X160461208Y-77897023D01*
X160425128Y-77956856D01*
X160362427Y-77987684D01*
X160341282Y-77989500D01*
X156585633Y-77989500D01*
X156518594Y-77969815D01*
X156497952Y-77953181D01*
X155224472Y-76679700D01*
X155194223Y-76630339D01*
X155138881Y-76460014D01*
X155044235Y-76296082D01*
X154917573Y-76155410D01*
X154917572Y-76155409D01*
X154764436Y-76044149D01*
X154764431Y-76044146D01*
X154591509Y-75967155D01*
X154591504Y-75967153D01*
X154445702Y-75936163D01*
X154406348Y-75927798D01*
X154217056Y-75927798D01*
X154184599Y-75934696D01*
X154031899Y-75967153D01*
X154031894Y-75967155D01*
X153858972Y-76044146D01*
X153858967Y-76044149D01*
X153705831Y-76155409D01*
X153579168Y-76296083D01*
X153484523Y-76460013D01*
X153484520Y-76460020D01*
X153429181Y-76630337D01*
X153426028Y-76640042D01*
X153406242Y-76828298D01*
X153426028Y-77016554D01*
X153426029Y-77016557D01*
X153484520Y-77196575D01*
X153484523Y-77196582D01*
X153579169Y-77360514D01*
X153644438Y-77433002D01*
X153705831Y-77501186D01*
X153858967Y-77612446D01*
X153858972Y-77612449D01*
X154031893Y-77689440D01*
X154031895Y-77689440D01*
X154031899Y-77689442D01*
X154097031Y-77703285D01*
X154158511Y-77736476D01*
X154158930Y-77736894D01*
X155647674Y-79225638D01*
X155659455Y-79239270D01*
X155673792Y-79258528D01*
X155713813Y-79292111D01*
X155717801Y-79295766D01*
X155723620Y-79301585D01*
X155723624Y-79301588D01*
X155723627Y-79301591D01*
X155749363Y-79321940D01*
X155808190Y-79371302D01*
X155808191Y-79371302D01*
X155808193Y-79371304D01*
X155814222Y-79375270D01*
X155814189Y-79375319D01*
X155820551Y-79379372D01*
X155820583Y-79379321D01*
X155826723Y-79383108D01*
X155826727Y-79383111D01*
X155861536Y-79399343D01*
X155896345Y-79415575D01*
X155964969Y-79450039D01*
X155964971Y-79450040D01*
X155964973Y-79450040D01*
X155971761Y-79452511D01*
X155971740Y-79452567D01*
X155978861Y-79455043D01*
X155978880Y-79454986D01*
X155985726Y-79457254D01*
X155985731Y-79457257D01*
X155985736Y-79457258D01*
X155985739Y-79457259D01*
X156060969Y-79472792D01*
X156135683Y-79490500D01*
X156135686Y-79490500D01*
X156135690Y-79490501D01*
X156142857Y-79491339D01*
X156142850Y-79491398D01*
X156150348Y-79492164D01*
X156150354Y-79492105D01*
X156157543Y-79492734D01*
X156157547Y-79492733D01*
X156157548Y-79492734D01*
X156234321Y-79490500D01*
X162020663Y-79490500D01*
X162087702Y-79510185D01*
X162093548Y-79514182D01*
X162107265Y-79524148D01*
X162107270Y-79524151D01*
X162280192Y-79601142D01*
X162280197Y-79601144D01*
X162465354Y-79640500D01*
X162465355Y-79640500D01*
X162654644Y-79640500D01*
X162654646Y-79640500D01*
X162839803Y-79601144D01*
X163012730Y-79524151D01*
X163165871Y-79412888D01*
X163292533Y-79272216D01*
X163387179Y-79108284D01*
X163445674Y-78928256D01*
X163464409Y-78750000D01*
X163769341Y-78750000D01*
X163789936Y-78985403D01*
X163789938Y-78985413D01*
X163851094Y-79213655D01*
X163851096Y-79213659D01*
X163851097Y-79213663D01*
X163928345Y-79379321D01*
X163950965Y-79427830D01*
X163950967Y-79427834D01*
X164059281Y-79582521D01*
X164072319Y-79601142D01*
X164086501Y-79621395D01*
X164086506Y-79621402D01*
X164253597Y-79788493D01*
X164253603Y-79788498D01*
X164439594Y-79918730D01*
X164483219Y-79973307D01*
X164490413Y-80042805D01*
X164458890Y-80105160D01*
X164439595Y-80121880D01*
X164253922Y-80251890D01*
X164253920Y-80251891D01*
X164086891Y-80418920D01*
X164086886Y-80418926D01*
X163951400Y-80612420D01*
X163951399Y-80612422D01*
X163851570Y-80826507D01*
X163851567Y-80826513D01*
X163794364Y-81039999D01*
X163794364Y-81040000D01*
X164511653Y-81040000D01*
X164578692Y-81059685D01*
X164624447Y-81112489D01*
X164634391Y-81181647D01*
X164630631Y-81198933D01*
X164625000Y-81218111D01*
X164625000Y-81361888D01*
X164630631Y-81381067D01*
X164630630Y-81450936D01*
X164592855Y-81509714D01*
X164529299Y-81538738D01*
X164511653Y-81540000D01*
X163794364Y-81540000D01*
X163851567Y-81753486D01*
X163851570Y-81753492D01*
X163951399Y-81967578D01*
X164086894Y-82161082D01*
X164253917Y-82328105D01*
X164447421Y-82463600D01*
X164661507Y-82563429D01*
X164661516Y-82563433D01*
X164875000Y-82620634D01*
X164875000Y-81902301D01*
X164894685Y-81835262D01*
X164947489Y-81789507D01*
X165016647Y-81779563D01*
X165089237Y-81790000D01*
X165089238Y-81790000D01*
X165160762Y-81790000D01*
X165160763Y-81790000D01*
X165233353Y-81779563D01*
X165302512Y-81789507D01*
X165355315Y-81835262D01*
X165375000Y-81902301D01*
X165375000Y-82620633D01*
X165588483Y-82563433D01*
X165588492Y-82563429D01*
X165802578Y-82463600D01*
X165996082Y-82328105D01*
X166163105Y-82161082D01*
X166298600Y-81967578D01*
X166398429Y-81753492D01*
X166398432Y-81753486D01*
X166455636Y-81540000D01*
X165738347Y-81540000D01*
X165671308Y-81520315D01*
X165625553Y-81467511D01*
X165615609Y-81398353D01*
X165619369Y-81381067D01*
X165625000Y-81361888D01*
X165625000Y-81218111D01*
X165619369Y-81198933D01*
X165619370Y-81129064D01*
X165657145Y-81070286D01*
X165720701Y-81041262D01*
X165738347Y-81040000D01*
X166455636Y-81040000D01*
X166455635Y-81039999D01*
X166398432Y-80826513D01*
X166398429Y-80826507D01*
X166298600Y-80612422D01*
X166298599Y-80612420D01*
X166163113Y-80418926D01*
X166163108Y-80418920D01*
X165996078Y-80251890D01*
X165810405Y-80121879D01*
X165766780Y-80067302D01*
X165759588Y-79997804D01*
X165791110Y-79935449D01*
X165810406Y-79918730D01*
X165996401Y-79788495D01*
X166163495Y-79621401D01*
X166299035Y-79427830D01*
X166398903Y-79213663D01*
X166460063Y-78985408D01*
X166480659Y-78750000D01*
X166460063Y-78514592D01*
X166398903Y-78286337D01*
X166299035Y-78072171D01*
X166241149Y-77989500D01*
X166163494Y-77878597D01*
X165996402Y-77711506D01*
X165996396Y-77711501D01*
X165810842Y-77581575D01*
X165767217Y-77526998D01*
X165760023Y-77457500D01*
X165791546Y-77395145D01*
X165810842Y-77378425D01*
X165836424Y-77360512D01*
X165996401Y-77248495D01*
X166163495Y-77081401D01*
X166299035Y-76887830D01*
X166398903Y-76673663D01*
X166460063Y-76445408D01*
X166480659Y-76210000D01*
X166460063Y-75974592D01*
X166398903Y-75746337D01*
X166299035Y-75532171D01*
X166163495Y-75338599D01*
X166041567Y-75216671D01*
X166008084Y-75155351D01*
X166013068Y-75085659D01*
X166054939Y-75029725D01*
X166085915Y-75012810D01*
X166217331Y-74963796D01*
X166332546Y-74877546D01*
X166418796Y-74762331D01*
X166469091Y-74627483D01*
X166475500Y-74567873D01*
X166475499Y-72772128D01*
X166469091Y-72712517D01*
X166432119Y-72613391D01*
X166418797Y-72577671D01*
X166418793Y-72577664D01*
X166332547Y-72462455D01*
X166332544Y-72462452D01*
X166217335Y-72376206D01*
X166217328Y-72376202D01*
X166082482Y-72325908D01*
X166082483Y-72325908D01*
X166022883Y-72319501D01*
X166022881Y-72319500D01*
X166022873Y-72319500D01*
X166022864Y-72319500D01*
X164227129Y-72319500D01*
X164227123Y-72319501D01*
X164167516Y-72325908D01*
X164032671Y-72376202D01*
X164032664Y-72376206D01*
X163917455Y-72462452D01*
X163917452Y-72462455D01*
X163831206Y-72577664D01*
X163831202Y-72577671D01*
X163780908Y-72712517D01*
X163774501Y-72772116D01*
X163774501Y-72772123D01*
X163774500Y-72772135D01*
X163774500Y-74567870D01*
X163774501Y-74567876D01*
X163780908Y-74627483D01*
X163831202Y-74762328D01*
X163831206Y-74762335D01*
X163917452Y-74877544D01*
X163917455Y-74877547D01*
X164032664Y-74963793D01*
X164032671Y-74963797D01*
X164164081Y-75012810D01*
X164220015Y-75054681D01*
X164244432Y-75120145D01*
X164229580Y-75188418D01*
X164208430Y-75216673D01*
X164086503Y-75338600D01*
X163950965Y-75532169D01*
X163950964Y-75532171D01*
X163851098Y-75746335D01*
X163851094Y-75746344D01*
X163789938Y-75974586D01*
X163789936Y-75974596D01*
X163769341Y-76209999D01*
X163769341Y-76210000D01*
X163789936Y-76445403D01*
X163789938Y-76445413D01*
X163851094Y-76673655D01*
X163851096Y-76673659D01*
X163851097Y-76673663D01*
X163923205Y-76828298D01*
X163950965Y-76887830D01*
X163950967Y-76887834D01*
X164086501Y-77081395D01*
X164086506Y-77081402D01*
X164253597Y-77248493D01*
X164253603Y-77248498D01*
X164439158Y-77378425D01*
X164482783Y-77433002D01*
X164489977Y-77502500D01*
X164458454Y-77564855D01*
X164439158Y-77581575D01*
X164253597Y-77711505D01*
X164086505Y-77878597D01*
X163950965Y-78072169D01*
X163950964Y-78072171D01*
X163851098Y-78286335D01*
X163851094Y-78286344D01*
X163789938Y-78514586D01*
X163789936Y-78514596D01*
X163769341Y-78749999D01*
X163769341Y-78750000D01*
X163464409Y-78750000D01*
X163465460Y-78740000D01*
X163445674Y-78551744D01*
X163387179Y-78371716D01*
X163292533Y-78207784D01*
X163165871Y-78067112D01*
X163165870Y-78067111D01*
X163012734Y-77955851D01*
X163012729Y-77955848D01*
X162839807Y-77878857D01*
X162839802Y-77878855D01*
X162694001Y-77847865D01*
X162654646Y-77839500D01*
X162465354Y-77839500D01*
X162351148Y-77863774D01*
X162301004Y-77874433D01*
X162231337Y-77869116D01*
X162175604Y-77826978D01*
X162151499Y-77761398D01*
X162157294Y-77714822D01*
X162175674Y-77658256D01*
X162195460Y-77470000D01*
X162175674Y-77281744D01*
X162117179Y-77101716D01*
X162022533Y-76937784D01*
X161895871Y-76797112D01*
X161895870Y-76797111D01*
X161742734Y-76685851D01*
X161742729Y-76685848D01*
X161569807Y-76608857D01*
X161569802Y-76608855D01*
X161384639Y-76569498D01*
X161383776Y-76569408D01*
X161383310Y-76569216D01*
X161378289Y-76568149D01*
X161378484Y-76567230D01*
X161319165Y-76542817D01*
X161309071Y-76533770D01*
X159343165Y-74567864D01*
X156926777Y-72151476D01*
X156924243Y-72148784D01*
X156884621Y-72104060D01*
X156835453Y-72070122D01*
X156832443Y-72067907D01*
X156785417Y-72031064D01*
X156785415Y-72031063D01*
X156776868Y-72027216D01*
X156757330Y-72016197D01*
X156749618Y-72010874D01*
X156749616Y-72010873D01*
X156693758Y-71989688D01*
X156690299Y-71988255D01*
X156635832Y-71963742D01*
X156635833Y-71963742D01*
X156628479Y-71962394D01*
X156626614Y-71962052D01*
X156605006Y-71956029D01*
X156596237Y-71952703D01*
X156536921Y-71945500D01*
X156533220Y-71944937D01*
X156474481Y-71934173D01*
X156474474Y-71934173D01*
X156414858Y-71937779D01*
X156411114Y-71937892D01*
X153042566Y-71937892D01*
X152975527Y-71918207D01*
X152969681Y-71914210D01*
X152852734Y-71829243D01*
X152852729Y-71829240D01*
X152679807Y-71752249D01*
X152679802Y-71752247D01*
X152534001Y-71721257D01*
X152494646Y-71712892D01*
X152305354Y-71712892D01*
X152272897Y-71719790D01*
X152120197Y-71752247D01*
X152120192Y-71752249D01*
X151947270Y-71829240D01*
X151947265Y-71829243D01*
X151794129Y-71940503D01*
X151667466Y-72081177D01*
X151572821Y-72245107D01*
X151572818Y-72245114D01*
X151530225Y-72376204D01*
X151514326Y-72425136D01*
X151494540Y-72613392D01*
X114019142Y-72613392D01*
X114043433Y-63499999D01*
X117894473Y-63499999D01*
X117914563Y-63832136D01*
X117914563Y-63832141D01*
X117914564Y-63832142D01*
X117974544Y-64159441D01*
X117974545Y-64159445D01*
X117974546Y-64159449D01*
X118073530Y-64477104D01*
X118073534Y-64477116D01*
X118073537Y-64477123D01*
X118210102Y-64780557D01*
X118382246Y-65065318D01*
X118382251Y-65065326D01*
X118587460Y-65327255D01*
X118822744Y-65562539D01*
X119084673Y-65767748D01*
X119084678Y-65767751D01*
X119084682Y-65767754D01*
X119369443Y-65939898D01*
X119672877Y-66076463D01*
X119672890Y-66076467D01*
X119672895Y-66076469D01*
X119884664Y-66142458D01*
X119990559Y-66175456D01*
X120317858Y-66235436D01*
X120495740Y-66246196D01*
X120566892Y-66250500D01*
X120566894Y-66250500D01*
X120733108Y-66250500D01*
X120795365Y-66246734D01*
X120982142Y-66235436D01*
X121309441Y-66175456D01*
X121627123Y-66076463D01*
X121930557Y-65939898D01*
X122215318Y-65767754D01*
X122477252Y-65562542D01*
X122712542Y-65327252D01*
X122917754Y-65065318D01*
X123089898Y-64780557D01*
X123226463Y-64477123D01*
X123325456Y-64159441D01*
X123385436Y-63832142D01*
X123405527Y-63500000D01*
X123385436Y-63167858D01*
X123325456Y-62840559D01*
X123226463Y-62522877D01*
X123089898Y-62219443D01*
X122917754Y-61934682D01*
X122917751Y-61934678D01*
X122917748Y-61934673D01*
X122712539Y-61672744D01*
X122477255Y-61437460D01*
X122215326Y-61232251D01*
X122215318Y-61232246D01*
X121930557Y-61060102D01*
X121627123Y-60923537D01*
X121627116Y-60923534D01*
X121627104Y-60923530D01*
X121309449Y-60824546D01*
X121309445Y-60824545D01*
X121309441Y-60824544D01*
X120982142Y-60764564D01*
X120982141Y-60764563D01*
X120982136Y-60764563D01*
X120733108Y-60749500D01*
X120733106Y-60749500D01*
X120566894Y-60749500D01*
X120566892Y-60749500D01*
X120317863Y-60764563D01*
X120317857Y-60764564D01*
X120317858Y-60764564D01*
X119990559Y-60824544D01*
X119990556Y-60824544D01*
X119990550Y-60824546D01*
X119672895Y-60923530D01*
X119672879Y-60923536D01*
X119672877Y-60923537D01*
X119479656Y-61010498D01*
X119369447Y-61060100D01*
X119369445Y-61060101D01*
X119084673Y-61232251D01*
X118822744Y-61437460D01*
X118587460Y-61672744D01*
X118382251Y-61934673D01*
X118210101Y-62219445D01*
X118210100Y-62219447D01*
X118073536Y-62522880D01*
X118073530Y-62522895D01*
X117974546Y-62840550D01*
X117914563Y-63167863D01*
X117894473Y-63499999D01*
X114043433Y-63499999D01*
X114060028Y-57274168D01*
X114079892Y-57207183D01*
X114132817Y-57161569D01*
X114184028Y-57150500D01*
X132933159Y-57150500D01*
X133000198Y-57170185D01*
G37*
%TD.AperFunction*%
%TD*%
M02*
