M48
; DRILL file {KiCad 7.0.7} date Wed Nov  8 05:52:17 2023
; FORMAT={-:-/ absolute / inch / decimal}
; #@! TF.CreationDate,2023-11-08T05:52:17-07:00
; #@! TF.GenerationSoftware,Kicad,Pcbnew,7.0.7
; #@! TF.FileFunction,Plated,1,2,PTH
FMAT,2
INCH
; #@! TA.AperFunction,Plated,PTH,ViaDrill
T1C0.0157
; #@! TA.AperFunction,Plated,PTH,ComponentDrill
T2C0.0394
; #@! TA.AperFunction,Plated,PTH,ComponentDrill
T3C0.0472
; #@! TA.AperFunction,Plated,PTH,ComponentDrill
T4C0.0512
%
G90
G05
T1
X4.85Y-4.45
X5.1Y-3.2
X5.95Y-3.15
X6.0Y-2.8588
X6.0489Y-2.8011
X6.0882Y-3.05
X6.25Y-4.45
X6.35Y-3.05
X6.4Y-3.1
X6.5Y-3.85
T2
X5.15Y-3.45
X5.15Y-3.55
X5.8Y-4.888
X5.9Y-4.888
X6.0Y-4.888
X6.501Y-2.9004
X6.501Y-3.0004
X6.501Y-3.1004
X6.501Y-3.2004
T3
X4.8Y-4.0
X4.8Y-4.62
X5.7744Y-5.188
X5.9122Y-5.188
X6.05Y-5.188
X6.2914Y-3.9973
X6.2914Y-4.6208
T4
X4.788Y-3.4516
X4.788Y-3.6484
X5.1063Y-5.15
X5.3031Y-5.15
X5.5Y-5.15
T0
M30
