%TF.GenerationSoftware,KiCad,Pcbnew,7.0.7*%
%TF.CreationDate,2023-11-08T05:52:15-07:00*%
%TF.ProjectId,RatGDO-OpenSource-Bare-ESP8266,52617447-444f-42d4-9f70-656e536f7572,rev?*%
%TF.SameCoordinates,Original*%
%TF.FileFunction,Soldermask,Top*%
%TF.FilePolarity,Negative*%
%FSLAX46Y46*%
G04 Gerber Fmt 4.6, Leading zero omitted, Abs format (unit mm)*
G04 Created by KiCad (PCBNEW 7.0.7) date 2023-11-08 05:52:15*
%MOMM*%
%LPD*%
G01*
G04 APERTURE LIST*
G04 Aperture macros list*
%AMRoundRect*
0 Rectangle with rounded corners*
0 $1 Rounding radius*
0 $2 $3 $4 $5 $6 $7 $8 $9 X,Y pos of 4 corners*
0 Add a 4 corners polygon primitive as box body*
4,1,4,$2,$3,$4,$5,$6,$7,$8,$9,$2,$3,0*
0 Add four circle primitives for the rounded corners*
1,1,$1+$1,$2,$3*
1,1,$1+$1,$4,$5*
1,1,$1+$1,$6,$7*
1,1,$1+$1,$8,$9*
0 Add four rect primitives between the rounded corners*
20,1,$1+$1,$2,$3,$4,$5,0*
20,1,$1+$1,$4,$5,$6,$7,0*
20,1,$1+$1,$6,$7,$8,$9,0*
20,1,$1+$1,$8,$9,$2,$3,0*%
G04 Aperture macros list end*
%ADD10R,1.700000X1.700000*%
%ADD11O,1.700000X1.700000*%
%ADD12RoundRect,0.250000X0.262500X0.450000X-0.262500X0.450000X-0.262500X-0.450000X0.262500X-0.450000X0*%
%ADD13C,5.000000*%
%ADD14RoundRect,0.250000X-0.262500X-0.450000X0.262500X-0.450000X0.262500X0.450000X-0.262500X0.450000X0*%
%ADD15R,2.500000X1.000000*%
%ADD16R,1.000000X1.800000*%
%ADD17RoundRect,0.150000X-0.587500X-0.150000X0.587500X-0.150000X0.587500X0.150000X-0.587500X0.150000X0*%
%ADD18R,4.572000X4.572000*%
%ADD19R,1.000000X3.200000*%
%ADD20RoundRect,0.150000X0.587500X0.150000X-0.587500X0.150000X-0.587500X-0.150000X0.587500X-0.150000X0*%
%ADD21RoundRect,0.250000X-0.650000X-1.550000X0.650000X-1.550000X0.650000X1.550000X-0.650000X1.550000X0*%
%ADD22O,1.800000X3.600000*%
%ADD23R,2.600000X2.600000*%
%ADD24C,2.600000*%
%ADD25RoundRect,0.250000X0.250000X0.475000X-0.250000X0.475000X-0.250000X-0.475000X0.250000X-0.475000X0*%
G04 APERTURE END LIST*
D10*
%TO.C,J6*%
X130810000Y-87630000D03*
D11*
X130810000Y-90170000D03*
%TD*%
D10*
%TO.C,J4*%
X165125000Y-73670000D03*
D11*
X165125000Y-76210000D03*
X165125000Y-78750000D03*
X165125000Y-81290000D03*
%TD*%
D12*
%TO.C,R3*%
X153353688Y-69867106D03*
X151528688Y-69867106D03*
%TD*%
D13*
%TO.C,REF\u002A\u002A*%
X162560000Y-63500000D03*
%TD*%
%TO.C,REF\u002A\u002A*%
X162560000Y-130505000D03*
%TD*%
D14*
%TO.C,R5*%
X151706595Y-73664066D03*
X153531595Y-73664066D03*
%TD*%
D15*
%TO.C,U1*%
X133577159Y-65888892D03*
X133577159Y-67888892D03*
X133577159Y-69888892D03*
X133577159Y-71888892D03*
X133577159Y-73888892D03*
X133577159Y-75888892D03*
X133577159Y-77888892D03*
X133577159Y-79888892D03*
D16*
X136177159Y-81388892D03*
X138177159Y-81388892D03*
X140177159Y-81388892D03*
X142177159Y-81388892D03*
X144177159Y-81388892D03*
X146177159Y-81388892D03*
D15*
X148777159Y-79888892D03*
X148777159Y-77888892D03*
X148777159Y-75888892D03*
X148777159Y-73888892D03*
X148777159Y-71888892D03*
X148777159Y-69888892D03*
X148777159Y-67888892D03*
X148777159Y-65888892D03*
%TD*%
D12*
%TO.C,R6*%
X130740884Y-69930929D03*
X128915884Y-69930929D03*
%TD*%
D13*
%TO.C,REF\u002A\u002A*%
X120650000Y-130505000D03*
%TD*%
D12*
%TO.C,R4*%
X153501331Y-78304980D03*
X151676331Y-78304980D03*
%TD*%
D13*
%TO.C,REF\u002A\u002A*%
X120650000Y-63500000D03*
%TD*%
D17*
%TO.C,Q2*%
X155900697Y-71506955D03*
X155900697Y-73406955D03*
X157775697Y-72456955D03*
%TD*%
D18*
%TO.C,U2*%
X121920000Y-101600000D03*
X121920000Y-117348000D03*
X159802372Y-101531072D03*
X159802372Y-117369206D03*
%TD*%
D10*
%TO.C,J3*%
X147320000Y-124155000D03*
D11*
X149860000Y-124155000D03*
X152400000Y-124155000D03*
%TD*%
D19*
%TO.C,SW1*%
X165290000Y-87630000D03*
X165290000Y-94430000D03*
X161290000Y-87630000D03*
X161290000Y-94430000D03*
%TD*%
D20*
%TO.C,Q1*%
X157853002Y-78420000D03*
X157853002Y-76520000D03*
X155978002Y-77470000D03*
%TD*%
D21*
%TO.C,J2*%
X146670000Y-131775000D03*
D22*
X150170000Y-131775000D03*
X153670000Y-131775000D03*
%TD*%
D14*
%TO.C,R8*%
X151684769Y-76173013D03*
X153509769Y-76173013D03*
%TD*%
D23*
%TO.C,J1*%
X129700000Y-130810000D03*
D24*
X134700000Y-130810000D03*
X139700000Y-130810000D03*
%TD*%
D23*
%TO.C,J5*%
X121615000Y-87670000D03*
D24*
X121615000Y-92670000D03*
%TD*%
D12*
%TO.C,R2*%
X130783272Y-77596706D03*
X128958272Y-77596706D03*
%TD*%
%TO.C,R7*%
X130906778Y-65980249D03*
X129081778Y-65980249D03*
%TD*%
D14*
%TO.C,R1*%
X129042031Y-75251434D03*
X130867031Y-75251434D03*
%TD*%
D25*
%TO.C,C1*%
X130868589Y-79742136D03*
X128968589Y-79742136D03*
%TD*%
M02*
